<svg xmlns="http://www.w3.org/2000/svg" width="24" height="24"><g fill="none" fill-rule="evenodd"><rect width="24" height="24" fill="#394791" rx="2"/><path fill="#FFF" d="M9.616 14.249l1.755 1.915-1.516 1.68a.472.472 0 01-.35.156h-3.16a.466.466 0 01-.296-.828l3.567-2.923zm.31-3.567l8.026 6.49a.466.466 0 01-.297.827h-3.16a.471.471 0 01-.349-.154L8.732 11.87l1.194-1.188zm4.15 0l1.193 1.188-.985 1.093-1.541-1.225 1.332-1.055zM4.685 6.66c.886-.88 2.431-.88 3.315 0l1.99 1.98a.464.464 0 010 .659l-2.652 2.639a.47.47 0 01-.662 0l-1.99-1.98a2.323 2.323 0 010-3.298zM16 6.66c.884-.88 2.43-.88 3.314 0a2.323 2.323 0 010 3.298l-1.989 1.98a.47.47 0 01-.662 0l-2.683-2.64a.464.464 0 010-.659z"/></g></svg>