<svg version="1.1" id="Слой_1" xmlns="http://www.w3.org/2000/svg" xmlns:xlink="http://www.w3.org/1999/xlink" x="0" y="0" viewBox="0 0 24 24" xml:space="preserve"><path d="M24 16.2H0v5.4C0 22.9 1.1 24 2.4 24h19.2c1.3 0 2.4-1.1 2.4-2.4v-5.4zM0 7.8h24V2.4C24 1.1 22.9 0 21.6 0H2.4C1.1 0 0 1.1 0 2.4v5.4z" fill-rule="evenodd" clip-rule="evenodd" fill="#c43131"/><path fill-rule="evenodd" clip-rule="evenodd" fill="#efefef" d="M0 7.6h24v9H0z"/><path d="M22.2.6c.7 0 1.2.5 1.2 1.2v20.4c0 .7-.5 1.2-1.2 1.2H1.8c-.7 0-1.2-.5-1.2-1.2V1.8c0-.7.5-1.2 1.2-1.2h20.4m0-.6H1.8C.8 0 0 .8 0 1.8v20.4c0 1 .8 1.8 1.8 1.8h20.4c1 0 1.8-.8 1.8-1.8V1.8c0-1-.8-1.8-1.8-1.8z" fill="#fff"/></svg>