<svg version="1.1" id="Слой_1" xmlns="http://www.w3.org/2000/svg" x="0" y="0" viewBox="0 0 24 24" xml:space="preserve"><style>.st1{fill:#f5f5f5}.st2{fill:#ff4b55}</style><path d="M21.6 24H2.4C1.1 24 0 22.9 0 21.6V2.4C0 1.1 1.1 0 2.4 0h19.2C22.9 0 24 1.1 24 2.4v19.2c0 1.3-1.1 2.4-2.4 2.4z" fill-rule="evenodd" clip-rule="evenodd" fill="#41479b"/><path class="st1" d="M12.8.6H12L7.9 3.3V.6H5.7v2.7L1.6.6H.8C.6.6.4.8.4 1v.4l3.5 2.3H.4v2.2h3.5L.4 8.2v.4c0 .2.2.4.4.4h.8l4.1-2.7V9h2.2V6.2L12 8.9h.8c.2 0 .4-.2.4-.4v-.3L9.7 5.9h3.5V3.7H9.7l3.5-2.3V1c0-.2-.2-.4-.4-.4z"/><path class="st2" d="M13.2 4.1H7.5V.6H6.2v3.5H.4v1.4h5.8v3.4h1.3V5.5h5.7z"/><path class="st2" d="M5.3 3.7L.7.7C.5.7.4.8.4 1l4 2.6.9.1zm3.5 0L13.2.8c-.1-.1-.2-.2-.4-.2h-.1L7.9 3.7h.9zM4.9 5.9L.5 8.8c.1.1.3.2.4.2H1l4.7-3.1h-.8zm8.3 2.7L9.1 5.9h-.8l4.7 3c.1-.1.2-.2.2-.3z"/><path class="st1" d="M4.3 15.8l.4 1.1 1.1-.4c.1-.1.2.1.1.1l-.7 1 1 .5c.1.1.1.2-.1.2H5l.2 1.1c0 .1-.1.2-.2.1l-.8-.7-.8.8c-.1.1-.2 0-.2-.1l.2-1.1-1.1-.1c-.1 0-.1-.1-.1-.2l1-.5-.7-1c-.1-.1 0-.2.1-.1l1.2.5.4-1.1c-.1-.2.1-.2.1-.1zM17.4 8l.2.5.5-.2c.1 0 .1.1.1.1l-.3.5.5.3c.1 0 0 .1 0 .1l-.5.1.1.5c0 .1-.1.1-.1.1l-.4-.4-.4.4c-.1 0-.1 0-.1-.1l.1-.5-.5-.1c-.1 0-.1-.1 0-.1l.4-.3-.5-.5c0-.1 0-.1.1-.1l.5.2.3-.5zm-3.6 4.1l.2.5.5-.2c.1 0 .1.1.1.1l-.3.5.5.3c.1 0 0 .1 0 .1l-.5.1.1.5c0 .1-.1.1-.1.1l-.4-.4-.4.4c-.1.1-.1 0-.1-.1l.1-.5-.5-.1c-.1 0-.1-.1 0-.1l.5-.3-.3-.5c0-.1 0-.1.1-.1l.5.2.2-.5h-.2zm7-1.7l.2.5.5-.2c.1 0 .1.1.1.1l-.3.5.5.3c.1 0 0 .1 0 .1l-.5.1.1.5c0 .1-.1.1-.1.1l-.4-.4-.5.3c-.1.1-.1 0-.1-.1l.1-.5-.5-.1c-.1 0-.1-.1 0-.1l.5-.3-.4-.5c0-.1 0-.1.1-.1l.5.2.2-.5v.1zm-3.4 7l.2.5.5-.2c.1 0 .1.1.1.1l-.3.5.5.3c.1 0 0 .1 0 .1l-.5.1.1.5c0 .1-.1.1-.1.1l-.4-.4-.4.4c-.1.1-.1 0-.1-.1l.1-.5-.5-.1c-.1 0-.1-.1 0-.1l.5-.3-.3-.5c0-.1 0-.1.1-.1l.5.2.2-.5c-.3-.1-.2-.1-.2 0zm1.3-4.3l-.1.4h-.4c-.1 0-.1.1-.1.1l.4.2-.1.4c0 .1.1.1.1.1l.4-.2.4.2c.1.1.1 0 .1-.1l-.4-.4.4-.2c.1-.1 0-.1-.1-.1h-.4l-.1-.5s-.1 0-.1.1z"/><path d="M22.2.6c.7 0 1.2.5 1.2 1.2v20.4c0 .7-.5 1.2-1.2 1.2H1.8c-.7 0-1.2-.5-1.2-1.2V1.8c0-.7.5-1.2 1.2-1.2h20.4m0-.6H1.8C.8 0 0 .8 0 1.8v20.4c0 1 .8 1.8 1.8 1.8h20.4c1 0 1.8-.8 1.8-1.8V1.8c0-1-.8-1.8-1.8-1.8z" fill="#fff"/></svg>