<svg xmlns="http://www.w3.org/2000/svg" width="24" height="24" viewBox="0 0 24 24"><g fill="#394791" fill-rule="evenodd"><rect width="23" height="23" x=".5" y=".5" fill-opacity=".091" stroke="#394791" rx="2"/><path d="M11.52 14.218a.415.415 0 01-.29-.118l-2.04-1.99a.416.416 0 01.577-.598l.003.003 1.75 1.707 3.384-3.301a.416.416 0 01.588.587l-.008.008-3.674 3.583a.414.414 0 01-.29.118zm5.085 2.853c1.121-.764 2.069-2.554 2.069-3.909V7.109l-4.696-2.304h-.003L12.337 4 6 7.1v6.062c0 .568.168 1.241.473 1.897.4.86.981 1.593 1.596 2.013l4.268 2.907 4.268-2.908z"/></g></svg>