<svg width="48" height="48" xmlns="http://www.w3.org/2000/svg"><path d="M24 48c13.255 0 24-10.745 24-24S37.255 0 24 0 0 10.745 0 24s10.745 24 24 24z" fill="#FFF"/><path d="M35.314 12.687l-.001-.001q-.07-.07-.151-.125-.082-.054-.173-.092-.091-.038-.187-.057-.097-.019-.195-.019-.099 0-.195.02-.097.018-.188.056-.09.038-.172.092-.082.055-.152.125l-9.9 9.9-9.9-9.9q-.07-.07-.152-.125-.081-.054-.172-.092-.091-.038-.188-.057-.096-.019-.195-.019-.098 0-.195.02-.096.018-.187.056-.09.038-.173.092-.081.055-.151.125l-.001.001q-.07.07-.125.151-.054.082-.092.173-.038.091-.057.187-.019.097-.019.195 0 .099.02.195.018.097.056.188.038.09.092.172.055.082.125.152l9.9 9.9-9.9 9.9q-.07.07-.125.152-.054.081-.092.172-.038.091-.057.188-.019.096-.019.195 0 .098.02.194.018.097.056.188.038.09.092.173.055.081.125.151l.001.001q.07.07.151.125.082.054.173.092.091.038.188.057.096.019.194.019.099 0 .195-.02.097-.018.188-.056.09-.038.172-.092.082-.055.152-.125l9.9-9.9 9.9 9.9q.07.07.152.125.081.054.172.092.091.038.188.057.096.019.195.019.098 0 .194-.02.097-.018.188-.056.09-.038.173-.092.081-.055.151-.125l.001-.001q.07-.07.125-.151.054-.082.092-.173.038-.091.057-.188.019-.096.019-.194 0-.099-.02-.195-.018-.097-.056-.188-.038-.09-.092-.172-.055-.082-.125-.152l-9.9-9.9 9.9-9.9q.07-.07.125-.152.054-.081.092-.172.038-.091.057-.188.019-.096.019-.195 0-.098-.02-.195-.018-.096-.056-.187-.038-.09-.092-.173-.055-.081-.125-.151z" fill="#394791" fill-rule="evenodd"/></svg>