<svg xmlns="http://www.w3.org/2000/svg" width="24" height="24" viewBox="0 0 24 24"><g fill="#394791" fill-rule="evenodd"><rect width="23" height="23" x=".5" y=".5" fill-opacity=".091" stroke="#394791" rx="2"/><path fill-rule="nonzero" d="M8.786 17.108l7.056-9.422-.91-.686-7.07 9.464.924.644zm-.028-5.082c.803 0 1.463-.231 1.981-.693.518-.462.777-1.066.777-1.813 0-.747-.259-1.349-.777-1.806-.518-.457-1.178-.686-1.981-.686-.803 0-1.463.229-1.981.686C6.259 8.171 6 8.774 6 9.52c0 .747.257 1.353.77 1.82.523.457 1.185.686 1.988.686zm0-1.302c-.355 0-.651-.11-.889-.329-.238-.22-.357-.511-.357-.875 0-.355.119-.642.357-.861.238-.22.534-.329.889-.329.364 0 .665.11.903.329.238.22.357.506.357.861 0 .364-.117.656-.35.875-.233.22-.537.329-.91.329zm6.188 6.37c.803 0 1.463-.231 1.981-.693.518-.462.777-1.066.777-1.813 0-.747-.259-1.349-.777-1.806-.518-.457-1.178-.686-1.981-.686-.803 0-1.463.229-1.981.686-.518.457-.777 1.06-.777 1.806 0 .747.257 1.353.77 1.82.523.457 1.185.686 1.988.686zm0-1.302c-.355 0-.651-.11-.889-.329-.238-.22-.357-.511-.357-.875 0-.355.119-.642.357-.861.238-.22.534-.329.889-.329.364 0 .665.11.903.329.238.22.357.506.357.861 0 .364-.117.656-.35.875-.233.22-.537.329-.91.329z"/></g></svg>