<svg width="24" height="24" viewBox="0 0 24 24" xmlns:xlink="http://www.w3.org/1999/xlink" xmlns="http://www.w3.org/2000/svg"><defs><clipPath id="clip_1"><use xlink:href="#path_1"/></clipPath><path d="M1.999 0h20.002q.098 0 .196.01t.194.028q.096.02.19.048.094.029.185.066.09.038.177.084.087.046.169.1.081.055.157.118.076.062.146.131.069.07.131.146.063.076.117.157.055.082.101.169.046.086.084.177.037.09.066.185.028.094.048.19.019.096.028.194.01.098.01.196v20.002q0 .098-.01.196t-.028.194q-.02.096-.048.19-.029.094-.066.185-.038.09-.084.177-.046.087-.1.169-.056.081-.118.157-.062.076-.131.146-.07.069-.146.131-.076.063-.157.117-.082.055-.169.101-.086.046-.177.084-.09.037-.185.066-.094.028-.19.048-.096.019-.194.028-.098.01-.196.01H1.999q-.098 0-.196-.01t-.194-.028q-.096-.02-.19-.048-.094-.029-.185-.066-.09-.038-.177-.084-.087-.046-.169-.1-.081-.056-.157-.118-.076-.062-.146-.131-.069-.07-.131-.146-.063-.076-.117-.157-.055-.082-.101-.169-.046-.086-.084-.177-.037-.09-.066-.185-.028-.094-.048-.19-.019-.096-.028-.194Q0 22.099 0 22V1.999q0-.098.01-.196t.028-.194q.02-.096.048-.19.029-.094.066-.185.038-.09.084-.177.046-.087.1-.169Q.392.807.455.731.516.655.585.585.655.516.731.454.807.39.888.337.97.282 1.057.236q.086-.046.177-.084.09-.037.185-.066.094-.028.19-.048.096-.019.194-.028Q1.901 0 2 0z" id="path_1"/></defs><g id="tools"><g id="Rectangle"><use fill="#394791" fill-opacity=".09" xlink:href="#path_1"/><g clip-path="url(#clip_1)"><use xlink:href="#path_1" fill="none" stroke="#394791" stroke-width="2"/></g></g><path d="M13.275.225c-.094-.086-.21-.15-.317-.225h-.164c-.041.019-.084.035-.123.057-.733.433-1.468.861-2.196 1.301-.226.137-.251.41-.08.61.056.064.117.122.187.194L7.85 4.882l1.146 1.137 2.743-2.732c.08.082.142.148.207.211.25.242.535.209.717-.089.415-.677.829-1.356 1.242-2.036.147-.242.126-.406-.075-.605-.183-.183-.364-.368-.555-.543zM3.727.16C3.53.096 3.321.07 3.117.025H2.68c-.147.028-.293.057-.44.082-.184.03-.326.111-.385.3-.06.19.024.333.154.462.343.34.686.678 1.023 1.023.375.383.342.939-.067 1.251-.284.217-.718.226-.987-.013-.296-.262-.569-.55-.851-.827-.107-.105-.21-.215-.32-.317-.263-.246-.622-.141-.704.208-.045.194-.07.392-.103.588v.245c.018.126.031.252.056.376.217 1.06.834 1.79 1.842 2.175.58.222 1.18.193 1.775.05.126-.03.204-.006.296.086 1.44 1.445 2.882 2.887 4.33 4.324.097.097.119.18.087.307-.113.45-.15.908-.057 1.365a2.842 2.842 0 003.5 2.194c.348-.088.453-.446.206-.708-.106-.113-.219-.219-.328-.329-.275-.279-.56-.548-.82-.84-.24-.272-.23-.7-.01-.985.316-.404.878-.434 1.26-.06.355.347.7.703 1.056 1.05.263.256.63.147.715-.207.099-.412.128-.828.034-1.243-.246-1.098-.9-1.835-1.976-2.18-.539-.173-1.088-.133-1.633-.01a4.348 4.348 0 00-.017.005c-.083.02-.157.036-.24-.047a1474.64 1474.64 0 00-4.405-4.403c-.069-.068-.08-.127-.054-.215.153-.531.175-1.07.018-1.6C5.344 1.144 4.709.478 3.727.158zM.324 11.389c-.183.23-.261.504-.324.783v.382c.01.034.02.069.027.104.08.407.279.746.61.998.676.512 1.563.448 2.178-.164 1.27-1.264 2.535-2.534 3.802-3.801a.326.326 0 00.041-.048L4.353 7.336c-.007.006-.024.02-.04.036l-3.81 3.813a2.488 2.488 0 00-.179.205zm2.139.806c-.096.096-.197.177-.285.173-.221-.001-.345-.075-.42-.22a.386.386 0 01.03-.423.81.81 0 01.09-.102c.792-.792 1.585-1.584 2.376-2.377.126-.127.265-.205.45-.152.27.077.384.391.223.622a.847.847 0 01-.098.112l-2.366 2.367z" transform="translate(5 5)" id="Combined-Shape" fill="#394791" fill-rule="evenodd" stroke="none"/></g></svg>