<svg width="24" height="24" xmlns="http://www.w3.org/2000/svg"><g fill="none" fill-rule="evenodd"><rect fill="#394791" width="24" height="24" rx="2"/><path d="M3 3h18v18H3z"/><path d="M8.117 5.024c.204.044.413.07.61.135.982.32 1.617.986 1.908 1.971.157.532.135 1.07-.018 1.601-.025.088-.015.147.054.215 1.47 1.465 2.94 2.932 4.405 4.403.089.089.166.063.257.043.545-.124 1.094-.164 1.633.009 1.076.345 1.73 1.082 1.976 2.18.094.415.065.831-.034 1.243-.085.354-.452.463-.716.206-.355-.346-.7-.702-1.055-1.05-.382-.373-.944-.343-1.26.061-.22.285-.23.713.01.985.26.292.546.561.82.84.109.11.222.216.328.33.247.26.142.619-.206.707a2.842 2.842 0 01-3.5-2.194c-.092-.457-.056-.915.057-1.365.032-.128.01-.21-.088-.307a1260.87 1260.87 0 01-4.33-4.324c-.091-.092-.17-.117-.295-.086-.595.143-1.195.172-1.775-.05-1.008-.385-1.625-1.116-1.842-2.175-.025-.124-.038-.25-.056-.376v-.245c.034-.196.058-.394.103-.588.082-.35.441-.454.704-.208.11.102.213.212.32.317.282.277.555.565.85.827.27.239.704.23.988.013.41-.312.442-.868.067-1.251-.337-.345-.68-.683-1.023-1.023-.13-.13-.214-.272-.154-.462.059-.189.201-.27.385-.3.147-.025.293-.054.44-.082h.437z" fill="#FFF"/><path d="M7.178 17.368c.088.004.19-.077.285-.173l2.366-2.367a.846.846 0 00.098-.112.404.404 0 00-.223-.622c-.185-.053-.324.025-.45.152l-2.375 2.377a.805.805 0 00-.09.102.386.386 0 00-.031.423c.075.145.199.219.42.22zM5 17.172c.063-.28.14-.553.324-.782.057-.071.114-.142.178-.206l3.811-3.812c.016-.016.033-.03.04-.036l2.305 2.307c-.002.002-.02.027-.04.048-1.268 1.267-2.533 2.537-3.803 3.801-.615.612-1.502.676-2.178.163a1.597 1.597 0 01-.61-.997c-.007-.035-.018-.07-.027-.104v-.382zM17.958 5c.107.074.223.139.317.225.191.175.372.36.555.543.2.2.221.363.074.605-.412.68-.826 1.359-1.24 2.036-.183.298-.467.331-.718.09-.065-.064-.126-.13-.207-.212l-2.743 2.732-1.146-1.137 2.732-2.72c-.07-.072-.131-.13-.186-.194-.172-.2-.147-.473.078-.61.729-.44 1.464-.868 2.197-1.3.039-.023.082-.039.123-.058h.164z" fill="#FFF"/></g></svg>