<svg width="24" height="24" viewBox="0 0 24 24" xmlns:xlink="http://www.w3.org/1999/xlink" xmlns="http://www.w3.org/2000/svg"><defs><clipPath id="clip_1"><use xlink:href="#path_1"/></clipPath><path d="M1.999 0h20.002q.098 0 .196.01t.194.028q.096.02.19.048.094.029.185.066.09.038.177.084.087.046.169.1.081.055.157.118.076.062.146.131.069.07.131.146.063.076.117.157.055.082.101.169.046.086.084.177.037.09.066.185.028.094.048.19.019.096.028.194.01.098.01.196v20.002q0 .098-.01.196t-.028.194q-.02.096-.048.19-.029.094-.066.185-.038.09-.084.177-.046.087-.1.169-.056.081-.118.157-.062.076-.131.146-.07.069-.146.131-.076.063-.157.117-.082.055-.169.101-.086.046-.177.084-.09.037-.185.066-.094.028-.19.048-.096.019-.194.028-.098.01-.196.01H1.999q-.098 0-.196-.01t-.194-.028q-.096-.02-.19-.048-.094-.029-.185-.066-.09-.038-.177-.084-.087-.046-.169-.1-.081-.056-.157-.118-.076-.062-.146-.131-.069-.07-.131-.146-.063-.076-.117-.157-.055-.082-.101-.169-.046-.086-.084-.177-.037-.09-.066-.185-.028-.094-.048-.19-.019-.096-.028-.194Q0 22.099 0 22V1.999q0-.098.01-.196t.028-.194q.02-.096.048-.19.029-.094.066-.185.038-.09.084-.177.046-.087.1-.169Q.392.807.455.731.516.655.585.585.655.516.731.454.807.39.888.337.97.282 1.057.236q.086-.046.177-.084.09-.037.185-.066.094-.028.19-.048.096-.019.194-.028Q1.901 0 2 0z" id="path_1"/></defs><g id="truck"><g id="Rectangle"><use fill="#394791" fill-opacity=".09" xlink:href="#path_1"/><g clip-path="url(#clip_1)"><use xlink:href="#path_1" fill="none" stroke="#394791" stroke-width="2"/></g></g><path d="M.632 8.722V.797c0-.44.345-.797.77-.797h7.655c.425 0 .77.357.77.797v7.925a.261.261 0 01-.257.266H.888a.261.261 0 01-.256-.266zM18 10.05v.806a.261.261 0 01-.257.266h-2.08c-.148-1.055-1.026-1.87-2.087-1.87-1.06 0-1.938.815-2.087 1.87H7.302a2.203 2.203 0 00-.71-1.338h3.97V2.181c0-.294.23-.532.513-.532H13.5c.683 0 1.321.351 1.703.937l1.563 2.396c.23.351.352.765.352 1.19v3.611h.625c.142 0 .257.12.257.266zm-3.856-6.844l1.25 1.838c.12.176-.002.419-.21.419h-3.2a.261.261 0 01-.256-.266V3.358c0-.147.115-.266.256-.266h1.95c.084 0 .162.042.21.113zM.257 9.783h3.581a2.203 2.203 0 00-.71 1.338H.256A.261.261 0 010 10.855v-.806c0-.147.115-.266.257-.266zm4.958 3.308c.882 0 1.598-.74 1.598-1.654 0-.913-.716-1.654-1.598-1.654-.883 0-1.599.74-1.599 1.654 0 .914.716 1.654 1.599 1.654zm9.96-1.654c0 .914-.716 1.654-1.599 1.654-.882 0-1.598-.74-1.598-1.654 0-.913.716-1.654 1.598-1.654.883 0 1.599.74 1.599 1.654zm-9.161 0a.814.814 0 00-.8-.827c-.44 0-.799.37-.799.827 0 .457.358.827.8.827.44 0 .799-.37.799-.827zm7.562-.827c.442 0 .8.37.8.827a.814.814 0 01-.8.827c-.44 0-.799-.37-.799-.827 0-.457.358-.827.8-.827z" transform="translate(3 5)" id="Shape" fill="#394791" fill-rule="evenodd" stroke="none"/></g></svg>