<svg xmlns="http://www.w3.org/2000/svg" width="39" height="39" viewBox="0 0 39 39">
  <g fill="none" fill-rule="evenodd" transform="translate(-2 -2)">
    <rect width="30" height="30" x="6.627" y="6.627" stroke="#394791" stroke-width="2" rx="10" transform="rotate(-23 21.627 21.627)"/>
    <path fill="#394791" fill-rule="nonzero" d="M19.6156475,23.2489463 L21.3709933,25.1642784 L19.8547134,26.8445256 C19.765299,26.9428678 19.6391776,27 19.5055266,27 L19.5055266,27 L16.3449631,27 C15.9044795,27 15.7068267,26.4492835 16.049425,26.1720521 L16.049425,26.1720521 L19.6156475,23.2489463 Z M19.9258684,19.6824951 L27.9515162,26.1712091 C28.2931733,26.4493772 28.0964617,26.9991571 27.6550369,26.9991571 L27.6550369,26.9991571 L24.4954146,26.9991571 C24.3617636,26.9991571 24.2356422,26.9429615 24.1462278,26.8446193 L24.1462278,26.8446193 L18.7324215,20.8700946 L19.9258684,19.6824951 Z M24.0754493,19.6828697 L25.2688961,20.8704692 L24.2843966,21.9634729 L22.7427042,20.7384097 L24.0754493,19.6828697 Z M14.6868437,15.6602978 C15.5715756,14.7799007 17.1170329,14.7799007 18.0008235,15.6602978 L18.0008235,15.6602978 L19.9895879,17.6393182 C20.1731227,17.8219537 20.1731227,18.1169804 19.9895879,18.2986794 L19.9895879,18.2986794 L17.3382158,20.9379976 C17.1556222,21.1196965 16.8582017,21.1196965 16.6756081,20.9379976 L16.6756081,20.9379976 L14.6868437,18.9580406 C13.7710521,18.0476726 13.7710521,16.5716025 14.6868437,15.6602978 Z M25.9991764,15.6602978 C26.8829671,14.7799007 28.4284244,14.7799007 29.3131563,15.6602978 C30.2289479,16.5716025 30.2289479,18.0476726 29.3131563,18.9580406 L29.3131563,18.9580406 L27.3243919,20.9379976 C27.1417983,21.1196965 26.8443778,21.1196965 26.6617842,20.9379976 L26.6617842,20.9379976 L23.9793523,18.2986794 C23.7958175,18.1169804 23.7958175,17.8219537 23.9793523,17.6393182 L23.9793523,17.6393182 L25.9991764,15.6602978 Z"/>
  </g>
</svg>
