<?xml version="1.0" encoding="utf-8"?>
<!-- Generator: Adobe Illustrator 24.0.1, SVG Export Plug-In . SVG Version: 6.00 Build 0)  -->
<svg version="1.1" id="Слой_1" xmlns="http://www.w3.org/2000/svg" xmlns:xlink="http://www.w3.org/1999/xlink" x="0px" y="0px"
	 viewBox="0 0 39 39"  style="enable-background:new 0 0 39 39;" xml:space="preserve">
<style type="text/css">
	.st0{fill:none;stroke:#73C9FF;stroke-width:2;}
	.st1{fill-rule:evenodd;clip-rule:evenodd;fill:#73C9FF;}
</style>
<g transform="translate(1 1)">
	<path class="st0" d="M8,6.6l9.2-3.9C22.3,0.6,28.2,3,30.4,8l3.9,9.2c2.2,5.1-0.2,11-5.3,13.1l-9.2,3.9C14.7,36.4,8.8,34,6.6,29
		l-3.9-9.2C0.6,14.7,3,8.8,8,6.6z"/>
	<path class="st1" d="M18.9,10.9l-2.4,4.7l-5.4,0.8L15,20l-0.9,5.2l4.8-2.5l4.8,2.5L22.7,20l3.9-3.7l-5.4-0.8L18.9,10.9z M13.4,12.7
		l1.4,1.8l1-0.8l-1.4-1.8L13.4,12.7z M22,13.7l1,0.8l1.4-1.8l-1-0.8L22,13.7z M10.9,20.8l0.4,1.2l2.2-0.8L13.1,20L10.9,20.8z
		 M24.2,21.2l2.2,0.8l0.4-1.2L24.6,20L24.2,21.2z M18.2,26.9h1.3v-2.4h-1.3V26.9z"/>
</g>
</svg>
