<svg xmlns="http://www.w3.org/2000/svg" viewBox="0 0 43 44"><defs><style>.cls-1{fill:#294d99;}</style></defs><title>cash</title><g id="Слой_2" data-name="Слой 2"><g id="vzug_logo" data-name="vzug logo"><path class="cls-1" d="M42.28,7.1H38.7V4.26A4.28,4.28,0,0,0,34.4,0H32.25a.71.71,0,0,0-.72.71V7.1H.72A.71.71,0,0,0,0,7.81V43.29A.71.71,0,0,0,.72,44H42.28a.71.71,0,0,0,.72-.71V7.81A.71.71,0,0,0,42.28,7.1Zm-.71,1.42V28.39h-4a4.21,4.21,0,0,0,1.1-2.84v-17Zm0,23.42H25.08V29.81H41.57Zm-9.32-9.23H34.4a2.89,2.89,0,0,1,2,.84,3.64,3.64,0,0,1-2.76,1.29H25.62a8,8,0,0,0,3.05-6.39,8,8,0,0,0-3.05-6.39h5.91V22A.71.71,0,0,0,32.25,22.71Zm-7.17-9.23a6.59,6.59,0,0,1,2.15,5,6.68,6.68,0,0,1-2.15,5Zm0,12.78h8.6a5.1,5.1,0,0,0,3.49-1.41,3.28,3.28,0,0,1,.1.7,2.86,2.86,0,0,1-2.87,2.84H25.08Zm0,10.64H41.57V39H25.08Zm0-1.42V33.35H41.57v2.13ZM33,1.42H34.4a2.86,2.86,0,0,1,2.87,2.84V22.38l0,0a4.19,4.19,0,0,0-.54-.4l-.09-.05a3.45,3.45,0,0,0-.61-.3l-.09,0a4.85,4.85,0,0,0-.68-.19h-.06a4.88,4.88,0,0,0-.76-.07H33Zm-1.44,9.23H25.08V8.52h6.45ZM23.65,8.52V28.39h-4.3V8.52Zm-5.73,27H1.43V33.35H17.92ZM1.43,36.9H17.92V39H1.43Zm16.49-5H1.43V29.81H17.92Zm0-18.46v9.94a6.68,6.68,0,0,1-2.15-5A6.59,6.59,0,0,1,17.92,13.48Zm-3.59,5a8,8,0,0,0,3,6.39H7.81A3.59,3.59,0,0,0,5,22.07V14.83a3.56,3.56,0,0,0,2.79-2.77h9.57A8,8,0,0,0,14.33,18.45ZM1.43,8.52H17.92v2.13H7.17a.71.71,0,0,0-.72.7A2.14,2.14,0,0,1,4.3,13.48a.71.71,0,0,0-.72.71v8.52a.71.71,0,0,0,.72.71,2.14,2.14,0,0,1,2.15,2.13.71.71,0,0,0,.72.71H17.92v2.13H1.43Zm0,31.93H17.92v2.13H1.43Zm17.92,2.13V29.81h4.3V42.58Zm5.73,0V40.45H41.57v2.13Zm-15.76-27a2.84,2.84,0,1,1-2.87,2.84A2.85,2.85,0,0,1,9.32,15.61Zm0,1.42a1.42,1.42,0,1,1-1.44,1.42A1.43,1.43,0,0,1,9.32,17Z"/></g></g></svg>