<svg xmlns="http://www.w3.org/2000/svg" width="20" height="20" viewBox="0 0 20 20"><g><g opacity=".48"><path fill="#666" d="M10.357 15.352a18.15 18.15 0 0 1 3.714.437c-.843 2.357-2.184 3.954-3.714 4.17zm2.444 4.233c-.075.022-.15.046-.226.067l-.087.021a8.87 8.87 0 0 0 2.284-3.71c.849.225 1.67.54 2.45.943l-.032.034c-.056.058-.115.114-.172.171-.067.066-.133.132-.201.195-.06.056-.12.109-.182.163-.069.061-.137.123-.209.182-.062.052-.126.103-.19.154-.071.057-.145.114-.216.169a18.33 18.33 0 0 1-.421.3 8.456 8.456 0 0 1-.436.276 8.828 8.828 0 0 1-.45.255 11.99 11.99 0 0 1-.46.232l-.22.1-.254.107a9.13 9.13 0 0 1-.485.183 8.8 8.8 0 0 1-.494.158m7.2-9.248a9.986 9.986 0 0 1-2.295 6.025 12.434 12.434 0 0 0-2.712-1.08c.462-1.608.705-3.271.721-4.945H20m-9.643-5.014a18.828 18.828 0 0 0 3.939-.47 17.88 17.88 0 0 1 .703 4.77h-4.642zm0-5.323c1.53.217 2.87 1.814 3.714 4.17-1.22.274-2.464.42-3.714.438V0m0 10.337H15a17.882 17.882 0 0 1-.703 4.77 18.837 18.837 0 0 0-3.939-.47zm7.348-6.74A9.99 9.99 0 0 1 20 9.623h-4.286a18.537 18.537 0 0 0-.721-4.945 12.428 12.428 0 0 0 2.712-1.08m-.493-.541c-.778.403-1.599.72-2.446.943a8.874 8.874 0 0 0-2.28-3.71l.087.022c.075.02.15.042.224.064a8.649 8.649 0 0 1 .976.34c.085.037.17.07.255.108.074.032.146.066.218.1.084.039.167.079.25.12.07.036.142.075.213.11a9.82 9.82 0 0 1 1.109.692 10.04 10.04 0 0 1 .413.314c.063.05.126.1.188.152l.21.183.18.162c.068.064.134.13.2.195.058.057.116.113.173.171l.03.034M0 9.622a9.987 9.987 0 0 1 2.295-6.024c.858.465 1.769.828 2.712 1.08a18.542 18.542 0 0 0-.721 4.944H0M9.643 19.96c-1.53-.217-2.87-1.814-3.714-4.171 1.22-.273 2.464-.42 3.714-.437v4.608m0-5.323a18.808 18.808 0 0 0-3.939.47 17.876 17.876 0 0 1-.703-4.77h4.642zm0-10.029a18.143 18.143 0 0 1-3.714-.437C6.772 1.814 8.113.217 9.643 0zm0 5.014H5c.018-1.614.254-3.218.703-4.769 1.293.295 2.613.453 3.939.47zM7.51.29a8.866 8.866 0 0 0-2.283 3.708 12 12 0 0 1-2.45-.943l.032-.034c.056-.058.115-.114.173-.171.066-.066.132-.131.2-.195.06-.056.121-.109.182-.163.07-.062.137-.123.209-.182.062-.052.126-.103.19-.153.073-.057.143-.115.216-.17a17.952 17.952 0 0 1 .421-.3c.068-.045.136-.09.205-.133.076-.048.153-.097.23-.143a10.244 10.244 0 0 1 1.13-.587L6.22.716l.223-.089c.086-.033.174-.063.261-.094L6.93.456c.09-.029.179-.055.268-.081L7.424.31l.087-.02m-4.53 16.819c-.058-.057-.116-.113-.17-.171l-.03-.033c.779-.403 1.6-.72 2.449-.943a8.871 8.871 0 0 0 2.284 3.71l-.087-.022c-.075-.02-.15-.043-.224-.064a8.124 8.124 0 0 1-.27-.082c-.076-.024-.15-.05-.225-.077a8.132 8.132 0 0 1-.484-.182c-.085-.036-.17-.07-.255-.108a9.867 9.867 0 0 1-.468-.22l-.215-.11a9.343 9.343 0 0 1-.682-.4 9.536 9.536 0 0 1-.43-.292l-.194-.143a5.864 5.864 0 0 1-.219-.171c-.063-.05-.126-.1-.188-.152-.071-.06-.14-.121-.21-.183-.06-.055-.122-.107-.181-.162-.068-.064-.135-.13-.201-.195m-.686-.747A9.988 9.988 0 0 1 0 10.337h4.286c.016 1.674.259 3.337.721 4.945-.943.252-1.854.615-2.712 1.08"/></g></g></svg>