<svg xmlns="http://www.w3.org/2000/svg" xmlns:xlink="http://www.w3.org/1999/xlink" width="96" height="32" viewBox="0 0 96 32"><defs><path id="tvf2a" d="M653 259a2 2 0 0 1 2-2h28a2 2 0 0 1 2 2v28a2 2 0 0 1-2 2h-28a2 2 0 0 1-2-2z"/><path id="tvf2b" d="M678 282h-6l2.3-2.3-2.89-2.87 1.42-1.42 2.87 2.89 2.3-2.3zm-18 0v-6l2.3 2.3 2.87-2.89 1.42 1.42-2.89 2.87 2.3 2.3zm0-18h6l-2.3 2.3 2.89 2.87-1.42 1.42-2.87-2.89-2.3 2.3zm18 0v6l-2.3-2.3-2.87 2.89-1.42-1.42 2.89-2.87-2.3-2.3z"/></defs><g><g transform="translate(-589 -257)"/><g opacity=".2" transform="translate(-589 -257)"><use xlink:href="#tvf2a"/></g><g transform="translate(-589 -257)"><g><use fill="#fff" xlink:href="#tvf2b"/></g></g></g></svg>