<svg width="20" height="20" xmlns="http://www.w3.org/2000/svg"><g fill="none" fill-rule="evenodd"><path d="M10.083 15.458l-.083.083-.083-.083C5.95 11.867 3.333 9.492 3.333 7.083c0-1.667 1.25-2.917 2.917-2.917 1.283 0 2.533.825 2.976 1.967h1.558c.432-1.141 1.682-1.966 2.966-1.966 1.666 0 2.916 1.25 2.916 2.916 0 2.409-2.616 4.784-6.583 8.375M13.75 2.5A4.99 4.99 0 0 0 10 4.242 4.988 4.988 0 0 0 6.25 2.5c-2.567 0-4.584 2.016-4.584 4.583 0 3.15 2.834 5.717 7.125 9.617L10 17.79l1.209-1.1c4.29-3.891 7.124-6.458 7.124-9.608 0-2.567-2.017-4.583-4.583-4.583" fill="#04B"/></g></svg>
