<svg xmlns="http://www.w3.org/2000/svg" width="48" height="48" viewBox="0 0 48 48">
  <g fill="none" fill-rule="evenodd">
    <polygon fill="#AF235F" points="0 48 48 48 48 0 0 0"/>
    <path fill="#FFF" d="M32.3733943 21.7552914L15.7585371 21.7552914C15.4143086 21.7552914 15.1345371 21.4768914 15.1345371 21.1312914 15.1345371 20.7898057 15.4129371 20.5086629 15.7585371 20.5086629L32.3720229 20.5086629C32.7176229 20.5086629 32.9946514 20.7898057 32.9946514 21.1312914 32.9946514 21.4768914 32.7189943 21.7552914 32.3733943 21.7552914M32.3733943 14.1386514L15.7585371 14.1386514C15.4143086 14.1386514 15.1345371 13.8616229 15.1345371 13.5160229 15.1345371 13.1745371 15.4129371 12.8947657 15.7585371 12.8947657L32.3720229 12.8947657C32.7176229 12.8947657 32.9946514 13.1745371 32.9946514 13.5160229 32.9946514 13.8616229 32.7189943 14.1386514 32.3733943 14.1386514"/>
    <path fill="#FF87BA" d="M31.0581943 26.59808C29.9487086 26.59808 29.1080229 25.90688 28.4360229 25.2335086 27.8792229 24.6808229 27.2017371 24.1130514 26.3967086 24.1130514 25.5903086 24.1130514 24.9141943 24.6808229 24.3587657 25.2335086 23.6840229 25.90688 22.84608 26.59808 21.7338514 26.59808 20.6243657 26.59808 19.7850514 25.90688 19.1103086 25.2335086 18.5576229 24.6808229 17.8801371 24.1130514 17.0737371 24.1130514 16.2659657 24.1130514 15.5898514 24.6808229 15.0371657 25.2335086 14.8753371 25.39808 14.6120229 25.39808 14.4488229 25.2335086 14.2869943 25.0744229 14.2869943 24.8097371 14.4488229 24.6465371 15.1235657 23.9731657 15.96288 23.2819657 17.0737371 23.2819657 18.1832229 23.2819657 19.0211657 23.9731657 19.6986514 24.6465371 20.2527086 25.2019657 20.9274514 25.7697371 21.7338514 25.7697371 22.5402514 25.7697371 23.2163657 25.2019657 23.7717943 24.6465371 24.4465371 23.9731657 25.2858514 23.2819657 26.3967086 23.2819657 27.5061943 23.2819657 28.3455086 23.9731657 29.0216229 24.6465371 29.57568 25.2019657 30.2504229 25.7697371 31.0581943 25.7697371 31.8673371 25.7697371 32.5407086 25.2019657 33.0961371 24.6465371 33.2579657 24.48608 33.52128 24.48608 33.6803657 24.6465371 33.8435657 24.8097371 33.8435657 25.0744229 33.6803657 25.2335086 33.0083657 25.90688 32.1704229 26.59808 31.0581943 26.59808M31.0581943 18.9841829C29.95008 18.9841829 29.1080229 18.2929829 28.4360229 17.61824 27.8792229 17.0628114 27.2017371 16.4991543 26.3967086 16.4991543 25.5903086 16.4991543 24.9141943 17.0628114 24.3587657 17.61824 23.6840229 18.2929829 22.84608 18.9841829 21.7338514 18.9841829 20.6243657 18.9841829 19.7850514 18.2929829 19.1103086 17.61824 18.5576229 17.0628114 17.8801371 16.4991543 17.0737371 16.4991543 16.2659657 16.4991543 15.5898514 17.0628114 15.0371657 17.61824 14.8753371 17.7786971 14.6120229 17.7786971 14.4488229 17.61824 14.2869943 17.4577829 14.2869943 17.1930971 14.4488229 17.0298971 15.1235657 16.3578971 15.96288 15.6680686 17.0737371 15.6680686 18.1832229 15.6680686 19.0211657 16.3551543 19.6986514 17.0298971 20.2527086 17.5866971 20.9274514 18.15584 21.7338514 18.15584 22.5402514 18.15584 23.2163657 17.5866971 23.7717943 17.0298971 24.4465371 16.3578971 25.2858514 15.6680686 26.3967086 15.6680686 27.5061943 15.6680686 28.3455086 16.3551543 29.0216229 17.0298971 29.57568 17.5866971 30.2504229 18.15584 31.0581943 18.15584 31.8673371 18.15584 32.5407086 17.5866971 33.0961371 17.0298971 33.2579657 16.86944 33.52128 16.86944 33.6803657 17.0298971 33.8435657 17.1930971 33.8435657 17.4577829 33.6803657 17.61824 33.0083657 18.2929829 32.1690514 18.9841829 31.0581943 18.9841829M31.0581943 11.3664457C29.95008 11.3664457 29.1080229 10.6779886 28.4360229 10.0005029 27.8792229 9.44781714 27.2017371 8.88141714 26.3967086 8.88141714 25.5903086 8.88141714 24.9141943 9.44918857 24.3587657 10.0005029 23.6840229 10.6779886 22.84608 11.3664457 21.7338514 11.3664457 20.6243657 11.3664457 19.7850514 10.6779886 19.1103086 10.0005029 18.5576229 9.44781714 17.8801371 8.88141714 17.0737371 8.88141714 16.2659657 8.88141714 15.5898514 9.44918857 15.0371657 10.0005029 14.8753371 10.1637029 14.6120229 10.1637029 14.4488229 10.0005029 14.2869943 9.84004571 14.2869943 9.57810286 14.4488229 9.41490286 15.1235657 8.74016 15.96288 8.04896 17.0737371 8.04896 18.1832229 8.04896 19.0211657 8.74016 19.6986514 9.41490286 20.2527086 9.97170286 20.9274514 10.5394743 21.7338514 10.5394743 22.5402514 10.5394743 23.2163657 9.97170286 23.7717943 9.41490286 24.4465371 8.74016 25.2858514 8.04896 26.3967086 8.04896 27.5061943 8.04896 28.3455086 8.74016 29.0216229 9.41490286 29.57568 9.97170286 30.2504229 10.5394743 31.0581943 10.5394743 31.8673371 10.5394743 32.5407086 9.97170286 33.0961371 9.41490286 33.2579657 9.25170286 33.52128 9.25170286 33.6803657 9.41490286 33.8435657 9.57810286 33.8435657 9.84004571 33.6803657 10.0005029 33.0083657 10.6779886 32.1704229 11.3664457 31.0581943 11.3664457"/>
    <path fill="#FFF" d="M37.1211429 6.00525714C37.6752 6.00525714 38.1264 6.45508571 38.1264 7.00777143L38.1264 27.6505143C38.1264 28.2045714 37.6752 28.6557714 37.1211429 28.6557714L11.0118857 28.6557714C10.4550857 28.6557714 10.0052571 28.2045714 10.0052571 27.6505143L10.0052571 7.00777143C10.0052571 6.45508571 10.4550857 6.00251429 11.0118857 6.00251429L37.1211429 6.00251429M37.1211429 5L11.0118857 5C9.9024 5 9 5.90102857 9 7.00777143L9 27.6505143C9 28.7586286 9.89965714 29.6610286 11.0118857 29.6610286L37.1211429 29.6610286C38.2306286 29.6610286 39.1316571 28.7586286 39.1316571 27.6505143L39.1316571 7.00777143C39.1316571 5.89828571 38.232 5 37.1211429 5M19.7872457 39.7182171L20.3330743 41.5792457 20.8734171 39.7182171 21.8183314 39.7182171 20.7966171 42.56256C20.5950171 43.1317029 20.3879314 43.50336 19.6885029 43.50336L19.0823314 43.50336 19.0823314 42.75456C19.18656 42.75456 19.2839314 42.7600457 19.3826743 42.7600457 19.6994743 42.7600457 19.7323886 42.6064457 19.79136 42.3499886L18.8039314 39.7182171 19.7872457 39.7182171zM18.4058057 39.7183543L18.4058057 41.8317257 18.76512 41.8317257 18.76512 43.3114971 17.89152 43.3114971 17.89152 42.53664 16.2046629 42.53664 16.2046629 43.3114971 15.3296914 43.3114971 15.3296914 41.8317257 15.63552 41.8317257C15.78912 41.5135543 15.9632914 40.8429257 15.9632914 40.25184L15.9632914 39.7183543 18.4058057 39.7183543zM36.3328457 39.6363429C37.1858743 39.6363429 37.7646171 40.2411429 37.7646171 41.1216 37.7646171 42.0130286 37.1858743 42.6233143 36.3287314 42.6233143 35.5525029 42.6233143 34.9957029 42.1309714 34.89696 41.3780571L34.4279314 41.3780571 34.4279314 42.5355429 33.4994743 42.5355429 33.4994743 39.7186286 34.4279314 39.7186286 34.4279314 40.7389714 34.9189029 40.7389714C35.0711314 40.0724571 35.60736 39.6363429 36.3328457 39.6363429zM10.6868571 39.6363429C11.5604571 39.6363429 12.1611429 40.2411429 12.1611429 41.1216 12.1611429 42.0130286 11.5604571 42.6233143 10.6758857 42.6233143 9.79131429 42.6233143 9.18514286 42.0171429 9.18514286 41.1270857 9.18514286 40.2466286 9.7968 39.6363429 10.6868571 39.6363429zM13.8063086 39.6362057C14.5537371 39.6362057 15.0680229 39.8652343 15.0680229 40.4330057 15.0680229 40.6784914 14.8705371 40.9308343 14.6689371 41.0117486 14.89248 41.0666057 15.16128 41.2846629 15.16128 41.6741486 15.16128 42.3173486 14.5592229 42.6176914 13.7624229 42.6176914 13.0849371 42.6176914 12.4293943 42.3941486 12.3909943 41.6138057L13.27008 41.6138057C13.2920229 41.9182629 13.4895086 42.0128914 13.7843657 42.0128914 14.10528 42.0128914 14.2095086 41.8263771 14.2095086 41.6782629 14.2095086 41.5082057 14.1011657 41.3504914 13.7939657 41.3504914L13.4675657 41.3504914 13.4675657 40.8266057 13.6965943 40.8266057C14.01888 40.8266057 14.1615086 40.69632 14.1615086 40.4988343 14.1615086 40.4000914 14.0627657 40.2149486 13.7898514 40.2149486 13.5224229 40.2149486 13.3743086 40.2917486 13.3359086 40.5413486L12.4842514 40.5413486C12.5171657 39.8487771 13.1123657 39.6362057 13.8063086 39.6362057zM32.8543543 39.7178057L32.8543543 42.5360914 31.9258971 42.5360914 31.9258971 40.42272 31.3416686 40.42272 31.3087543 41.2853486C31.2868114 41.8215771 31.2648686 42.6074057 30.32544 42.6074057 30.1512686 42.6074057 30.0031543 42.5744914 29.8618971 42.5306057L29.8618971 41.80512C29.92224 41.8311771 30.0100114 41.8421486 30.0689829 41.8421486 30.3089829 41.8421486 30.3967543 41.65152 30.40224 41.3621486L30.4461257 39.7178057 32.8543543 39.7178057zM39.6192 39.6415543C40.4050286 39.6415543 40.9508571 40.0735543 41.0057143 40.7386971L40.1101714 40.7386971C40.0662857 40.4712686 39.8866286 40.3135543 39.6288 40.3135543 39.2694857 40.3135543 39.0569143 40.6193829 39.0569143 41.1432686 39.0569143 41.6397257 39.2585143 41.9181257 39.6246857 41.9181257 39.9085714 41.9181257 40.0772571 41.7604114 40.1376 41.4271543L41.0276571 41.4271543C40.9234286 42.1759543 40.4269714 42.6065829 39.6027429 42.6065829 38.7346286 42.6065829 38.1270857 42.0237257 38.1270857 41.1487543 38.1270857 40.2477257 38.7222857 39.6415543 39.6192 39.6415543zM29.5392 39.7178057L29.5392 42.5360914 28.6107429 42.5360914 28.6107429 40.42272 27.6603429 40.42272 27.6603429 42.5360914 26.7318857 42.5360914 26.7318857 39.7178057 29.5392 39.7178057zM22.8455314 39.7182171L23.2446171 40.38336 23.6437029 39.7182171 24.6256457 39.7182171 23.7410743 41.0402743 24.7463314 42.5365029 23.7246171 42.5365029 23.22816 41.7163886 22.7467886 42.5365029 21.7319314 42.5365029 22.71936 41.0567314 21.8183314 39.7182171 22.8455314 39.7182171zM7.776 39.71808C8.26148571 39.71808 8.68251429 39.9032229 8.68251429 40.42848 8.68251429 40.70688 8.55085714 40.87008 8.31634286 40.9962514 8.65508571 41.1059657 8.82514286 41.34048 8.82514286 41.6901943 8.82514286 41.9521371 8.7264 42.1701943 8.54537143 42.3237943 8.30537143 42.53088 8.02697143 42.5363657 7.72662857 42.5363657L6 42.5363657 6 39.71808 7.776 39.71808zM7.43177143 41.3061943L6.89691429 41.3061943 6.89691429 41.9521371 7.45371429 41.9521371C7.67177143 41.9521371 7.86925714 41.9082514 7.86925714 41.6353371 7.86925714 41.3610514 7.6608 41.3061943 7.43177143 41.3061943zM36.31776 40.3234286C36.00096 40.3234286 35.8144457 40.6196571 35.8144457 41.1270857 35.8144457 41.6509714 36.0064457 41.9472 36.3287314 41.9472 36.6222171 41.9472 36.8306743 41.6454857 36.8306743 41.1216 36.8306743 40.6141714 36.63456 40.3234286 36.31776 40.3234286zM10.6649143 40.3234286C10.3152 40.3234286 10.1136 40.6196571 10.1136 41.1270857 10.1136 41.6509714 10.3152 41.9472 10.6758857 41.9472 11.0310857 41.9472 11.2326857 41.6454857 11.2326857 41.1216 11.2326857 40.6141714 11.0310857 40.3234286 10.6649143 40.3234286zM17.4924343 40.3944686L16.8478629 40.3944686C16.8423771 40.9087543 16.6956343 41.5039543 16.5694629 41.8317257L17.4924343 41.8317257 17.4924343 40.3944686zM7.37691429 40.2803657L6.89691429 40.2803657 6.89691429 40.8275657 7.39337143 40.8275657C7.64434286 40.8275657 7.75954286 40.7439086 7.75954286 40.55328 7.75954286 40.3187657 7.57302857 40.2803657 7.37691429 40.2803657zM24.4399086 34.0007314C25.1818514 34.0007314 25.6741943 34.5959314 25.6741943 35.49696 25.6741943 36.3815314 25.1983086 36.9602743 24.4728229 36.9602743 24.1285943 36.9602743 23.86528 36.8341029 23.6527086 36.5666743L23.6527086 37.8462171 22.7297371 37.8462171 22.7297371 34.0720457 23.6143086 34.0720457 23.6143086 34.3984457C23.8117943 34.1323886 24.0847086 34.0007314 24.4399086 34.0007314zM20.7684571 33.9898971C21.6420571 33.9898971 22.2427429 34.5946971 22.2427429 35.4751543 22.2427429 36.3665829 21.6420571 36.9768686 20.7574857 36.9768686 19.8729143 36.9768686 19.2667429 36.3706971 19.2667429 35.48064 19.2667429 34.6001829 19.8784 33.9898971 20.7684571 33.9898971zM8.97526857 33.0558171C9.83789714 33.0558171 10.3892114 33.4699886 10.3892114 34.1200457 10.3892114 34.4917029 10.1807543 34.7714743 9.85435429 34.8523886 10.2740114 34.9607314 10.5208686 35.2679314 10.5208686 35.7040457 10.5208686 36.5790171 9.74464 36.9602743 8.97526857 36.9602743 8.13869714 36.9602743 7.42418286 36.5502171 7.42418286 35.6231314L7.42418286 35.5230171 8.30875429 35.5230171C8.32384 35.93856 8.46646857 36.1799314 8.94784 36.1799314 9.32361143 36.1799314 9.55949714 35.9934171 9.55949714 35.6875886 9.55949714 35.3886171 9.32909714 35.2075886 8.94235429 35.2075886L8.89059556 35.2077917C8.85290667 35.2081981 8.79835429 35.2094171 8.66395429 35.2130743L8.66395429 34.5904457C8.72841143 34.5959314 8.75035429 34.5959314 8.81069714 34.5959314 8.91492571 34.5959314 9.05618286 34.58496 9.14395429 34.5739886 9.37298286 34.5410743 9.51012571 34.3984457 9.51012571 34.2023314 9.51012571 33.95136 9.29618286 33.78816 8.97526857 33.78816 8.60772571 33.78816 8.41161143 33.9774171 8.40064 34.34496L7.52155429 34.34496C7.52155429 33.5467886 8.10578286 33.0558171 8.97526857 33.0558171zM36.9739429 34.07136L36.9465143 35.8309029 37.8365714 34.07136 38.8802286 34.07136 38.8802286 36.8896457 37.9792 36.8896457 38.0052571 35.1314743 37.1097143 36.8896457 36.0729143 36.8896457 36.0729143 34.07136 36.9739429 34.07136zM33.5383771 34.07136L33.5109486 35.8309029 34.4010057 34.07136 35.4446629 34.07136 35.4446629 36.8896457 34.5436343 36.8896457 34.5710629 35.1314743 33.67552 36.8896457 32.6373486 36.8896457 32.6373486 34.07136 33.5383771 34.07136zM30.1682286 34.07136L30.1682286 34.8078171C30.1682286 35.1739886 30.2395429 35.25216 30.5179429 35.25216 30.6701714 35.25216 30.9376 35.2178743 31.0802286 35.1918171L31.0802286 34.07136 32.0086857 34.07136 32.0086857 36.8896457 31.0802286 36.8896457 31.0802286 35.8624457C30.8896 35.9008457 30.5618286 35.9611886 30.2614857 35.9611886 29.5894857 35.9611886 29.2397714 35.5621029 29.2397714 34.9614171L29.2397714 34.07136 30.1682286 34.07136zM28.7856914 34.0712229L28.7856914 36.8895086 27.8572343 36.8895086 27.8572343 35.8911086 27.5733486 35.8911086 26.9287771 36.8895086 25.8206629 36.8895086 26.6448914 35.7855086C26.3061486 35.6607086 26.0606629 35.3603657 26.0606629 34.96128 26.0606629 34.44288 26.4912914 34.0712229 27.0768914 34.0712229L28.7856914 34.0712229zM19.0746057 34.07136L19.0746057 34.7762743 17.80192 34.7762743 17.80192 36.8896457 16.8734629 36.8896457 16.8734629 34.07136 19.0746057 34.07136zM12.7269486 33C13.9228343 33 14.63872 33.6994286 14.63872 34.9241143 14.63872 36.2297143 13.96672 36.8893714 12.6720914 36.8893714L11.0606629 36.8893714 11.0606629 33 12.7269486 33zM20.7465143 34.6769829C20.3968 34.6769829 20.1952 34.9732114 20.1952 35.48064 20.1952 36.0045257 20.3968 36.3007543 20.7574857 36.3007543 21.1126857 36.3007543 21.3142857 35.99904 21.3142857 35.4751543 21.3142857 34.9677257 21.1126857 34.6769829 20.7465143 34.6769829zM24.1711086 34.7371886C23.8323657 34.7371886 23.6197943 35.02656 23.6197943 35.4914743 23.6197943 35.9728457 23.82688 36.24576 24.1889371 36.24576 24.5427657 36.24576 24.7457371 35.97696 24.7457371 35.5079314 24.7457371 35.0059886 24.5427657 34.7371886 24.1711086 34.7371886zM12.5568914 33.8420571L12.0714057 33.8420571 12.0714057 36.0432 12.6282057 36.0432C13.3111771 36.0432 13.6170057 35.6331429 13.6170057 34.9501714 13.6170057 34.2452571 13.2508343 33.8420571 12.5568914 33.8420571zM27.8572343 34.72128L27.3936914 34.72128C27.0604343 34.72128 27.0110629 34.8474514 27.0110629 34.9832229 27.0110629 35.1313371 27.0604343 35.2520229 27.3936914 35.2520229L27.8572343 35.2520229 27.8572343 34.72128zM37.0068571 33.0002743C37.0548571 33.2128457 37.2249143 33.3184457 37.4813714 33.3184457 37.7378286 33.3184457 37.9078857 33.2128457 37.9572571 33.0002743L38.3714286 33.0002743C38.3714286 33.5858743 37.9956571 33.8039314 37.4813714 33.8039314 36.9684571 33.8039314 36.5913143 33.5858743 36.5913143 33.0002743L37.0068571 33.0002743z"/>
  </g>
</svg>
