<svg xmlns="http://www.w3.org/2000/svg" width="48" height="48" viewBox="0 0 48 48">
  <g fill="none" fill-rule="evenodd">
    <polygon fill="#AF235F" points="0 48 48 48 48 0 0 0"/>
    <path fill="#FF87BA" d="M21.362,13.9271 L21.362,23.0721 L16.791,18.4991 L21.362,13.9271 Z M23.0563,13.9271 L27.6273,18.4991 L23.0563,23.0721 L23.0563,13.9271 Z"/>
    <path fill="#FEFEFE" d="M32.875,30.058 L38.168,30.058 L38.168,5.725 L32.875,5.725 L32.875,30.058 Z M32.039,4.889 L32.039,6.561 L30.367,6.561 L30.367,8.233 L32.039,8.233 L32.039,26.413 L12.009,26.413 L12.009,11.367 L10.671,11.367 L10.671,13.039 L9,13.039 L9,14.711 L10.671,14.711 L10.671,27.752 L32.039,27.752 L32.039,30.894 L39.003,30.894 L39.003,4.889 L32.039,4.889 Z"/>
    <path fill="#FEFEFE" d="M17.6448,0.4352 L16.2188,4.4192 L15.3748,4.4192 L16.8008,0.4352 L17.6448,0.4352 Z M5.2864,1.5724 L5.2864,3.0954 C5.2864,3.4094 5.3074,3.6554 5.7024,3.6554 C6.1244,3.6554 6.2104,3.3674 6.2104,3.0094 L6.2104,1.5724 L7.1124,1.5724 L7.1124,4.3284 L6.2424,4.3284 L6.2424,3.9604 C6.0224,4.2594 5.7564,4.4084 5.3554,4.4084 C4.6724,4.4084 4.3674,3.9384 4.3674,3.2984 L4.3674,1.5724 L5.2864,1.5724 Z M24.1555,1.5724 L24.1555,3.0954 C24.1555,3.4094 24.1765,3.6554 24.5715,3.6554 C24.9935,3.6554 25.0795,3.3674 25.0795,3.0094 L25.0795,1.5724 L25.9815,1.5724 L25.9815,4.3284 L25.1115,4.3284 L25.1115,3.9604 C24.8915,4.2594 24.6255,4.4084 24.2245,4.4084 C23.5415,4.4084 23.2365,3.9384 23.2365,3.2984 L23.2365,1.5724 L24.1555,1.5724 Z M8.9024,1.4922 C9.5384,1.4922 10.1204,1.7002 10.1524,2.3792 L9.3194,2.3792 C9.2824,2.1332 9.1324,2.0592 8.8764,2.0592 C8.6404,2.0592 8.5124,2.1392 8.5124,2.2822 C8.5124,2.4702 8.7314,2.4912 8.8704,2.5242 C9.1534,2.5822 9.4314,2.6352 9.7044,2.7322 C10.0614,2.8592 10.2324,3.0952 10.2324,3.4522 C10.2324,4.0452 9.7354,4.4032 8.9084,4.4032 C8.2464,4.4032 7.6044,4.1842 7.5674,3.4202 L8.4274,3.4202 C8.4484,3.7202 8.6404,3.8112 8.9294,3.8112 C9.1854,3.8112 9.3454,3.7032 9.3454,3.5272 C9.3454,3.3782 9.2504,3.3182 8.8814,3.2382 C8.5394,3.1692 8.3374,3.1162 8.1604,3.0572 C7.8074,2.9352 7.6214,2.6942 7.6214,2.3532 C7.6214,1.7972 8.0754,1.4922 8.9024,1.4922 Z M2.4179,0.5254 C3.2879,0.5254 3.9179,0.8674 3.9179,1.8084 C3.9179,2.6624 3.3679,3.0574 2.5779,3.0574 L1.7389,3.0574 L1.7389,4.3284 L0.7459,4.3284 L0.7459,0.5254 L2.4179,0.5254 Z M21.287,0.5254 C22.157,0.5254 22.787,0.8674 22.787,1.8084 C22.787,2.6624 22.237,3.0574 21.447,3.0574 L20.608,3.0574 L20.608,4.3284 L19.615,4.3284 L19.615,0.5254 L21.287,0.5254 Z M11.584,0.526 L11.584,1.931 C11.83,1.637 12.065,1.503 12.46,1.503 C13.048,1.503 13.443,1.819 13.443,2.486 L13.443,4.328 L12.54,4.328 L12.54,2.704 C12.54,2.406 12.412,2.241 12.103,2.241 C11.696,2.241 11.584,2.524 11.584,2.897 L11.584,4.328 L10.692,4.328 L10.692,0.526 L11.584,0.526 Z M27.531,0.525 L27.531,4.328 L26.624,4.328 L26.624,0.525 L27.531,0.525 Z M29.109,0.525 L29.109,4.328 L28.202,4.328 L28.202,0.525 L29.109,0.525 Z M2.3799,1.3374 L1.7389,1.3374 L1.7389,2.2884 L2.2999,2.2884 C2.6419,2.2884 2.9569,2.2624 2.9569,1.8184 C2.9569,1.4494 2.7279,1.3374 2.3799,1.3374 Z M21.249,1.3374 L20.608,1.3374 L20.608,2.2884 L21.169,2.2884 C21.511,2.2884 21.826,2.2624 21.826,1.8184 C21.826,1.4494 21.597,1.3374 21.249,1.3374 Z" transform="translate(6 36.355)"/>
  </g>
</svg>
