<svg xmlns="http://www.w3.org/2000/svg" width="48" height="48" viewBox="0 0 48 48">
  <g fill="none" fill-rule="evenodd">
    <polygon fill="#AF235F" points="0 48 48 48 48 0 0 0"/>
    <path fill="#FFF" d="M34.1475841 10.5291783C36.8171716 10.5291783 39 12.713174 39 15.3815942L39 15.3815942 39 23.9856735C39 26.6540937 36.8171716 28.8380894 34.1475841 28.8380894L34.1475841 28.8380894 17.3818277 28.8380894C14.7122402 28.8380894 12.5294118 26.6540937 12.5294118 23.9856735L12.5294118 23.9856735 12.5294118 15.3815942C12.5294118 12.713174 14.7122402 10.5291783 17.3818277 10.5291783L17.3818277 10.5291783zM34.1475841 11.4618414L17.3818277 11.4618414C15.2211777 11.4618414 13.4632421 13.219777 13.4632421 15.3815942L13.4632421 15.3815942 13.4632421 23.9856735C13.4632421 26.1463234 15.2211777 27.9030918 17.3818277 27.9030918L17.3818277 27.9030918 34.1475841 27.9030918C36.308234 27.9030918 38.0661697 26.1463234 38.0661697 23.9856735L38.0661697 23.9856735 38.0661697 15.3815942C38.0661697 13.219777 36.308234 11.4618414 34.1475841 11.4618414L34.1475841 11.4618414zM30.6170051 7C32.579216 7 34.2752854 8.18012809 35.039859 9.86802643L35.039859 9.86802643 33.977627 9.86802643C33.2935963 8.71474596 32.0504346 7.93266305 30.6170051 7.93266305L30.6170051 7.93266305 13.8524159 7.93266305C11.691766 7.93266305 9.93383034 9.69059866 9.93383034 11.8524159L9.93383034 11.8524159 9.93383034 20.4564952C9.93383034 21.8899247 10.7159132 23.1330864 11.8668591 23.8159498L11.8668591 23.8159498 11.8668591 24.8770145C10.1824627 24.1147755 9 22.4187062 9 20.4564952L9 20.4564952 9 11.8524159C9 9.18282842 11.1828284 7 13.8524159 7L13.8524159 7zM25.7640055 15.2721026C28.2013027 15.2721026 30.1763539 17.2459865 30.1763539 19.6832837 30.1763539 22.1194136 28.2013027 24.0944647 25.7640055 24.0944647 23.3278756 24.0944647 21.3516572 22.1194136 21.3516572 19.6832837 21.3516572 17.2459865 23.3278756 15.2721026 25.7640055 15.2721026zM16.3844196 35.0513143C17.7087576 35.0513143 18.5565173 35.6898072 18.5565173 36.6872613 18.5565173 37.2585444 18.2387984 37.686243 17.7347251 37.8130251 18.3808554 37.979522 18.7596741 38.4499905 18.7596741 39.1205607 18.7596741 40.4632287 17.5667006 41.0513143 16.3844196 41.0513143 15.0997963 41.0513143 14 40.4219864 14 38.9953061L14 38.8456116 15.3594705 38.8456116C15.3854379 39.482577 15.6023422 39.8522308 16.3431772 39.8522308 16.9205703 39.8522308 17.2825866 39.5650617 17.2825866 39.0976483 17.2825866 38.6348173 16.9282077 38.3568133 16.3340122 38.3568133L16.2434455 38.3572966C16.185702 38.3581021 16.0995418 38.3602501 15.9047862 38.3659782L15.9047862 37.4097664C16.0056008 37.4174039 16.0392057 37.4174039 16.1323829 37.4174039 16.2912424 37.4174039 16.5096741 37.4006015 16.6440937 37.383799 16.9954175 37.3333917 17.2062118 37.1164874 17.2062118 36.8140434 17.2062118 36.4275872 16.8793279 36.1755505 16.3844196 36.1755505 15.8223014 36.1755505 15.5198574 36.4703571 15.503055 37.0324752L14.151222 37.0324752C14.151222 35.8058968 15.049389 35.0513143 16.3844196 35.0513143zM24.9269348 36.6119558C25.6723523 36.6119558 26.3184827 36.8975974 26.3184827 37.7041147 26.3184827 38.1318133 26.1183809 38.3823224 25.7578921 38.5763143 26.2772403 38.7428112 26.538442 39.1048275 26.538442 39.6409782 26.538442 40.0442369 26.3856925 40.3802858 26.1107434 40.61552 25.7395621 40.9332389 25.3118635 40.9424039 24.8505601 40.9424039L22.1988289 40.9424039 22.1988289 36.6119558 24.9269348 36.6119558zM33.2598778 35.0934731L33.2598778 40.9422511 31.7583503 40.9422511 31.7583503 37.3679131 30.3576375 37.3679131 30.3576375 36.3200516C31.254277 36.2940841 31.9584521 36.0588499 32.0775967 35.0934731L33.2598778 35.0934731zM24.3984216 39.0544202L23.5751018 39.0544202 23.5751018 40.0442369 24.4320265 40.0442369C24.7680754 40.0442369 25.0689919 39.9770271 25.0689919 39.5584935 25.0689919 39.1384324 24.7497454 39.0544202 24.3984216 39.0544202zM24.3144094 37.476518L23.5751018 37.476518 23.5751018 38.3151127 24.3388493 38.3151127C24.7253055 38.3151127 24.9024949 38.1898581 24.9024949 37.8965791 24.9024949 37.5345628 24.6153259 37.476518 24.3144094 37.476518z"/>
  </g>
</svg>
