<svg xmlns="http://www.w3.org/2000/svg" width="164" height="33" viewBox="0 0 164 33">
    <g fill="none" fill-rule="evenodd">
        <path d="M0 0h164v33H0z"/>
        <path fill="#394791" fill-rule="nonzero" d="M57 13.001V18h1.66c.868 0 1.753-.576 2.08-1.249.258-.533.435-1.58-.024-2.56-.607-1.291-1.931-1.175-2.058-1.191H57v.001zM57 4v4h1.33c.705 0 1.229-.46 1.473-.998a2.639 2.639 0 0 0-.02-2.048c-.425-.947-1.25-.945-1.445-.954H57zM46 0s14.467.004 16.94.002c4.723-.004 5.835 3.66 5.843 5.81.014 3.865-2.606 4.814-2.606 4.814S69 11.726 69 15.846c0 6.415-5.693 6.152-6.574 6.152H46V0zm67 22v-5.052h-4.564v-4.01h4.517V8.562h-4.517V4.324H113V0H98v22h15zm-27.65 0H96V0H85.35v8.334h-3.453V0H71v22h10.897v-9.245h3.453V22zM45 22v-5.052h-4.564v-4.01h4.515V8.562h-4.515V4.324H45V0H30v22h15zM17 0h11v22H17V0zm-1 22v-6.073h-4.826V0H0v22h16zM125 4v5h1.38c1.496 0 2.027-.64 2.355-1.314.26-.535.434-1.502.002-2.492-.238-.539-.861-1.193-2.357-1.193H125V4zM115 .002L131.504 0c5.172 0 7.128 3.473 7.128 6.47 0 5.105-4.63 6.018-4.63 6.018L140 22h-12.068l-2.594-6.319.005 6.319H115V.002zM149 4v5h1.382c1.497 0 2.027-.64 2.353-1.314.26-.535.435-1.502 0-2.492C152.5 4.655 151.879 4 150.38 4H149V4zM139 .002L155.503 0c5.174 0 7.13 3.473 7.13 6.47 0 5.105-4.631 6.018-4.631 6.018L164 22h-12.068l-2.593-6.319.004 6.319H139V.002z"/>
        <path fill="#394791" d="M0 29h66v2H0zM98 29h66v2H98zM74 32.865V26h1.352v6.865H74zm2.307-2.198v-1.148h2.805v1.148h-2.805zm6.514-1.813a1.048 1.048 0 0 0-.17-.02h-.158c-.398 0-.686.086-.865.256-.18.17-.269.436-.269.796v2.979h-1.342v-5.178h1.342v.752c.16-.295.338-.51.537-.646.199-.135.434-.202.706-.202h.095c.03 0 .071.003.124.01v1.253zm3.232 4.011v-.588c-.179.25-.376.432-.592.545-.215.112-.469.168-.76.168-.922 0-1.383-.514-1.383-1.542v-3.76h1.383v3.355c0 .096.001.199.005.308a.86.86 0 0 0 .06.3c.036.09.092.163.168.22a.525.525 0 0 0 .323.088c.252 0 .438-.08.557-.241a.943.943 0 0 0 .18-.579v-3.452h1.362v5.178h-1.303zM92 31.342c0 .302-.053.557-.16.766-.105.209-.251.38-.437.511a1.893 1.893 0 0 1-.651.29 3.305 3.305 0 0 1-.79.091c-.624 0-1.095-.13-1.413-.39-.318-.26-.477-.696-.477-1.307v-.096h1.223v.067c0 .122.01.236.03.342a.71.71 0 0 0 .11.275.515.515 0 0 0 .218.179.877.877 0 0 0 .358.062c.212 0 .38-.054.502-.164a.576.576 0 0 0 .184-.453.614.614 0 0 0-.134-.41c-.09-.106-.24-.194-.453-.265l-.656-.222a3.62 3.62 0 0 1-.621-.27 1.49 1.49 0 0 1-.408-.327 1.153 1.153 0 0 1-.224-.415 1.88 1.88 0 0 1-.07-.54c0-.488.165-.863.493-1.123.328-.26.8-.39 1.417-.39.278 0 .53.027.756.081.225.055.417.142.576.26.16.12.282.277.368.473.087.196.13.439.13.728v.087h-1.214v-.068c0-.218-.041-.389-.124-.51-.083-.123-.25-.184-.502-.184-.199 0-.355.047-.467.14a.479.479 0 0 0-.17.39.5.5 0 0 0 .155.39c.102.094.29.182.561.266l.463.15c.13.041.244.081.343.12a3.504 3.504 0 0 1 .467.222c.411.238.617.652.617 1.244z"/>
    </g>
</svg>
