<?xml version="1.0" encoding="utf-8"?>
<!-- Generator: Adobe Illustrator 24.0.3, SVG Export Plug-In . SVG Version: 6.00 Build 0)  -->
<svg version="1.1" id="Слой_1" xmlns="http://www.w3.org/2000/svg" xmlns:xlink="http://www.w3.org/1999/xlink" x="0px" y="0px"
	 viewBox="0 0 121.1 51.8" style="enable-background:new 0 0 121.1 51.8;" xml:space="preserve">
<style type="text/css">
	.st0{fill:#9B9B9B;}
	.st1{fill:#394791;}
</style>
<path class="st0" d="M1.9,0l3,7.5l3-7.5h1.7v9.2H8.4V5.6l0.1-3.9l-3,7.5H4.6l-3-7.5l0.1,3.9v3.6H0.5V0H1.9z"/>
<path class="st0" d="M16.9,6.8H13l-0.9,2.4h-1.3L14.3,0h1.1l3.5,9.2h-1.3L16.9,6.8z M13.4,5.8h3.2L15,1.5L13.4,5.8z"/>
<path class="st0" d="M26,1h-4.4v8.2h-1.2V0h5.7L26,1z"/>
<path class="st0" d="M31.4,6.8h-3.9l-0.9,2.4h-1.3L28.8,0h1.1l3.5,9.2h-1.3L31.4,6.8z M27.9,5.8H31l-1.6-4.3L27.9,5.8z"/>
<path class="st0" d="M39.5,2.5c0-0.5-0.2-0.9-0.5-1.2c-0.4-0.3-0.9-0.4-1.5-0.4c-0.5,0-1,0.1-1.4,0.4c-0.3,0.3-0.5,0.7-0.5,1.1h-1.2
	c0-0.5,0.1-0.9,0.4-1.3s0.6-0.7,1.1-0.9s1-0.3,1.6-0.3c1,0,1.8,0.2,2.4,0.7s0.9,1.1,0.9,1.9c0,0.4-0.1,0.8-0.4,1.2s-0.6,0.6-1.1,0.8
	c1.1,0.4,1.6,1.1,1.6,2.2c0,0.8-0.3,1.5-0.9,2s-1.4,0.7-2.5,0.7c-0.6,0-1.2-0.1-1.7-0.3s-0.9-0.5-1.2-0.9c-0.3-0.4-0.4-0.9-0.4-1.4
	h1.2c0,0.5,0.2,0.9,0.6,1.2c0.4,0.3,0.9,0.5,1.5,0.5c0.7,0,1.2-0.2,1.6-0.5c0.4-0.3,0.6-0.7,0.6-1.2c0-1.1-0.7-1.6-2-1.7h-1.1v-1h1
	c0.6,0,1.1-0.2,1.4-0.4C39.4,3.3,39.5,3,39.5,2.5z"/>
<path class="st0" d="M48.3,0h1.2v9.2h-1.2V2.1l-4.6,7.1h-1.2V0h1.2v7.1L48.3,0z"/>
<path class="st0" d="M58.9,9.2h-1.3V4.9h-4.7v4.3h-1.2V0h1.2v4h4.7V0h1.2L58.9,9.2L58.9,9.2z"/>
<path class="st0" d="M70.4,1h-3v8.2h-1.2V1h-3V0h7.1L70.4,1z"/>
<path class="st0" d="M77,5h-4v3.3h4.7v1h-5.9V0h5.8v1H73v3h4V5z"/>
<path class="st0" d="M82.2,3.5L84.4,0h1.4l-2.9,4.6l3,4.7h-1.4l-2.3-3.6l-2.3,3.6h-1.4l3-4.7L78.6,0H80L82.2,3.5z"/>
<path class="st0" d="M94.4,9.2h-1.2V4.9h-4.7v4.3h-1.2V0h1.2v4h4.7V0h1.2V9.2z"/>
<path class="st0" d="M102.4,0h1.2v9.2h-1.2V2.1l-4.6,7.1h-1.2V0h1.2v7.1L102.4,0z"/>
<path class="st0" d="M108.2,5.1h-1.1v4.2h-1.2V0h1.2v4.1h1l3.2-4.1h1.5l-3.5,4.5l3.8,4.8h-1.5L108.2,5.1z"/>
<path class="st0" d="M120,0h1.2v9.2H120V2.1l-4.6,7.1h-1.2V0h1.2v7.1L120,0z"/>
<path class="st1" d="M14,16.5h4.5l-7,20.5h-4l-7-20.5h4.6l4.5,15.6L14,16.5z"/>
<path class="st1" d="M29,22.2c1.1,0.5,1.9,1.2,2.6,2.2c0.6,0.9,1,1.9,1.2,3.1c0.1,0.7,0.2,1.7,0.1,3h-11c0.1,1.5,0.6,2.6,1.6,3.2
	c0.6,0.4,1.3,0.6,2.2,0.6s1.6-0.2,2.2-0.7c0.3-0.3,0.6-0.6,0.8-1h4c-0.1,0.9-0.6,1.8-1.5,2.7c-1.4,1.5-3.3,2.2-5.7,2.2
	c-2,0-3.8-0.6-5.3-1.9c-1.5-1.2-2.3-3.3-2.3-6.1c0-2.6,0.7-4.6,2.1-6s3.2-2.1,5.4-2.1C26.8,21.5,28,21.7,29,22.2z M23.1,25.6
	c-0.6,0.6-0.9,1.4-1.1,2.3h6.8c-0.1-1.1-0.4-1.9-1.1-2.4c-0.6-0.5-1.4-0.8-2.4-0.8C24.4,24.8,23.7,25,23.1,25.6z"/>
<path class="st1" d="M38.1,32.2c0.1,0.7,0.3,1.2,0.5,1.5c0.5,0.5,1.4,0.8,2.7,0.8c0.8,0,1.4-0.1,1.9-0.3s0.7-0.6,0.7-1
	s-0.2-0.8-0.6-1s-1.8-0.6-4.1-1.2c-1.7-0.4-2.9-1-3.6-1.6s-1.1-1.5-1.1-2.7c0-1.4,0.6-2.6,1.7-3.6c1.1-1,2.7-1.5,4.6-1.5
	s3.4,0.4,4.6,1.1c1.2,0.8,1.9,2.1,2.1,3.9h-4c-0.1-0.5-0.2-0.9-0.4-1.2c-0.4-0.5-1.2-0.8-2.2-0.8c-0.9,0-1.5,0.1-1.8,0.4
	c-0.4,0.3-0.6,0.6-0.6,0.9c0,0.5,0.2,0.8,0.6,1c0.4,0.2,1.8,0.6,4.1,1.1c1.6,0.4,2.8,0.9,3.6,1.7s1.2,1.7,1.2,2.9
	c0,1.5-0.6,2.7-1.7,3.7s-2.9,1.4-5.2,1.4c-2.4,0-4.2-0.5-5.3-1.5s-1.7-2.3-1.7-3.8h4V32.2z"/>
<path class="st1" d="M49.3,24.8V22h2.1v-4.2h3.9V22h2.5v2.8h-2.5v8c0,0.6,0.1,1,0.2,1.2c0.2,0.2,0.6,0.2,1.4,0.2h0.4h0.4v3l-1.9,0.1
	c-1.9,0.1-3.2-0.3-3.8-1c-0.4-0.5-0.7-1.2-0.7-2.1v-9.3h-2C49.3,24.9,49.3,24.8,49.3,24.8z"/>
<path class="st1" d="M66.6,16.4c0.2,0,0.5,0,0.8,0.1v3.2c-0.2,0-0.6,0-1.1-0.1c-0.5,0-0.9,0.1-1.1,0.3c-0.2,0.2-0.3,0.5-0.3,0.8
	s0,0.7,0,1.3h2.6v2.8h-2.6V37H61V24.8h-2.2V22H61v-1c0-1.6,0.3-2.7,0.8-3.4c0.6-0.9,2-1.4,4.2-1.4C66.2,16.3,66.4,16.3,66.6,16.4z"
	/>
<path class="st1" d="M78.2,21.5h0.3v4.1c-0.3,0-0.5,0-0.7-0.1c-0.2,0-0.4,0-0.5,0c-1.6,0-2.7,0.5-3.2,1.6c-0.3,0.6-0.5,1.5-0.5,2.7
	V37h-4V21.9h4v2.6c0.6-1,1.1-1.7,1.6-2.1C75.9,21.8,76.9,21.5,78.2,21.5z"/>
<path class="st1" d="M93.6,35.2c-1.3,1.6-3.2,2.4-5.8,2.4s-4.5-0.8-5.8-2.4s-1.9-3.5-1.9-5.7s0.6-4.1,1.9-5.7s3.2-2.4,5.8-2.4
	s4.5,0.8,5.8,2.4s1.9,3.5,1.9,5.7S94.8,33.6,93.6,35.2z M90.4,33c0.6-0.8,0.9-2,0.9-3.5S91,26.8,90.4,26s-1.5-1.2-2.7-1.2
	S85.6,25.2,85,26s-0.9,2-0.9,3.5s0.3,2.7,0.9,3.5s1.5,1.2,2.7,1.2S89.8,33.8,90.4,33z"/>
<path class="st1" d="M101.4,32.2c0.1,0.7,0.3,1.2,0.5,1.5c0.5,0.5,1.4,0.8,2.7,0.8c0.8,0,1.4-0.1,1.9-0.3s0.7-0.6,0.7-1
	s-0.2-0.8-0.6-1s-1.8-0.6-4.1-1.2c-1.7-0.4-2.9-1-3.6-1.6s-1.1-1.5-1.1-2.7c0-1.4,0.6-2.6,1.7-3.6s2.7-1.5,4.7-1.5
	c1.9,0,3.4,0.4,4.6,1.1c1.2,0.8,1.9,2.1,2.1,3.9h-4c-0.1-0.5-0.2-0.9-0.4-1.2c-0.4-0.5-1.2-0.8-2.2-0.8c-0.9,0-1.5,0.1-1.8,0.4
	c-0.4,0.3-0.6,0.6-0.6,0.9c0,0.5,0.2,0.8,0.6,1s1.8,0.6,4.1,1.1c1.6,0.4,2.8,0.9,3.6,1.7s1.2,1.7,1.2,2.9c0,1.5-0.6,2.7-1.7,3.7
	s-2.9,1.4-5.2,1.4c-2.4,0-4.2-0.5-5.3-1.5s-1.7-2.3-1.7-3.8h3.9L101.4,32.2z"/>
<path class="st1" d="M112.6,24.8V22h2.1v-4.2h3.9V22h2.5v2.8h-2.5v8c0,0.6,0.1,1,0.2,1.2c0.2,0.2,0.6,0.2,1.4,0.2h0.4h0.4v3
	l-1.9,0.1c-1.9,0.1-3.2-0.3-3.8-1c-0.4-0.5-0.7-1.2-0.7-2.1v-9.3h-2V24.8z"/>
<path class="st1" d="M115.4,44.5h5.8v7.3h-5.8V44.5z"/>
<path class="st1" d="M0,44.5h5.8v7.3H0V44.5z"/>
<g>
	<path class="st1" d="M12.4,51.7h-0.9l-2.8-6.8H10l2,5l1.9-5h1.2L12.4,51.7z"/>
	<path class="st1" d="M16,44.9h4V46h-2.7v1.7h2.4v1.1h-2.4v1.8h2.8v1.1h-4L16,44.9L16,44.9z"/>
	<path class="st1" d="M21.3,46.7c0-1,0.8-1.9,2.1-1.9c0.8,0,1.5,0.3,1.9,0.7l-0.6,0.9c-0.3-0.3-0.7-0.5-1.2-0.5c-0.6,0-1,0.3-1,0.7
		c0,1.4,3.1,1,3.1,3.2c0,1.1-1,1.9-2.3,1.9c-0.9,0-1.9-0.4-2.2-1.1l0.7-0.8c0.4,0.5,1,0.8,1.6,0.8s1-0.3,1-0.8
		C24.3,48.6,21.3,48.9,21.3,46.7z"/>
	<path class="st1" d="M26.1,44.9h5.6V46h-2.2v5.7h-1.2V46h-2.2C26.1,46,26.1,44.9,26.1,44.9z"/>
	<path class="st1" d="M32.8,44.9h3.9V46H34v1.9h2.4V49H34v2.6h-1.2V44.9z"/>
	<path class="st1" d="M38,51.7v-6.8c0.4,0,1.9,0,2.1,0c1.9,0,2.5,0.9,2.5,2.1c0,1.2-0.7,1.7-1.3,1.9l2.1,2.8H42l-2-2.5h-0.8v2.5H38z
		 M39.2,46v2H40c0.7,0,1.3-0.3,1.3-1c0-0.5-0.3-1-1.3-1C39.8,46,39.5,46,39.2,46z"/>
	<path class="st1" d="M47.4,44.8c2,0,3.5,1.4,3.5,3.5c0,2-1.5,3.5-3.5,3.5s-3.5-1.4-3.5-3.5C43.9,46.3,45.3,44.8,47.4,44.8z
		 M47.4,50.7c1.4,0,2.3-1,2.3-2.4s-1-2.4-2.3-2.4s-2.3,1-2.3,2.4C45.1,49.7,46.1,50.7,47.4,50.7z"/>
	<path class="st1" d="M52,46.7c0-1,0.8-1.9,2.1-1.9c0.8,0,1.5,0.3,1.9,0.7l-0.6,0.9c-0.3-0.3-0.7-0.5-1.2-0.5
		c-0.6,0-0.9,0.3-0.9,0.7c0,1.4,3.1,1,3.1,3.2c0,1.1-1,1.9-2.3,1.9c-0.9,0-1.9-0.4-2.2-1.1l0.7-0.8c0.4,0.5,1,0.8,1.6,0.8
		s1-0.3,1-0.8C55,48.6,52,48.9,52,46.7z"/>
	<path class="st1" d="M56.8,44.9h5.6V46h-2.2v5.7H59V46h-2.2V44.9z"/>
	<path class="st1" d="M63.1,48.5h2.4v1h-2.4V48.5z"/>
	<path class="st1" d="M66.8,46.7c0-1,0.8-1.9,2.1-1.9c0.8,0,1.5,0.3,1.9,0.7l-0.6,0.9c-0.3-0.3-0.7-0.5-1.2-0.5
		c-0.6,0-0.9,0.3-0.9,0.7c0,1.4,3.1,1,3.1,3.2c0,1.1-1,1.9-2.3,1.9c-0.9,0-1.9-0.4-2.2-1.1l0.7-0.8c0.4,0.5,1,0.8,1.6,0.8
		s1-0.3,1-0.8C69.8,48.6,66.8,48.9,66.8,46.7z"/>
	<path class="st1" d="M71.6,44.9h5.6V46H75v5.7h-1.2V46h-2.2C71.6,46,71.6,44.9,71.6,44.9z"/>
	<path class="st1" d="M81.3,44.8c2,0,3.5,1.4,3.5,3.5c0,2-1.5,3.5-3.5,3.5s-3.5-1.4-3.5-3.5C77.8,46.3,79.2,44.8,81.3,44.8z
		 M81.3,50.7c1.4,0,2.3-1,2.3-2.4s-1-2.4-2.3-2.4s-2.3,1-2.3,2.4S80,50.7,81.3,50.7z"/>
	<path class="st1" d="M86.2,51.7v-6.8c0.4,0,1.9,0,2.1,0c1.9,0,2.5,0.9,2.5,2.1c0,1.2-0.7,1.7-1.3,1.9l2.1,2.8h-1.4l-1.9-2.5h-0.8
		v2.5H86.2z M87.4,46v2h0.8c0.7,0,1.3-0.3,1.3-1c0-0.5-0.3-1-1.3-1C88,46,87.7,46,87.4,46z"/>
	<path class="st1" d="M92.6,44.9h3.9V46h-2.7v1.7h2.4v1.1h-2.4v1.8h2.8v1.1h-4C92.6,51.7,92.6,44.9,92.6,44.9z"/>
	<path class="st1" d="M98.4,50.2c0.4,0,0.7,0.4,0.7,0.7c0,0.4-0.3,0.8-0.7,0.8c-0.5,0-0.8-0.4-0.8-0.8C97.7,50.6,98,50.2,98.4,50.2z
		"/>
	<path class="st1" d="M100.5,51.7v-6.8c0.4,0,1.9,0,2.1,0c1.9,0,2.5,0.9,2.5,2.1c0,1.2-0.7,1.7-1.3,1.9l2.1,2.8h-1.4l-1.9-2.5h-0.8
		v2.5H100.5z M101.7,46v2h0.8c0.7,0,1.3-0.3,1.3-1c0-0.5-0.3-1-1.3-1C102.3,46,102,46,101.7,46z"/>
	<path class="st1" d="M112.4,48.9c0,2.1-1.3,2.9-2.7,2.9c-1.7,0-2.9-1-2.9-3v-3.9h1.2v3.7c0,1.3,0.5,2.1,1.7,2.1c1,0,1.5-0.7,1.5-2
		V45h1.2C112.4,45,112.4,48.9,112.4,48.9z"/>
</g>
</svg>
