<svg xmlns="http://www.w3.org/2000/svg" xmlns:xlink="http://www.w3.org/1999/xlink" width="122" height="53" viewBox="0 0 122 53">
  <defs>
    <polygon id="vestfrost-store.ru-a" points=".105 .242 3.683 .242 3.683 3.841 .105 3.841"/>
    <polygon id="vestfrost-store.ru-c" points="0 0 18.356 0 18.356 18.356 0 18.356"/>
  </defs>
  <g fill="none" fill-rule="evenodd">
    <path fill="#9B9B9B" fill-rule="nonzero" d="M1.9,1 L4.9,8.5 L7.9,1 L9.6,1 L9.6,10.2 L8.4,10.2 L8.4,6.6 L8.5,2.7 L5.5,10.2 L4.6,10.2 L1.6,2.7 L1.7,6.6 L1.7,10.2 L0.5,10.2 L0.5,1 L1.9,1 Z M16.9,7.8 L13,7.8 L12.1,10.2 L10.8,10.2 L14.3,1 L15.4,1 L18.9,10.2 L17.6,10.2 L16.9,7.8 Z M13.4,6.8 L16.6,6.8 L15,2.5 L13.4,6.8 L13.4,6.8 Z M26,2 L21.6,2 L21.6,10.2 L20.4,10.2 L20.4,1 L26.1,1 L26,2 Z M31.4,7.8 L27.5,7.8 L26.6,10.2 L25.3,10.2 L28.8,1 L29.9,1 L33.4,10.2 L32.1,10.2 L31.4,7.8 L31.4,7.8 Z M27.9,6.8 L31,6.8 L29.4,2.5 L27.9,6.8 Z M39.5,3.5 C39.5,3 39.3,2.6 39,2.3 C38.6,2 38.1,1.9 37.5,1.9 C37,1.9 36.5,2 36.1,2.3 C35.8,2.6 35.6,3 35.6,3.4 L34.4,3.4 C34.4,2.9 34.5,2.5 34.8,2.1 C35.1,1.7 35.4,1.4 35.9,1.2 C36.4,1 36.9,0.9 37.5,0.9 C38.5,0.9 39.3,1.1 39.9,1.6 C40.5,2.1 40.8,2.7 40.8,3.5 C40.8,3.9 40.7,4.3 40.4,4.7 C40.1,5.1 39.8,5.3 39.3,5.5 C40.4,5.9 40.9,6.6 40.9,7.7 C40.9,8.5 40.6,9.2 40,9.7 C39.4,10.2 38.6,10.4 37.5,10.4 C36.9,10.4 36.3,10.3 35.8,10.1 C35.3,9.9 34.9,9.6 34.6,9.2 C34.3,8.8 34.2,8.3 34.2,7.8 L35.4,7.8 C35.4,8.3 35.6,8.7 36,9 C36.4,9.3 36.9,9.5 37.5,9.5 C38.2,9.5 38.7,9.3 39.1,9 C39.5,8.7 39.7,8.3 39.7,7.8 C39.7,6.7 39,6.2 37.7,6.1 L36.6,6.1 L36.6,5.1 L37.6,5.1 C38.2,5.1 38.7,4.9 39,4.7 C39.4,4.3 39.5,4 39.5,3.5 L39.5,3.5 Z M48.3,1 L49.5,1 L49.5,10.2 L48.3,10.2 L48.3,3.1 L43.7,10.2 L42.5,10.2 L42.5,1 L43.7,1 L43.7,8.1 L48.3,1 Z M58.9,10.2 L57.6,10.2 L57.6,5.9 L52.9,5.9 L52.9,10.2 L51.7,10.2 L51.7,1 L52.9,1 L52.9,5 L57.6,5 L57.6,1 L58.8,1 L58.9,10.2 L58.9,10.2 Z M70.4,2 L67.4,2 L67.4,10.2 L66.2,10.2 L66.2,2 L63.2,2 L63.2,1 L70.3,1 L70.4,2 L70.4,2 Z M77,6 L73,6 L73,9.3 L77.7,9.3 L77.7,10.3 L71.8,10.3 L71.8,1 L77.6,1 L77.6,2 L73,2 L73,5 L77,5 L77,6 Z M82.2,4.5 L84.4,1 L85.8,1 L82.9,5.6 L85.9,10.3 L84.5,10.3 L82.2,6.7 L79.9,10.3 L78.5,10.3 L81.5,5.6 L78.6,1 L80,1 L82.2,4.5 Z M94.4,10.2 L93.2,10.2 L93.2,5.9 L88.5,5.9 L88.5,10.2 L87.3,10.2 L87.3,1 L88.5,1 L88.5,5 L93.2,5 L93.2,1 L94.4,1 L94.4,10.2 Z M102.4,1 L103.6,1 L103.6,10.2 L102.4,10.2 L102.4,3.1 L97.8,10.2 L96.6,10.2 L96.6,1 L97.8,1 L97.8,8.1 L102.4,1 Z M108.2,6.1 L107.1,6.1 L107.1,10.3 L105.9,10.3 L105.9,1 L107.1,1 L107.1,5.1 L108.1,5.1 L111.3,1 L112.8,1 L109.3,5.5 L113.1,10.3 L111.6,10.3 L108.2,6.1 Z M120,1 L121.2,1 L121.2,10.2 L120,10.2 L120,3.1 L115.4,10.2 L114.2,10.2 L114.2,1 L115.4,1 L115.4,8.1 L120,1 Z"/>
    <path fill="#394791" fill-rule="nonzero" d="M14,17.5 L18.5,17.5 L11.5,38 L7.5,38 L0.5,17.5 L5.1,17.5 L9.6,33.1 L14,17.5 Z M29,23.2 C30.1,23.7 30.9,24.4 31.6,25.4 C32.2,26.3 32.6,27.3 32.8,28.5 C32.9,29.2 33,30.2 32.9,31.5 L21.9,31.5 C22,33 22.5,34.1 23.5,34.7 C24.1,35.1 24.8,35.3 25.7,35.3 C26.6,35.3 27.3,35.1 27.9,34.6 C28.2,34.3 28.5,34 28.7,33.6 L32.7,33.6 C32.6,34.5 32.1,35.4 31.2,36.3 C29.8,37.8 27.9,38.5 25.5,38.5 C23.5,38.5 21.7,37.9 20.2,36.6 C18.7,35.4 17.9,33.3 17.9,30.5 C17.9,27.9 18.6,25.9 20,24.5 C21.4,23.1 23.2,22.4 25.4,22.4 C26.8,22.5 28,22.7 29,23.2 L29,23.2 Z M23.1,26.6 C22.5,27.2 22.2,28 22,28.9 L28.8,28.9 C28.7,27.8 28.4,27 27.7,26.5 C27.1,26 26.3,25.7 25.3,25.7 C24.4,25.8 23.7,26 23.1,26.6 Z M38.1,33.2 C38.2,33.9 38.4,34.4 38.6,34.7 C39.1,35.2 40,35.5 41.3,35.5 C42.1,35.5 42.7,35.4 43.2,35.2 C43.7,35 43.9,34.6 43.9,34.2 C43.9,33.8 43.7,33.4 43.3,33.2 C42.9,33 41.5,32.6 39.2,32 C37.5,31.6 36.3,31 35.6,30.4 C34.9,29.8 34.5,28.9 34.5,27.7 C34.5,26.3 35.1,25.1 36.2,24.1 C37.3,23.1 38.9,22.6 40.8,22.6 C42.7,22.6 44.2,23 45.4,23.7 C46.6,24.5 47.3,25.8 47.5,27.6 L43.5,27.6 C43.4,27.1 43.3,26.7 43.1,26.4 C42.7,25.9 41.9,25.6 40.9,25.6 C40,25.6 39.4,25.7 39.1,26 C38.7,26.3 38.5,26.6 38.5,26.9 C38.5,27.4 38.7,27.7 39.1,27.9 C39.5,28.1 40.9,28.5 43.2,29 C44.8,29.4 46,29.9 46.8,30.7 C47.6,31.5 48,32.4 48,33.6 C48,35.1 47.4,36.3 46.3,37.3 C45.2,38.3 43.4,38.7 41.1,38.7 C38.7,38.7 36.9,38.2 35.8,37.2 C34.7,36.2 34.1,34.9 34.1,33.4 L38.1,33.4 L38.1,33.2 L38.1,33.2 Z M49.3,25.8 L49.3,23 L51.4,23 L51.4,18.8 L55.3,18.8 L55.3,23 L57.8,23 L57.8,25.8 L55.3,25.8 L55.3,33.8 C55.3,34.4 55.4,34.8 55.5,35 C55.7,35.2 56.1,35.2 56.9,35.2 L57.7,35.2 L57.7,38.2 L55.8,38.3 C53.9,38.4 52.6,38 52,37.3 C51.6,36.8 51.3,36.1 51.3,35.2 L51.3,25.9 L49.3,25.9 L49.3,25.8 Z M66.6,17.4 C66.8,17.4 67.1,17.4 67.4,17.5 L67.4,20.7 C67.2,20.7 66.8,20.7 66.3,20.6 C65.8,20.6 65.4,20.7 65.2,20.9 C65,21.1 64.9,21.4 64.9,21.7 L64.9,23 L67.5,23 L67.5,25.8 L64.9,25.8 L64.9,38 L61,38 L61,25.8 L58.8,25.8 L58.8,23 L61,23 L61,22 C61,20.4 61.3,19.3 61.8,18.6 C62.4,17.7 63.8,17.2 66,17.2 C66.2,17.3 66.4,17.3 66.6,17.4 Z M78.2,22.5 L78.5,22.5 L78.5,26.6 C78.2,26.6 78,26.6 77.8,26.5 L77.3,26.5 C75.7,26.5 74.6,27 74.1,28.1 C73.8,28.7 73.6,29.6 73.6,30.8 L73.6,38 L69.6,38 L69.6,22.9 L73.6,22.9 L73.6,25.5 C74.2,24.5 74.7,23.8 75.2,23.4 C75.9,22.8 76.9,22.5 78.2,22.5 L78.2,22.5 Z M101.4,33.2 C101.5,33.9 101.7,34.4 101.9,34.7 C102.4,35.2 103.3,35.5 104.6,35.5 C105.4,35.5 106,35.4 106.5,35.2 C107,35 107.2,34.6 107.2,34.2 C107.2,33.8 107,33.4 106.6,33.2 C106.2,33 104.8,32.6 102.5,32 C100.8,31.6 99.6,31 98.9,30.4 C98.2,29.8 97.8,28.9 97.8,27.7 C97.8,26.3 98.4,25.1 99.5,24.1 C100.6,23.1 102.2,22.6 104.2,22.6 C106.1,22.6 107.6,23 108.8,23.7 C110,24.5 110.7,25.8 110.9,27.6 L106.9,27.6 C106.8,27.1 106.7,26.7 106.5,26.4 C106.1,25.9 105.3,25.6 104.3,25.6 C103.4,25.6 102.8,25.7 102.5,26 C102.1,26.3 101.9,26.6 101.9,26.9 C101.9,27.4 102.1,27.7 102.5,27.9 C102.9,28.1 104.3,28.5 106.6,29 C108.2,29.4 109.4,29.9 110.2,30.7 C111,31.5 111.4,32.4 111.4,33.6 C111.4,35.1 110.8,36.3 109.7,37.3 C108.6,38.3 106.8,38.7 104.5,38.7 C102.1,38.7 100.3,38.2 99.2,37.2 C98.1,36.2 97.5,34.9 97.5,33.4 L101.4,33.4 L101.4,33.2 L101.4,33.2 Z M112.6,25.8 L112.6,23 L114.7,23 L114.7,18.8 L118.6,18.8 L118.6,23 L121.1,23 L121.1,25.8 L118.6,25.8 L118.6,33.8 C118.6,34.4 118.7,34.8 118.8,35 C119,35.2 119.4,35.2 120.2,35.2 L121,35.2 L121,38.2 L119.1,38.3 C117.2,38.4 115.9,38 115.3,37.3 C114.9,36.8 114.6,36.1 114.6,35.2 L114.6,25.9 L112.6,25.9 L112.6,25.8 Z M115.4,45.5 L121.2,45.5 L121.2,52.8 L115.4,52.8 L115.4,45.5 Z M0,45.5 L5.8,45.5 L5.8,52.8 L0,52.8 L0,45.5 Z M12.4,52.7 L11.5,52.7 L8.7,45.9 L10,45.9 L12,50.9 L13.9,45.9 L15.1,45.9 L12.4,52.7 L12.4,52.7 Z M16,45.9 L20,45.9 L20,47 L17.3,47 L17.3,48.7 L19.7,48.7 L19.7,49.8 L17.3,49.8 L17.3,51.6 L20.1,51.6 L20.1,52.7 L16.1,52.7 L16,45.9 Z M21.3,47.7 C21.3,46.7 22.1,45.8 23.4,45.8 C24.2,45.8 24.9,46.1 25.3,46.5 L24.7,47.4 C24.4,47.1 24,46.9 23.5,46.9 C22.9,46.9 22.5,47.2 22.5,47.6 C22.5,49 25.6,48.6 25.6,50.8 C25.6,51.9 24.6,52.7 23.3,52.7 C22.4,52.7 21.4,52.3 21.1,51.6 L21.8,50.8 C22.2,51.3 22.8,51.6 23.4,51.6 C24,51.6 24.4,51.3 24.4,50.8 C24.3,49.6 21.3,49.9 21.3,47.7 L21.3,47.7 Z M26.1,45.9 L31.7,45.9 L31.7,47 L29.5,47 L29.5,52.7 L28.3,52.7 L28.3,47 L26.1,47 L26.1,45.9 L26.1,45.9 Z M32.8,45.9 L36.7,45.9 L36.7,47 L34,47 L34,48.9 L36.4,48.9 L36.4,50 L34,50 L34,52.6 L32.8,52.6 L32.8,45.9 L32.8,45.9 Z M38,52.7 L38,45.9 L40.1,45.9 C42,45.9 42.6,46.8 42.6,48 C42.6,49.2 41.9,49.7 41.3,49.9 L43.4,52.7 L42,52.7 L40,50.2 L39.2,50.2 L39.2,52.7 L38,52.7 L38,52.7 Z M39.2,47 L39.2,49 L40,49 C40.7,49 41.3,48.7 41.3,48 C41.3,47.5 41,47 40,47 L39.2,47 Z M47.4,45.8 C49.4,45.8 50.9,47.2 50.9,49.3 C50.9,51.3 49.4,52.8 47.4,52.8 C45.4,52.8 43.9,51.4 43.9,49.3 C43.9,47.3 45.3,45.8 47.4,45.8 Z M47.4,51.7 C48.8,51.7 49.7,50.7 49.7,49.3 C49.7,47.9 48.7,46.9 47.4,46.9 C46.1,46.9 45.1,47.9 45.1,49.3 C45.1,50.7 46.1,51.7 47.4,51.7 Z M52,47.7 C52,46.7 52.8,45.8 54.1,45.8 C54.9,45.8 55.6,46.1 56,46.5 L55.4,47.4 C55.1,47.1 54.7,46.9 54.2,46.9 C53.6,46.9 53.3,47.2 53.3,47.6 C53.3,49 56.4,48.6 56.4,50.8 C56.4,51.9 55.4,52.7 54.1,52.7 C53.2,52.7 52.2,52.3 51.9,51.6 L52.6,50.8 C53,51.3 53.6,51.6 54.2,51.6 C54.8,51.6 55.2,51.3 55.2,50.8 C55,49.6 52,49.9 52,47.7 L52,47.7 Z M56.8,45.9 L62.4,45.9 L62.4,47 L60.2,47 L60.2,52.7 L59,52.7 L59,47 L56.8,47 L56.8,45.9 L56.8,45.9 Z M63.1,49.5 L65.5,49.5 L65.5,50.5 L63.1,50.5 L63.1,49.5 Z M66.8,47.7 C66.8,46.7 67.6,45.8 68.9,45.8 C69.7,45.8 70.4,46.1 70.8,46.5 L70.2,47.4 C69.9,47.1 69.5,46.9 69,46.9 C68.4,46.9 68.1,47.2 68.1,47.6 C68.1,49 71.2,48.6 71.2,50.8 C71.2,51.9 70.2,52.7 68.9,52.7 C68,52.7 67,52.3 66.7,51.6 L67.4,50.8 C67.8,51.3 68.4,51.6 69,51.6 C69.6,51.6 70,51.3 70,50.8 C69.8,49.6 66.8,49.9 66.8,47.7 L66.8,47.7 Z M71.6,45.9 L77.2,45.9 L77.2,47 L75,47 L75,52.7 L73.8,52.7 L73.8,47 L71.6,47 L71.6,45.9 L71.6,45.9 Z M81.3,45.8 C83.3,45.8 84.8,47.2 84.8,49.3 C84.8,51.3 83.3,52.8 81.3,52.8 C79.3,52.8 77.8,51.4 77.8,49.3 C77.8,47.3 79.2,45.8 81.3,45.8 Z M81.3,51.7 C82.7,51.7 83.6,50.7 83.6,49.3 C83.6,47.9 82.6,46.9 81.3,46.9 C80,46.9 79,47.9 79,49.3 C79,50.7 80,51.7 81.3,51.7 Z M86.2,52.7 L86.2,45.9 L88.3,45.9 C90.2,45.9 90.8,46.8 90.8,48 C90.8,49.2 90.1,49.7 89.5,49.9 L91.6,52.7 L90.2,52.7 L88.3,50.2 L87.5,50.2 L87.5,52.7 L86.2,52.7 L86.2,52.7 Z M87.4,47 L87.4,49 L88.2,49 C88.9,49 89.5,48.7 89.5,48 C89.5,47.5 89.2,47 88.2,47 L87.4,47 Z M92.6,45.9 L96.5,45.9 L96.5,47 L93.8,47 L93.8,48.7 L96.2,48.7 L96.2,49.8 L93.8,49.8 L93.8,51.6 L96.6,51.6 L96.6,52.7 L92.6,52.7 L92.6,45.9 L92.6,45.9 Z M98.4,51.2 C98.8,51.2 99.1,51.6 99.1,51.9 C99.1,52.3 98.8,52.7 98.4,52.7 C97.9,52.7 97.6,52.3 97.6,51.9 C97.7,51.6 98,51.2 98.4,51.2 Z M100.5,52.7 L100.5,45.9 L102.6,45.9 C104.5,45.9 105.1,46.8 105.1,48 C105.1,49.2 104.4,49.7 103.8,49.9 L105.9,52.7 L104.5,52.7 L102.6,50.2 L101.8,50.2 L101.8,52.7 L100.5,52.7 L100.5,52.7 Z M101.7,47 L101.7,49 L102.5,49 C103.2,49 103.8,48.7 103.8,48 C103.8,47.5 103.5,47 102.5,47 L101.7,47 Z M112.4,49.9 C112.4,52 111.1,52.8 109.7,52.8 C108,52.8 106.8,51.8 106.8,49.8 L106.8,45.9 L108,45.9 L108,49.6 C108,50.9 108.5,51.7 109.7,51.7 C110.7,51.7 111.2,51 111.2,49.7 L111.2,46 L112.4,46 L112.4,49.9 L112.4,49.9 Z"/>
    <g transform="translate(79 19)">
      <g transform="translate(0 .032)">
        <mask id="vestfrost-store.ru-b" fill="#fff">
          <use xlink:href="#vestfrost-store.ru-a"/>
        </mask>
        <path fill="#AC0A15" d="M1.15071233,1.17805479 C0.684958904,1.5890137 0.630164384,2.27394521 1.04112329,2.73969863 C1.45208219,3.20545205 2.1370137,3.26024658 2.60276712,2.84928767 C3.06852055,2.43832877 3.12331507,1.75339726 2.71235616,1.28764384 C2.32879452,0.849287671 1.61646575,0.794493151 1.15071233,1.17805479 M3.06852055,3.39723288 C2.32879452,4.05476712 1.17810959,3.97257534 0.547972603,3.20545205 C-0.109561644,2.46572603 -0.027369863,1.3150411 0.739753425,0.68490411 C1.47947945,0.027369863 2.63016438,0.109561644 3.26030137,0.876684932 C3.89043836,1.61641096 3.80824658,2.73969863 3.06852055,3.39723288" mask="url(#vestfrost-store.ru-b)"/>
      </g>
      <path fill="#AC0A15" d="M1.75336986,0.963835616 C2.10953425,0.909041096 2.49309589,1.0460274 2.73967123,1.34739726 C3.15063014,1.81315068 3.09583562,2.52547945 2.63008219,2.9090411 C2.49309589,3.01863014 2.35610959,3.10082192 2.21912329,3.12821918 C2.43830137,3.10082192 2.63008219,3.01863014 2.79446575,2.88164384 C3.26021918,2.47068493 3.3150137,1.78575342 2.90405479,1.32 C2.60268493,0.963835616 2.13693151,0.854246575 1.75336986,0.963835616 M0.876657534,0.662465753 C1.09583562,0.470684932 1.34241096,0.36109589 1.5889863,0.27890411 C1.26021918,0.33369863 0.958849315,0.470684932 0.712273973,0.689863014 C-0.0274520548,1.34739726 -0.109643836,2.47068493 0.520493151,3.21041096 C0.986246575,3.7309589 1.69857534,3.95013699 2.32871233,3.78575342 C1.7259726,3.86794521 1.09583562,3.67616438 0.684876712,3.1830137 C0.054739726,2.47068493 0.136931507,1.32 0.876657534,0.662465753"/>
      <path fill="#AC0A15" d="M1.26027397,0.388465753 C1.89041096,0.251479452 2.57534247,0.443260274 3.01369863,0.963808219 C3.67123288,1.70353425 3.5890411,2.85421918 2.82191781,3.48435616 C2.65753425,3.62134247 2.46575342,3.73093151 2.30136986,3.81312329 C2.57534247,3.75832877 2.84931507,3.62134247 3.06849315,3.42956164 C3.80821918,2.7720274 3.89041096,1.64873973 3.26027397,0.909013699 C2.73972603,0.306273973 1.94520548,0.141890411 1.26027397,0.388465753 M1.15068493,1.21038356 C1.23287671,1.12819178 1.34246575,1.07339726 1.45205479,1.01860274 C1.26027397,1.046 1.09589041,1.12819178 0.931506849,1.26517808 C0.465753425,1.67613699 0.410958904,2.36106849 0.821917808,2.82682192 C1.15068493,3.21038356 1.67123288,3.3199726 2.10958904,3.12819178 C1.7260274,3.21038356 1.31506849,3.07339726 1.06849315,2.7720274 C0.630136986,2.33367123 0.684931507,1.62134247 1.15068493,1.21038356"/>
      <path fill="#AC0A15" d="M5.36986301,3.01863014 C5.47945205,3.12821918 5.56164384,3.26520548 5.61643836,3.37479452 C5.94520548,3.95013699 5.94520548,4.66246575 5.67123288,5.23780822 C5.56164384,5.48438356 5.36986301,5.70356164 5.15068493,5.89534247 C4.93150685,6.08712329 4.68493151,6.22410959 4.4109589,6.30630137 C3.78082192,6.49808219 3.09589041,6.38849315 2.54794521,6.00493151 C2.43835616,5.92273973 2.32876712,5.81315068 2.21917808,5.70356164 C2.10958904,5.5939726 2.08219178,5.48438356 2,5.34739726 C1.64383562,4.68986301 1.67123288,3.86794521 2.08219178,3.23780822 C2.19178082,3.07342466 2.30136986,2.93643836 2.46575342,2.82684932 C2.65753425,2.66246575 2.84931507,2.55287671 3.06849315,2.47068493 C3.7260274,2.22410959 4.46575342,2.30630137 5.04109589,2.74465753 C5.17808219,2.79945205 5.28767123,2.9090411 5.36986301,3.01863014"/>
      <path fill="#AC0A15" d="M2.10961644 3.23775342L4.65756164 6.16926027 3.56167123 7.12816438 2.02742466 5.34734247C1.64386301 4.68980822 1.67126027 3.86789041 2.10961644 3.23775342M5.0410411 2.71723288L6.57528767 4.49805479 5.5889863 5.34736986 3.09583562 2.44326027C3.7259726 2.19668493 4.49309589 2.30627397 5.0410411 2.71723288"/>
      <g transform="translate(0 1.402)">
        <mask id="vestfrost-store.ru-d" fill="#fff">
          <use xlink:href="#vestfrost-store.ru-c"/>
        </mask>
        <path fill="#C1000E" d="M9.17805479,2.73972603e-05 C14.2468219,2.73972603e-05 18.356137,4.10934247 18.356137,9.17810959 C18.356137,14.2468767 14.2468219,18.3561918 9.17805479,18.3561918 C4.10928767,18.3561918 -2.73972603e-05,14.2468767 -2.73972603e-05,9.17810959 C-2.73972603e-05,4.10934247 4.10928767,2.73972603e-05 9.17805479,2.73972603e-05" mask="url(#vestfrost-store.ru-d)"/>
      </g>
      <path fill="#C1000E" d="M7.34252055 2.55282192C6.8219726 2.47063014 6.35621918 3.01857534 6.35621918 3.51172603 6.35621918 4.08706849 6.79457534 4.41583562 7.31512329 4.4980274 11.178137 5.0459726 13.0411507 10.5802192 11.178137 13.7856986 10.548 14.8541918 12.2192329 15.8681644 12.8493699 14.772274 15.5069041 10.251726 12.7123836 3.31994521 7.34252055 2.55282192M16.1096438 4.58021918C19.4247123 8.41583562 18.9863562 14.1966575 15.178137 17.512 13.287726 19.1558356 10.9041644 19.8678904 8.60279452 19.7309041 9.75347945 19.3747397 10.8767671 18.772 11.8630685 17.9229589 15.6986849 14.6076164 16.1096438 8.82679452 12.7945753 4.99117808 11.1233425 3.0459726 8.8219726 1.97747945 6.43841096 1.84049315 9.80827397.772 13.6438904 1.73090411 16.1096438 4.58021918M4.38353425 15.8404932C3.97257534 16.1966575 3.94517808 16.7993973 4.27394521 17.2103562L4.32873973 17.2651507C4.68490411 17.6761096 5.28764384 17.7035068 5.69860274 17.3750137 6.10956164 17.0185753 6.1369589 16.4161096 5.80819178 16.0051507L5.75339726 15.9500822C5.42463014 15.5391233 4.79449315 15.4843288 4.38353425 15.8404932M3.89038356 6.88158904C2.57531507 8.93638356 2.49312329 12.1966575 4.10956164 14.1144658 4.90408219 15.0733699 3.4520274 16.3336438 2.63010959 15.3747397.465726027 12.772.493123288 8.58021918 2.27394521 5.81309589 2.95887671 4.74460274 4.57531507 5.84049315 3.89038356 6.88158904"/>
      <path fill="#FFF" d="M6.08221918,14.5527671 C5.8630411,14.3612603 5.50687671,14.4157808 5.34249315,14.6352329 C5.15071233,14.854411 5.20550685,15.2103014 5.42468493,15.3746849 C5.64386301,15.5664658 6.0000274,15.5116712 6.16441096,15.2924932 C6.35619178,15.0733151 6.30139726,14.7445479 6.08221918,14.5527671 L6.08221918,14.5527671 Z M12.4109863,6.47057534 C12.6301644,6.66235616 12.9863288,6.60756164 13.1507123,6.38838356 C13.3424932,6.16920548 13.2876986,5.81331507 13.0685205,5.64865753 C12.8493425,5.45687671 12.4931781,5.51167123 12.3287945,5.73084932 C12.1370137,5.95030137 12.1918082,6.27879452 12.4109863,6.47057534 L12.4109863,6.47057534 Z M13.3972877,14.4157808 C13.6164658,14.6075616 13.9726301,14.5527671 14.1370137,14.333589 C14.3287945,14.114411 14.274,13.7585205 14.0548219,13.593863 C13.8356438,13.4023562 13.4794795,13.4568767 13.3150959,13.6763288 C13.1233151,13.9226301 13.1507123,14.2513973 13.3972877,14.4157808 L13.3972877,14.4157808 Z M5.12331507,6.60756164 C4.90413699,6.41578082 4.5479726,6.47057534 4.38358904,6.68975342 C4.19180822,6.90920548 4.24660274,7.26509589 4.46578082,7.42947945 C4.6849589,7.62126027 5.04112329,7.56646575 5.20550685,7.34728767 C5.36989041,7.12810959 5.34249315,6.77221918 5.12331507,6.60756164 L5.12331507,6.60756164 Z M8.76715068,6.25139726 L8.73975342,6.25139726 L8.71235616,6.25139726 L7.80824658,5.45687671 C7.72605479,5.37468493 7.58906849,5.37468493 7.50687671,5.48427397 C7.42468493,5.56646575 7.42468493,5.70345205 7.53427397,5.78564384 L8.60276712,6.74454795 L8.6849589,7.34728767 L7.97263014,6.71715068 C7.89043836,6.63523288 7.75345205,6.63523288 7.67126027,6.74454795 C7.58906849,6.82673973 7.58906849,6.96372603 7.69865753,7.04619178 L8.76715068,8.00509589 L9.01372603,10.1146849 L7.34249315,8.79934247 L7.06852055,7.40208219 C7.04112329,7.29249315 6.93153425,7.21030137 6.82194521,7.23769863 C6.71235616,7.26509589 6.63016438,7.37468493 6.65756164,7.48427397 L6.82194521,8.41605479 L6.32879452,8.03221918 L6.05482192,6.63523288 C6.02742466,6.52536986 5.91783562,6.44317808 5.80824658,6.47057534 C5.69865753,6.49824658 5.61646575,6.60756164 5.64386301,6.71715068 L5.8630411,7.89523288 L5.83564384,7.92263014 L5.80824658,7.9500274 L4.60276712,8.00509589 C4.49317808,8.00509589 4.4109863,8.11441096 4.4109863,8.224 C4.4109863,8.33386301 4.52057534,8.41605479 4.63016438,8.41605479 L6.05482192,8.33386301 L6.5479726,8.71715068 L5.58906849,8.77194521 C5.47947945,8.77194521 5.39728767,8.88180822 5.39728767,8.99112329 C5.39728767,9.1009863 5.50687671,9.18290411 5.61646575,9.18290411 L7.04112329,9.1009863 L8.71235616,10.4157808 L6.60276712,10.6626301 L5.42468493,9.86783562 C5.34249315,9.8130411 5.20550685,9.84071233 5.15071233,9.92290411 C5.09591781,10.0048219 5.12331507,10.1418082 5.20550685,10.1968767 L6.0000274,10.7448219 L5.39728767,10.8267397 L4.21920548,10.0322192 C4.1370137,9.97769863 4.0000274,10.0048219 3.94523288,10.0870137 C3.89043836,10.1692055 3.91783562,10.3061918 4.0000274,10.3609863 L4.98632877,11.0459178 L4.98632877,11.073589 L4.98632877,11.1007123 L4.19180822,12.0048219 C4.10961644,12.0870137 4.10961644,12.224 4.21920548,12.3064658 C4.30139726,12.3886575 4.43838356,12.3886575 4.52057534,12.2787945 L5.47947945,11.2105753 L6.08221918,11.1281096 L5.45208219,11.8407123 C5.36989041,11.9226301 5.36989041,12.0596164 5.47947945,12.1418082 C5.56167123,12.224 5.69865753,12.224 5.78084932,12.1146849 L6.73975342,11.0459178 L8.84934247,10.7996164 L7.53427397,12.4705753 L6.1370137,12.7445479 C6.02742466,12.7719452 5.94523288,12.8815342 5.97263014,12.9913973 C6.0000274,13.1007123 6.10961644,13.1829041 6.21920548,13.1555068 L7.15071233,12.9913973 L6.71235616,13.4294795 L5.31509589,13.7034521 C5.20550685,13.7308493 5.12331507,13.8404384 5.15071233,13.9503014 C5.17810959,14.0596164 5.28769863,14.1418082 5.39728767,14.114411 L6.60276712,13.8955068 L6.6849589,15.1283836 C6.6849589,15.1831781 6.71235616,15.2376986 6.76715068,15.2924932 C6.79454795,15.3201644 6.84934247,15.3472877 6.90413699,15.3472877 C7.01372603,15.3472877 7.09591781,15.2376986 7.09591781,15.1283836 L7.01372603,13.7034521 L7.39728767,13.2105753 L7.45208219,14.1694795 C7.45208219,14.224274 7.47947945,14.2787945 7.53427397,14.333589 C7.56167123,14.3612603 7.61646575,14.3883836 7.67126027,14.3883836 C7.78084932,14.3883836 7.8630411,14.2787945 7.8630411,14.1694795 L7.78084932,12.7445479 L9.09591781,11.073589 L9.34249315,13.1829041 L8.5479726,14.3612603 C8.49317808,14.4434521 8.52057534,14.5804384 8.60276712,14.6352329 C8.6849589,14.6897534 8.82194521,14.6623562 8.87673973,14.5804384 L9.42468493,13.7856438 L9.50687671,14.3883836 L8.71235616,15.5664658 C8.65756164,15.6486575 8.6849589,15.7856438 8.76715068,15.8404384 C8.84934247,15.8952329 8.98632877,15.8681096 9.04112329,15.7856438 L9.72605479,14.7722192 L9.75345205,14.7722192 L9.78084932,14.7722192 L10.7123562,15.594137 C10.7671507,15.6486575 10.8219452,15.6486575 10.8767397,15.6486575 C10.9315342,15.6486575 10.9589315,15.6212603 11.013726,15.594137 C11.0959178,15.5116712 11.0959178,15.3746849 10.9863288,15.2924932 L9.91783562,14.333589 L9.83564384,13.7308493 L10.5479726,14.3612603 C10.6027671,14.4157808 10.6575616,14.4157808 10.7123562,14.4157808 C10.7671507,14.4157808 10.7945479,14.3883836 10.8493425,14.3612603 C10.9315342,14.2787945 10.9315342,14.1418082 10.8219452,14.0596164 L9.75345205,13.1007123 L9.50687671,10.9911233 L11.1781096,12.3064658 L11.4520822,13.7034521 C11.4794795,13.8133151 11.5890685,13.8955068 11.6986575,13.8678356 C11.8082466,13.8404384 11.8904384,13.7308493 11.8630411,13.6215342 L11.6986575,12.6897534 L12.1918082,13.073589 L12.4657808,14.4705753 C12.4931781,14.5804384 12.6027671,14.6623562 12.7123562,14.6352329 C12.8219452,14.6075616 12.904137,14.4982466 12.8767397,14.3883836 L12.6575616,13.1829041 L13.8904384,13.1283836 C13.9452329,13.1283836 14.0000274,13.1007123 14.0274247,13.0459178 C14.0548219,13.0185205 14.0822192,12.963726 14.0822192,12.9089315 C14.0822192,12.7996164 13.9726301,12.7174247 13.8630411,12.7174247 L12.4383836,12.7996164 L11.9452329,12.4157808 L12.904137,12.3609863 C12.9589315,12.3609863 13.013726,12.333589 13.0411233,12.2787945 C13.0685205,12.2516712 13.0959178,12.1966027 13.0959178,12.1418082 C13.0959178,12.0324932 12.9863288,11.9500274 12.8767397,11.9500274 L11.4520822,12.0324932 L9.78084932,10.7171507 L11.8904384,10.4708493 L13.0685205,11.2650959 C13.1507123,11.3198904 13.2876986,11.2927671 13.3424932,11.2105753 C13.3972877,11.1281096 13.3698904,10.9911233 13.2876986,10.9366027 L12.4931781,10.3886575 L13.0959178,10.3061918 L14.274,11.1007123 C14.3561918,11.1557808 14.4931781,11.1281096 14.5479726,11.0459178 C14.6027671,10.963726 14.5753699,10.8267397 14.4931781,10.7719452 L13.4794795,10.0870137 L13.4794795,10.0598904 L13.4794795,10.0322192 L14.3013973,9.1009863 C14.3561918,9.04591781 14.3561918,8.99112329 14.3561918,8.93632877 C14.3561918,8.88180822 14.3287945,8.85413699 14.3013973,8.79934247 C14.2192055,8.71715068 14.0822192,8.71715068 14.0000274,8.8270137 L13.0411233,9.89523288 L12.4383836,9.97769863 L13.0685205,9.26509589 C13.0959178,9.21030137 13.1233151,9.15578082 13.1233151,9.1009863 C13.1233151,9.04591781 13.0959178,9.01879452 13.0685205,8.964 C12.9863288,8.88180822 12.8493425,8.88180822 12.7671507,8.99112329 L11.8082466,10.0598904 L9.69865753,10.3061918 L11.013726,8.6349589 L12.4109863,8.3609863 C12.5205753,8.33386301 12.6027671,8.224 12.5753699,8.11441096 C12.5479726,8.00509589 12.4383836,7.92263014 12.3287945,7.9500274 L11.3972877,8.11441096 L11.7808493,7.62126027 L13.1781096,7.34728767 C13.2876986,7.32016438 13.3698904,7.21030137 13.3424932,7.10071233 C13.3150959,6.99112329 13.2055068,6.90920548 13.0959178,6.93632877 L11.9178356,7.15550685 L11.8904384,7.12810959 L11.8630411,7.10071233 L11.8082466,5.89523288 C11.8082466,5.78564384 11.6986575,5.70345205 11.5890685,5.70345205 C11.4794795,5.70345205 11.3972877,5.81331507 11.3972877,5.92263014 L11.4794795,7.34728767 L11.0959178,7.84043836 L11.0411233,6.88153425 C11.0411233,6.77221918 10.9315342,6.68975342 10.8219452,6.68975342 C10.7123562,6.68975342 10.6301644,6.79934247 10.6301644,6.90920548 L10.7123562,8.33386301 L9.39728767,10.0048219 L9.15071233,7.89523288 L9.94523288,6.71715068 C10.0000274,6.63523288 9.97263014,6.49824658 9.89043836,6.44317808 C9.80824658,6.38838356 9.67126027,6.41578082 9.61646575,6.49824658 L9.06852055,7.29249315 L8.98632877,6.68975342 L9.78084932,5.51167123 C9.83564384,5.42947945 9.80824658,5.29249315 9.72605479,5.23769863 C9.64386301,5.18290411 9.50687671,5.21030137 9.45208219,5.29249315 L8.76715068,6.25139726 Z M9.42468493,16.1966027 C9.45208219,16.4982466 9.72605479,16.6900274 10.0000274,16.6623562 C10.3013973,16.6352329 10.4931781,16.3612603 10.4657808,16.0596164 C10.4383836,15.7582466 10.164411,15.5664658 9.8630411,15.594137 C9.58906849,15.6486575 9.36989041,15.9226301 9.42468493,16.1966027 L9.42468493,16.1966027 Z M8.02742466,4.96372603 C8.05482192,5.26536986 8.32879452,5.45687671 8.60276712,5.42947945 C8.90413699,5.40235616 9.09591781,5.12838356 9.06852055,4.85441096 C9.04112329,4.55276712 8.76715068,4.3609863 8.46578082,4.38838356 C8.21920548,4.38838356 8.0000274,4.66235616 8.02742466,4.96372603 L8.02742466,4.96372603 Z M4.1370137,11.1281096 C4.10961644,10.8267397 3.83564384,10.6349589 3.53427397,10.6626301 C3.23290411,10.6897534 3.04112329,10.963726 3.06852055,11.2650959 C3.09591781,11.5667397 3.36989041,11.7585205 3.67126027,11.7308493 C3.97263014,11.703726 4.19180822,11.4297534 4.1370137,11.1281096 L4.1370137,11.1281096 Z M14.8219452,9.29276712 C15.1233151,9.26509589 15.3698904,9.45687671 15.4246849,9.75824658 C15.4520822,10.0598904 15.2603014,10.3061918 14.9589315,10.333863 C14.6575616,10.3609863 14.4109863,10.1692055 14.3561918,9.86783562 C14.3287945,9.59386301 14.5205753,9.34728767 14.8219452,9.29276712 L14.8219452,9.29276712 Z"/>
    </g>
  </g>
</svg>
