<svg xmlns="http://www.w3.org/2000/svg" width="168" height="40" viewBox="0 0 168 40">
  <path fill="#394791" d="M136.464844,66.8486328 C136.693361,66.8486328 136.910155,66.8134769 137.115234,66.7431641 C137.320314,66.6728512 137.501952,66.562989 137.660156,66.4135742 C137.81836,66.2641594 137.9458,66.0737316 138.04248,65.8422852 C138.139161,65.6108387 138.196289,65.3310563 138.213867,65.0029297 L139.681641,65.0029297 C139.664062,65.4775414 139.565919,65.909666 139.387207,66.2993164 C139.208495,66.6889668 138.974123,67.0229478 138.684082,67.3012695 C138.394042,67.5795912 138.058596,67.7949211 137.677734,67.9472656 C137.296873,68.0996101 136.89258,68.1757812 136.464844,68.1757812 C135.849606,68.1757812 135.314944,68.0761729 134.86084,67.8769531 C134.406736,67.6777334 134.030275,67.3906269 133.731445,67.015625 C133.432616,66.6406231 133.209962,66.1806668 133.063477,65.6357422 C132.916991,65.0908176 132.84375,64.4726597 132.84375,63.78125 L132.84375,62.7089844 C132.84375,62.0175747 132.916991,61.4008816 133.063477,60.8588867 C133.209962,60.3168918 133.432616,59.8569355 133.731445,59.4790039 C134.030275,59.1010723 134.405271,58.812501 134.856445,58.6132812 C135.307619,58.4140615 135.840817,58.3144531 136.456055,58.3144531 C136.936526,58.3144531 137.37158,58.3920891 137.76123,58.5473633 C138.150881,58.7026375 138.484862,58.9282212 138.763184,59.2241211 C139.041505,59.520021 139.259765,59.8818338 139.417969,60.3095703 C139.576173,60.7373068 139.664062,61.2207004 139.681641,61.7597656 L138.213867,61.7597656 C138.178711,61.0566371 138.010255,60.5292986 137.708496,60.1777344 C137.406737,59.8261701 136.98926,59.6503906 136.456055,59.6503906 C136.045896,59.6503906 135.708986,59.7236321 135.445312,59.8701172 C135.181639,60.0166023 134.972169,60.2231432 134.816895,60.4897461 C134.66162,60.756349 134.553223,61.0771466 134.491699,61.4521484 C134.430175,61.8271503 134.399414,62.2460914 134.399414,62.7089844 L134.399414,63.78125 C134.399414,64.2500023 134.428711,64.673338 134.487305,65.0512695 C134.545899,65.4292011 134.652831,65.7514635 134.808105,66.0180664 C134.96338,66.2846693 135.174315,66.4897454 135.440918,66.6333008 C135.707521,66.7768562 136.048826,66.8486328 136.464844,66.8486328 Z M148.363086,68 L146.816211,68 L146.816211,59.8349609 L143.379687,59.8349609 L143.379687,68 L141.815234,68 L141.815234,58.4902344 L148.363086,58.4902344 L148.363086,68 Z M154.442969,68.1757812 C153.874607,68.1757812 153.361916,68.0908212 152.904883,67.9208984 C152.447849,67.7509757 152.05967,67.491701 151.740332,67.1430664 C151.420994,66.7944319 151.176368,66.3535183 151.006445,65.8203125 C150.836523,65.2871067 150.751563,64.6572302 150.751563,63.9306641 L150.751563,62.8583984 C150.751563,62.0205036 150.851171,61.3129912 151.050391,60.7358398 C151.24961,60.1586885 151.511815,59.6899432 151.837012,59.3295898 C152.162209,58.9692365 152.53574,58.7099617 152.957617,58.5517578 C153.379494,58.3935539 153.816013,58.3144531 154.267188,58.3144531 C154.864847,58.3144531 155.374607,58.4125967 155.796484,58.6088867 C156.218361,58.8051768 156.564061,59.0937481 156.833594,59.4746094 C157.103126,59.8554707 157.299413,60.324216 157.422461,60.8808594 C157.545508,61.4375028 157.607031,62.0790979 157.607031,62.8056641 L157.607031,63.7109375 L152.298438,63.7109375 L152.298438,63.9306641 C152.298438,64.9502004 152.49033,65.6914039 152.874121,66.1542969 C153.257912,66.6171898 153.810153,66.8486328 154.530859,66.8486328 C154.794533,66.8486328 155.031835,66.8222659 155.242773,66.7695312 C155.453712,66.7167966 155.647069,66.6420903 155.822852,66.5454102 C155.998634,66.44873 156.159765,66.3344733 156.30625,66.2026367 C156.452735,66.0708001 156.590429,65.925782 156.719336,65.7675781 L157.52793,66.7519531 C157.399023,66.9335947 157.243751,67.1093742 157.062109,67.2792969 C156.880468,67.4492196 156.663673,67.600097 156.411719,67.7319336 C156.159764,67.8637702 155.871193,67.9707027 155.545996,68.0527344 C155.220799,68.134766 154.853127,68.1757812 154.442969,68.1757812 Z M154.267188,59.6503906 C153.997655,59.6503906 153.748634,59.6914058 153.520117,59.7734375 C153.2916,59.8554692 153.090919,60.0004872 152.918066,60.2084961 C152.745214,60.4165049 152.606055,60.6962873 152.500586,61.0478516 C152.395117,61.3994158 152.330664,61.8417942 152.307227,62.375 L156.051367,62.375 L156.051367,62.1640625 C156.033789,61.79492 155.994239,61.4565445 155.932715,61.1489258 C155.871191,60.8413071 155.774512,60.576173 155.642676,60.3535156 C155.510839,60.1308583 155.333595,59.9580084 155.110938,59.8349609 C154.88828,59.7119134 154.607033,59.6503906 154.267188,59.6503906 Z M159.810937,58.4902344 L161.375391,58.4902344 L161.375391,66.6728516 L164.811914,66.6728516 L164.811914,58.4902344 L166.358789,58.4902344 L166.358789,66.6728516 L167.360742,66.6728516 L167.202539,70.8212891 L165.822656,70.8212891 L165.822656,68 L159.810937,68 L159.810937,58.4902344 Z M174.451367,58.4902344 L175.998242,58.4902344 L175.998242,68 L174.451367,68 L174.451367,61.0654297 L171.006055,68 L169.450391,68 L169.450391,58.4902344 L171.006055,58.4902344 L171.006055,65.4335938 L174.451367,58.4902344 Z M183.572266,68 C183.519531,67.8828119 183.477051,67.7319345 183.444824,67.5473633 C183.412597,67.362792 183.387695,67.1679698 183.370117,66.9628906 C183.258789,67.1269539 183.131348,67.2822258 182.987793,67.4287109 C182.844238,67.575196 182.683106,67.704101 182.504395,67.8154297 C182.325683,67.9267584 182.132325,68.0146481 181.924316,68.0791016 C181.716308,68.143555 181.495118,68.1757812 181.260742,68.1757812 C180.844724,68.1757812 180.468263,68.1171881 180.131348,68 C179.794432,67.8828119 179.505861,67.7070324 179.265625,67.4726562 C179.025389,67.2382801 178.840821,66.9497087 178.711914,66.6069336 C178.583007,66.2641584 178.518555,65.8642601 178.518555,65.4072266 C178.518555,64.950193 178.597655,64.5283222 178.755859,64.1416016 C178.914063,63.7548809 179.148436,63.4208998 179.458984,63.1396484 C179.769533,62.858397 180.159177,62.6372078 180.62793,62.4760742 C181.096682,62.3149406 181.641598,62.234375 182.262695,62.234375 L183.34375,62.234375 L183.34375,61.2236328 C183.34375,60.6552706 183.217775,60.2509778 182.96582,60.0107422 C182.713866,59.7705066 182.330081,59.6503906 181.814453,59.6503906 C181.562499,59.6503906 181.33838,59.689941 181.14209,59.769043 C180.9458,59.8481449 180.780274,59.9550775 180.645508,60.0898438 C180.510742,60.22461 180.408203,60.3813468 180.337891,60.5600586 C180.267578,60.7387704 180.232422,60.9277334 180.232422,61.1269531 L178.676758,61.1269531 C178.676758,60.7871077 178.751464,60.4487322 178.900879,60.1118164 C179.050294,59.7749007 179.264159,59.4731459 179.54248,59.206543 C179.820802,58.9399401 180.159178,58.7246102 180.557617,58.5605469 C180.956057,58.3964836 181.401365,58.3144531 181.893555,58.3144531 C182.33301,58.3144531 182.735838,58.367187 183.102051,58.4726562 C183.468264,58.5781255 183.784667,58.7480457 184.05127,58.9824219 C184.317872,59.216798 184.524413,59.5185528 184.670898,59.8876953 C184.817384,60.2568378 184.890625,60.7080051 184.890625,61.2412109 L184.890625,65.9257812 C184.890625,66.0839852 184.896484,66.2509757 184.908203,66.4267578 C184.919922,66.6025399 184.938965,66.7753898 184.965332,66.9453125 C184.991699,67.1152352 185.023926,67.2778313 185.062012,67.4331055 C185.100098,67.5883797 185.142578,67.7304681 185.189453,67.859375 L185.189453,68 L183.572266,68 Z M181.498047,66.7607422 C181.714845,66.7607422 181.919921,66.7285159 182.113281,66.6640625 C182.306642,66.5996091 182.482421,66.5161138 182.640625,66.4135742 C182.798829,66.3110346 182.937988,66.1938483 183.058105,66.0620117 C183.178223,65.9301751 183.273437,65.793946 183.34375,65.6533203 L183.34375,63.3857422 L182.526367,63.3857422 C182.151365,63.3857422 181.81299,63.4267574 181.51123,63.5087891 C181.209471,63.5908207 180.951661,63.7094719 180.737793,63.8647461 C180.523925,64.0200203 180.359864,64.2119129 180.245605,64.4404297 C180.131347,64.6689465 180.074219,64.929686 180.074219,65.2226562 C180.074219,65.5097671 180.103515,65.7514639 180.162109,65.9477539 C180.220703,66.144044 180.308593,66.3022455 180.425781,66.4223633 C180.542969,66.5424811 180.690917,66.628906 180.869629,66.6816406 C181.048341,66.7343753 181.257811,66.7607422 181.498047,66.7607422 Z M194.204883,58.4902344 L194.204883,68 L192.649219,68 L192.649219,59.8349609 L190.153125,59.8349609 L190.065234,62.5595703 C190.030078,63.4619186 189.962696,64.2529263 189.863086,64.9326172 C189.763476,65.6123081 189.608204,66.1791969 189.397266,66.6333008 C189.186327,67.0874046 188.906545,67.4287098 188.55791,67.6572266 C188.209276,67.8857433 187.768362,68 187.235156,68 L186.804492,68 L186.839648,66.5498047 L187.138477,66.5410156 C187.40215,66.5410156 187.61748,66.4663093 187.784473,66.3168945 C187.951466,66.1674797 188.084765,65.9331071 188.184375,65.6137695 C188.283985,65.294432 188.355761,64.882815 188.399707,64.3789062 C188.443653,63.8749975 188.480273,63.2685582 188.50957,62.5595703 L188.658984,58.4902344 L194.204883,58.4902344 Z M202.016211,58.4902344 L203.563086,58.4902344 L203.563086,68 L202.016211,68 L202.016211,61.0654297 L198.570898,68 L197.015234,68 L197.015234,58.4902344 L198.570898,58.4902344 L198.570898,65.4335938 L202.016211,58.4902344 Z M212.077539,61.0830078 C212.077539,61.5107443 211.969142,61.9033185 211.752344,62.2607422 C211.535546,62.6181658 211.227932,62.9023427 210.829492,63.1132812 C211.286526,63.3007822 211.63369,63.5790997 211.870996,63.9482422 C212.108302,64.3173847 212.226953,64.777341 212.226953,65.328125 C212.226953,65.7792991 212.150782,66.1806623 211.998438,66.5322266 C211.846093,66.8837908 211.630763,67.1796863 211.352441,67.4199219 C211.07412,67.6601575 210.741603,67.8447259 210.354883,67.9736328 C209.968162,68.1025397 209.543362,68.1669922 209.080469,68.1669922 C208.687889,68.1669922 208.299709,68.108399 207.915918,67.9912109 C207.532127,67.8740229 207.189357,67.6953137 206.887598,67.4550781 C206.585838,67.2148425 206.342677,66.9072284 206.158105,66.5322266 C205.973534,66.1572247 205.88125,65.708987 205.88125,65.1875 L207.419336,65.1875 C207.419336,65.4101574 207.458886,65.6225576 207.537988,65.824707 C207.61709,66.0268565 207.728417,66.2055656 207.871973,66.3608398 C208.015528,66.5161141 208.189843,66.6406245 208.394922,66.734375 C208.600001,66.8281255 208.828514,66.875 209.080469,66.875 C209.344142,66.875 209.575585,66.83252 209.774805,66.7475586 C209.974024,66.6625972 210.13955,66.5498054 210.271387,66.4091797 C210.403223,66.268554 210.502832,66.1044931 210.570215,65.9169922 C210.637598,65.7294912 210.671289,65.5332042 210.671289,65.328125 C210.671289,64.7949192 210.552638,64.4125988 210.315332,64.1811523 C210.078026,63.9497059 209.704495,63.8339844 209.194727,63.8339844 L207.770898,63.8339844 L207.770898,62.4628906 L209.194727,62.4628906 C209.446681,62.4628906 209.657616,62.4306644 209.827539,62.3662109 C209.997462,62.3017575 210.135156,62.2094733 210.240625,62.0893555 C210.346094,61.9692377 210.420801,61.8242196 210.464746,61.6542969 C210.508692,61.4843742 210.530664,61.296876 210.530664,61.0917969 C210.530664,60.9042959 210.504297,60.724122 210.451563,60.5512695 C210.398828,60.3784171 210.315333,60.22461 210.201074,60.0898438 C210.086816,59.9550775 209.938868,59.8466801 209.757227,59.7646484 C209.575585,59.6826168 209.352931,59.6416016 209.089258,59.6416016 C208.87246,59.6416016 208.670313,59.6796871 208.482813,59.7558594 C208.295312,59.8320316 208.131251,59.9389642 207.990625,60.0766602 C207.849999,60.2143562 207.740137,60.3740225 207.661035,60.5556641 C207.581933,60.7373056 207.542383,60.9335927 207.542383,61.1445312 L206.004297,61.1445312 C206.004297,60.7109353 206.086327,60.319826 206.250391,59.9711914 C206.414454,59.6225569 206.635643,59.3266614 206.913965,59.0834961 C207.192287,58.8403308 207.518943,58.6528327 207.893945,58.5209961 C208.268947,58.3891595 208.667381,58.3232422 209.089258,58.3232422 C209.552151,58.3232422 209.968162,58.3833002 210.337305,58.503418 C210.706447,58.6235358 211.019921,58.7993152 211.277734,59.0307617 C211.535548,59.2622082 211.7333,59.5507795 211.870996,59.8964844 C212.008692,60.2421892 212.077539,60.6376931 212.077539,61.0830078 Z M219.616406,58.4902344 L221.163281,58.4902344 L221.163281,68 L219.616406,68 L219.616406,61.0654297 L216.171094,68 L214.61543,68 L214.61543,58.4902344 L216.171094,58.4902344 L216.171094,65.4335938 L219.616406,58.4902344 Z M230.714844,63.7021484 C230.714844,65.2080153 230.44385,66.3300744 229.901855,67.0683594 C229.359861,67.8066443 228.593755,68.1757812 227.603516,68.1757812 C227.105466,68.1757812 226.676271,68.083497 226.315918,67.8989258 C225.955565,67.7143545 225.649415,67.4462908 225.397461,67.0947266 L225.397461,71.65625 L223.850586,71.65625 L223.850586,58.4902344 L225.256836,58.4902344 L225.335938,59.5449219 C225.587892,59.1464824 225.896971,58.8417979 226.263184,58.6308594 C226.629396,58.4199208 227.06738,58.3144531 227.577148,58.3144531 C228.086917,58.3144531 228.536619,58.4023429 228.92627,58.578125 C229.31592,58.7539071 229.642577,59.0249005 229.90625,59.3911133 C230.169923,59.757326 230.370605,60.2246065 230.508301,60.7929688 C230.645997,61.361331 230.714844,62.0351524 230.714844,62.8144531 L230.714844,63.7021484 Z M229.167969,62.8144531 C229.167969,61.7480415 229.003908,60.9614283 228.675781,60.4545898 C228.347655,59.9477514 227.820316,59.6943359 227.09375,59.6943359 C226.689451,59.6943359 226.348146,59.7983388 226.069824,60.0063477 C225.791503,60.2143565 225.567384,60.4824202 225.397461,60.8105469 L225.397461,65.7587891 C225.567384,66.0810563 225.787108,66.3432607 226.056641,66.5454102 C226.326173,66.7475596 226.677732,66.8486328 227.111328,66.8486328 C227.820316,66.8486328 228.34033,66.5908229 228.671387,66.0751953 C229.002443,65.5595677 229.167969,64.76856 229.167969,63.7021484 L229.167969,62.8144531 Z M232.593555,62.8056641 C232.593555,62.0615197 232.688769,61.4096708 232.879199,60.8500977 C233.06963,60.2905245 233.330369,59.8232441 233.661426,59.4482422 C233.992482,59.0732403 234.380662,58.7905283 234.825977,58.6000977 C235.271291,58.409667 235.748826,58.3144531 236.258594,58.3144531 C236.774221,58.3144531 237.257615,58.409667 237.708789,58.6000977 C238.159963,58.7905283 238.551073,59.0732403 238.882129,59.4482422 C239.213185,59.8232441 239.473925,60.2905245 239.664355,60.8500977 C239.854786,61.4096708 239.95,62.0615197 239.95,62.8056641 L239.95,63.7021484 C239.95,64.4404334 239.854786,65.0893527 239.664355,65.6489258 C239.473925,66.2084989 239.213185,66.6757794 238.882129,67.0507812 C238.551073,67.4257831 238.162893,67.7070303 237.717578,67.8945312 C237.272263,68.0820322 236.791799,68.1757812 236.276172,68.1757812 C235.760544,68.1757812 235.278616,68.0820322 234.830371,67.8945312 C234.382127,67.7070303 233.992482,67.4257831 233.661426,67.0507812 C233.330369,66.6757794 233.06963,66.2084989 232.879199,65.6489258 C232.688769,65.0893527 232.593555,64.4404334 232.593555,63.7021484 L232.593555,62.8056641 Z M234.149219,63.7021484 C234.149219,64.2294948 234.203417,64.6894512 234.311816,65.0820312 C234.420215,65.4746113 234.569628,65.8012682 234.760059,66.0620117 C234.950489,66.3227552 235.174608,66.5190423 235.432422,66.6508789 C235.690236,66.7827155 235.971483,66.8486328 236.276172,66.8486328 C237.688288,66.8486328 238.394336,65.7998152 238.394336,63.7021484 L238.394336,62.8056641 C238.394336,62.2841771 238.340137,61.8271504 238.231738,61.4345703 C238.123339,61.0419902 237.973927,60.7138685 237.783496,60.4501953 C237.593065,60.1865221 237.367482,59.9873054 237.106738,59.8525391 C236.845995,59.7177728 236.563283,59.6503906 236.258594,59.6503906 C235.959764,59.6503906 235.681447,59.7177728 235.423633,59.8525391 C235.165819,59.9873054 234.943165,60.1865221 234.755664,60.4501953 C234.568163,60.7138685 234.420215,61.0419902 234.311816,61.4345703 C234.203417,61.8271504 234.149219,62.2841771 234.149219,62.8056641 L234.149219,63.7021484 Z M242.294531,68 L242.294531,58.4902344 L245.484961,58.4902344 C246.000589,58.4902344 246.466404,58.5429682 246.882422,58.6484375 C247.29844,58.7539068 247.651463,58.9135731 247.941504,59.1274414 C248.231544,59.3413097 248.454198,59.612303 248.609473,59.9404297 C248.764747,60.2685563 248.842383,60.6552712 248.842383,61.1005859 C248.842383,61.5400413 248.728126,61.9355451 248.499609,62.2871094 C248.271093,62.6386736 247.937112,62.9082022 247.497656,63.0957031 C247.761329,63.166016 247.994237,63.2729485 248.196387,63.4165039 C248.398536,63.5600593 248.568456,63.7285147 248.706152,63.921875 C248.843848,64.1152353 248.946386,64.3305652 249.01377,64.5678711 C249.081153,64.805177 249.114844,65.0498034 249.114844,65.3017578 C249.114844,65.7529319 249.043067,66.146971 248.899512,66.4838867 C248.755956,66.8208025 248.549415,67.1005848 248.279883,67.3232422 C248.01035,67.5458996 247.682228,67.7143549 247.295508,67.8286133 C246.908787,67.9428717 246.472268,68 245.985938,68 L242.294531,68 Z M243.841406,63.8251953 L243.841406,66.6904297 L245.985938,66.6904297 C246.525003,66.6904297 246.921971,66.5644544 247.176855,66.3125 C247.43174,66.0605456 247.55918,65.706057 247.55918,65.2490234 C247.55918,64.7978493 247.43174,64.4477552 247.176855,64.1987305 C246.921971,63.9497058 246.525003,63.8251953 245.985938,63.8251953 L243.841406,63.8251953 Z M243.841406,62.5244141 L245.467383,62.5244141 C246.68028,62.5244141 247.286719,62.079106 247.286719,61.1884766 C247.286719,60.2685501 246.686139,59.8085938 245.484961,59.8085938 L243.841406,59.8085938 L243.841406,62.5244141 Z M256.310938,68 C256.258203,67.8828119 256.215723,67.7319345 256.183496,67.5473633 C256.151269,67.362792 256.126367,67.1679698 256.108789,66.9628906 C255.99746,67.1269539 255.87002,67.2822258 255.726465,67.4287109 C255.582909,67.575196 255.421778,67.704101 255.243066,67.8154297 C255.064355,67.9267584 254.870997,68.0146481 254.662988,68.0791016 C254.454979,68.143555 254.23379,68.1757812 253.999414,68.1757812 C253.583396,68.1757812 253.206935,68.1171881 252.87002,68 C252.533104,67.8828119 252.244532,67.7070324 252.004297,67.4726562 C251.764061,67.2382801 251.579493,66.9497087 251.450586,66.6069336 C251.321679,66.2641584 251.257227,65.8642601 251.257227,65.4072266 C251.257227,64.950193 251.336327,64.5283222 251.494531,64.1416016 C251.652735,63.7548809 251.887108,63.4208998 252.197656,63.1396484 C252.508205,62.858397 252.897849,62.6372078 253.366602,62.4760742 C253.835354,62.3149406 254.38027,62.234375 255.001367,62.234375 L256.082422,62.234375 L256.082422,61.2236328 C256.082422,60.6552706 255.956447,60.2509778 255.704492,60.0107422 C255.452538,59.7705066 255.068753,59.6503906 254.553125,59.6503906 C254.301171,59.6503906 254.077052,59.689941 253.880762,59.769043 C253.684472,59.8481449 253.518946,59.9550775 253.38418,60.0898438 C253.249413,60.22461 253.146875,60.3813468 253.076563,60.5600586 C253.00625,60.7387704 252.971094,60.9277334 252.971094,61.1269531 L251.41543,61.1269531 C251.41543,60.7871077 251.490136,60.4487322 251.639551,60.1118164 C251.788966,59.7749007 252.002831,59.4731459 252.281152,59.206543 C252.559474,58.9399401 252.89785,58.7246102 253.296289,58.5605469 C253.694729,58.3964836 254.140037,58.3144531 254.632227,58.3144531 C255.071682,58.3144531 255.47451,58.367187 255.840723,58.4726562 C256.206935,58.5781255 256.523339,58.7480457 256.789941,58.9824219 C257.056544,59.216798 257.263085,59.5185528 257.40957,59.8876953 C257.556055,60.2568378 257.629297,60.7080051 257.629297,61.2412109 L257.629297,65.9257812 C257.629297,66.0839852 257.635156,66.2509757 257.646875,66.4267578 C257.658594,66.6025399 257.677637,66.7753898 257.704004,66.9453125 C257.730371,67.1152352 257.762597,67.2778313 257.800684,67.4331055 C257.83877,67.5883797 257.88125,67.7304681 257.928125,67.859375 L257.928125,68 L256.310938,68 Z M254.236719,66.7607422 C254.453517,66.7607422 254.658593,66.7285159 254.851953,66.6640625 C255.045313,66.5996091 255.221093,66.5161138 255.379297,66.4135742 C255.537501,66.3110346 255.67666,66.1938483 255.796777,66.0620117 C255.916895,65.9301751 256.012109,65.793946 256.082422,65.6533203 L256.082422,63.3857422 L255.265039,63.3857422 C254.890037,63.3857422 254.551662,63.4267574 254.249902,63.5087891 C253.948143,63.5908207 253.690333,63.7094719 253.476465,63.8647461 C253.262597,64.0200203 253.098536,64.2119129 252.984277,64.4404297 C252.870019,64.6689465 252.812891,64.929686 252.812891,65.2226562 C252.812891,65.5097671 252.842187,65.7514639 252.900781,65.9477539 C252.959375,66.144044 253.047265,66.3022455 253.164453,66.4223633 C253.281641,66.5424811 253.429589,66.628906 253.608301,66.6816406 C253.787013,66.7343753 253.996483,66.7607422 254.236719,66.7607422 Z M266.917188,68 L265.370313,68 L265.370313,63.9394531 L261.942578,63.9394531 L261.942578,68 L260.378125,68 L260.378125,58.4902344 L261.942578,58.4902344 L261.942578,62.6123047 L265.370313,62.6123047 L265.370313,58.4902344 L266.917188,58.4902344 L266.917188,68 Z M276.275391,68 L274.728516,68 L274.728516,63.9394531 L271.300781,63.9394531 L271.300781,68 L269.736328,68 L269.736328,58.4902344 L271.300781,58.4902344 L271.300781,62.6123047 L274.728516,62.6123047 L274.728516,58.4902344 L276.275391,58.4902344 L276.275391,68 Z M280.641406,61.7685547 L282.575,61.7685547 C283.06719,61.7685547 283.499315,61.8461906 283.871387,62.0014648 C284.243459,62.1567391 284.556932,62.3706041 284.811816,62.6430664 C285.0667,62.9155287 285.258593,63.2407208 285.3875,63.6186523 C285.516407,63.9965839 285.580859,64.4082009 285.580859,64.8535156 C285.580859,65.2929709 285.516407,65.7045879 285.3875,66.0883789 C285.258593,66.4721699 285.0667,66.8046861 284.811816,67.0859375 C284.556932,67.3671889 284.243459,67.5898429 283.871387,67.7539062 C283.499315,67.9179696 283.06719,68 282.575,68 L279.094531,68 L279.094531,58.4902344 L280.641406,58.4902344 L280.641406,61.7685547 Z M288.48125,68 L286.925586,68 L286.925586,58.4902344 L288.48125,58.4902344 L288.48125,68 Z M280.641406,63.0957031 L280.641406,66.6728516 L282.575,66.6728516 C282.844533,66.6728516 283.071581,66.6230474 283.256152,66.5234375 C283.440724,66.4238276 283.590136,66.291993 283.704395,66.1279297 C283.818653,65.9638664 283.900683,65.7763682 283.950488,65.5654297 C284.000293,65.3544911 284.025195,65.1376964 284.025195,64.9150391 C284.025195,64.7041005 284.000293,64.4902355 283.950488,64.2734375 C283.900683,64.0566395 283.818653,63.8603524 283.704395,63.6845703 C283.590136,63.5087882 283.440724,63.3666998 283.256152,63.2583008 C283.071581,63.1499018 282.844533,63.0957031 282.575,63.0957031 L280.641406,63.0957031 Z M296.529883,58.4902344 L298.076758,58.4902344 L298.076758,68 L296.529883,68 L296.529883,61.0654297 L293.08457,68 L291.528906,68 L291.528906,58.4902344 L293.08457,58.4902344 L293.08457,65.4335938 L296.529883,58.4902344 Z M297.443945,55.0273438 C297.443945,55.3730486 297.383887,55.6894517 297.26377,55.9765625 C297.143652,56.2636733 296.969337,56.5112294 296.74082,56.7192383 C296.512304,56.9272471 296.235451,57.0898432 295.910254,57.2070312 C295.585057,57.3242193 295.220315,57.3828125 294.816016,57.3828125 C294.411717,57.3828125 294.046974,57.3242193 293.721777,57.2070312 C293.39658,57.0898432 293.119728,56.9272471 292.891211,56.7192383 C292.662694,56.5112294 292.486915,56.2636733 292.363867,55.9765625 C292.24082,55.6894517 292.179297,55.3730486 292.179297,55.0273438 L293.506445,55.0273438 C293.506445,55.2031259 293.529883,55.3701164 293.576758,55.5283203 C293.623633,55.6865242 293.698339,55.825683 293.800879,55.9458008 C293.903418,56.0659186 294.038183,56.1611325 294.205176,56.2314453 C294.372169,56.3017582 294.57578,56.3369141 294.816016,56.3369141 C295.050392,56.3369141 295.251073,56.3017582 295.418066,56.2314453 C295.585059,56.1611325 295.721289,56.0659186 295.826758,55.9458008 C295.932227,55.825683 296.008398,55.6865242 296.055273,55.5283203 C296.102149,55.3701164 296.125586,55.2031259 296.125586,55.0273438 L297.443945,55.0273438 Z M139.851562,89.96875 L142.230469,81.3203125 L146.390625,81.3203125 L146.390625,94 L143.074219,94 L143.074219,87.2148438 L140.964844,94 L138.75,94 L136.722656,87.4375 L136.722656,94 L133.417969,94 L133.417969,81.3203125 L137.507812,81.3203125 L139.851562,89.96875 Z M155.167969,94 C155.105468,93.8671868 155.052735,93.7167977 155.009766,93.5488281 C154.966797,93.3808585 154.925781,93.2031259 154.886719,93.015625 C154.636718,93.3593767 154.314455,93.6484363 153.919922,93.8828125 C153.525389,94.1171887 153.042972,94.234375 152.472656,94.234375 C151.957029,94.234375 151.474612,94.1445321 151.025391,93.9648438 C150.57617,93.7851554 150.185549,93.5312516 149.853516,93.203125 C149.521483,92.8749984 149.259767,92.4785179 149.068359,92.0136719 C148.876952,91.5488258 148.78125,91.0273466 148.78125,90.4492188 C148.78125,89.8085905 148.884765,89.2285182 149.091797,88.7089844 C149.298829,88.1894505 149.611326,87.7480487 150.029297,87.3847656 C150.447268,87.0214826 150.9707,86.7421885 151.599609,86.546875 C152.228519,86.3515615 152.968746,86.2539062 153.820312,86.2539062 L154.722656,86.2539062 L154.722656,85.234375 C154.722656,84.6640596 154.625001,84.2617199 154.429688,84.0273438 C154.234374,83.7929676 153.949221,83.6757812 153.574219,83.6757812 C153.144529,83.6757812 152.830079,83.8027331 152.630859,84.0566406 C152.43164,84.3105481 152.332031,84.6679664 152.332031,85.1289062 L149.015625,85.1289062 C149.015625,84.574216 149.123046,84.0527368 149.337891,83.5644531 C149.552735,83.0761694 149.863279,82.6484393 150.269531,82.28125 C150.675783,81.9140607 151.16406,81.6230479 151.734375,81.4082031 C152.30469,81.1933583 152.949215,81.0859375 153.667969,81.0859375 C154.300784,81.0859375 154.88281,81.1660148 155.414062,81.3261719 C155.945315,81.4863289 156.406248,81.7363264 156.796875,82.0761719 C157.187502,82.4160173 157.492186,82.8496067 157.710938,83.3769531 C157.929689,83.9042995 158.039062,84.5390588 158.039062,85.28125 L158.039062,90.90625 C158.039062,91.2734393 158.048828,91.5996079 158.068359,91.8847656 C158.087891,92.1699233 158.117187,92.4277332 158.15625,92.6582031 C158.195313,92.888673 158.24414,93.0957022 158.302734,93.2792969 C158.361328,93.4628915 158.429687,93.6367179 158.507812,93.8007812 L158.507812,94 L155.167969,94 Z M153.210938,91.6328125 C153.578127,91.6328125 153.890624,91.5585945 154.148438,91.4101562 C154.406251,91.261718 154.597656,91.0859385 154.722656,90.8828125 L154.722656,88.2460938 L153.9375,88.2460938 C153.624998,88.2460938 153.35547,88.2968745 153.128906,88.3984375 C152.902343,88.5000005 152.712891,88.6406241 152.560547,88.8203125 C152.408202,89.0000009 152.294922,89.2109363 152.220703,89.453125 C152.146484,89.6953137 152.109375,89.9531236 152.109375,90.2265625 C152.109375,90.6875023 152.205077,91.0371082 152.396484,91.2753906 C152.587892,91.5136731 152.859373,91.6328125 153.210938,91.6328125 Z M167.859375,84.0859375 L163.746094,84.0859375 L163.746094,94 L160.429688,94 L160.429688,81.3203125 L167.859375,81.3203125 L167.859375,84.0859375 Z M175.359375,94 C175.296875,93.8671868 175.244141,93.7167977 175.201172,93.5488281 C175.158203,93.3808585 175.117188,93.2031259 175.078125,93.015625 C174.828124,93.3593767 174.505861,93.6484363 174.111328,93.8828125 C173.716795,94.1171887 173.234378,94.234375 172.664062,94.234375 C172.148435,94.234375 171.666018,94.1445321 171.216797,93.9648438 C170.767576,93.7851554 170.376955,93.5312516 170.044922,93.203125 C169.712889,92.8749984 169.451173,92.4785179 169.259766,92.0136719 C169.068358,91.5488258 168.972656,91.0273466 168.972656,90.4492188 C168.972656,89.8085905 169.076171,89.2285182 169.283203,88.7089844 C169.490235,88.1894505 169.802732,87.7480487 170.220703,87.3847656 C170.638674,87.0214826 171.162106,86.7421885 171.791016,86.546875 C172.419925,86.3515615 173.160152,86.2539062 174.011719,86.2539062 L174.914062,86.2539062 L174.914062,85.234375 C174.914062,84.6640596 174.816407,84.2617199 174.621094,84.0273438 C174.42578,83.7929676 174.140627,83.6757812 173.765625,83.6757812 C173.335935,83.6757812 173.021485,83.8027331 172.822266,84.0566406 C172.623046,84.3105481 172.523438,84.6679664 172.523438,85.1289062 L169.207031,85.1289062 C169.207031,84.574216 169.314452,84.0527368 169.529297,83.5644531 C169.744142,83.0761694 170.054685,82.6484393 170.460938,82.28125 C170.86719,81.9140607 171.355466,81.6230479 171.925781,81.4082031 C172.496097,81.1933583 173.140621,81.0859375 173.859375,81.0859375 C174.492191,81.0859375 175.074216,81.1660148 175.605469,81.3261719 C176.136721,81.4863289 176.597654,81.7363264 176.988281,82.0761719 C177.378908,82.4160173 177.683593,82.8496067 177.902344,83.3769531 C178.121095,83.9042995 178.230469,84.5390588 178.230469,85.28125 L178.230469,90.90625 C178.230469,91.2734393 178.240234,91.5996079 178.259766,91.8847656 C178.279297,92.1699233 178.308594,92.4277332 178.347656,92.6582031 C178.386719,92.888673 178.435547,93.0957022 178.494141,93.2792969 C178.552735,93.4628915 178.621093,93.6367179 178.699219,93.8007812 L178.699219,94 L175.359375,94 Z M173.402344,91.6328125 C173.769533,91.6328125 174.08203,91.5585945 174.339844,91.4101562 C174.597658,91.261718 174.789062,91.0859385 174.914062,90.8828125 L174.914062,88.2460938 L174.128906,88.2460938 C173.816405,88.2460938 173.546876,88.2968745 173.320312,88.3984375 C173.093749,88.5000005 172.904298,88.6406241 172.751953,88.8203125 C172.599609,89.0000009 172.486328,89.2109363 172.412109,89.453125 C172.33789,89.6953137 172.300781,89.9531236 172.300781,90.2265625 C172.300781,90.6875023 172.396483,91.0371082 172.587891,91.2753906 C172.779298,91.5136731 173.050779,91.6328125 173.402344,91.6328125 Z M184.957031,86.4179688 C185.339846,86.4179688 185.61328,86.29297 185.777344,86.0429688 C185.941407,85.7929675 186.023438,85.468752 186.023438,85.0703125 C186.023438,84.8984366 186.007813,84.7304696 185.976562,84.5664062 C185.945312,84.4023429 185.890625,84.2539069 185.8125,84.1210938 C185.734375,83.9882806 185.626954,83.8808598 185.490234,83.7988281 C185.353515,83.7167965 185.179689,83.6757812 184.96875,83.6757812 C184.585936,83.6757812 184.285157,83.7871083 184.066406,84.0097656 C183.847655,84.232423 183.738281,84.5546854 183.738281,84.9765625 L180.421875,84.9765625 C180.421875,84.3671845 180.535155,83.8242211 180.761719,83.3476562 C180.988282,82.8710914 181.298826,82.4648454 181.693359,82.1289062 C182.087893,81.7929671 182.550779,81.5371103 183.082031,81.3613281 C183.613284,81.185546 184.183591,81.0976562 184.792969,81.0976562 C185.480472,81.0976562 186.103513,81.1777336 186.662109,81.3378906 C187.220706,81.4980477 187.697264,81.7324203 188.091797,82.0410156 C188.48633,82.3496109 188.791015,82.7343727 189.005859,83.1953125 C189.220704,83.6562523 189.328125,84.187497 189.328125,84.7890625 C189.328125,85.3515653 189.183595,85.8691383 188.894531,86.3417969 C188.605467,86.8144555 188.203128,87.1914048 187.6875,87.4726562 C188.281253,87.7226575 188.734373,88.0957006 189.046875,88.5917969 C189.359377,89.0878931 189.515625,89.6953089 189.515625,90.4140625 C189.515625,91.015628 189.398439,91.552732 189.164062,92.0253906 C188.929686,92.4980492 188.603518,92.8984359 188.185547,93.2265625 C187.767576,93.5546891 187.267581,93.8046866 186.685547,93.9765625 C186.103513,94.1484384 185.468753,94.234375 184.78125,94.234375 C184.218747,94.234375 183.666018,94.1562508 183.123047,94 C182.580075,93.8437492 182.097658,93.6035172 181.675781,93.2792969 C181.253904,92.9550765 180.912111,92.5429712 180.650391,92.0429688 C180.388671,91.5429663 180.257812,90.945316 180.257812,90.25 L183.574219,90.25 C183.574219,90.4375009 183.599609,90.6171866 183.650391,90.7890625 C183.701172,90.9609384 183.783203,91.1113275 183.896484,91.2402344 C184.009766,91.3691413 184.154296,91.4726559 184.330078,91.5507812 C184.50586,91.6289066 184.718749,91.6679688 184.96875,91.6679688 C185.203126,91.6679688 185.40039,91.6250004 185.560547,91.5390625 C185.720704,91.4531246 185.847656,91.3398445 185.941406,91.1992188 C186.035157,91.058593 186.103515,90.8964853 186.146484,90.7128906 C186.189453,90.529296 186.210938,90.3437509 186.210938,90.15625 C186.210938,89.6093723 186.107423,89.2167981 185.900391,88.9785156 C185.693358,88.7402332 185.378908,88.6210938 184.957031,88.6210938 L183.398438,88.6210938 L183.398438,86.4179688 L184.957031,86.4179688 Z M197.765625,81.3203125 L201.070312,81.3203125 L201.070312,94 L197.765625,94 L197.765625,86.2070312 L194.8125,94 L191.484375,94 L191.484375,81.3203125 L194.8125,81.3203125 L194.8125,89.1015625 L197.765625,81.3203125 Z M213.035156,94 L209.71875,94 L209.71875,89.1367188 L206.800781,89.1367188 L206.800781,94 L203.472656,94 L203.472656,81.3203125 L206.800781,81.3203125 L206.800781,86.3945312 L209.71875,86.3945312 L209.71875,81.3203125 L213.035156,81.3203125 L213.035156,94 Z M224.601562,91.140625 L230.648438,91.140625 L230.648438,94 L221.15625,94 L221.15625,76.9375 L224.601562,76.9375 L224.601562,91.140625 Z M235.957031,94 L232.628906,94 L232.628906,81.3203125 L235.957031,81.3203125 L235.957031,94 Z M232.476562,78.0390625 C232.476562,77.78125 232.519531,77.5449229 232.605469,77.3300781 C232.691407,77.1152333 232.812499,76.9296883 232.96875,76.7734375 C233.125001,76.6171867 233.314452,76.4960942 233.537109,76.4101562 C233.759767,76.3242183 234.007811,76.28125 234.28125,76.28125 C234.554689,76.28125 234.802733,76.3242183 235.025391,76.4101562 C235.248048,76.4960942 235.437499,76.6171867 235.59375,76.7734375 C235.750001,76.9296883 235.871093,77.1152333 235.957031,77.3300781 C236.042969,77.5449229 236.085938,77.7812487 236.085938,78.0390625 C236.085938,78.2968763 236.042969,78.5332021 235.957031,78.7480469 C235.871093,78.9628917 235.750001,79.1503898 235.59375,79.3105469 C235.437499,79.4707039 235.248048,79.5937496 235.025391,79.6796875 C234.802733,79.7656254 234.554689,79.8085938 234.28125,79.8085938 C234.007811,79.8085938 233.759767,79.7656254 233.537109,79.6796875 C233.314452,79.5937496 233.125001,79.4707039 232.96875,79.3105469 C232.812499,79.1503898 232.691407,78.9628917 232.605469,78.7480469 C232.519531,78.5332021 232.476562,78.2968763 232.476562,78.0390625 Z M243.644531,94.234375 C242.777339,94.234375 242.007816,94.1015638 241.335938,93.8359375 C240.664059,93.5703112 240.097659,93.1875025 239.636719,92.6875 C239.175779,92.1874975 238.826173,91.5761755 238.587891,90.8535156 C238.349608,90.1308558 238.230469,89.3085984 238.230469,88.3867188 L238.230469,87.34375 C238.230469,86.3124948 238.345702,85.408207 238.576172,84.6308594 C238.806642,83.8535117 239.13867,83.2011745 239.572266,82.6738281 C240.005862,82.1464817 240.537106,81.7500013 241.166016,81.484375 C241.794925,81.2187487 242.507809,81.0859375 243.304688,81.0859375 C244.914071,81.0859375 246.12109,81.6054636 246.925781,82.6445312 C247.730473,83.6835989 248.132812,85.2226461 248.132812,87.2617188 L248.132812,88.7734375 L241.535156,88.7734375 C241.558594,89.2812525 241.626953,89.7070295 241.740234,90.0507812 C241.853516,90.394533 242.007812,90.6718739 242.203125,90.8828125 C242.398438,91.0937511 242.634764,91.2460933 242.912109,91.3398438 C243.189455,91.4335942 243.503904,91.4804688 243.855469,91.4804688 C244.441409,91.4804688 244.962888,91.3808604 245.419922,91.1816406 C245.876955,90.9824209 246.281248,90.7031268 246.632812,90.34375 L247.933594,92.3476562 C247.76953,92.5742199 247.554689,92.798827 247.289062,93.0214844 C247.023436,93.2441417 246.710939,93.4453116 246.351562,93.625 C245.992186,93.8046884 245.58594,93.9511713 245.132812,94.0644531 C244.679685,94.1777349 244.183596,94.234375 243.644531,94.234375 Z M243.28125,83.8398438 C242.703122,83.8398438 242.283204,84.0468729 242.021484,84.4609375 C241.759764,84.8750021 241.605469,85.5390579 241.558594,86.453125 L244.875,86.453125 L244.875,86.1484375 C244.859375,85.3906212 244.734376,84.8164082 244.5,84.4257812 C244.265624,84.0351543 243.859378,83.8398438 243.28125,83.8398438 Z M259.898438,88.0703125 C259.898438,90.1250103 259.570316,91.6660105 258.914062,92.6933594 C258.257809,93.7207083 257.22657,94.234375 255.820312,94.234375 C255.234372,94.234375 254.724612,94.1035169 254.291016,93.8417969 C253.85742,93.5800768 253.484377,93.2148461 253.171875,92.7460938 L253.066406,94 L250.007812,94 L250.007812,76 L253.324219,76 L253.324219,82.3515625 C253.621095,81.953123 253.972654,81.6425792 254.378906,81.4199219 C254.785158,81.1972645 255.25781,81.0859375 255.796875,81.0859375 C257.218757,81.0859375 258.257809,81.6074167 258.914062,82.6503906 C259.570316,83.6933646 259.898438,85.2226462 259.898438,87.2382812 L259.898438,88.0703125 Z M256.582031,87.2382812 C256.582031,86.6679659 256.560547,86.1718771 256.517578,85.75 C256.474609,85.3281229 256.390626,84.9765639 256.265625,84.6953125 C256.140624,84.4140611 255.964845,84.2050788 255.738281,84.0683594 C255.511718,83.9316399 255.214846,83.8632812 254.847656,83.8632812 C254.472654,83.8632812 254.162111,83.9472648 253.916016,84.1152344 C253.669921,84.283204 253.472657,84.5156235 253.324219,84.8125 L253.324219,90.5898438 C253.464844,90.8710952 253.660155,91.089843 253.910156,91.2460938 C254.160157,91.4023445 254.480467,91.4804688 254.871094,91.4804688 C255.230471,91.4804688 255.523436,91.4179694 255.75,91.2929688 C255.976564,91.1679681 256.15039,90.9687514 256.271484,90.6953125 C256.392579,90.4218736 256.474609,90.0703146 256.517578,89.640625 C256.560547,89.2109354 256.582031,88.6875031 256.582031,88.0703125 L256.582031,87.2382812 Z M265.125,82.4335938 C265.468752,82.0039041 265.861326,81.6718762 266.302734,81.4375 C266.744143,81.2031238 267.234372,81.0859375 267.773438,81.0859375 C268.296878,81.0859375 268.777342,81.1757804 269.214844,81.3554688 C269.652346,81.5351571 270.027342,81.8203105 270.339844,82.2109375 C270.652345,82.6015645 270.89453,83.1093719 271.066406,83.734375 C271.238282,84.3593781 271.324219,85.1210893 271.324219,86.0195312 L271.324219,94 L267.996094,94 L267.996094,85.9960938 C267.996094,85.5898417 267.964844,85.2500014 267.902344,84.9765625 C267.839843,84.7031236 267.746094,84.4843758 267.621094,84.3203125 C267.496093,84.1562492 267.343751,84.0390629 267.164062,83.96875 C266.984374,83.8984371 266.773439,83.8632812 266.53125,83.8632812 C266.203123,83.8632812 265.925782,83.9374993 265.699219,84.0859375 C265.472655,84.2343757 265.281251,84.4374987 265.125,84.6953125 L265.125,94 L261.808594,94 L261.808594,76 L265.125,76 L265.125,82.4335938 Z M278.824219,94.234375 C277.957027,94.234375 277.187503,94.1015638 276.515625,93.8359375 C275.843747,93.5703112 275.277346,93.1875025 274.816406,92.6875 C274.355466,92.1874975 274.005861,91.5761755 273.767578,90.8535156 C273.529296,90.1308558 273.410156,89.3085984 273.410156,88.3867188 L273.410156,87.34375 C273.410156,86.3124948 273.525389,85.408207 273.755859,84.6308594 C273.986329,83.8535117 274.318357,83.2011745 274.751953,82.6738281 C275.185549,82.1464817 275.716794,81.7500013 276.345703,81.484375 C276.974613,81.2187487 277.687496,81.0859375 278.484375,81.0859375 C280.093758,81.0859375 281.300777,81.6054636 282.105469,82.6445312 C282.91016,83.6835989 283.3125,85.2226461 283.3125,87.2617188 L283.3125,88.7734375 L276.714844,88.7734375 C276.738281,89.2812525 276.80664,89.7070295 276.919922,90.0507812 C277.033204,90.394533 277.187499,90.6718739 277.382812,90.8828125 C277.578126,91.0937511 277.814452,91.2460933 278.091797,91.3398438 C278.369142,91.4335942 278.683592,91.4804688 279.035156,91.4804688 C279.621097,91.4804688 280.142576,91.3808604 280.599609,91.1816406 C281.056643,90.9824209 281.460936,90.7031268 281.8125,90.34375 L283.113281,92.3476562 C282.949218,92.5742199 282.734376,92.798827 282.46875,93.0214844 C282.203124,93.2441417 281.890627,93.4453116 281.53125,93.625 C281.171873,93.8046884 280.765627,93.9511713 280.3125,94.0644531 C279.859373,94.1777349 279.363284,94.234375 278.824219,94.234375 Z M278.460938,83.8398438 C277.88281,83.8398438 277.462892,84.0468729 277.201172,84.4609375 C276.939452,84.8750021 276.785156,85.5390579 276.738281,86.453125 L280.054688,86.453125 L280.054688,86.1484375 C280.039062,85.3906212 279.914064,84.8164082 279.679688,84.4257812 C279.445311,84.0351543 279.039065,83.8398438 278.460938,83.8398438 Z M291.445312,84.5195312 C291.296874,84.5039062 291.115235,84.4843751 290.900391,84.4609375 C290.685546,84.4374999 290.500001,84.4257812 290.34375,84.4257812 C289.867185,84.4257812 289.48047,84.5273427 289.183594,84.7304688 C288.886717,84.9335948 288.660157,85.2304668 288.503906,85.6210938 L288.503906,94 L285.175781,94 L285.175781,81.3203125 L288.304688,81.3203125 L288.398438,82.6914062 C288.648439,82.1835912 288.955076,81.7890639 289.318359,81.5078125 C289.681642,81.2265611 290.097654,81.0859375 290.566406,81.0859375 C290.714844,81.0859375 290.876952,81.0996092 291.052734,81.1269531 C291.228517,81.154297 291.371093,81.191406 291.480469,81.2382812 L291.445312,84.5195312 Z M299.402344,84.5195312 C299.253906,84.5039062 299.072267,84.4843751 298.857422,84.4609375 C298.642577,84.4374999 298.457032,84.4257812 298.300781,84.4257812 C297.824216,84.4257812 297.437501,84.5273427 297.140625,84.7304688 C296.843749,84.9335948 296.617188,85.2304668 296.460938,85.6210938 L296.460938,94 L293.132812,94 L293.132812,81.3203125 L296.261719,81.3203125 L296.355469,82.6914062 C296.60547,82.1835912 296.912108,81.7890639 297.275391,81.5078125 C297.638674,81.2265611 298.054685,81.0859375 298.523438,81.0859375 C298.671876,81.0859375 298.833983,81.0996092 299.009766,81.1269531 C299.185548,81.154297 299.328124,81.191406 299.4375,81.2382812 L299.402344,84.5195312 Z" transform="translate(-132 -55)"/>
</svg>
