<svg xmlns="http://www.w3.org/2000/svg" width="714" height="150" viewBox="0 0 714 150">
  <path fill="#EDEDED" fill-rule="evenodd" d="M864.720511,145.445727 C877.526541,142.263754 890.249817,142.645399 902.52198,147.684964 C918.72054,154.336986 928.077368,166.623951 931.187831,183.672981 C933.010318,193.663991 932.425899,203.540924 928.927432,213.118887 C923.687943,227.463079 913.679399,237.199339 899.155531,241.888663 C883.391342,246.977897 867.827755,245.876544 853.079457,238.195268 C839.817806,231.288496 832.119248,220.058023 829.098621,205.568671 C828.301686,201.746779 827.923664,197.878743 828.027025,195.017851 C827.965524,183.316331 830.447777,173.370502 836.551498,164.510647 C843.429293,154.526686 853.019244,148.353082 864.720511,145.445727 Z M492.889367,144.058541 C506.075027,142.183324 518.412877,144.717046 528.919224,153.40899 C536.763001,159.897908 540.913506,168.467765 542.588198,178.374179 C543.46048,183.533269 543.019348,188.68627 542.930799,193.850808 C542.909226,195.090591 542.214362,194.891598 541.485046,194.891598 L541.485046,194.891598 L511.874142,194.891598 L511.874142,194.862758 C502.272276,194.862758 492.670411,194.862438 483.068224,194.863079 C480.809757,194.863079 480.790115,194.866603 481.031611,197.100073 C481.966682,205.747156 485.046556,213.530973 490.789321,220.131404 C497.348342,227.670084 505.643555,231.632649 515.754815,231.620152 C524.283796,231.609898 532.813421,231.64803 541.342402,231.583942 C542.635853,231.574329 542.925325,231.947001 542.895702,233.169481 C542.811661,236.636646 542.839675,240.107656 542.88411,243.576743 C542.89538,244.471092 542.791376,244.871322 541.705612,244.867477 C529.153314,244.822936 516.597796,245.001421 504.04904,244.787367 C493.027825,244.599589 482.328603,242.637853 472.49619,237.328477 C460.046286,230.605638 452.632693,220.250287 450.409967,206.33933 C448.245845,192.794956 450.103429,179.843077 457.260071,167.981657 C465.3608,154.555846 477.262669,146.281115 492.889367,144.058541 Z M1015.49813,116.888346 C1024.77768,116.964186 1034.05852,116.969313 1043.33807,116.897214 C1044.90167,116.884717 1045.41686,117.177279 1045.39722,118.868243 C1045.29708,127.566917 1045.38048,136.267834 1045.3164,144.96747 C1045.30674,146.293772 1045.63292,146.644014 1046.98143,146.631837 C1054.59788,146.56134 1062.21562,146.620301 1069.83271,146.572555 C1070.93812,146.565826 1071.30262,146.828267 1071.27589,147.97288 C1071.19829,151.280145 1071.19572,154.591576 1071.2746,157.899161 C1071.30101,159.003078 1070.92588,159.216171 1069.91032,159.211364 C1062.23945,159.175795 1054.56826,159.227066 1046.89772,159.163298 C1045.61392,159.152724 1045.31318,159.504567 1045.32123,160.747235 C1045.37694,169.233457 1045.35053,177.72 1045.35053,186.206542 L1045.34409,186.206542 C1045.34409,193.678891 1045.28291,201.152201 1045.36438,208.623589 C1045.42556,214.218478 1046.30364,219.667566 1049.27274,224.565177 C1052.00551,229.072811 1055.9802,231.422921 1061.35944,231.400811 C1065.37728,231.384148 1069.39545,231.564556 1073.41426,231.595318 C1074.26046,231.602047 1074.49133,231.83725 1074.48521,232.671357 C1074.46009,236.353216 1074.47329,240.036037 1074.54671,243.717256 C1074.56538,244.651981 1074.26046,244.867317 1073.37465,244.85482 C1065.70926,244.746511 1058.02809,245.17526 1050.38169,244.494004 C1039.6902,243.541014 1029.92637,240.310334 1022.48219,232.111547 C1017.46294,226.583631 1014.96684,219.923918 1014.21241,212.581027 C1013.57841,206.406142 1013.959,200.209786 1013.92423,194.024006 C1013.86144,182.922349 1013.88333,171.820052 1013.93839,160.718395 C1013.94451,159.445286 1013.58968,159.127729 1012.35161,159.160414 C1009.08176,159.246292 1005.80772,159.158812 1002.53658,159.212326 C1001.58316,159.228027 1001.22478,159.004039 1001.24246,157.984078 C1001.30431,154.569145 1001.29723,151.151969 1001.24861,147.736715 C1001.2354,146.804234 1001.55933,146.571274 1002.44997,146.58313 C1005.77488,146.627992 1009.10269,146.547241 1012.42631,146.628953 C1013.60513,146.658113 1013.94677,146.385418 1013.93839,145.154927 C1013.87754,136.295072 1013.93324,127.434575 1013.87625,118.574719 C1013.8682,117.301289 1014.09553,116.877347 1015.49813,116.888346 Z M655.427955,116.898695 C656.66892,116.891126 656.906874,117.246494 656.900112,118.410013 C656.848593,127.217957 656.91589,136.026863 656.829917,144.834487 C656.814784,146.373562 657.309689,146.642732 658.707143,146.630876 C666.217979,146.566467 673.72978,146.627351 681.240616,146.566467 C682.503477,146.555893 682.888582,146.873449 682.84801,148.15489 C682.749802,151.24778 682.739176,154.349002 682.845435,157.441572 C682.892446,158.818504 682.579467,159.245972 681.106666,159.22995 C673.489251,159.146315 665.869903,159.194061 658.251522,159.187011 C657.477448,159.18637 656.840221,159.081586 656.844729,160.275547 C656.9014,176.770535 656.837967,193.266484 656.971917,209.760832 C657.010878,214.575128 657.974929,219.288806 660.31164,223.614751 C663.09206,228.761984 667.289253,231.490213 673.29058,231.406258 C677.253362,231.350822 681.220008,231.562953 685.185044,231.594677 C685.990995,231.601086 686.16294,231.857758 686.158432,232.602782 C686.134605,236.339117 686.134605,240.076413 686.193959,243.812427 C686.207375,244.695881 685.887313,244.865074 685.088124,244.850654 C676.51503,244.695881 667.91521,245.310486 659.375603,244.197917 C648.727257,242.810731 639.280271,238.979546 632.516461,230.21454 C627.41704,223.606419 625.557846,215.935077 625.530476,207.741096 C625.506327,200.427686 625.525647,193.113955 625.525969,185.800224 C625.526613,177.472299 625.492803,169.144054 625.5601,160.816771 C625.57137,159.449452 625.161793,159.124205 623.852243,159.160735 C620.58207,159.25174 617.30739,159.16458 614.034963,159.20816 C613.144972,159.220016 612.812996,158.98289 612.826197,158.047525 C612.874175,154.631631 612.88319,151.213814 612.818429,147.79856 C612.799472,146.755206 613.201643,146.567749 614.131884,146.580566 C617.403988,146.626389 620.678669,146.540191 623.949163,146.624787 C625.20655,146.657152 625.566862,146.31396 625.55849,145.037005 C625.499565,136.175547 625.551728,127.313449 625.496667,118.451991 C625.488617,117.185611 625.862452,116.892408 627.099876,116.898695 C636.542354,116.953291 645.985477,116.956175 655.427955,116.898695 Z M790.849065,146.566378 C792.216574,146.557238 792.517317,146.969645 792.506047,148.259097 C792.444224,155.132543 792.477068,162.00663 792.477068,168.880716 C794.175587,165.924013 795.727921,162.96763 797.681781,160.243887 C802.626967,153.351856 808.940628,148.476035 817.52789,146.966761 C820.132823,146.509172 822.763193,146.636708 825.387767,146.585437 C826.34087,146.566378 826.229138,147.15486 826.229138,147.74415 C826.228172,156.603364 826.214326,165.462899 826.251703,174.322114 C826.25522,175.242099 825.88718,175.329899 825.124054,175.339512 C820.355643,175.398153 815.583046,175.276065 810.821074,175.63624 C801.03857,176.376137 793.770518,183.418775 792.738527,193.124594 C792.546296,194.931557 792.467408,196.735636 792.468696,198.551251 C792.479966,213.441153 792.455172,228.331056 792.508623,243.220958 C792.513131,244.557836 792.186307,244.88116 790.847777,244.872368 C781.408197,244.80842 771.96765,244.812586 762.527426,244.868342 C761.31061,244.875392 761.046253,244.567128 761.047856,243.377974 C761.083926,211.676488 761.083282,179.975003 761.048829,148.273517 C761.047856,146.999126 761.292901,146.556918 762.689711,146.566378 C772.075841,146.633183 781.462936,146.629978 790.849065,146.566378 Z M760.567029,96.3863071 C760.473329,99.8541127 760.451755,103.328007 760.556403,106.794851 C760.594077,108.044889 760.134913,108.36597 759.036913,108.363727 C755.764486,108.356677 752.48401,108.528433 749.219955,108.367572 C739.970352,107.911586 735.293387,112.872323 732.848807,120.698438 C731.711524,124.339281 731.295507,128.097726 731.259122,131.893663 C731.217585,136.271199 731.295185,140.650016 731.219839,145.026591 C731.198587,146.263491 731.49933,146.64161 732.796322,146.630395 C740.307801,146.565986 747.820247,146.632958 755.331404,146.570793 C756.724673,146.559257 757.295247,146.800228 757.226018,148.363336 C757.086594,151.506856 757.13425,154.662553 757.215714,157.810559 C757.245338,158.974399 756.842523,159.218895 755.751607,159.212486 C748.132581,159.169226 740.51259,159.221138 732.894208,159.159293 C731.571134,159.148718 731.210179,159.48454 731.215331,160.827185 C731.269104,174.601314 731.248496,188.375443 731.248496,202.149572 C731.248818,215.870188 731.230464,229.591124 731.279408,243.311739 C731.283594,244.572992 730.952262,244.875168 729.702602,244.867798 C720.312931,244.812361 710.922938,244.806914 701.533588,244.871839 C700.197957,244.880936 699.869201,244.563379 699.871133,243.230347 C699.913314,215.842309 699.887554,188.454271 699.941005,161.066233 C699.943581,159.4996 699.538513,159.090078 697.996483,159.150641 C694.835788,159.275613 691.666078,159.158972 688.501197,159.210243 C687.5555,159.225624 687.177157,159.01189 687.195476,157.980713 C687.258944,154.564819 687.253148,151.147002 687.203239,147.730787 C687.189393,146.782284 687.538757,146.56887 688.419411,146.580086 C691.799061,146.623345 695.180644,146.5615 698.55965,146.623345 C699.609029,146.642251 699.931667,146.347126 699.923618,145.281661 C699.885622,140.370913 699.812208,135.455678 699.972883,130.549095 C700.542812,113.16841 710.436083,101.066659 727.4158,96.8323601 C731.905042,95.7130619 736.461903,95.153573 741.091857,95.1369101 C747.099624,95.1157611 753.107069,95.0843579 759.11387,95.0006503 C760.186754,94.9863031 760.598585,95.2019595 760.567029,96.3863071 Z M458.7974,148.155499 C451.09047,170.070095 443.415739,191.996227 435.739077,213.921397 C432.296959,223.753149 428.84325,233.580734 425.46199,243.432994 C425.087832,244.523773 424.640905,244.876257 423.479794,244.869 C414.788528,244.813771 406.096618,244.818578 397.405352,244.862799 C396.372717,244.867926 395.964428,244.556137 395.615708,243.58296 C385.157016,214.395649 374.657431,185.222758 364.165574,156.047304 C363.175442,153.29344 362.228135,150.523874 361.186484,147.789556 C360.841628,146.884953 360.906993,146.581496 361.967964,146.584059 C372.5371,146.610015 383.106558,146.618346 393.675694,146.573164 C394.817485,146.568358 394.915693,147.223658 395.158155,148.005853 C401.35139,167.972492 407.559437,187.934645 413.764908,207.897759 C414.520629,210.3283 415.277637,212.758199 416.169239,215.622615 C418.439941,208.265625 420.579592,201.355969 422.705398,194.442148 C427.470589,178.942127 432.239,163.443388 436.968129,147.932472 C437.288513,146.881107 437.761522,146.558104 438.864352,146.568358 C445.140984,146.62796 451.418904,146.639495 457.695214,146.567201 C459.135816,146.551054 459.226618,146.934941 458.7974,148.155499 Z M995.471515,146.58031 C996.450055,146.566211 996.769796,146.824806 996.752408,147.830348 C996.693483,151.245281 996.693161,154.662457 996.757238,158.07739 C996.775914,159.073639 996.486441,159.3364 995.498885,159.324223 C991.422761,159.273273 987.343417,159.22681 983.269225,159.336721 C979.774945,159.43061 976.476759,160.303489 973.822239,162.747808 C969.052862,167.139764 968.867715,175.103027 973.399138,179.713844 C975.912625,182.270637 979.042086,183.91674 982.186359,185.531439 C986.557429,187.776123 991.014794,189.857704 995.105086,192.615734 C1005.92634,199.912161 1008.96243,210.660692 1006.6914,222.091441 C1004.42649,233.491428 995.018469,242.301935 983.803735,244.25534 C980.828509,244.773492 977.843624,244.856486 974.83974,244.84463 C969.314321,244.82284 963.789223,244.838221 958.264126,244.8379 C951.397922,244.83758 944.531397,244.809702 937.665516,244.865347 C936.539181,244.87411 936.22749,244.597891 936.25325,243.466416 C936.333104,239.945417 936.329562,236.420573 936.257436,232.899574 C936.23554,231.818729 936.585226,231.589614 937.604659,231.594741 C945.597198,231.634796 953.589737,231.618454 961.582597,231.620376 C963.364513,231.621017 965.099095,231.342234 966.782481,230.758712 C972.451188,228.795054 974.629478,222.022546 971.148077,217.139356 C969.307881,214.558849 966.727098,212.826869 964.093508,211.166988 C958.80572,207.834729 953.177906,205.044334 948.176371,201.254486 C942.252967,196.765757 937.634927,191.342945 936.299295,183.827016 C934.083975,171.360925 938.553898,161.421826 948.463268,153.843732 C954.447207,149.267523 961.433836,147.136274 968.928894,146.775779 C977.771175,146.350875 986.624082,146.709127 995.471515,146.58031 Z M606.974566,146.577823 C607.994643,146.569095 608.363326,146.803977 608.338533,147.90437 C608.26222,151.265469 608.276388,154.630093 608.342719,157.991832 C608.363004,159.015639 608.116035,159.347936 607.034135,159.328389 C603.226554,159.259494 599.416719,159.318776 595.60785,159.29282 C594.202346,159.283207 592.820669,159.44535 591.463786,159.755857 C586.70439,160.845354 583.325706,163.474887 582.171357,168.382111 C580.941661,173.607212 582.357791,177.958792 586.70922,181.268941 C589.87893,183.680255 593.457573,185.37955 596.994357,187.151906 C600.342774,188.829731 603.648366,190.571966 606.75722,192.675657 C615.154505,198.357705 619.120829,206.2854 618.93053,216.322233 C618.658123,230.676359 608.450587,242.310267 594.212328,244.479969 C592.629726,244.72094 591.011706,244.812586 589.409141,244.821878 C582.864288,244.859049 576.319435,244.83726 569.774582,244.838221 L559.55485,244.83272 C556.148273,244.832906 552.741736,244.839287 549.335359,244.864387 C548.246053,244.872188 547.873506,244.655249 547.901842,243.486924 C547.98717,239.965925 547.973002,236.440761 547.902808,232.919121 C547.881556,231.854618 548.204516,231.589294 549.244235,231.594421 C557.183645,231.635117 565.123698,231.621017 573.063108,231.614608 C574.893645,231.613006 576.683288,231.357936 578.418515,230.73564 C584.130691,228.687386 586.253598,222.013895 582.698139,217.095455 C580.284149,213.755505 576.753805,211.766212 573.308146,209.714432 C567.935995,206.515476 562.455977,203.510386 557.587747,199.517058 C543.529805,187.986653 544.739215,168.825601 555.866045,157.446122 C561.689631,151.490738 568.88137,148.285373 577.074833,147.099744 C582.038051,146.381637 587.026706,146.649205 592.007312,146.610432 C596.996289,146.571338 601.98591,146.623249 606.974566,146.577823 Z M893.05825,165.972816 C887.945627,158.766753 878.99258,156.682289 871.990817,161.066554 C868.211894,163.432365 865.806276,166.968104 864.24718,171.012702 C859.339989,183.745721 858.945224,196.768737 862.182554,209.931146 C863.598684,215.6901 865.934107,221.036648 870.338665,225.25172 C876.134882,230.798543 884.523795,230.903327 890.316148,225.470901 C892.570107,223.357597 894.170418,220.766516 895.417501,217.969392 C898.826131,210.324967 899.851683,202.229682 899.934113,193.964243 C900.007528,189.790187 899.628863,185.649136 898.910494,181.549102 C897.939038,176.003561 896.372214,170.644516 893.05825,165.972816 Z M500.135523,158.076204 C492.550307,157.924956 486.936339,161.189282 483.760833,168.18065 C481.81953,172.454363 481.081198,177.013589 480.696737,181.65709 C480.599816,182.8283 480.916981,183.044277 482.026251,183.032741 C487.549416,182.974741 493.07387,183.006465 498.597679,183.006465 L498.597679,183.006465 L498.597679,182.922189 C504.067394,182.922189 509.537752,182.878289 515.006501,182.956476 C516.207539,182.973459 516.58395,182.565859 516.696326,181.477323 C517.159998,176.988915 516.599728,172.643103 514.746652,168.527687 C511.922763,162.256349 507.342074,158.220082 500.135523,158.076204 Z" transform="translate(-361 -95)"/>
</svg>
