<svg xmlns="http://www.w3.org/2000/svg" width="206" height="40" viewBox="0 0 206 40">
  <g fill="none" fill-rule="evenodd">
    <path fill="#394791" fill-rule="nonzero" d="M3.62259047,11.822 C3.843626,11.822828 4.06326991,11.7870091 4.27259047,11.716 C4.47759047,11.646 4.65959047,11.536 4.81759047,11.386 C4.98369141,11.2250613 5.1138737,11.0308102 5.19959047,10.816 C5.29659047,10.584 5.35359047,10.304 5.37159047,9.976 L6.83959047,9.976 C6.8280298,10.4232703 6.72775689,10.8637912 6.54459047,11.272 C6.36559047,11.662 6.13159047,11.996 5.84159047,12.274 C5.55159047,12.553 5.21659047,12.768 4.83559047,12.92 C4.44978836,13.0737745 4.03790175,13.1515338 3.62259047,13.14906 C3.00759047,13.14906 2.47259047,13.049 2.01859047,12.85 C1.56459047,12.65 1.18859047,12.364 0.888590471,11.989 C0.590590471,11.614 0.367590471,11.154 0.220590471,10.609 C0.0665206919,10.0029353 -0.00744265184,9.37928984 0.000590470891,8.754 L0.000590470891,7.683 C0.000590470891,6.992 0.0745904709,6.375 0.220590471,5.833 C0.367590471,5.291 0.590590471,4.831 0.888590471,4.453 C1.18628428,4.07582161 1.57280265,3.77828836 2.01359047,3.587 C2.46559047,3.388 2.99859047,3.288 3.61359047,3.288 C4.09359047,3.288 4.52959047,3.366 4.91859047,3.521 C5.30859047,3.677 5.64259047,3.902 5.92059047,4.198 C6.19959047,4.494 6.41759047,4.856 6.57559047,5.284 C6.73359047,5.711 6.82159047,6.194 6.83959047,6.734 L5.37159047,6.734 C5.33659047,6.031 5.16759047,5.504 4.86559047,5.152 C4.56459047,4.8 4.14659047,4.624 3.61359047,4.624 C3.20359047,4.624 2.86659047,4.698 2.60359047,4.844 C2.340681,4.98894707 2.12272527,5.20344318 1.97359047,5.464 C1.80788069,5.76224802 1.69807661,6.08827125 1.64959047,6.426 C1.58474048,6.84180612 1.55363902,7.26217755 1.55659047,7.683 L1.55659047,8.755 C1.55659047,9.224 1.58659047,9.647 1.64459047,10.025 C1.70359047,10.403 1.81059047,10.725 1.96559047,10.992 C2.12059047,11.259 2.33159047,11.464 2.59859047,11.607 C2.86559047,11.751 3.20659047,11.823 3.62259047,11.823 L3.62259047,11.822 Z M15.5205905,12.973 L13.9735905,12.973 L13.9735905,4.808 L10.5375905,4.808 L10.5375905,12.973 L8.97259047,12.973 L8.97259047,3.463 L15.5205905,3.463 L15.5205905,12.973 Z M21.6005905,13.149 C21.0768128,13.1564832 20.5559268,13.0701204 20.0625905,12.894 C19.6173495,12.7321133 19.2177181,12.465235 18.8975905,12.116 C18.5785905,11.767 18.3335905,11.326 18.1635905,10.793 C17.9935905,10.26 17.9095905,9.63 17.9095905,8.903 L17.9095905,7.832 C17.9095905,6.995 18.0095905,6.287 18.2075905,5.71 C18.4075905,5.133 18.6695905,4.664 18.9945905,4.304 C19.2994643,3.95785323 19.6837993,3.69087762 20.1145905,3.526 C20.5332732,3.36810576 20.9771248,3.28746708 21.4245905,3.28799738 C22.0225905,3.28799738 22.5325905,3.387 22.9545905,3.583 C23.3755905,3.779 23.7215905,4.068 23.9915905,4.449 C24.2615905,4.829 24.4565905,5.299 24.5795905,5.855 C24.7035905,6.412 24.7645905,7.053 24.7645905,7.78 L24.7645905,8.685 L19.4555905,8.685 L19.4555905,8.905 C19.4555905,9.925 19.6475905,10.665 20.0315905,11.128 C20.4155905,11.591 20.9675905,11.823 21.6885905,11.823 C21.9525905,11.823 22.1885905,11.796 22.4005905,11.743 C22.6105905,11.691 22.8045905,11.616 22.9805905,11.519 C23.1565905,11.423 23.3175905,11.309 23.4635905,11.177 C23.6122758,11.0428745 23.750355,10.89744 23.8765905,10.742 L24.6855905,11.726 C24.5483714,11.916888 24.3922479,12.0934483 24.2195905,12.253 C24.0243554,12.4326361 23.8057039,12.5850194 23.5695905,12.706 C23.3175905,12.838 23.0295905,12.945 22.7035905,13.026 C22.3424143,13.1124906 21.9719552,13.1541379 21.6005905,13.15 L21.6005905,13.149 Z M21.4245905,4.623 C21.1545905,4.623 20.9065905,4.664 20.6775905,4.746 C20.4411824,4.83371251 20.2330867,4.98408069 20.0755905,5.181 C19.9025905,5.39 19.7635905,5.669 19.6585905,6.021 C19.5525905,6.372 19.4885905,6.815 19.4645905,7.348 L23.2085905,7.348 L23.2085905,7.138 C23.1946208,6.79686676 23.1551776,6.45725443 23.0905905,6.122 C23.0393721,5.84256282 22.9413266,5.57378289 22.8005905,5.327 C22.6736529,5.10891848 22.489745,4.92950458 22.2685905,4.808 C22.0455905,4.685 21.7645905,4.623 21.4245905,4.623 L21.4245905,4.623 Z M26.9685905,3.463 L28.5325905,3.463 L28.5325905,11.646 L31.9695905,11.646 L31.9695905,3.463 L33.5165905,3.463 L33.5165905,11.646 L34.5185905,11.646 L34.3605905,15.794 L32.9805905,15.794 L32.9805905,12.973 L26.9675905,12.973 L26.9675905,3.463 L26.9685905,3.463 Z M41.6085905,3.463 L43.1555905,3.463 L43.1555905,12.973 L41.6085905,12.973 L41.6085905,6.038 L38.1635905,12.973 L36.6075905,12.973 L36.6075905,3.463 L38.1635905,3.463 L38.1635905,10.407 L41.6085905,3.463 Z M50.7295905,12.973 C50.6689424,12.827744 50.6262923,12.675614 50.6025905,12.52 C50.5691143,12.3265159 50.5440905,12.1316642 50.5275905,11.936 C50.4165905,12.1 50.2885905,12.256 50.1455905,12.402 C50.0002442,12.549526 49.8377539,12.6791153 49.6615905,12.788 C49.4804148,12.9005765 49.2854725,12.9893088 49.0815905,13.052 C48.8667372,13.1175407 48.6432145,13.1502431 48.4185905,13.1490342 C48.0025905,13.1490342 47.6255905,13.09 47.2885905,12.973 C46.9647493,12.8636415 46.669283,12.6836291 46.4235905,12.446 C46.1770123,12.201969 45.9877794,11.9061645 45.8695905,11.58 C45.7337036,11.194839 45.6683259,10.7883454 45.6765905,10.38 C45.6765905,9.923 45.7555905,9.501 45.9135905,9.115 C46.0690625,8.7320956 46.3094369,8.38948508 46.6165905,8.113 C46.9265905,7.831 47.3165905,7.61 47.7855905,7.449 C48.2545905,7.288 48.7995905,7.207 49.4205905,7.207 L50.5005905,7.207 L50.5005905,6.197 C50.5005905,5.628 50.3755905,5.224 50.1235905,4.984 C49.8715905,4.744 49.4875905,4.624 48.9715905,4.624 C48.7195905,4.624 48.4955905,4.663 48.2995905,4.742 C48.1035905,4.822 47.9375905,4.928 47.8035905,5.062 C47.6693,5.19588354 47.564401,5.35629726 47.4955905,5.533 C47.4255905,5.712 47.3895905,5.901 47.3895905,6.1 L45.8345905,6.1 C45.8345905,5.76 45.9085905,5.422 46.0585905,5.085 C46.2085905,4.748 46.4215905,4.446 46.6995905,4.18 C46.9946591,3.90274169 47.3393424,3.68358282 47.7155905,3.534 C48.1403631,3.36466455 48.594352,3.28073097 49.0515905,3.287 C49.4905905,3.287 49.8935905,3.34 50.2595905,3.446 C50.6255905,3.551 50.9425905,3.721 51.2095905,3.956 C51.4755905,4.19 51.6815905,4.492 51.8285905,4.861 C51.9745905,5.23 52.0485905,5.681 52.0485905,6.214 L52.0485905,10.899 C52.0485905,11.057 52.0535905,11.224 52.0655905,11.399 C52.088139,11.7384413 52.1396599,12.0753341 52.2195905,12.406 C52.2541891,12.5501921 52.2965847,12.6924011 52.3465905,12.832 L52.3465905,12.973 L50.7295905,12.973 L50.7295905,12.973 Z M48.6555905,11.733 C48.8725905,11.733 49.0775905,11.702 49.2705905,11.637 C49.4645905,11.573 49.6405905,11.489 49.7985905,11.387 C49.9565905,11.284 50.0955905,11.167 50.2155905,11.035 C50.3355905,10.903 50.4305905,10.767 50.5015905,10.626 L50.5015905,8.359 L49.6835905,8.359 C49.3413063,8.35493029 48.9999951,8.39629116 48.6685905,8.482 C48.3665905,8.564 48.1085905,8.682 47.8955905,8.838 C47.6872696,8.98680318 47.5183888,9.18417407 47.4035905,9.413 C47.2885905,9.642 47.2315905,9.903 47.2315905,10.196 C47.2315905,10.483 47.2615905,10.724 47.3195905,10.921 C47.3785905,11.117 47.4665905,11.275 47.5835905,11.395 C47.7005905,11.515 47.8485905,11.602 48.0275905,11.655 C48.2055905,11.707 48.4155905,11.734 48.6555905,11.734 L48.6555905,11.733 Z M61.3625905,3.463 L61.3625905,12.973 L59.8065905,12.973 L59.8065905,4.808 L57.3105905,4.808 L57.2225905,7.533 C57.1969053,8.32699431 57.1294788,9.1190883 57.0205905,9.906 C56.9205905,10.586 56.7655905,11.152 56.5545905,11.606 C56.3445905,12.06 56.0645905,12.402 55.7145905,12.63 C55.3665905,12.859 54.9255905,12.973 54.3925905,12.973 L53.9625905,12.973 L53.9975905,11.523 L54.2955905,11.514 C54.5595905,11.514 54.7755905,11.439 54.9415905,11.29 C55.1085905,11.14 55.2415905,10.906 55.3415905,10.587 C55.4415905,10.267 55.5135905,9.856 55.5575905,9.352 C55.6015905,8.848 55.6375905,8.242 55.6675905,7.532 L55.8165905,3.463 L61.3625905,3.463 L61.3625905,3.463 Z M69.1735905,3.463 L70.7205905,3.463 L70.7205905,12.973 L69.1735905,12.973 L69.1735905,6.038 L65.7285905,12.973 L64.1725905,12.973 L64.1725905,3.463 L65.7285905,3.463 L65.7285905,10.407 L69.1735905,3.463 L69.1735905,3.463 Z M79.2355905,6.056 C79.2355905,6.484 79.1265905,6.876 78.9095905,7.234 C78.6860426,7.59740515 78.3666898,7.89219228 77.9865905,8.086 C78.4445905,8.274 78.7915905,8.552 79.0285905,8.921 C79.2655905,9.291 79.3845905,9.751 79.3845905,10.301 C79.3845905,10.752 79.3085905,11.154 79.1555905,11.505 C79.0107733,11.8463793 78.7898078,12.1501213 78.5095905,12.393 C78.2169052,12.6414087 77.8781097,12.8296661 77.5125905,12.947 C77.1007852,13.0796947 76.6702193,13.1448706 76.2375905,13.14 C75.8455905,13.14 75.4575905,13.081 75.0735905,12.964 C74.7000473,12.8521077 74.3511855,12.6702109 74.0455905,12.428 C73.7363992,12.1786924 73.4869625,11.8633087 73.3155905,11.505 C73.1315905,11.13 73.0385905,10.682 73.0385905,10.16 L74.5765905,10.16 C74.5751608,10.5942691 74.7368281,11.0132479 75.0295905,11.334 C75.3416834,11.6681223 75.7804326,11.8548086 76.2375905,11.848 C76.5015905,11.848 76.7335905,11.806 76.9325905,11.721 C77.1315905,11.636 77.2975905,11.523 77.4285905,11.382 C77.5605905,11.242 77.6605905,11.077 77.7285905,10.89 C77.7955905,10.702 77.8285905,10.506 77.8285905,10.301 C77.8285905,9.768 77.7105905,9.386 77.4725905,9.154 C77.2355905,8.923 76.8625905,8.807 76.3525905,8.807 L74.9275905,8.807 L74.9275905,7.436 L76.3515905,7.436 C76.6035905,7.436 76.8145905,7.404 76.9845905,7.339 C77.1545905,7.275 77.2915905,7.182 77.3975905,7.062 C77.5025905,6.942 77.5775905,6.797 77.6215905,6.627 C77.6672589,6.44320982 77.6894359,6.2543701 77.6875905,6.065 C77.6875905,5.877 77.6605905,5.697 77.6075905,5.525 C77.5041176,5.17289267 77.2499876,4.88470784 76.9135905,4.738 C76.7021173,4.65025662 76.4744472,4.60833531 76.2455905,4.615 C76.0285905,4.615 75.8265905,4.653 75.6395905,4.729 C75.2707897,4.87679639 74.9753351,5.16434339 74.8175905,5.529 C74.7375905,5.71 74.6985905,5.907 74.6985905,6.118 L73.1605905,6.118 C73.1605905,5.684 73.2425905,5.293 73.4065905,4.944 C73.5705905,4.596 73.7925905,4.3 74.0705905,4.056 C74.358292,3.80769213 74.690976,3.61690808 75.0505905,3.494 C75.4347759,3.36056397 75.8388991,3.29360465 76.2455905,3.29593794 C76.7085905,3.29593794 77.1255905,3.356 77.4935905,3.476 C77.8635905,3.596 78.1765905,3.772 78.4335905,4.004 C78.6925905,4.235 78.8895905,4.524 79.0275905,4.869 C79.1655905,5.215 79.2345905,5.611 79.2345905,6.056 L79.2355905,6.056 Z M86.7735905,3.463 L88.3205905,3.463 L88.3205905,12.973 L86.7735905,12.973 L86.7735905,6.038 L83.3285905,12.973 L81.7725905,12.973 L81.7725905,3.463 L83.3285905,3.463 L83.3285905,10.407 L86.7735905,3.463 Z M97.8725905,8.675 C97.8725905,10.181 97.6015905,11.303 97.0595905,12.041 C96.5175905,12.78 95.7515905,13.149 94.7615905,13.149 C94.2625905,13.149 93.8335905,13.056 93.4735905,12.872 C93.1068236,12.6821482 92.7915001,12.4062831 92.5545905,12.068 L92.5545905,16.629 L91.0085905,16.629 L91.0085905,3.463 L92.4145905,3.463 L92.4935905,4.518 C92.7455905,4.119 93.0545905,3.815 93.4205905,3.604 C93.7865905,3.393 94.2245905,3.287 94.7345905,3.287 C95.2445905,3.287 95.6945905,3.375 96.0845905,3.551 C96.4735905,3.727 96.8005905,3.998 97.0645905,4.364 C97.3275905,4.73 97.5285905,5.198 97.6655905,5.766 C97.8035905,6.334 97.8725905,7.008 97.8725905,7.787 L97.8725905,8.675 L97.8725905,8.675 Z M96.3255905,7.787 C96.3255905,6.721 96.1615905,5.934 95.8335905,5.427 C95.5055905,4.921 94.9775905,4.667 94.2515905,4.667 C93.8465905,4.667 93.5055905,4.771 93.2275905,4.979 C92.9446266,5.19231351 92.714385,5.46771393 92.5545905,5.784 L92.5545905,10.732 C92.7245905,11.054 92.9445905,11.316 93.2145905,11.518 C93.4845905,11.721 93.8345905,11.822 94.2685905,11.822 C94.9785905,11.822 95.4985905,11.564 95.8285905,11.048 C96.1595905,10.533 96.3255905,9.742 96.3255905,8.675 L96.3255905,7.787 L96.3255905,7.787 Z M99.7515905,7.779 C99.7515905,7.035 99.8465905,6.383 100.03659,5.823 C100.22659,5.263 100.48759,4.796 100.81859,4.421 C101.14959,4.046 101.53859,3.764 101.98359,3.573 C102.42859,3.383 102.90659,3.28692583 103.41659,3.28692583 C103.914239,3.28384901 104.407409,3.38112259 104.86659,3.573 C105.31759,3.763 105.70859,4.046 106.03959,4.421 C106.37059,4.796 106.63159,5.264 106.82159,5.823 C107.01159,6.383 107.10759,7.035 107.10759,7.779 L107.10759,8.675 C107.10759,9.413 107.01259,10.062 106.82159,10.622 C106.63159,11.182 106.37159,11.649 106.03959,12.024 C105.720873,12.3902461 105.322762,12.6789107 104.87559,12.868 C104.418657,13.0573983 103.9282,13.1526327 103.43359,13.148 C102.91859,13.148 102.43659,13.055 101.98759,12.868 C101.53846,12.6798503 101.138521,12.3911003 100.81859,12.024 C100.48859,11.649 100.22759,11.181 100.03659,10.622 C99.8465905,10.062 99.7515905,9.413 99.7515905,8.675 L99.7515905,7.779 L99.7515905,7.779 Z M101.30659,8.675 C101.30659,9.202 101.36059,9.662 101.46959,10.055 C101.57759,10.448 101.72759,10.775 101.91759,11.035 C102.10759,11.295 102.33259,11.492 102.58959,11.624 C102.84759,11.756 103.12959,11.822 103.43359,11.822 C104.84559,11.822 105.55159,10.772 105.55159,8.675 L105.55159,7.779 C105.55159,7.257 105.49759,6.8 105.38959,6.408 C105.299671,6.05558514 105.147624,5.72203015 104.94059,5.423 C104.765739,5.17325199 104.534041,4.96863077 104.26459,4.826 C104.002549,4.69062007 103.71153,4.62095413 103.41659,4.62295621 C103.11659,4.62295621 102.83859,4.691 102.58159,4.826 C102.32359,4.96 102.10159,5.16 101.91359,5.423 C101.709434,5.72301392 101.559181,6.05634421 101.46959,6.408 C101.36059,6.8 101.30659,7.258 101.30659,7.778 L101.30659,8.675 L101.30659,8.675 Z M109.45259,12.973 L109.45259,3.463 L112.64259,3.463 C113.15859,3.463 113.62359,3.516 114.03959,3.621 C114.45559,3.727 114.80959,3.887 115.09959,4.101 C115.38959,4.314 115.61159,4.585 115.76659,4.913 C115.92259,5.242 115.99959,5.628 115.99959,6.073 C115.99959,6.513 115.88559,6.909 115.65759,7.26 C115.42859,7.612 115.09459,7.881 114.65559,8.069 C115.14274,8.19398051 115.57038,8.48638966 115.86359,8.895 C116.00159,9.088 116.10359,9.304 116.17159,9.541 C116.23859,9.778 116.27159,10.023 116.27159,10.275 C116.27159,10.725 116.20159,11.12 116.05759,11.457 C115.922012,11.7830851 115.709244,12.0713513 115.43759,12.297 C115.16759,12.519 114.83959,12.687 114.45359,12.802 C114.02737,12.9214616 113.586194,12.9790503 113.14359,12.973 L109.45259,12.973 L109.45259,12.973 Z M110.99859,8.798 L110.99859,11.663 L113.14359,11.663 C113.68259,11.663 114.07959,11.537 114.33359,11.286 C114.58959,11.034 114.71659,10.679 114.71659,10.222 C114.71659,9.771 114.58959,9.421 114.33459,9.172 C114.07959,8.922 113.68259,8.798 113.14359,8.798 L110.99859,8.798 L110.99859,8.798 Z M110.99859,7.498 L112.62459,7.498 C113.83759,7.498 114.44459,7.052 114.44459,6.161 C114.44459,5.241 113.84459,4.781 112.64259,4.781 L110.99859,4.781 L110.99859,7.497 L110.99859,7.498 Z M123.46859,12.973 C123.4076,12.8277884 123.364613,12.6756572 123.34059,12.52 C123.307449,12.3265011 123.282759,12.1316495 123.26659,11.936 C123.15459,12.1 123.02759,12.256 122.88359,12.402 C122.738555,12.5494627 122.576404,12.6790496 122.40059,12.788 C122.219415,12.9005765 122.024473,12.9893088 121.82059,13.052 C121.605417,13.1176405 121.381549,13.150344 121.15659,13.1490398 C120.74059,13.1490398 120.36459,13.09 120.02759,12.973 C119.703392,12.8637749 119.407572,12.6837549 119.16159,12.446 C118.915374,12.2018691 118.726487,11.9060722 118.60859,11.58 C118.472364,11.1949015 118.406647,10.7884061 118.41459,10.38 C118.41459,9.923 118.49459,9.501 118.65259,9.115 C118.808062,8.7320956 119.048437,8.38948508 119.35559,8.113 C119.66559,7.831 120.05559,7.61 120.52459,7.449 C120.99259,7.288 121.53759,7.207 122.15859,7.207 L123.23959,7.207 L123.23959,6.197 C123.23959,5.628 123.11359,5.224 122.86159,4.984 C122.61059,4.744 122.22659,4.624 121.71159,4.624 C121.45859,4.624 121.23459,4.663 121.03859,4.742 C120.84159,4.822 120.67659,4.928 120.54159,5.062 C120.40766,5.19597762 120.303106,5.35638457 120.23459,5.533 C120.16459,5.712 120.12859,5.901 120.12859,6.1 L118.57259,6.1 C118.57259,5.76 118.64759,5.422 118.79759,5.085 C118.949479,4.74401044 119.167328,4.4364391 119.43859,4.18 C119.733362,3.90284728 120.077697,3.68369388 120.45359,3.534 C120.878363,3.36466455 121.332352,3.28073097 121.78959,3.287 C122.22959,3.287 122.63259,3.34 122.99859,3.446 C123.36459,3.551 123.68059,3.721 123.94759,3.956 C124.21459,4.19 124.42059,4.492 124.56759,4.861 C124.71359,5.23 124.78759,5.681 124.78759,6.214 L124.78759,10.899 C124.78759,11.057 124.79259,11.224 124.80459,11.399 C124.827139,11.7384413 124.87866,12.0753341 124.95859,12.406 C124.993189,12.5501921 125.035585,12.6924011 125.08559,12.832 L125.08559,12.973 L123.46859,12.973 L123.46859,12.973 Z M121.39459,11.733 C121.61159,11.733 121.81659,11.702 122.00959,11.637 C122.20259,11.573 122.37959,11.489 122.53659,11.387 C122.69559,11.284 122.83459,11.167 122.95459,11.035 C123.07459,10.903 123.16959,10.767 123.23959,10.626 L123.23959,8.359 L122.42259,8.359 C122.080306,8.35493029 121.738995,8.39629116 121.40759,8.482 C121.10559,8.564 120.84759,8.682 120.63359,8.838 C120.42527,8.98680318 120.256389,9.18417407 120.14159,9.413 C120.02759,9.642 119.97059,9.903 119.97059,10.196 C119.97059,10.483 120.00059,10.724 120.05859,10.921 C120.11659,11.117 120.20459,11.275 120.32159,11.395 C120.43959,11.515 120.58759,11.602 120.76559,11.655 C120.94459,11.707 121.15359,11.734 121.39459,11.734 L121.39459,11.733 Z M134.07459,12.973 L132.52759,12.973 L132.52759,8.913 L129.10059,8.913 L129.10059,12.973 L127.53559,12.973 L127.53559,3.463 L129.10059,3.463 L129.10059,7.585 L132.52759,7.585 L132.52759,3.463 L134.07459,3.463 L134.07459,12.973 Z M143.43259,12.973 L141.88659,12.973 L141.88659,8.913 L138.45759,8.913 L138.45759,12.973 L136.89259,12.973 L136.89259,3.463 L138.45759,3.463 L138.45759,7.585 L141.88559,7.585 L141.88559,3.463 L143.43159,3.463 L143.43159,12.973 L143.43259,12.973 Z M147.79859,6.742 L149.73259,6.742 C150.22459,6.742 150.65659,6.819 151.02859,6.974 C151.40059,7.13 151.71459,7.344 151.96859,7.616 C152.22459,7.889 152.41659,8.214 152.54459,8.592 C152.67459,8.97 152.73859,9.382 152.73859,9.827 C152.73859,10.266 152.67359,10.677 152.54459,11.061 C152.41659,11.445 152.22459,11.778 151.96959,12.059 C151.707111,12.3457362 151.386703,12.5734303 151.02959,12.727 C150.65659,12.891 150.22459,12.973 149.73259,12.973 L146.25259,12.973 L146.25259,3.463 L147.79859,3.463 L147.79859,6.743 L147.79859,6.742 Z M155.63859,12.973 L154.08359,12.973 L154.08359,3.463 L155.63859,3.463 L155.63859,12.973 Z M147.79859,8.069 L147.79859,11.646 L149.73259,11.646 C150.00259,11.646 150.22959,11.596 150.41359,11.496 C150.59859,11.396 150.74759,11.265 150.86159,11.101 C150.97659,10.937 151.05859,10.749 151.10759,10.538 C151.207576,10.1131366 151.207576,9.67086338 151.10759,9.246 C151.060877,9.03703631 150.977596,8.83797422 150.86159,8.658 C150.747912,8.48241845 150.594423,8.33612461 150.41359,8.231 C150.205217,8.11692962 149.970008,8.06097692 149.73259,8.069 L147.79859,8.069 L147.79859,8.069 Z M163.68759,3.463 L165.23459,3.463 L165.23459,12.973 L163.68759,12.973 L163.68759,6.038 L160.24259,12.973 L158.68659,12.973 L158.68659,3.463 L160.24259,3.463 L160.24259,10.407 L163.68759,3.463 Z M164.60159,0 C164.60159,0.346 164.54159,0.662 164.42159,0.95 C164.30159,1.237 164.12659,1.484 163.89859,1.692 C163.65646,1.9073267 163.37448,2.07311734 163.06859,2.18 C162.716517,2.30155609 162.346023,2.36110585 161.97359,2.356 C161.56959,2.356 161.20459,2.297 160.87959,2.18 C160.573392,2.07378532 160.291287,1.90792151 160.04959,1.692 C159.82199,1.48577152 159.641846,1.23261454 159.52159,0.95 C159.395644,0.649305284 159.332681,0.325982379 159.33659,0 L160.66359,0 C160.66359,0.176 160.68759,0.343 160.73359,0.501 C160.821758,0.82048933 161.054028,1.08049857 161.36159,1.204 C161.52959,1.274 161.73359,1.31 161.97359,1.31 C162.20759,1.31 162.40859,1.275 162.57559,1.204 C162.74259,1.134 162.87859,1.039 162.98459,0.919 C163.08959,0.799 163.16559,0.659 163.21259,0.501 C163.25959,0.343 163.28259,0.176 163.28259,0.001 L164.60159,0.001 L164.60159,0 Z M7.00959047,34.943 L9.38759047,26.294 L13.5475905,26.294 L13.5475905,38.973 L10.2315905,38.973 L10.2315905,32.188 L8.12159047,38.973 L5.90759047,38.973 L3.88059047,32.41 L3.88059047,38.973 L0.575590471,38.973 L0.575590471,26.293 L4.66559047,26.293 L7.00959047,34.942 L7.00959047,34.943 Z M22.3255905,38.973 C22.2588455,38.827975 22.205944,38.6769714 22.1675905,38.522 C22.1226017,38.3452775 22.0815913,38.1675659 22.0445905,37.989 C21.7945905,38.332 21.4715905,38.621 21.0775905,38.856 C20.6825905,39.09 20.2005905,39.2071123 19.6305905,39.2071123 C19.1350674,39.2107797 18.6434516,39.119111 18.1825905,38.937 C17.7449679,38.7652883 17.3466349,38.506763 17.0115905,38.177 C16.6717692,37.8376035 16.4043712,37.4327644 16.2255905,36.987 C16.0280205,36.4892591 15.9304951,35.9574571 15.9385905,35.422 C15.9385905,34.782 16.0425905,34.202 16.2485905,33.682 C16.4565905,33.162 16.7685905,32.721 17.1865905,32.358 C17.6045905,31.994 18.1285905,31.715 18.7565905,31.52 C19.3865905,31.325 20.1265905,31.227 20.9775905,31.227 L21.8805905,31.227 L21.8805905,30.207 C21.8805905,29.637 21.7825905,29.235 21.5875905,29 C21.3915905,28.766 21.1075905,28.649 20.7315905,28.649 C20.3015905,28.649 19.9875905,28.776 19.7885905,29.029 C19.5885905,29.284 19.4895905,29.641 19.4895905,30.102 L16.1735905,30.102 C16.1735905,29.547 16.2805905,29.026 16.4955905,28.537 C16.7112463,28.0477853 17.029017,27.6103392 17.4275905,27.254 C17.8562105,26.8733353 18.3529328,26.5771342 18.8915905,26.381 C19.4615905,26.166 20.1065905,26.059 20.8255905,26.059 C21.4585905,26.059 22.0405905,26.139 22.5715905,26.299 C23.1025905,26.459 23.5635905,26.709 23.9545905,27.049 C24.3445905,27.389 24.6495905,27.823 24.8685905,28.35 C25.0875905,28.877 25.1965905,29.512 25.1965905,30.254 L25.1965905,35.879 C25.1965905,36.246 25.2065905,36.573 25.2265905,36.858 C25.2455905,37.143 25.2745905,37.401 25.3135905,37.631 C25.3749417,38.0270384 25.4935138,38.4120608 25.6655905,38.774 L25.6655905,38.973 L22.3255905,38.973 L22.3255905,38.973 Z M20.3685905,36.606 C20.7355905,36.606 21.0485905,36.532 21.3055905,36.383 C21.5635905,36.235 21.7555905,36.059 21.8805905,35.856 L21.8805905,33.219 L21.0955905,33.219 C20.7825905,33.219 20.5125905,33.269 20.2855905,33.371 C20.067166,33.4670755 19.8733224,33.6113471 19.7185905,33.793 C19.5626936,33.9782115 19.4469203,34.1937541 19.3785905,34.426 C19.3024465,34.6768774 19.2646861,34.9378288 19.2665905,35.2 C19.2665905,35.66 19.3625905,36.01 19.5535905,36.248 C19.7455905,36.487 20.0165905,36.606 20.3685905,36.606 L20.3685905,36.606 Z M35.0165905,29.059 L30.9035905,29.059 L30.9035905,38.973 L27.5875905,38.973 L27.5875905,26.293 L35.0175905,26.293 L35.0175905,29.059 L35.0165905,29.059 Z M42.5175905,38.973 C42.4508455,38.827975 42.397944,38.6769714 42.3595905,38.522 C42.3146023,38.3452773 42.273592,38.1675658 42.2365905,37.989 C41.9865905,38.332 41.6645905,38.621 41.2695905,38.856 C40.8755905,39.09 40.3925905,39.2071049 39.8225905,39.2071049 C39.3274033,39.2106512 38.8361392,39.1189848 38.3755905,38.937 C37.9376748,38.7652841 37.5390153,38.5067676 37.2035905,38.177 C36.8641287,37.8375117 36.5970752,37.432679 36.4185905,36.987 C36.2209952,36.4892664 36.1234689,35.9574593 36.1315905,35.422 C36.1315905,34.782 36.2345905,34.202 36.4415905,33.682 C36.6485905,33.162 36.9615905,32.721 37.3795905,32.358 C37.7975905,31.994 38.3205905,31.715 38.9495905,31.52 C39.5785905,31.325 40.3195905,31.227 41.1695905,31.227 L42.0725905,31.227 L42.0725905,30.207 C42.0725905,29.637 41.9745905,29.235 41.7795905,29 C41.5845905,28.766 41.2995905,28.649 40.9245905,28.649 C40.4945905,28.649 40.1795905,28.776 39.9805905,29.029 C39.7815905,29.284 39.6815905,29.641 39.6815905,30.102 L36.3655905,30.102 C36.3655905,29.547 36.4725905,29.026 36.6875905,28.537 C36.9032463,28.0477853 37.221017,27.6103392 37.6195905,27.254 C38.0485082,26.8732276 38.5455787,26.5770211 39.0845905,26.381 C39.6545905,26.166 40.2995905,26.059 41.0175905,26.059 C41.6505905,26.059 42.2325905,26.139 42.7635905,26.299 C43.2955905,26.459 43.7565905,26.709 44.1465905,27.049 C44.5365905,27.389 44.8425905,27.823 45.0605905,28.35 C45.2805905,28.877 45.3885905,29.512 45.3885905,30.254 L45.3885905,35.879 C45.3885905,36.246 45.3985905,36.573 45.4185905,36.858 C45.4385905,37.143 45.4675905,37.401 45.5065905,37.631 C45.5679417,38.0270384 45.6865138,38.4120608 45.8585905,38.774 L45.8585905,38.973 L42.5185905,38.973 L42.5175905,38.973 Z M40.5605905,36.606 C40.9285905,36.606 41.2405905,36.532 41.4985905,36.383 C41.7565905,36.235 41.9485905,36.059 42.0725905,35.856 L42.0725905,33.219 L41.2875905,33.219 C40.9745905,33.219 40.7055905,33.269 40.4785905,33.371 C40.2598055,33.4669459 40.0656087,33.6112259 39.9105905,33.793 C39.7585905,33.973 39.6445905,34.183 39.5705905,34.426 C39.4965905,34.668 39.4595905,34.926 39.4595905,35.2 C39.4595905,35.66 39.5545905,36.01 39.7465905,36.248 C39.9375905,36.487 40.2095905,36.606 40.5605905,36.606 L40.5605905,36.606 Z M52.1155905,31.391 C52.4985905,31.391 52.7715905,31.266 52.9355905,31.016 C53.0995905,30.766 53.1815905,30.442 53.1815905,30.043 C53.1815905,29.871 53.1665905,29.703 53.1355905,29.539 C53.1070129,29.3823142 53.051527,29.231758 52.9715905,29.094 C52.8930027,28.9609886 52.7818449,28.8501749 52.6485905,28.772 C52.489329,28.6844143 52.309208,28.6418905 52.1275905,28.649 C51.7445905,28.649 51.4435905,28.76 51.2245905,28.983 C51.0065905,29.205 50.8965905,29.528 50.8965905,29.95 L47.5805905,29.95 C47.5805905,29.34 47.6935905,28.797 47.9205905,28.32 C48.1465905,27.844 48.4575905,27.438 48.8515905,27.102 C49.2602197,26.7580768 49.7320373,26.4972015 50.2405905,26.334 C50.793126,26.1551302 51.3708426,26.0663286 51.9515905,26.071 C52.6385905,26.071 53.2615905,26.151 53.8215905,26.311 C54.3795905,26.471 54.8555905,26.705 55.2505905,27.014 C55.6445905,27.323 55.9495905,27.707 56.1645905,28.168 C56.3795905,28.629 56.4865905,29.16 56.4865905,29.762 C56.4908601,30.3100439 56.3408065,30.8482267 56.0535905,31.315 C55.7587776,31.7925535 55.3417312,32.1826713 54.8455905,32.445 C55.4395905,32.695 55.8925905,33.069 56.2055905,33.565 C56.5175905,34.061 56.6745905,34.668 56.6745905,35.387 C56.6745905,35.989 56.5565905,36.526 56.3225905,36.998 C56.0913657,37.4672662 55.7570299,37.8781779 55.3445905,38.2 C54.8968513,38.5431411 54.3877469,38.7976933 53.8445905,38.95 C53.2252443,39.1267869 52.5836425,39.2133442 51.9395905,39.207 C51.3783375,39.207325 50.8198335,39.1286342 50.2805905,38.973 C49.7570921,38.8265965 49.2660912,38.5822837 48.8335905,38.253 C48.4049754,37.9209372 48.0546909,37.4986157 47.8075905,37.016 C47.5465905,36.516 47.4155905,35.918 47.4155905,35.223 L50.7315905,35.223 C50.7315905,35.411 50.7575905,35.59 50.8075905,35.763 C50.8585905,35.933 50.9405905,36.084 51.0535905,36.213 C51.1675905,36.343 51.3115905,36.446 51.4875905,36.523 C51.6635905,36.602 51.8765905,36.641 52.1265905,36.641 C52.3605905,36.641 52.5575905,36.598 52.7185905,36.512 C52.8785905,36.426 53.0055905,36.312 53.0985905,36.172 C53.1925905,36.032 53.2615905,35.869 53.3035905,35.686 C53.3465905,35.502 53.3685905,35.316 53.3685905,35.129 C53.3685905,34.582 53.2645905,34.189 53.0585905,33.952 C52.8505905,33.713 52.5365905,33.594 52.1145905,33.594 L50.5555905,33.594 L50.5555905,31.391 L52.1145905,31.391 L52.1155905,31.391 Z M64.9245905,26.293 L68.2285905,26.293 L68.2285905,38.973 L64.9245905,38.973 L64.9245905,31.18 L61.9695905,38.973 L58.6415905,38.973 L58.6415905,26.293 L61.9695905,26.293 L61.9695905,34.075 L64.9235905,26.293 L64.9245905,26.293 Z M80.1935905,38.973 L76.8765905,38.973 L76.8765905,34.11 L73.9575905,34.11 L73.9575905,38.973 L70.6295905,38.973 L70.6295905,26.293 L73.9575905,26.293 L73.9575905,31.368 L76.8755905,31.368 L76.8755905,26.293 L80.1915905,26.293 L80.1915905,38.973 L80.1935905,38.973 Z M91.7595905,36.113 L97.8055905,36.113 L97.8055905,38.973 L88.3135905,38.973 L88.3135905,21.91 L91.7595905,21.91 L91.7595905,36.114 L91.7595905,36.113 Z M103.11459,38.973 L99.7865905,38.973 L99.7865905,26.293 L103.11459,26.293 L103.11459,38.973 Z M99.6345905,23.013 C99.6345905,22.754 99.6775905,22.518 99.7625905,22.303 C99.8485905,22.088 99.9695905,21.903 100.12659,21.746 C100.288188,21.5862758 100.481764,21.4625646 100.69459,21.383 C100.91759,21.297 101.16459,21.254 101.43859,21.254 C101.71259,21.254 101.96059,21.297 102.18259,21.384 C102.40559,21.469 102.59459,21.59 102.75159,21.746 C102.90759,21.903 103.02859,22.088 103.11459,22.303 C103.20059,22.518 103.24359,22.754 103.24359,23.013 C103.24359,23.27 103.20059,23.506 103.11459,23.721 C103.032129,23.930885 102.908734,24.1222666 102.75159,24.284 C102.59459,24.444 102.40559,24.567 102.18259,24.653 C101.96059,24.739 101.71259,24.782 101.43859,24.782 C101.16559,24.782 100.91759,24.739 100.69459,24.652 C100.480813,24.5719711 100.287,24.446402 100.12659,24.284 C99.9690885,24.1223559 99.8453494,23.9309682 99.7625905,23.721 C99.6749052,23.4950468 99.6314508,23.2543504 99.6345905,23.012 L99.6345905,23.013 Z M110.80259,39.207 C109.93459,39.207 109.16559,39.075 108.49259,38.809 C107.846595,38.5605517 107.265842,38.1679105 106.79459,37.661 C106.33359,37.161 105.98459,36.549 105.74459,35.827 C105.50759,35.104 105.38759,34.282 105.38759,33.36 L105.38759,32.317 C105.38759,31.285 105.50359,30.381 105.73359,29.604 C105.96359,28.827 106.29659,28.174 106.72959,27.647 C107.155126,27.1254394 107.702587,26.7167325 108.32359,26.457 C108.95259,26.192 109.66559,26.059 110.46259,26.059 C112.07259,26.059 113.27859,26.579 114.08259,27.618 C114.88759,28.657 115.29059,30.196 115.29059,32.235 L115.29059,33.746 L108.69259,33.746 C108.71659,34.254 108.78459,34.68 108.89759,35.024 C109.01159,35.368 109.16559,35.644 109.36059,35.856 C109.55559,36.066 109.79259,36.219 110.07059,36.313 C110.34659,36.407 110.66059,36.453 111.01259,36.453 C111.59859,36.453 112.12059,36.353 112.57759,36.155 C113.032255,35.9566365 113.444179,35.6720591 113.79059,35.317 L115.09059,37.321 C114.904243,37.570816 114.687962,37.7968363 114.44659,37.994 C114.158884,38.2311904 113.844413,38.433902 113.50959,38.598 C113.14959,38.778 112.74359,38.924 112.28959,39.038 C111.802728,39.1551915 111.30334,39.2122836 110.80259,39.208 L110.80259,39.207 Z M110.43859,28.813 C109.86059,28.813 109.44059,29.02 109.17859,29.433 C108.91759,29.848 108.76259,30.513 108.71659,31.426 L112.03259,31.426 L112.03259,31.121 C112.01659,30.364 111.89259,29.789 111.65759,29.399 C111.42359,29.009 111.01759,28.813 110.43859,28.813 Z M127.05559,33.043 C127.05559,35.098 126.72759,36.639 126.07159,37.666 C125.41559,38.694 124.38459,39.207 122.97759,39.207 C122.39159,39.207 121.88259,39.077 121.44859,38.815 C120.998404,38.5374945 120.615781,38.1630709 120.32859,37.719 L120.22459,38.973 L117.16659,38.973 L117.16659,20.973 L120.48259,20.973 L120.48259,27.325 C120.762424,26.9414249 121.122431,26.6233898 121.53759,26.393 C121.94359,26.17 122.41659,26.059 122.95559,26.059 C124.37759,26.059 125.41559,26.58 126.07259,27.623 C126.72859,28.666 127.05659,30.196 127.05659,32.211 L127.05659,33.043 L127.05559,33.043 Z M123.73959,32.211 C123.73959,31.641 123.71859,31.145 123.67559,30.723 C123.63259,30.301 123.54859,29.95 123.42359,29.668 C123.317405,29.4089781 123.132764,29.1897163 122.89559,29.041 C122.66959,28.905 122.37259,28.836 122.00559,28.836 C121.63059,28.836 121.31959,28.92 121.07359,29.088 C120.82759,29.256 120.63059,29.488 120.48159,29.786 L120.48159,35.563 C120.62159,35.844 120.81759,36.063 121.06759,36.219 C121.31759,36.375 121.63759,36.453 122.02859,36.453 C122.38859,36.453 122.68059,36.391 122.90759,36.266 C123.13459,36.141 123.30759,35.942 123.42859,35.668 C123.55059,35.395 123.63259,35.043 123.67559,34.614 C123.71859,34.184 123.73959,33.661 123.73959,33.044 L123.73959,32.211 L123.73959,32.211 Z M132.28259,27.407 C132.602516,26.9971923 133.003539,26.6577864 133.46059,26.41 C133.913939,26.1730081 134.419077,26.0523936 134.93059,26.059 C135.45459,26.059 135.93459,26.149 136.37259,26.329 C136.80959,26.509 137.18459,26.793 137.49759,27.184 C137.80959,27.574 138.05259,28.082 138.22359,28.707 C138.39559,29.332 138.48159,30.094 138.48159,30.993 L138.48159,38.973 L135.15359,38.973 L135.15359,30.969 C135.159753,30.6265818 135.12823,30.2845247 135.05959,29.949 C135.013725,29.7129847 134.918289,29.4893917 134.77959,29.293 C134.662699,29.1355235 134.504041,29.0139316 134.32159,28.942 C134.14159,28.872 133.93159,28.836 133.68859,28.836 C133.36059,28.836 133.08359,28.91 132.85659,29.059 C132.621685,29.2164224 132.42545,29.4249642 132.28259,29.669 L132.28259,38.973 L128.96659,38.973 L128.96659,20.973 L132.28259,20.973 L132.28259,27.407 L132.28259,27.407 Z M145.98259,39.207 C145.11459,39.207 144.34559,39.075 143.67259,38.809 C143.026236,38.5606856 142.445129,38.1680361 141.97359,37.661 C141.51359,37.161 141.16359,36.549 140.92559,35.827 C140.68659,35.104 140.56759,34.282 140.56759,33.36 L140.56759,32.317 C140.56759,31.285 140.68259,30.381 140.91359,29.604 C141.14359,28.827 141.47559,28.174 141.90959,27.647 C142.335126,27.1254394 142.882587,26.7167325 143.50359,26.457 C144.13259,26.192 144.84459,26.059 145.64159,26.059 C147.25159,26.059 148.45859,26.579 149.26259,27.618 C150.06759,28.657 150.47059,30.196 150.47059,32.235 L150.47059,33.746 L143.87259,33.746 C143.89559,34.254 143.96459,34.68 144.07759,35.024 C144.19059,35.368 144.34459,35.644 144.54059,35.856 C144.73559,36.066 144.97159,36.219 145.24959,36.313 C145.52659,36.407 145.84159,36.453 146.19259,36.453 C146.77859,36.453 147.30059,36.353 147.75759,36.155 C148.21459,35.955 148.61759,35.676 148.97059,35.317 L150.27059,37.321 C150.084243,37.570816 149.867962,37.7968363 149.62659,37.994 C149.338572,38.2312562 149.023761,38.4339698 148.68859,38.598 C148.32859,38.778 147.92359,38.924 147.46959,39.038 C146.982403,39.1552727 146.482674,39.2123654 145.98159,39.208 L145.98259,39.207 Z M145.61859,28.813 C145.04059,28.813 144.62059,29.02 144.35859,29.433 C144.09659,29.848 143.94259,30.513 143.89559,31.426 L147.21259,31.426 L147.21259,31.121 C147.19659,30.364 147.07259,29.789 146.83759,29.399 C146.60259,29.009 146.19759,28.813 145.61759,28.813 L145.61859,28.813 Z M158.60259,29.493 L158.05759,29.433 C157.872992,29.4118055 157.687396,29.4004561 157.50159,29.399 C157.02459,29.399 156.63759,29.5 156.34159,29.703 C156.04459,29.907 155.81759,30.203 155.66159,30.594 L155.66159,38.973 L152.33359,38.973 L152.33359,26.293 L155.46259,26.293 L155.55559,27.664 C155.80559,27.157 156.11259,26.762 156.47559,26.481 C156.83959,26.2 157.25559,26.059 157.72359,26.059 C157.87259,26.059 158.03459,26.073 158.21059,26.1 C158.38659,26.127 158.52859,26.164 158.63759,26.211 L158.60259,29.493 L158.60259,29.493 Z M166.55959,29.493 L166.01459,29.433 C165.829992,29.4118055 165.644396,29.4004561 165.45859,29.399 C164.98159,29.399 164.59559,29.5 164.29859,29.703 C164.00159,29.907 163.77459,30.203 163.61859,30.594 L163.61859,38.973 L160.29059,38.973 L160.29059,26.293 L163.41959,26.293 L163.51259,27.664 C163.76259,27.157 164.06959,26.762 164.43259,26.481 C164.79659,26.2 165.21259,26.059 165.68059,26.059 C165.82959,26.059 165.99159,26.073 166.16759,26.1 C166.34359,26.127 166.48559,26.164 166.59559,26.211 L166.55959,29.493 L166.55959,29.493 Z"/>
    <path fill="#394791" d="M193.23536,0.468850797 C193.582373,0.0272923554 194.063932,-0.0817985537 194.59588,0.055863784 C195.128347,0.192487161 195.543412,0.516123524 195.846789,0.992487161 C196.15588,1.47820145 196.334062,2.116643 196.488867,2.96547417 C196.729906,4.28807158 196.982373,6.88183781 197.299256,8.02677287 C198.487308,8.00963002 201.047828,7.52443521 202.384971,7.38365599 C204.863932,7.12391573 205.490425,8.01638326 205.709646,8.38365599 C205.990685,8.85586378 206.021334,9.34781184 205.695101,9.80495469 C205.362114,10.2719677 204.655101,10.6854742 203.575101,10.8730066 C202.12325,11.1243909 199.524476,10.1521643 197.969466,9.47224162 L198.010893,9.50350015 L196.71155,11.2375289 C202.794066,16.7144388 203.797525,26.0271826 198.794529,32.7032404 C193.497386,39.7723313 183.472971,41.208695 176.40388,35.9115521 C169.335308,30.6144092 167.898425,20.5899937 173.196088,13.5209027 C178.199024,6.84492359 187.418706,5.19289447 194.382403,9.49217926 L195.682062,7.75908456 L195.728624,7.79463717 C194.639627,6.49394554 192.972829,4.26942292 192.80575,2.80339625 C192.682633,1.7140456 192.881075,0.919240407 193.23536,0.468850797 Z M185.325789,7.93534457 L185.130286,7.94502617 C183.483263,8.03982369 181.855824,8.401237 180.317524,9.01930387 C178.044286,13.2843015 182.337837,20.3205555 184.18975,23.6989807 C184.191828,23.6979417 184.192867,23.6979417 184.194945,23.6969027 C185.254165,25.5145651 186.776763,28.9530066 187.402737,31.0184612 C187.978146,32.9165426 188.390511,36.7380988 186.685175,38.2881373 C188.351357,38.2120199 190.000779,37.8623501 191.560768,37.2499492 C193.806413,32.7692456 189.791855,26.1465806 187.802321,22.5172144 C187.800243,22.5177339 187.799204,22.5182534 187.797126,22.5187729 C186.737906,20.7011105 185.241802,17.208643 184.588295,15.1972144 C184.001811,13.3901326 183.642079,9.50998242 185.325789,7.93534457 Z M178.865932,9.69428612 L178.625468,9.82389857 C176.903598,10.7775684 175.341721,12.0822812 174.053581,13.7217461 C172.242308,17.7135071 172.63447,21.9039079 176.693594,27.2398638 C181.885522,34.0650976 180.848465,36.2618877 179.754583,36.9659372 C181.462346,37.7375387 183.268558,38.1704189 185.08127,38.2780051 C186.426895,34.8553456 180.823246,27.3461762 179.562737,25.2127469 C179.560659,25.2132664 179.55962,25.2132664 179.557542,25.2143053 C178.548711,23.4683313 177.315984,20.2459937 177.043256,18.116643 C176.707027,15.4900504 177.085079,11.9475159 178.865932,9.69428612 Z M186.94431,7.94864113 L186.930863,7.98574784 C185.663628,11.5413527 190.882124,18.3854276 192.429334,21.0034482 C192.431412,21.0024092 192.432451,21.0024092 192.43401,21.0013703 C193.44336,22.7473443 194.675568,25.9702014 194.948295,28.0990326 C195.285679,30.7319671 194.904948,34.2843999 193.113795,36.5367468 C194.815381,35.636267 196.369772,34.3969624 197.668636,32.8349528 C199.606062,28.4349726 199.158574,23.2686961 192.77162,14.0688508 C191.584791,12.3591901 190.714556,10.0998408 191.509383,8.95241785 C190.031474,8.37596996 188.490472,8.04393895 186.94431,7.94864113 Z M170.852947,21.8565651 L170.84039,22.0306898 C170.489884,27.0075682 172.595756,32.0545968 176.885438,35.2689547 C177.494358,35.7253149 178.126375,36.129063 178.776044,36.4809792 C178.255769,32.6199809 172.157662,28.9298186 170.852947,21.8565651 Z M192.829418,9.54177253 L192.826821,9.58923833 C192.841376,11.7969326 200.525649,17.0011 201.185294,22.8276578 C201.096624,18.3084383 199.002032,13.8754165 195.105178,10.9551885 C194.376553,10.4091701 193.614856,9.93847683 192.829418,9.54177253 Z M203.922114,8.18001963 C203.511204,8.12079885 203.020815,8.16651313 202.573542,8.21846119 C201.546529,8.33898067 199.712763,8.81430534 198.404191,8.9353443 C199.753282,9.64547417 202.038997,10.2288508 203.19588,10.0511885 C203.974062,9.93170794 204.496659,9.6714482 204.723672,9.38781184 C204.890945,9.18053911 204.900295,8.95924041 204.777698,8.71560404 C204.608867,8.37794171 204.29562,8.23456508 203.922114,8.18001963 Z M194.539256,1.04287677 C194.270165,0.993526122 194.060815,1.06469495 193.908088,1.28339625 C193.700295,1.58105859 193.597438,2.15612352 193.700815,2.93586378 C193.85562,4.09690275 195.057178,6.12651313 196.116919,7.22209755 C195.866529,5.93222742 195.807308,4.03924041 195.634321,3.01950015 C195.541854,2.47248716 195.437438,2.03040924 195.288347,1.70365599 C195.250945,1.62157807 195.210945,1.54677287 195.167308,1.47975989 C195.009386,1.23456508 194.808347,1.09170794 194.539256,1.04287677 Z"/>
    <path fill="#8494E7" d="M171.256967 4L171.256 6.381 172.940024 4.69709352 173.30265 5.05971961 171.618 6.743 174.000513 6.743033 174.000513 7.25645409 171.619 7.256 173.302855 8.93987006 172.940229 9.30249615 171.256 7.618 171.256967 10 170.744059 10 170.744 7.618 169.060386 9.30249615 168.69776 8.93987006 170.38 7.256 168 7.25645409 168 6.743033 170.381 6.743 168.697965 5.05971961 169.060592 4.69709352 170.744 6.381 170.744059 4 171.256967 4zM186.171311-3.55271368e-15L186.171 1.586 187.293349.464729014 187.5351.70647974 186.413 1.828 188.000342 1.82868866 188.000342 2.1709694 186.412 2.17 187.535237 3.29324671 187.293486 3.53499744 186.171 2.412 186.171311 4 185.829373 4 185.829 2.411 184.706924 3.53499744 184.465174 3.29324671 185.588 2.17 184 2.1709694 184 1.82868866 185.587 1.828 184.46531.70647974 184.707061.464729014 185.829 1.586 185.829373-3.55271368e-15 186.171311-3.55271368e-15zM179 1.0002739C179 1.55245138 178.552451 2 177.999726 2 177.448096 2 177 1.55245138 177 1.0002739 177 .448096412 177.448096 0 177.999726 0 178.552451 0 179 .448096412 179 1.0002739M204 15.0002739C204 15.5524514 203.552451 16 202.999726 16 202.448096 16 202 15.5524514 202 15.0002739 202 14.4480964 202.448096 14 202.999726 14 203.552451 14 204 14.4480964 204 15.0002739"/>
  </g>
</svg>
