<?xml version="1.0" encoding="UTF-8"?>
<svg width="746px" height="100px" viewBox="0 0 746 100" version="1.1" xmlns="http://www.w3.org/2000/svg" xmlns:xlink="http://www.w3.org/1999/xlink">
    <!-- Generator: Sketch 53.2 (72643) - https://sketchapp.com -->
    <title>logo bg</title>
    <desc>Created with Sketch.</desc>
    <g id="Symbols" stroke="none" stroke-width="1" fill="none" fill-rule="evenodd" opacity="0.119140625">
        <g id="футер-hd-new" transform="translate(-345.000000, -95.000000)" fill="#9E9E9E" fill-rule="nonzero">
            <g id="футер-hd">
                <g id="подложка">
                    <path d="M604.090909,154.096986 L604.090909,176.818182 L611.63293,176.818182 C615.582648,176.818182 619.605059,174.199076 621.089232,171.14244 C622.264455,168.717793 623.070148,163.95965 620.980191,159.505348 C618.22387,153.635148 612.202368,154.163831 611.626873,154.090909 L604.090909,154.090909 L604.090909,154.096986 Z M604.090909,113.181818 L604.090909,131.363636 L610.139298,131.363636 C613.340231,131.363636 615.721293,129.27625 616.830819,126.826069 C617.709603,124.880646 618.342916,121.073926 616.74245,117.519586 C614.808144,113.213366 611.057357,113.223881 610.173664,113.181818 L604.090909,113.181818 L604.090909,113.181818 Z M554.090909,95 C554.090909,95 619.851065,95.0164264 631.089264,95.010951 C652.55894,94.989049 657.613746,111.645451 657.650836,121.419178 C657.714418,138.984509 645.803304,143.299185 645.803304,143.299185 C645.803304,143.299185 658.636364,148.303771 658.636364,167.024428 C658.636364,196.18682 632.758304,194.993166 628.752609,194.993166 L554.090909,194.993166 L554.090909,95 Z M858.636364,195 L858.636364,172.034279 L837.889258,172.034279 L837.889258,153.810645 L858.421014,153.810645 L858.421014,133.916877 L837.889258,133.916877 L837.889258,114.652831 L858.636364,114.652831 L858.636364,95 L790.454545,95 L790.454545,195 L858.636364,195 Z M732.953623,195 L781.363636,195 L781.363636,95 L732.953623,95 L732.953623,132.881941 L717.258733,132.881941 L717.258733,95 L667.727273,95 L667.727273,195 L717.258733,195 L717.258733,152.978316 L732.953623,152.978316 L732.953623,195 Z M549.545455,195 L549.545455,172.034279 L528.797891,172.034279 L528.797891,153.810645 L549.324903,153.810645 L549.324903,133.916877 L528.797891,133.916877 L528.797891,114.652831 L549.545455,114.652831 L549.545455,95 L481.363636,95 L481.363636,195 L549.545455,195 Z M422.272727,95 L472.272727,95 L472.272727,195 L422.272727,195 L422.272727,95 Z M417.727273,195 L417.727273,167.396233 L395.790303,167.396233 L395.790303,95 L345,95 L345,195 L417.727273,195 Z M913.181818,113.181818 L913.181818,135.909091 L919.456675,135.909091 C926.253953,135.909091 928.668699,133.003825 930.160501,129.935695 C931.344655,127.503257 932.134091,123.111209 930.166306,118.608835 C929.086635,116.160635 926.253953,113.187072 919.456675,113.187072 L913.181818,113.187072 L913.181818,113.181818 Z M867.727273,95.0109517 L942.746556,95 C966.256198,95 975.143251,110.78688 975.143251,124.410798 C975.143251,147.611981 954.096419,151.762677 954.096419,151.762677 L981.363636,195 L926.509642,195 L914.719008,166.279159 L914.741047,195 L867.727273,195 L867.727273,95.0109517 Z M1022.27273,113.181818 L1022.27273,135.909091 L1028.55291,135.909091 C1035.36128,135.909091 1037.77004,133.003825 1039.25012,129.935695 C1040.43418,127.503257 1041.22936,123.111209 1039.25012,118.608835 C1038.18214,116.160635 1035.36128,113.187072 1028.54711,113.187072 L1022.27273,113.187072 L1022.27273,113.181818 Z M976.818182,95.0109517 L1051.83372,95 C1075.35115,95 1084.23907,110.78688 1084.23907,124.410798 C1084.23907,147.611981 1063.19019,151.762677 1063.19019,151.762677 L1090.45455,195 L1035.60074,195 L1023.81447,166.279159 L1023.83101,195 L976.818182,195 L976.818182,95.0109517 Z" id="logo-bg"></path>
                </g>
            </g>
        </g>
    </g>
</svg>