<?xml version="1.0" encoding="utf-8"?>
<!-- Generator: Adobe Illustrator 23.0.2, SVG Export Plug-In . SVG Version: 6.00 Build 0)  -->
<svg version="1.1" id="Слой_1" xmlns="http://www.w3.org/2000/svg" xmlns:xlink="http://www.w3.org/1999/xlink" x="0px" y="0px"
	 viewBox="0 0 24 24" style="enable-background:new 0 0 24 24;" xml:space="preserve">
<style type="text/css">
	.st0{fill-rule:evenodd;clip-rule:evenodd;fill:#EB722E;}
	.st1{fill-rule:evenodd;clip-rule:evenodd;fill:#FFFFFF;}
</style>
<path class="st0" d="M22,24H2c-1.1,0-2-0.9-2-2L0,2c0-1.1,0.9-2,2-2l20,0c1.1,0,2,0.9,2,2v20C24,23.1,23.1,24,22,24z"/>
<g>
	<path class="st1" d="M11.7,6.5c-0.9,0-1.7,0.8-1.7,1.7c0,0.9,0.8,1.7,1.7,1.7c0.9,0,1.7-0.8,1.7-1.7C13.4,7.3,12.6,6.5,11.7,6.5z
		 M11.7,12.3c-2.2,0-4.1-1.8-4.1-4.1c0-2.3,1.8-4.1,4.1-4.1c2.3,0,4.1,1.8,4.1,4.1C15.7,10.5,13.9,12.3,11.7,12.3z M10,15.6
		c-0.8-0.2-1.6-0.5-2.4-1c-0.6-0.4-0.7-1.1-0.4-1.6s1.1-0.7,1.6-0.4c1.7,1.1,3.8,1.1,5.5,0c0.6-0.4,1.3-0.2,1.6,0.4
		c0.4,0.6,0.2,1.3-0.4,1.6c-0.7,0.5-1.5,0.8-2.4,1l2.3,2.3c0.5,0.5,0.5,1.2,0,1.7c-0.5,0.5-1.2,0.5-1.7,0l0,0l-2.2-2.2l-2.2,2.2
		c-0.5,0.5-1.2,0.5-1.7,0s-0.5-1.2,0-1.7L10,15.6"/>
</g>
</svg>
