<svg xmlns="http://www.w3.org/2000/svg" viewBox="0 0 36 44"><defs><style>.cls-1{fill:#294d99;}</style></defs><title>on delivery</title><g id="Слой_2" data-name="Слой 2"><g id="vzug_logo" data-name="vzug logo"><path class="cls-1" d="M27.36,21.83a6.27,6.27,0,0,1-.65,2.78A7.81,7.81,0,0,0,25.92,28V40.33a2.18,2.18,0,0,1-2.16,2.2H5a2.18,2.18,0,0,1-2.16-2.2V28a7.81,7.81,0,0,0-.79-3.43,6.27,6.27,0,0,1-.65-2.78V6.6A2.19,2.19,0,0,1,3.6,4.4h.72V2.93H3.6A3.65,3.65,0,0,0,0,6.6V21.83a7.71,7.71,0,0,0,.8,3.43A6.36,6.36,0,0,1,1.44,28V40.33A3.63,3.63,0,0,0,5,44H23.76a3.63,3.63,0,0,0,3.6-3.67V28A6.21,6.21,0,0,1,28,25.26a7.84,7.84,0,0,0,.79-3.43v-1.3H27.36Z"/><path class="cls-1" d="M15.12,24.2H13.68a2.2,2.2,0,0,0,0,4.4h1.44a2.2,2.2,0,0,0,0-4.4Zm0,2.93H13.68a.73.73,0,0,1,0-1.46h1.44a.73.73,0,0,1,0,1.46Zm7.2-2.93H20.88a2.2,2.2,0,0,0,0,4.4h1.44a2.2,2.2,0,0,0,0-4.4Zm0,2.93H20.88a.73.73,0,0,1,0-1.46h1.44a.73.73,0,0,1,0,1.46ZM7.92,24.2H6.48a2.2,2.2,0,0,0,0,4.4H7.92a2.2,2.2,0,0,0,0-4.4Zm0,2.93H6.48a.73.73,0,0,1,0-1.46H7.92a.73.73,0,0,1,0,1.46Zm7.2,2.94H13.68a2.2,2.2,0,0,0,0,4.4h1.44a2.2,2.2,0,0,0,0-4.4Zm0,2.93H13.68a.74.74,0,0,1,0-1.47h1.44a.74.74,0,0,1,0,1.47Zm7.2-2.93H20.88a2.2,2.2,0,0,0,0,4.4h1.44a2.2,2.2,0,0,0,0-4.4Zm0,2.93H20.88a.74.74,0,0,1,0-1.47h1.44a.74.74,0,0,1,0,1.47ZM7.92,30.07H6.48a2.2,2.2,0,0,0,0,4.4H7.92a2.2,2.2,0,0,0,0-4.4Zm0,2.93H6.48a.74.74,0,0,1,0-1.47H7.92a.74.74,0,0,1,0,1.47Zm7.2,2.93H13.68a2.2,2.2,0,0,0,0,4.4h1.44a2.2,2.2,0,0,0,0-4.4Zm0,2.94H13.68a.74.74,0,0,1,0-1.47h1.44a.74.74,0,0,1,0,1.47Zm7.2-2.94H20.88a2.2,2.2,0,0,0,0,4.4h1.44a2.2,2.2,0,0,0,0-4.4Zm0,2.94H20.88a.74.74,0,0,1,0-1.47h1.44a.74.74,0,0,1,0,1.47ZM7.92,35.93H6.48a2.2,2.2,0,0,0,0,4.4H7.92a2.2,2.2,0,0,0,0-4.4Zm0,2.94H6.48a.74.74,0,0,1,0-1.47H7.92a.74.74,0,0,1,0,1.47Z"/><path class="cls-1" d="M4.68,7.43,4,6.16A2.22,2.22,0,0,0,2.88,8.07V19.8A2.19,2.19,0,0,0,5,22H23.76a2.16,2.16,0,0,0,1.87-1.1l-1.24-.73a.73.73,0,0,1-.63.36H5a.72.72,0,0,1-.72-.73V8.07A.74.74,0,0,1,4.68,7.43Z"/><path class="cls-1" d="M32.4,0h-23a3.63,3.63,0,0,0-3.6,3.67V15.4a3.65,3.65,0,0,0,3.6,3.67h23A3.65,3.65,0,0,0,36,15.4V3.67A3.63,3.63,0,0,0,32.4,0Zm2.16,15.4a2.19,2.19,0,0,1-2.16,2.2h-23A2.19,2.19,0,0,1,7.2,15.4V3.67a2.18,2.18,0,0,1,2.16-2.2h23a2.18,2.18,0,0,1,2.16,2.2ZM13,3.67a.73.73,0,0,0-.72-.74H9.36a.73.73,0,0,0-.72.74V6.6a.72.72,0,0,0,.72.73h2.88A.72.72,0,0,0,13,6.6Zm-1.44,2.2H10.08V4.4h1.44ZM8.64,8.8h2.88v1.47H8.64Zm0,2.93h2.88V13.2H8.64ZM13,8.8h2.88v1.47H13Zm4.32,0h2.88v1.47H17.28Zm4.32,0h2.88v1.47H21.6Zm4.32,0H28.8v1.47H25.92Zm4.32,0h2.88v1.47H30.24ZM31,3.67H32.4V5.13H31Zm-2.88,0h1.44V5.13H28.08Zm-2.88,0h1.44V5.13H25.2Zm-2.88,0h1.44V5.13H22.32ZM31,11.73a2.15,2.15,0,0,0-1.44.58,2.13,2.13,0,0,0-3,.09,2.21,2.21,0,0,0,0,3.06,2.12,2.12,0,0,0,3,.1,2.14,2.14,0,0,0,2.6.24,2.22,2.22,0,0,0,.93-2.48A2.18,2.18,0,0,0,31,11.73Zm-2.88,2.94a.74.74,0,1,1,.72-.74A.73.73,0,0,1,28.08,14.67Zm2.88,0a.74.74,0,1,1,.72-.74A.73.73,0,0,1,31,14.67Z"/></g></g></svg>