<svg xmlns="http://www.w3.org/2000/svg" viewBox="0 0 44 44"><defs><style>.cls-1{fill:#294d99;fill-rule:evenodd;}</style></defs><title>online</title><g id="Слой_2" data-name="Слой 2"><g id="vzug_logo" data-name="vzug logo"><path class="cls-1" d="M42.53,44V30.83a6.59,6.59,0,0,0-1.63-4.34l-5.7-6.26v7.33l4.92,4.92-1,1-7.7-7.7a1.86,1.86,0,0,0-2.63,2.63L35,34.68a.74.74,0,0,1,.13.85l-.43.86a8.08,8.08,0,0,0-.28,6.6.67.67,0,0,1,.06.28V44H33v-.32a3.54,3.54,0,0,1-1.47.32H12.47A3.67,3.67,0,0,1,8.8,40.33V30.8h1.47v5.87H33a9.7,9.7,0,0,1,.41-.93l.19-.4-5.86-5.85c-.06-.07-.1-.13-.15-.2a3,3,0,0,1-.43,0H3.67A3.66,3.66,0,0,1,0,25.67V12.47A3.67,3.67,0,0,1,3.67,8.8H27.13a3.67,3.67,0,0,1,3.67,3.67V23.9a3.31,3.31,0,0,1,1.62.88l1.31,1.32V5.87H10.27V7.33H8.8V3.67A3.67,3.67,0,0,1,12.47,0H31.53A3.67,3.67,0,0,1,35.2,3.67V18.05L42,25.51a8.06,8.06,0,0,1,2,5.32V44Zm-10-5.87H10.27v2.2a2.19,2.19,0,0,0,2.2,2.2H31.53a2.15,2.15,0,0,0,1.11-.3A9.61,9.61,0,0,1,32.57,38.13ZM29.33,12.47a2.19,2.19,0,0,0-2.2-2.2H3.67a2.19,2.19,0,0,0-2.2,2.2v13.2a2.2,2.2,0,0,0,2.2,2.2H26.83A3.33,3.33,0,0,1,27,26a2.17,2.17,0,0,1-2.76-.14,2.2,2.2,0,1,1,0-3.26,2.19,2.19,0,0,1,3.67,1.63,2.16,2.16,0,0,1-.07.51,3.34,3.34,0,0,1,1.53-.81ZM26.4,24.2a.74.74,0,1,0-.73.73A.73.73,0,0,0,26.4,24.2Zm-2.93,0a.74.74,0,1,0-.74.73A.73.73,0,0,0,23.47,24.2ZM33.73,3.67a2.19,2.19,0,0,0-2.2-2.2H12.47a2.19,2.19,0,0,0-2.2,2.2V4.4H33.73Zm-8.06,8.8h1.46v1.46H25.67Zm-4.4,6.6H24.2v1.46H21.27Zm1.46-6.6H24.2v1.46H22.73Zm-2.93,0h1.47v1.46H19.8Zm-2.93,0h1.46v1.46H16.87Zm0,6.6H19.8v1.46H16.87Zm2.2,5.13H16.13V22.73h2.94Zm-6.6-5.13H15.4v1.46H12.47Zm-4.4,0H11v1.46H8.07Zm0-1.47H3.67a.74.74,0,0,1-.74-.73v-4.4a.74.74,0,0,1,.74-.74h4.4a.74.74,0,0,1,.73.74v4.4A.73.73,0,0,1,8.07,17.6Zm-.74-4.4H4.4v2.93H7.33ZM6.6,20.53H3.67V19.07H6.6Zm0,3.67H3.67V22.73H6.6ZM21.27,39.6h1.46v1.47H21.27Z"/></g></g></svg>