<?xml version="1.0" encoding="utf-8"?>
<svg width="32px" height="32px" viewBox="0 0 32 32" version="1.1" xmlns:xlink="http://www.w3.org/1999/xlink" xmlns="http://www.w3.org/2000/svg">
  <desc>Created with Lunacy</desc>
  <g id="plus-copy-2">
    <path d="M16 32C24.8366 32 32 24.8366 32 16C32 7.16344 24.8366 0 16 0C7.16344 0 0 7.16344 0 16C0 24.8366 7.16344 32 16 32Z" id="Oval" fill="#394791" fill-opacity="0.549019635" stroke="none" />
    <path d="M10.6677 0L10.6657 0Q10.6001 0 10.5358 0.0127906Q10.4715 0.0255812 10.4109 0.0506709Q10.3504 0.0757605 10.2958 0.112185Q10.2413 0.14861 10.195 0.194969Q10.1486 0.241329 10.1122 0.295842Q10.0758 0.350355 10.0507 0.410927Q10.0256 0.471499 10.0128 0.535802Q10 0.600104 10 0.665667L10 10.0005L0.665699 10.0005Q0.600133 10.0005 0.535828 10.0133Q0.471522 10.0261 0.410947 10.0512Q0.350372 10.0763 0.295856 10.1127Q0.241341 10.1491 0.194979 10.1955Q0.148617 10.2418 0.11219 10.2964Q0.0757642 10.3509 0.0506733 10.4114Q0.0255824 10.472 0.0127912 10.5363Q0 10.6006 0 10.6662L0 10.6682Q0 10.7338 0.0127912 10.7981Q0.0255824 10.8624 0.0506733 10.923Q0.0757642 10.9835 0.11219 11.038Q0.148617 11.0926 0.194979 11.1389Q0.241341 11.1853 0.295856 11.2217Q0.350372 11.2581 0.410947 11.2832Q0.471522 11.3083 0.535828 11.3211Q0.600133 11.3339 0.665699 11.3339L10 11.3339L10 20.6677Q10 20.7332 10.0128 20.7975Q10.0256 20.8618 10.0507 20.9224Q10.0758 20.983 10.1122 21.0375Q10.1486 21.092 10.195 21.1384Q10.2413 21.1847 10.2958 21.2211Q10.3504 21.2576 10.4109 21.2827Q10.4715 21.3077 10.5358 21.3205Q10.6001 21.3333 10.6657 21.3333L10.6677 21.3333Q10.7332 21.3333 10.7975 21.3205Q10.8618 21.3077 10.9224 21.2827Q10.983 21.2576 11.0375 21.2211Q11.092 21.1847 11.1384 21.1384Q11.1847 21.092 11.2211 21.0375Q11.2576 20.983 11.2827 20.9224Q11.3077 20.8618 11.3205 20.7975Q11.3333 20.7332 11.3333 20.6677L11.3333 11.3339L20.6687 11.3339Q20.7343 11.3339 20.7986 11.3211Q20.8629 11.3083 20.9235 11.2832Q20.984 11.2581 21.0385 11.2217Q21.0931 11.1853 21.1394 11.1389Q21.1858 11.0926 21.2222 11.038Q21.2586 10.9835 21.2837 10.923Q21.3088 10.8624 21.3216 10.7981Q21.3344 10.7338 21.3344 10.6682L21.3344 10.6662Q21.3344 10.6006 21.3216 10.5363Q21.3088 10.472 21.2837 10.4114Q21.2586 10.3509 21.2222 10.2964Q21.1858 10.2418 21.1394 10.1955Q21.0931 10.1491 21.0385 10.1127Q20.984 10.0763 20.9235 10.0512Q20.8629 10.0261 20.7986 10.0133Q20.7343 10.0005 20.6687 10.0005L11.3333 10.0005L11.3333 0.665667Q11.3333 0.600104 11.3205 0.535802Q11.3077 0.471499 11.2827 0.410927Q11.2576 0.350355 11.2211 0.295842Q11.1847 0.241329 11.1384 0.194969Q11.092 0.14861 11.0375 0.112185Q10.983 0.0757605 10.9224 0.0506709Q10.8618 0.0255812 10.7975 0.0127906Q10.7332 0 10.6677 0Z" transform="translate(5.333333 5.333333)" id="Combined-Shape" fill="#FFFFFF" fill-rule="evenodd" stroke="none" />
  </g>
</svg>
