<svg xmlns="http://www.w3.org/2000/svg" width="14" height="14" viewBox="0 0 14 14">
  <path fill="#CCC" fill-rule="evenodd" d="M104,60.5381521 L98.7263102,60.5381521 L100.857565,58.3446705 C98.7340885,56.2445286 95.2960784,56.1667455 93.1726015,58.2668875 C91.0491247,60.3748077 91.0491247,63.7739263 93.1726015,65.8818466 C95.2960784,67.9897668 98.7340885,67.9897668 100.857565,65.8818466 C101.915415,64.8395539 102.444339,63.6183603 102.444339,62.0782562 L104,62.0782562 C104,63.6183603 103.315509,65.6173843 101.946528,66.9708091 C99.2163434,69.6776587 94.7827104,69.6776587 92.0525258,66.9708091 C89.3301196,64.2717378 89.3067847,59.8847746 92.0369692,57.1857033 C94.7671538,54.486632 99.1463386,54.486632 101.876523,57.1857033 L104,55 L104,60.5381521 L104,60.5381521 Z M97.388442,58.8891517 L97.388442,62.1949307 L100.110848,63.8128179 L99.5508104,64.7539926 L96.2216965,62.7783035 L96.2216965,58.8891517 L97.388442,58.8891517 L97.388442,58.8891517 Z" transform="translate(-90 -55)"/>
</svg>
