<?xml version="1.0" encoding="utf-8"?><svg version="1.1" id="d_1" xmlns="http://www.w3.org/2000/svg" xmlns:xlink="http://www.w3.org/1999/xlink" x="0px" y="0px" viewBox="0 0 24 20" style="enable-background:new 0 0 24 20;" xml:space="preserve"><style type="text/css">.st0{fill: #394791;}</style><title>miele stars</title><g id="d_2"><g id="Layer_1"><path class="st0" d="M21.7,8.3C22,8.1,22,7.8,22,7.5C21.9,7.2,21.6,7,21.3,7l-5.8-0.5c-0.3,0-0.5-0.2-0.6-0.5l-2.3-5.5c-0.1-0.4-0.5-0.6-0.9-0.4c-0.2,0.1-0.4,0.2-0.4,0.4L9.1,6.1C9,6.4,8.7,6.5,8.5,6.6L2.7,7.1C2.4,7.2,2.1,7.4,2,7.7C1.9,7.9,2,8.3,2.2,8.5l4.5,3.9C6.9,12.6,7,12.9,7,13.1l-1.3,5.9c-0.1,0.3,0,0.6,0.3,0.8c0.2,0.2,0.6,0.2,0.8,0l5-3.2c0.2-0.1,0.5-0.1,0.7,0l5,3.1c0.2,0.2,0.6,0.2,0.8,0c0.2-0.2,0.3-0.5,0.3-0.8l-1.4-6c-0.1-0.3,0-0.6,0.2-0.8L21.7,8.3z"/></g></g></svg>