<?xml version="1.0" encoding="utf-8"?>
<!-- Generator: Adobe Illustrator 23.0.2, SVG Export Plug-In . SVG Version: 6.00 Build 0)  -->
<svg version="1.1" id="Слой_1" xmlns="http://www.w3.org/2000/svg" xmlns:xlink="http://www.w3.org/1999/xlink" x="0px" y="0px"
	 viewBox="0 0 24 24" style="enable-background:new 0 0 24 24;" xml:space="preserve">
<style type="text/css">
	.st0{fill-rule:evenodd;clip-rule:evenodd;fill:#00ACED;}
	.st1{fill-rule:evenodd;clip-rule:evenodd;fill:#FFFFFF;}
</style>
<path class="st0" d="M22,24H2c-1.1,0-2-0.9-2-2L0,2c0-1.1,0.9-2,2-2l20,0c1.1,0,2,0.9,2,2v20C24,23.1,23.1,24,22,24z"/>
<path class="st1" d="M20,7.5c-0.6,0.3-1.2,0.4-1.9,0.5c0.7-0.4,1.2-1.1,1.4-1.8c-0.6,0.4-1.3,0.7-2.1,0.8c-1.2-1.3-3.3-1.4-4.6-0.2
	c-0.9,0.8-1.2,2-1,3.1C9.2,9.9,6.8,8.7,5.1,6.6C4.2,8.1,4.7,10,6.1,11c-0.5,0-1-0.2-1.5-0.4v0c0,1.6,1.1,2.9,2.6,3.2
	c-0.5,0.1-1,0.1-1.5,0.1c0.4,1.3,1.7,2.3,3.1,2.3c-1.4,1.1-3.1,1.6-4.9,1.4c1.5,1,3.2,1.5,5,1.5c6,0,9.3-5,9.3-9.3
	c0-0.1,0-0.3,0-0.4C19,8.8,19.6,8.2,20,7.5L20,7.5z"/>
</svg>
