<svg xmlns="http://www.w3.org/2000/svg" width="24" height="24" viewBox="0 0 24 24">
    <g fill="none" fill-rule="evenodd">
        <path d="M0 0h24v24H0z"/>
        <path fill="#394791" fill-rule="nonzero" d="M8.5 5.958a.393.393 0 0 0 .389-.396.392.392 0 0 0-.39-.395.392.392 0 0 0-.388.396c0 .218.174.395.389.395z"/>
        <path fill="#394791" fill-rule="nonzero" d="M18.778 8.733A1.15 1.15 0 0 0 18.53 7.3l-1.24-1.068a.4.4 0 0 1-.132-.234l-.281-1.612a1.117 1.117 0 0 0-1.095-.938h-1.62a.37.37 0 0 1-.239-.088l-1.24-1.09-.004-.003a1.093 1.093 0 0 0-1.432 0l-.003.003-1.238 1.087a.37.37 0 0 1-.242.09h-1.62c-.54 0-1 .395-1.095.938L6.768 6a.396.396 0 0 1-.131.233L5.395 7.3a1.15 1.15 0 0 0-.247 1.433l.81 1.438c.046.08.062.176.046.267l-.281 1.635a1.137 1.137 0 0 0 .713 1.262l1.523.569c.03.011.059.026.085.045L5.22 18.96c-.16.285.1.627.414.542l1.648-.447.442 1.669c.084.319.51.377.672.088l2.913-5.172.525-.196a.368.368 0 0 1 .256 0l.565.21 3.125 5.168a.365.365 0 0 0 .667-.098l.441-1.67 1.649.448c.318.087.58-.267.407-.552l-3.036-5.02a.354.354 0 0 1 .059-.027l1.521-.569c.508-.188.808-.72.714-1.262l-.281-1.635a.405.405 0 0 1 .046-.267l.81-1.438zM8.202 19.661l-.306-1.156a.366.366 0 0 0-.449-.262l-1.154.313 2.194-3.896.48.853a1.1 1.1 0 0 0 1.276.523l-2.041 3.625zm9.638-1.115l-1.115-.303a.366.366 0 0 0-.449.262l-.316 1.193-2.203-3.642a1.093 1.093 0 0 0 1.202-.543l.504-.896 2.377 3.929zm-.509-8.742c-.13.23-.176.5-.131.761l.281 1.636a.393.393 0 0 1-.245.438l-1.522.568a1.116 1.116 0 0 0-.59.516l-.802 1.422a.373.373 0 0 1-.455.172l-1.523-.568a1.093 1.093 0 0 0-.762 0c-.03.01-.68.253-1.523.568a.372.372 0 0 1-.455-.172l-.754-1.338a.373.373 0 0 0-.109-.185 1.115 1.115 0 0 0-.53-.415L6.69 12.64a.394.394 0 0 1-.244-.438l.281-1.636a1.156 1.156 0 0 0-.13-.761l-.811-1.439a.401.401 0 0 1 .085-.5l1.241-1.067c.2-.171.334-.41.379-.67l.281-1.614a.383.383 0 0 1 .373-.324h1.62a1.1 1.1 0 0 0 .719-.27l1.24-1.088a.37.37 0 0 1 .48 0l1.243 1.09c.2.173.454.268.716.268h1.62c.184 0 .34.136.373.324l.281 1.613c.046.262.18.5.379.671l1.24 1.067c.144.123.18.334.086.5l-.81 1.439z"/>
        <path fill="#394791" fill-rule="nonzero" d="M12 4.375a4.57 4.57 0 0 0-1.786.36.368.368 0 0 0-.194.478.357.357 0 0 0 .47.197c.478-.202.987-.304 1.51-.304 2.177 0 3.949 1.803 3.949 4.019s-1.772 4.02-3.949 4.02c-2.177 0-3.949-1.804-3.949-4.02 0-.688.174-1.366.502-1.962a.369.369 0 0 0-.138-.498.356.356 0 0 0-.488.14 4.822 4.822 0 0 0-.594 2.32c0 2.62 2.094 4.75 4.667 4.75s4.667-2.13 4.667-4.75-2.094-4.75-4.667-4.75z"/>
        <path fill="#394791" fill-rule="nonzero" d="M10.633 9.808l-.203 1.26a.38.38 0 0 0 .138.361.33.33 0 0 0 .367.029L12 10.863l1.065.595c.117.065.26.054.367-.029a.38.38 0 0 0 .138-.361l-.203-1.26.861-.892a.386.386 0 0 0 .088-.379.355.355 0 0 0-.28-.251l-1.192-.184-.532-1.146A.347.347 0 0 0 12 6.75a.347.347 0 0 0-.312.206l-.532 1.146-1.191.184a.355.355 0 0 0-.281.251.386.386 0 0 0 .088.38l.861.891zm.804-1.002a.35.35 0 0 0 .262-.203L12 7.955l.301.648a.35.35 0 0 0 .262.203l.675.104-.488.505a.384.384 0 0 0-.1.327l.115.713-.603-.337a.332.332 0 0 0-.324 0l-.603.337.115-.713a.384.384 0 0 0-.1-.327l-.488-.505.675-.104z"/>
    </g>
</svg>
