<svg xmlns="http://www.w3.org/2000/svg" width="24" height="24" viewBox="0 0 24 24">
    <g fill="none" fill-rule="evenodd">
        <path d="M0 0h24v24H0z"/>
        <g fill="#394791" fill-rule="nonzero">
            <path d="M7.625 9.968c.161 0 .292-.13.292-.29a.291.291 0 0 0-.584 0c0 .16.131.29.292.29z"/>
            <path d="M17.95 5.11H16.9V4.054C16.9 3.473 16.429 3 15.85 3H9.84c-.278 0-.547.113-.743.309l-3.79 3.807A1.062 1.062 0 0 0 5 7.86v9.764c0 .582.471 1.055 1.05 1.055H7.1v1.265c0 .582.471 1.055 1.05 1.055h9.8c.579 0 1.05-.473 1.05-1.055V6.165c0-.583-.471-1.056-1.05-1.056zM9.2 4.2V7.22H6.195L9.2 4.2zM6.05 17.977a.351.351 0 0 1-.35-.352V7.922h3.85a.35.35 0 0 0 .35-.352V3.703h5.95c.193 0 .35.158.35.352v13.57a.351.351 0 0 1-.35.352h-9.8zm12.25 1.968a.351.351 0 0 1-.35.352h-9.8a.351.351 0 0 1-.35-.352V18.68h8.05c.579 0 1.05-.473 1.05-1.055V5.812h1.05c.193 0 .35.158.35.352v13.781z"/>
            <path d="M14.567 5.323h-2.8a.357.357 0 0 0-.35.362v2.178c0 .2.156.363.35.363h2.8c.193 0 .35-.163.35-.363V5.685c0-.2-.157-.362-.35-.362zm-.35 2.177h-2.1V6.048h2.1V7.5zM14.56 9.387H8.856c-.196 0-.356.13-.356.29 0 .16.16.29.356.29h5.704c.197 0 .357-.13.357-.29 0-.16-.16-.29-.357-.29zM14.572 11.71H7.678c-.19 0-.345.13-.345.29 0 .16.155.29.345.29h6.894c.19 0 .345-.13.345-.29 0-.16-.155-.29-.345-.29zM14.572 13.452H7.678c-.19 0-.345.13-.345.29 0 .16.155.29.345.29h6.894c.19 0 .345-.13.345-.29 0-.16-.155-.29-.345-.29zM14.572 15.774H7.678c-.19 0-.345.13-.345.29 0 .16.155.29.345.29h6.894c.19 0 .345-.13.345-.29 0-.16-.155-.29-.345-.29z"/>
        </g>
    </g>
</svg>
