<svg xmlns="http://www.w3.org/2000/svg" width="160" height="106" viewBox="0 0 160 106">
  <g fill="none" fill-rule="evenodd">
    <g fill="#FFCC01" transform="translate(0 80)">
      <polygon points="13.563 21.513 5.181 25.932 6.771 16.553 0 9.905 9.365 8.527 13.563 0 17.761 8.527 27.126 9.905 20.355 16.553 21.946 25.932"/>
      <polygon points="46.264 21.513 37.881 25.932 39.472 16.553 32.701 9.905 42.066 8.527 46.264 0 50.462 8.527 59.827 9.905 53.056 16.553 54.646 25.932"/>
      <polygon points="78.965 21.513 70.582 25.932 72.173 16.553 65.401 9.905 74.767 8.527 78.965 0 83.162 8.527 92.528 9.905 85.757 16.553 87.347 25.932"/>
      <polygon points="112.833 21.513 104.451 25.932 106.041 16.553 99.27 9.905 108.636 8.527 112.833 0 117.031 8.527 126.396 9.905 119.625 16.553 121.216 25.932"/>
      <polygon points="145.534 21.513 137.151 25.932 138.742 16.553 131.971 9.905 141.336 8.527 145.534 0 149.732 8.527 159.097 9.905 152.326 16.553 153.917 25.932"/>
    </g>
    <g transform="translate(5)">
      <path fill="red" d="M7,14.6373 L2.952,23.7293 L1.45661261e-13,23.7293 L4.446,14.0063 C2.354,12.9453 0.964,11.0213 0.964,7.4683 C0.964,2.4903 4.115,0.0033 7.864,0.0033 L11.68,0.0033 L11.68,23.7293 L9.124,23.7293 L9.124,14.6373 L7,14.6373 Z M9.125,2.1583 L7.764,2.1583 C5.708,2.1583 3.716,3.5193 3.716,7.4683 C3.716,11.2833 5.542,12.5123 7.764,12.5123 L9.124,12.5123 L9.125,2.1583 Z"/>
      <path fill="#222" d="M145.4571,8.297 L145.4571,23.729 L143.8991,23.729 L143.8991,8.297 L140.0151,8.297 L140.0151,7.005 L149.3091,7.005 L149.3091,8.297 L145.4571,8.297 Z M134.6991,22.702 C136.9231,22.702 138.0851,20.909 138.0851,20.909 L138.5831,22.171 C138.5831,22.171 137.3221,24.061 134.6681,24.061 C131.1161,24.061 129.4911,20.843 129.4911,15.367 C129.4911,9.891 131.5471,6.673 134.3691,6.673 C137.2551,6.673 139.1151,9.692 138.5831,15.633 L131.0171,15.633 C131.0821,20.212 132.2781,22.702 134.6991,22.702 L134.6991,22.702 Z M131.0491,14.404 L137.1231,14.404 C137.3881,9.958 136.0611,7.965 134.3691,7.965 C132.6091,7.965 131.1831,10.223 131.0491,14.404 L131.0491,14.404 Z M121.2541,23.729 L119.6961,23.729 L119.6961,7.005 L121.2541,7.005 L121.2541,14.868 L126.8631,7.005 L128.3911,7.005 L122.8811,14.769 L128.7881,23.728 L127.0621,23.728 L121.2541,15.068 L121.2541,23.729 Z M108.5371,22.566 L108.5371,28.905 L106.9791,28.905 L106.9791,7.005 L108.3411,7.005 L108.4711,9.758 C109.2011,8.164 110.4311,6.673 112.2891,6.673 C115.0751,6.673 116.6991,10.023 116.6991,14.868 C116.6991,21.008 114.6451,24.027 111.5261,24.027 C110.3581,24.027 109.2551,23.488 108.5371,22.566 L108.5371,22.566 Z M115.1431,15.001 C115.1431,10.621 113.9471,8.031 112.0241,8.031 C110.5291,8.031 109.2691,9.625 108.5371,11.418 L108.5371,20.776 C109.2011,22.137 110.1311,22.798 111.6251,22.798 C113.7471,22.798 115.1431,20.278 115.1431,15.001 L115.1431,15.001 Z M101.9261,21.474 C101.1291,23.065 99.9361,24.061 98.2761,24.061 C96.0191,24.061 94.4611,22.268 94.4611,19.216 C94.4611,15.633 96.4171,13.774 100.0341,13.774 L101.8601,13.774 L101.8601,11.682 C101.8601,9.128 100.8971,8.032 99.0741,8.032 C97.6461,8.032 96.3521,8.696 95.5541,9.859 L95.1221,8.364 C95.7861,7.501 97.1821,6.671 99.0741,6.671 C101.8271,6.671 103.3871,8.198 103.3871,11.516 L103.3871,20.644 C103.3871,21.804 103.5531,23.098 103.7521,23.729 L102.3251,23.729 C102.1921,23.297 102.0251,22.667 101.9261,21.474 L101.9261,21.474 Z M101.8601,19.515 L101.8601,14.903 L100.0701,14.903 C97.3141,14.903 95.9861,16.164 95.9861,19.083 C95.9861,21.438 97.0161,22.799 98.6091,22.799 C100.1691,22.799 101.2621,21.305 101.8591,19.515 L101.8601,19.515 Z M80.8121,6.971 C80.4801,5.742 80.2151,4.68 80.0161,3.587 L79.9151,3.587 C79.9821,4.716 80.0161,5.908 80.0161,7.103 L80.0161,23.73 L78.5581,23.73 L78.5581,-5.82645043e-13 L80.4801,-5.82645043e-13 L84.4981,15.166 C84.6641,15.797 84.8961,17.026 84.9931,17.922 L85.0931,17.922 C85.2261,17.026 85.4911,15.764 85.6571,15.166 L89.7051,0.000999999999 L91.5651,0.000999999999 L91.5651,23.73 L89.9741,23.73 L89.9741,7.103 C89.9741,5.975 90.0371,4.779 90.1031,3.587 L89.9741,3.587 C89.7281,4.687 89.4621,5.782 89.1731,6.871 L85.6231,20.078 L84.3291,20.078 L80.8121,6.971 Z M24.0001,7.005 L24.0001,23.728 L21.4441,23.728 L21.4441,16.229 L17.5941,16.229 L17.5941,23.728 L15.0041,23.728 L15.0041,7.004 L17.5941,7.004 L17.5941,14.104 L21.4431,14.104 L21.4431,7.004 L24.0001,7.005 Z M37.3071,27.015 L34.9841,27.015 L34.9841,23.728 L27.8151,23.728 L27.8151,27.015 L25.4911,27.015 L25.4911,21.605 L26.5211,21.605 C28.0471,18.055 28.2131,12.879 28.2131,8.432 L28.2131,7.005 L35.9771,7.005 L35.9771,21.605 L37.3061,21.605 L37.3071,27.015 Z M33.4251,9.093 L30.5341,9.093 L30.5341,9.393 C30.5341,12.912 30.3721,18.055 28.9771,21.605 L33.4241,21.605 L33.4251,9.093 Z M44.4421,23.96 C40.9891,23.96 38.8671,21.207 38.8671,16.063 C38.8671,10.687 40.3581,6.772 43.9111,6.772 C46.6971,6.772 48.5241,8.861 48.5241,14.536 L48.5241,15.964 L41.5541,15.964 C41.5541,19.746 42.6161,21.738 44.6721,21.738 C46.1331,21.738 47.2951,21.074 47.9591,20.609 L48.5571,22.602 C47.4941,23.432 46.1001,23.96 44.4421,23.96 L44.4421,23.96 Z M41.5871,13.839 L45.8671,13.839 C45.8671,10.986 45.4031,8.897 43.9111,8.897 C42.3171,8.897 41.7531,10.853 41.5871,13.839 L41.5871,13.839 Z M53.7671,15.399 L53.7671,23.728 L51.1771,23.728 L51.1771,7.004 L53.7671,7.004 L53.7671,14.735 L57.7821,7.005 L60.4051,7.005 L56.2551,14.868 L61.0001,23.728 L58.1801,23.728 L53.7671,15.399 Z M61.3321,15.366 C61.3321,10.123 63.3571,6.772 67.2721,6.772 C68.7661,6.772 69.6301,7.17 70.3571,7.635 L69.9921,10.09 C69.2951,9.492 68.3021,8.927 67.2391,8.927 C65.3791,8.927 64.0541,11.019 64.0541,15.233 C64.0541,19.414 65.0481,21.805 67.1391,21.805 C68.4011,21.805 69.3641,21.307 69.9621,20.775 L70.5571,22.701 C69.6631,23.462 68.6001,23.961 67.0731,23.961 C63.4901,23.961 61.3321,21.074 61.3321,15.366 L61.3321,15.366 Z"/>
    </g>
    <path fill="#333" fill-rule="nonzero" d="M22.4296875,60.078125 L22.4296875,64.53125 L21,64.53125 L21,53.15625 L24.625,53.15625 C25.1718777,53.15625 25.65755,53.2421866 26.0820312,53.4140625 C26.5065125,53.5859384 26.8619777,53.8268214 27.1484375,54.1367188 C27.4348973,54.4466161 27.652343,54.8138 27.8007812,55.2382812 C27.9492195,55.6627625 28.0234375,56.1276016 28.0234375,56.6328125 C28.0234375,57.1796902 27.9492195,57.6679666 27.8007812,58.0976562 C27.652343,58.5273459 27.4335952,58.8880194 27.1445312,59.1796875 C26.8554673,59.4713556 26.5,59.6940096 26.078125,59.8476562 C25.6562479,60.0013029 25.1718777,60.078125 24.625,60.078125 L22.4296875,60.078125 Z M22.4296875,58.8515625 L24.625,58.8515625 C24.9739601,58.8515625 25.2721342,58.7968755 25.5195312,58.6875 C25.7669283,58.5781245 25.9700513,58.4257822 26.1289062,58.2304688 C26.2877612,58.0351553 26.4049475,57.8033868 26.4804688,57.5351562 C26.55599,57.2669257 26.59375,56.9713558 26.59375,56.6484375 C26.59375,56.3567694 26.55599,56.0742201 26.4804688,55.8007812 C26.4049475,55.5273424 26.2877612,55.2864594 26.1289062,55.078125 C25.9700513,54.8697906 25.7669283,54.7031256 25.5195312,54.578125 C25.2721342,54.4531244 24.9739601,54.390625 24.625,54.390625 L22.4296875,54.390625 L22.4296875,58.8515625 Z M32.6953125,64.6875 C32.1901016,64.6875 31.734377,64.6119799 31.328125,64.4609375 C30.921873,64.3098951 30.5768243,64.0794286 30.2929688,63.7695312 C30.0091132,63.4596339 29.7916674,63.0677107 29.640625,62.59375 C29.4895826,62.1197893 29.4140625,61.5598991 29.4140625,60.9140625 L29.4140625,59.9609375 C29.4140625,59.2161421 29.5026033,58.5872421 29.6796875,58.0742188 C29.8567717,57.5611954 30.0898423,57.1445329 30.3789062,56.8242188 C30.6679702,56.5039046 30.9999981,56.2734382 31.375,56.1328125 C31.7500019,55.9921868 32.1380188,55.921875 32.5390625,55.921875 C33.0703152,55.921875 33.5234356,56.0091137 33.8984375,56.1835938 C34.2734394,56.3580738 34.580728,56.6145816 34.8203125,56.953125 C35.059897,57.2916684 35.2343745,57.7083309 35.34375,58.203125 C35.4531255,58.6979191 35.5078125,59.2682259 35.5078125,59.9140625 L35.5078125,60.71875 L30.7890625,60.71875 L30.7890625,60.9140625 C30.7890625,61.820317 30.9596337,62.4791646 31.3007812,62.890625 C31.6419288,63.3020854 32.1328093,63.5078125 32.7734375,63.5078125 C33.0078137,63.5078125 33.2187491,63.4843752 33.40625,63.4375 C33.5937509,63.3906248 33.7656242,63.3242192 33.921875,63.2382812 C34.0781258,63.1523433 34.2213535,63.0507818 34.3515625,62.9335938 C34.4817715,62.8164057 34.6041661,62.6875007 34.71875,62.546875 L35.4375,63.421875 C35.3229161,63.5833341 35.1848966,63.7395826 35.0234375,63.890625 C34.8619784,64.0416674 34.669272,64.1757807 34.4453125,64.2929688 C34.221353,64.4101568 33.9648452,64.505208 33.6757812,64.578125 C33.3867173,64.651042 33.0598977,64.6875 32.6953125,64.6875 Z M32.5390625,57.109375 C32.299478,57.109375 32.078126,57.145833 31.875,57.21875 C31.671874,57.291667 31.4934904,57.420572 31.3398438,57.6054688 C31.1861971,57.7903655 31.0625005,58.0390609 30.96875,58.3515625 C30.8749995,58.6640641 30.8177084,59.0572893 30.796875,59.53125 L34.125,59.53125 L34.125,59.34375 C34.1093749,59.0156234 34.074219,58.7148451 34.0195312,58.4414062 C33.9648435,58.1679674 33.8789068,57.9322927 33.7617188,57.734375 C33.6445307,57.5364573 33.4869802,57.382813 33.2890625,57.2734375 C33.0911448,57.164062 32.8411473,57.109375 32.5390625,57.109375 Z M41.734375,56.078125 L43.109375,56.078125 L43.109375,64.53125 L41.734375,64.53125 L41.734375,58.3671875 L38.671875,64.53125 L37.2890625,64.53125 L37.2890625,56.078125 L38.671875,56.078125 L38.671875,62.25 L41.734375,56.078125 Z M42.546875,53 C42.546875,53.3072932 42.4934901,53.5885404 42.3867188,53.84375 C42.2799474,54.0989596 42.125001,54.3190095 41.921875,54.5039062 C41.718749,54.688803 41.4726577,54.8333328 41.1835938,54.9375 C40.8945298,55.0416672 40.5703143,55.09375 40.2109375,55.09375 C39.8515607,55.09375 39.5273452,55.0416672 39.2382812,54.9375 C38.9492173,54.8333328 38.703126,54.688803 38.5,54.5039062 C38.296874,54.3190095 38.1406255,54.0989596 38.03125,53.84375 C37.9218745,53.5885404 37.8671875,53.3072932 37.8671875,53 L39.046875,53 C39.046875,53.1562508 39.0677081,53.3046868 39.109375,53.4453125 C39.1510419,53.5859382 39.2174475,53.7096349 39.3085938,53.8164062 C39.39974,53.9231776 39.5195305,54.0078122 39.6679688,54.0703125 C39.816407,54.1328128 39.9973948,54.1640625 40.2109375,54.1640625 C40.4192719,54.1640625 40.5976555,54.1328128 40.7460938,54.0703125 C40.894532,54.0078122 41.0156245,53.9231776 41.109375,53.8164062 C41.2031255,53.7096349 41.2708331,53.5859382 41.3125,53.4453125 C41.3541669,53.3046868 41.375,53.1562508 41.375,53 L42.546875,53 Z M50.65625,57.25 L48.3515625,57.25 L48.3515625,64.53125 L46.9765625,64.53125 L46.9765625,57.25 L44.703125,57.25 L44.703125,56.078125 L50.65625,56.078125 L50.65625,57.25 Z M56.6796875,56.078125 L58.0546875,56.078125 L58.0546875,64.53125 L56.6796875,64.53125 L56.6796875,58.3671875 L53.6171875,64.53125 L52.234375,64.53125 L52.234375,56.078125 L53.6171875,56.078125 L53.6171875,62.25 L56.6796875,56.078125 Z M66.1953125,64.53125 L64.8203125,64.53125 L64.8203125,60.921875 L61.7734375,60.921875 L61.7734375,64.53125 L60.3828125,64.53125 L60.3828125,56.078125 L61.7734375,56.078125 L61.7734375,59.7421875 L64.8203125,59.7421875 L64.8203125,56.078125 L66.1953125,56.078125 L66.1953125,64.53125 Z M73.046875,57.2734375 L69.8984375,57.2734375 L69.8984375,64.53125 L68.5078125,64.53125 L68.5078125,56.078125 L73.046875,56.078125 L73.046875,57.2734375 Z M82.1484375,62.6171875 L84.4140625,56.078125 L86.1328125,56.078125 L86.1328125,64.53125 L84.7578125,64.53125 L84.7578125,58.703125 L82.625,64.53125 L81.6796875,64.53125 L79.5,58.5625 L79.5,64.53125 L78.125,64.53125 L78.125,56.078125 L79.90625,56.078125 L82.1484375,62.6171875 Z M92.6875,64.53125 C92.6406248,64.4270828 92.6028647,64.2929696 92.5742188,64.1289062 C92.5455728,63.9648429 92.5234376,63.7916676 92.5078125,63.609375 C92.4088537,63.7552091 92.2955736,63.8932285 92.1679688,64.0234375 C92.0403639,64.1536465 91.8971362,64.2682287 91.7382812,64.3671875 C91.5794263,64.4661463 91.407553,64.5442705 91.2226562,64.6015625 C91.0377595,64.6588545 90.8411469,64.6875 90.6328125,64.6875 C90.263019,64.6875 89.9283869,64.6354172 89.6289062,64.53125 C89.3294256,64.4270828 89.0729177,64.2708344 88.859375,64.0625 C88.6458323,63.8541656 88.4817714,63.5976578 88.3671875,63.2929688 C88.2526036,62.9882797 88.1953125,62.6328145 88.1953125,62.2265625 C88.1953125,61.8203105 88.2656243,61.4453142 88.40625,61.1015625 C88.5468757,60.7578108 88.755207,60.4609387 89.03125,60.2109375 C89.307293,59.9609363 89.6536438,59.7643236 90.0703125,59.6210938 C90.4869812,59.4778639 90.9713514,59.40625 91.5234375,59.40625 L92.484375,59.40625 L92.484375,58.5078125 C92.484375,58.0026016 92.372397,57.6432302 92.1484375,57.4296875 C91.924478,57.2161448 91.5833356,57.109375 91.125,57.109375 C90.9010405,57.109375 90.7018238,57.1445309 90.5273438,57.2148438 C90.3528637,57.2851566 90.2057298,57.3802077 90.0859375,57.5 C89.9661452,57.6197923 89.8750003,57.7591138 89.8125,57.9179688 C89.7499997,58.0768237 89.71875,58.2447908 89.71875,58.421875 L88.3359375,58.421875 C88.3359375,58.1197902 88.4023431,57.8190119 88.5351562,57.5195312 C88.6679694,57.2200506 88.8580717,56.9518241 89.1054688,56.7148438 C89.3528658,56.4778634 89.6536441,56.2864591 90.0078125,56.140625 C90.3619809,55.9947909 90.7578103,55.921875 91.1953125,55.921875 C91.5859395,55.921875 91.9440088,55.9687495 92.2695312,56.0625 C92.5950537,56.1562505 92.8763009,56.3072906 93.1132812,56.515625 C93.3502616,56.7239594 93.5338535,56.9921859 93.6640625,57.3203125 C93.7942715,57.6484391 93.859375,58.0494768 93.859375,58.5234375 L93.859375,62.6875 C93.859375,62.8281257 93.8645833,62.9765617 93.875,63.1328125 C93.8854167,63.2890633 93.9023436,63.4427076 93.9257812,63.59375 C93.9492189,63.7447924 93.9778644,63.8893222 94.0117188,64.0273438 C94.0455731,64.1653653 94.0833331,64.2916661 94.125,64.40625 L94.125,64.53125 L92.6875,64.53125 Z M90.84375,63.4296875 C91.0364593,63.4296875 91.2187491,63.401042 91.390625,63.34375 C91.5625009,63.286458 91.7187493,63.21224 91.859375,63.1210938 C92.0000007,63.0299475 92.1236974,62.9257818 92.2304688,62.8085938 C92.3372401,62.6914057 92.4218747,62.5703131 92.484375,62.4453125 L92.484375,60.4296875 L91.7578125,60.4296875 C91.4244775,60.4296875 91.1236993,60.4661455 90.8554688,60.5390625 C90.5872382,60.6119795 90.3580739,60.7174472 90.1679688,60.8554688 C89.9778636,60.9934903 89.8320318,61.1640615 89.7304688,61.3671875 C89.6289057,61.5703135 89.578125,61.802082 89.578125,62.0625 C89.578125,62.3177096 89.6041664,62.5325512 89.65625,62.7070312 C89.7083336,62.8815113 89.7864578,63.0221349 89.890625,63.1289062 C89.9947922,63.2356776 90.1263013,63.3124998 90.2851562,63.359375 C90.4440112,63.4062502 90.6302073,63.4296875 90.84375,63.4296875 Z M100.648438,57.2734375 L97.5,57.2734375 L97.5,64.53125 L96.109375,64.53125 L96.109375,56.078125 L100.648438,56.078125 L100.648438,57.2734375 Z M106.289062,64.53125 C106.242187,64.4270828 106.204427,64.2929696 106.175781,64.1289062 C106.147135,63.9648429 106.125,63.7916676 106.109375,63.609375 C106.010416,63.7552091 105.897136,63.8932285 105.769531,64.0234375 C105.641926,64.1536465 105.498699,64.2682287 105.339844,64.3671875 C105.180989,64.4661463 105.009116,64.5442705 104.824219,64.6015625 C104.639322,64.6588545 104.442709,64.6875 104.234375,64.6875 C103.864581,64.6875 103.529949,64.6354172 103.230469,64.53125 C102.930988,64.4270828 102.67448,64.2708344 102.460938,64.0625 C102.247395,63.8541656 102.083334,63.5976578 101.96875,63.2929688 C101.854166,62.9882797 101.796875,62.6328145 101.796875,62.2265625 C101.796875,61.8203105 101.867187,61.4453142 102.007812,61.1015625 C102.148438,60.7578108 102.356769,60.4609387 102.632812,60.2109375 C102.908856,59.9609363 103.255206,59.7643236 103.671875,59.6210938 C104.088544,59.4778639 104.572914,59.40625 105.125,59.40625 L106.085938,59.40625 L106.085938,58.5078125 C106.085938,58.0026016 105.973959,57.6432302 105.75,57.4296875 C105.526041,57.2161448 105.184898,57.109375 104.726562,57.109375 C104.502603,57.109375 104.303386,57.1445309 104.128906,57.2148438 C103.954426,57.2851566 103.807292,57.3802077 103.6875,57.5 C103.567708,57.6197923 103.476563,57.7591138 103.414062,57.9179688 C103.351562,58.0768237 103.320312,58.2447908 103.320312,58.421875 L101.9375,58.421875 C101.9375,58.1197902 102.003906,57.8190119 102.136719,57.5195312 C102.269532,57.2200506 102.459634,56.9518241 102.707031,56.7148438 C102.954428,56.4778634 103.255207,56.2864591 103.609375,56.140625 C103.963543,55.9947909 104.359373,55.921875 104.796875,55.921875 C105.187502,55.921875 105.545571,55.9687495 105.871094,56.0625 C106.196616,56.1562505 106.477863,56.3072906 106.714844,56.515625 C106.951824,56.7239594 107.135416,56.9921859 107.265625,57.3203125 C107.395834,57.6484391 107.460938,58.0494768 107.460938,58.5234375 L107.460938,62.6875 C107.460938,62.8281257 107.466146,62.9765617 107.476562,63.1328125 C107.486979,63.2890633 107.503906,63.4427076 107.527344,63.59375 C107.550781,63.7447924 107.579427,63.8893222 107.613281,64.0273438 C107.647136,64.1653653 107.684896,64.2916661 107.726562,64.40625 L107.726562,64.53125 L106.289062,64.53125 Z M104.445312,63.4296875 C104.638022,63.4296875 104.820312,63.401042 104.992188,63.34375 C105.164063,63.286458 105.320312,63.21224 105.460938,63.1210938 C105.601563,63.0299475 105.72526,62.9257818 105.832031,62.8085938 C105.938803,62.6914057 106.023437,62.5703131 106.085938,62.4453125 L106.085938,60.4296875 L105.359375,60.4296875 C105.02604,60.4296875 104.725262,60.4661455 104.457031,60.5390625 C104.188801,60.6119795 103.959636,60.7174472 103.769531,60.8554688 C103.579426,60.9934903 103.433594,61.1640615 103.332031,61.3671875 C103.230468,61.5703135 103.179688,61.802082 103.179688,62.0625 C103.179688,62.3177096 103.205729,62.5325512 103.257812,62.7070312 C103.309896,62.8815113 103.38802,63.0221349 103.492188,63.1289062 C103.596355,63.2356776 103.727864,63.3124998 103.886719,63.359375 C104.045574,63.4062502 104.23177,63.4296875 104.445312,63.4296875 Z M114.789062,58.3828125 C114.789062,58.7630227 114.692709,59.1119776 114.5,59.4296875 C114.307291,59.7473974 114.033856,59.9999991 113.679688,60.1875 C114.08594,60.3541675 114.39453,60.6015609 114.605469,60.9296875 C114.816407,61.2578141 114.921875,61.6666642 114.921875,62.15625 C114.921875,62.5572937 114.854167,62.9140609 114.71875,63.2265625 C114.583333,63.5390641 114.391928,63.8020823 114.144531,64.015625 C113.897134,64.2291677 113.601564,64.3932286 113.257812,64.5078125 C112.914061,64.6223964 112.53646,64.6796875 112.125,64.6796875 C111.77604,64.6796875 111.430991,64.6276047 111.089844,64.5234375 C110.748696,64.4192703 110.444012,64.2604177 110.175781,64.046875 C109.907551,63.8333323 109.691407,63.5598975 109.527344,63.2265625 C109.36328,62.8932275 109.28125,62.494794 109.28125,62.03125 L110.648438,62.03125 C110.648438,62.2291677 110.683593,62.4179679 110.753906,62.5976562 C110.824219,62.7773446 110.923176,62.9361972 111.050781,63.0742188 C111.178386,63.2122403 111.333332,63.3229163 111.515625,63.40625 C111.697918,63.4895837 111.901041,63.53125 112.125,63.53125 C112.359376,63.53125 112.565103,63.49349 112.742188,63.4179688 C112.919272,63.3424475 113.066406,63.2421881 113.183594,63.1171875 C113.300782,62.9921869 113.389323,62.846355 113.449219,62.6796875 C113.509115,62.51302 113.539062,62.3385426 113.539062,62.15625 C113.539062,61.6822893 113.433595,61.3424489 113.222656,61.1367188 C113.011718,60.9309886 112.67969,60.828125 112.226562,60.828125 L110.960938,60.828125 L110.960938,59.609375 L112.226562,59.609375 C112.450522,59.609375 112.63802,59.5807295 112.789062,59.5234375 C112.940105,59.4661455 113.0625,59.3841151 113.15625,59.2773438 C113.25,59.1705724 113.316406,59.0416674 113.355469,58.890625 C113.394531,58.7395826 113.414062,58.5729176 113.414062,58.390625 C113.414062,58.2239575 113.390625,58.0638029 113.34375,57.9101562 C113.296875,57.7565096 113.222657,57.6197923 113.121094,57.5 C113.019531,57.3802077 112.888022,57.2838545 112.726562,57.2109375 C112.565103,57.1380205 112.367189,57.1015625 112.132812,57.1015625 C111.940103,57.1015625 111.760418,57.1354163 111.59375,57.203125 C111.427082,57.2708337 111.28125,57.3658848 111.15625,57.4882812 C111.031249,57.6106777 110.933594,57.7526034 110.863281,57.9140625 C110.792968,58.0755216 110.757812,58.2499991 110.757812,58.4375 L109.390625,58.4375 C109.390625,58.0520814 109.463541,57.7044286 109.609375,57.3945312 C109.755209,57.0846339 109.951822,56.8216157 110.199219,56.6054688 C110.446616,56.3893218 110.736977,56.2226568 111.070312,56.1054688 C111.403648,55.9882807 111.757811,55.9296875 112.132812,55.9296875 C112.544273,55.9296875 112.914061,55.9830724 113.242188,56.0898438 C113.570314,56.1966151 113.848957,56.3528636 114.078125,56.5585938 C114.307293,56.7643239 114.483072,57.0208318 114.605469,57.328125 C114.727865,57.6354182 114.789062,57.9869772 114.789062,58.3828125 Z M121.3125,56.078125 L122.6875,56.078125 L122.6875,64.53125 L121.3125,64.53125 L121.3125,58.3671875 L118.25,64.53125 L116.867188,64.53125 L116.867188,56.078125 L118.25,56.078125 L118.25,62.25 L121.3125,56.078125 Z M130.828125,64.53125 L129.453125,64.53125 L129.453125,60.921875 L126.40625,60.921875 L126.40625,64.53125 L125.015625,64.53125 L125.015625,56.078125 L126.40625,56.078125 L126.40625,59.7421875 L129.453125,59.7421875 L129.453125,56.078125 L130.828125,56.078125 L130.828125,64.53125 Z M137.382812,64.53125 C137.335937,64.4270828 137.298177,64.2929696 137.269531,64.1289062 C137.240885,63.9648429 137.21875,63.7916676 137.203125,63.609375 C137.104166,63.7552091 136.990886,63.8932285 136.863281,64.0234375 C136.735676,64.1536465 136.592449,64.2682287 136.433594,64.3671875 C136.274739,64.4661463 136.102866,64.5442705 135.917969,64.6015625 C135.733072,64.6588545 135.536459,64.6875 135.328125,64.6875 C134.958331,64.6875 134.623699,64.6354172 134.324219,64.53125 C134.024738,64.4270828 133.76823,64.2708344 133.554688,64.0625 C133.341145,63.8541656 133.177084,63.5976578 133.0625,63.2929688 C132.947916,62.9882797 132.890625,62.6328145 132.890625,62.2265625 C132.890625,61.8203105 132.960937,61.4453142 133.101562,61.1015625 C133.242188,60.7578108 133.450519,60.4609387 133.726562,60.2109375 C134.002606,59.9609363 134.348956,59.7643236 134.765625,59.6210938 C135.182294,59.4778639 135.666664,59.40625 136.21875,59.40625 L137.179688,59.40625 L137.179688,58.5078125 C137.179688,58.0026016 137.067709,57.6432302 136.84375,57.4296875 C136.619791,57.2161448 136.278648,57.109375 135.820312,57.109375 C135.596353,57.109375 135.397136,57.1445309 135.222656,57.2148438 C135.048176,57.2851566 134.901042,57.3802077 134.78125,57.5 C134.661458,57.6197923 134.570313,57.7591138 134.507812,57.9179688 C134.445312,58.0768237 134.414062,58.2447908 134.414062,58.421875 L133.03125,58.421875 C133.03125,58.1197902 133.097656,57.8190119 133.230469,57.5195312 C133.363282,57.2200506 133.553384,56.9518241 133.800781,56.7148438 C134.048178,56.4778634 134.348957,56.2864591 134.703125,56.140625 C135.057293,55.9947909 135.453123,55.921875 135.890625,55.921875 C136.281252,55.921875 136.639321,55.9687495 136.964844,56.0625 C137.290366,56.1562505 137.571613,56.3072906 137.808594,56.515625 C138.045574,56.7239594 138.229166,56.9921859 138.359375,57.3203125 C138.489584,57.6484391 138.554688,58.0494768 138.554688,58.5234375 L138.554688,62.6875 C138.554688,62.8281257 138.559896,62.9765617 138.570312,63.1328125 C138.580729,63.2890633 138.597656,63.4427076 138.621094,63.59375 C138.644531,63.7447924 138.673177,63.8893222 138.707031,64.0273438 C138.740886,64.1653653 138.778646,64.2916661 138.820312,64.40625 L138.820312,64.53125 L137.382812,64.53125 Z M135.539062,63.4296875 C135.731772,63.4296875 135.914062,63.401042 136.085938,63.34375 C136.257813,63.286458 136.414062,63.21224 136.554688,63.1210938 C136.695313,63.0299475 136.81901,62.9257818 136.925781,62.8085938 C137.032553,62.6914057 137.117187,62.5703131 137.179688,62.4453125 L137.179688,60.4296875 L136.453125,60.4296875 C136.11979,60.4296875 135.819012,60.4661455 135.550781,60.5390625 C135.282551,60.6119795 135.053386,60.7174472 134.863281,60.8554688 C134.673176,60.9934903 134.527344,61.1640615 134.425781,61.3671875 C134.324218,61.5703135 134.273438,61.802082 134.273438,62.0625 C134.273438,62.3177096 134.299479,62.5325512 134.351562,62.7070312 C134.403646,62.8815113 134.48177,63.0221349 134.585938,63.1289062 C134.690105,63.2356776 134.821614,63.3124998 134.980469,63.359375 C135.139324,63.4062502 135.32552,63.4296875 135.539062,63.4296875 Z"/>
  </g>
</svg>
