<svg width="16" height="16" viewBox="0 0 16 16" xmlns="http://www.w3.org/2000/svg" xmlns:xlink="http://www.w3.org/1999/xlink"><g id="Page-1" stroke="none" stroke-width="1" fill="none" fill-rule="evenodd"><g id="02---02---Карточка_desktop" transform="translate(-136 -888)" fill="#394791" fill-rule="nonzero"><g id="карточка" transform="translate(132 190)"><g id="ask-question-24px" transform="translate(0 694)"><path d="M19 8a1 1 0 011 1v7a1 1 0 01-1 1h-2v3l-3-3H9l1.828-2H17a1 1 0 001-1V8h1zM5 4h10a1 1 0 011 1v7a1 1 0 01-1 1h-5l-3 3v-3H5a1 1 0 01-1-1V5a1 1 0 011-1z" id="Combined-Shape"/></g></g></g></g></svg>