<svg xmlns="http://www.w3.org/2000/svg" viewBox="0 0 44 44"><defs><style>.cls-1{fill:#294d99}</style></defs><g id="Слой_2" data-name="Слой 2"><g id="vzug_logo" data-name="vzug logo"><path class="cls-1" d="M44 8a.65.65 0 000-.19.64.64 0 010-.07.8.8 0 00-.15-.21L36.45.21a.64.64 0 00-.22-.14h-.06L36 0H16.87a.74.74 0 00-.74.73V22h1.47V1.47h17.6v6.6a.73.73 0 00.73.73h6.6v29.33H32.27v1.47h11a.73.73 0 00.73-.73V8zm-7.32-.69V2.5l4.82 4.83zm-16.14 4.4h8.8a.74.74 0 00.74-.73V5.87a.74.74 0 00-.51-.7L25.16 3.7a.72.72 0 00-.46 0l-4.4 1.47a.73.73 0 00-.5.7V11a.73.73 0 00.73.73zm.74-3.66h1.46v2.2h-1.47zm4.4 0v2.2H24.2V8.07zm1.46 2.2V8.07h1.46v2.2zM21.27 6.4l3.66-1.23L28.6 6.4v.2h-7.33zM19.8 22h12.47v14.67h7.33a.73.73 0 00.73-.74V15.4a.73.73 0 00-.73-.73H20.53a.73.73 0 00-.73.73zm1.47-1.47v-1.46h11v1.46zm12.46-1.46h5.14v1.46h-5.14zM38.87 22v1.47h-5.14V22zm-5.14 8.8h5.14v1.47h-5.14zm0-1.47v-1.46h5.14v1.46zm0-2.93v-1.47h5.14v1.47zm0 8.8v-1.47h5.14v1.47zm5.14-19.07v1.47h-5.14v-1.47zm-6.6 0v1.47h-11v-1.47zm-.74-5.86h8.07v1.46h-8.07zm0-2.94h2.2V8.8h-2.2z"/><path class="cls-1" d="M3.67 44h23.46a3.67 3.67 0 003.67-3.67v-13.2a3.66 3.66 0 00-3.67-3.66H3.67A3.66 3.66 0 000 27.13v13.2A3.67 3.67 0 003.67 44zm-2.2-16.87a2.2 2.2 0 012.2-2.2h23.46a2.2 2.2 0 012.2 2.2v13.2a2.19 2.19 0 01-2.2 2.2H3.67a2.19 2.19 0 01-2.2-2.2zm2.2 5.14h4.4a.74.74 0 00.73-.74v-4.4a.73.73 0 00-.73-.73h-4.4a.74.74 0 00-.74.73v4.4a.74.74 0 00.74.74zm.73-4.4h2.93v2.93H4.4zm-.73 5.86H6.6v1.47H3.67zm0 2.94H6.6v1.46H3.67zm13.2 0h2.93v1.46h-2.93zm-8.8-2.94H11v1.47H8.07zm4.4 0h2.93v1.47h-2.93zm4.4 0h2.93v1.47h-2.93zm4.4 0h2.93v1.47h-2.93zm4.4-6.6h1.46v1.47h-1.46zm-2.94 0h1.47v1.47h-1.47zm-2.93 0h1.47v1.47H19.8zm-2.93 0h1.46v1.47h-1.46zM22 36.67a.73.73 0 00-.73.73v2.93a.73.73 0 00.73.74h5.13a.74.74 0 00.74-.74V37.4a.74.74 0 00-.74-.73zm4.4 2.93h-3.67v-1.47h3.67z"/></g></g></svg>