<svg width="46" height="46" xmlns:xlink="http://www.w3.org/1999/xlink" xmlns="http://www.w3.org/2000/svg"><defs><clipPath id="b"><use xlink:href="#a"/></clipPath><path d="M9.999 0h12.002q.245 0 .49.012.246.012.49.036.244.024.487.06t.484.084q.24.048.479.108.238.06.473.13.234.072.466.155.23.082.457.176.227.094.45.199.221.105.438.22.216.116.427.243.21.126.414.262.204.137.401.283.198.146.387.302.19.155.372.32t.355.339q.174.173.339.355.165.182.32.372.156.19.302.387t.283.4q.136.205.262.415.127.211.242.428.116.216.221.438t.199.449q.094.226.177.457.082.232.153.466.072.235.131.473.06.239.108.48.048.24.084.483.036.243.06.487t.036.49q.012.245.012.49v12.002q0 .245-.012.49-.012.246-.036.49-.024.244-.06.487t-.084.484q-.048.24-.108.479-.06.238-.13.473-.072.234-.154.466-.083.23-.177.457-.094.227-.199.45-.105.221-.22.438-.116.216-.243.427-.126.21-.262.414-.137.204-.283.401-.146.198-.302.387-.155.19-.32.372t-.339.355q-.173.174-.355.339-.182.165-.372.32-.19.156-.387.302t-.4.283q-.205.136-.415.262-.211.127-.427.242-.217.116-.439.221t-.449.199q-.226.094-.457.177-.232.082-.466.153-.235.072-.473.131-.239.06-.48.108-.24.048-.483.084-.243.036-.487.06t-.49.036q-.244.012-.49.012H9.999q-.245 0-.49-.012-.246-.012-.49-.036-.244-.024-.487-.06t-.484-.084q-.24-.048-.479-.108-.238-.06-.473-.13-.234-.072-.466-.154-.23-.083-.457-.177-.227-.094-.45-.199-.221-.105-.438-.22-.216-.116-.427-.243-.21-.126-.414-.262-.204-.137-.401-.283-.198-.146-.387-.302-.19-.155-.372-.32t-.355-.339q-.174-.173-.339-.355-.165-.182-.32-.372-.156-.19-.302-.387t-.283-.4q-.136-.205-.262-.415-.127-.211-.242-.427-.116-.217-.221-.439t-.199-.449q-.094-.226-.176-.457-.083-.232-.154-.466-.072-.235-.131-.473-.06-.239-.108-.48-.048-.24-.084-.483-.036-.243-.06-.487t-.036-.49Q0 22.248 0 22.002V9.999q0-.245.012-.49.012-.246.036-.49.024-.244.06-.487t.084-.484Q.24 7.808.3 7.57t.13-.473q.072-.234.155-.466.082-.23.176-.457.094-.227.199-.45.105-.221.22-.438.116-.216.243-.427.126-.21.262-.414.137-.204.283-.401.146-.198.302-.387.155-.19.32-.372t.339-.355q.173-.174.355-.339.182-.165.372-.32.19-.156.387-.302t.4-.283q.205-.136.415-.262.211-.127.428-.242.216-.116.438-.221t.449-.199q.226-.094.457-.176.232-.083.466-.154Q7.331.359 7.57.3q.239-.06.48-.108.24-.048.483-.084.243-.036.487-.06t.49-.036Q9.753 0 9.998 0z" transform="rotate(-23 32.644 4.984)" id="a"/></defs><g clip-path="url(#b)" transform="translate(1 1)"><use xlink:href="#a" fill="none" stroke="#73C9FF" stroke-width="4"/></g><path d="M23.001 15l-2.379 4.714-5.352.761 3.874 3.694-.91 5.195L23 26.912l4.768 2.452-.91-5.195 3.873-3.694-5.352-.76L23.001 15zm-4.087 3.569l-1.408-1.782.982-.775 1.408 1.782-.982.775zm7.224-.77l.99.765 1.378-1.783-.991-.764-1.377 1.782zm-10.704 8.303L15 24.929l2.248-.83.434 1.172-2.248.83zm12.898-.784l2.248.8.42-1.178-2.248-.8-.42 1.178zM23.627 31h-1.251v-2.407h1.251V31z" fill="#73C9FF" fill-rule="evenodd"/></svg>