<svg xmlns="http://www.w3.org/2000/svg" viewBox="0 0 39 39"><path d="M9 7.6l9.2-3.9c5.1-2.1 11 .3 13.2 5.3l3.9 9.2c2.2 5.1-.2 11-5.3 13.1l-9.2 3.9c-5.1 2.2-11-.2-13.2-5.2l-3.9-9.2C1.6 15.7 4 9.8 9 7.6z" fill="none" stroke="#73c9ff" stroke-width="2"/><path d="M19.9 11.9l-2.4 4.7-5.4.8L16 21l-.9 5.2 4.8-2.5 4.8 2.5-1-5.2 3.9-3.7-5.4-.8-2.3-4.6zm-5.5 1.8l1.4 1.8 1-.8-1.4-1.8-1 .8zm8.6 1l1 .8 1.4-1.8-1-.8-1.4 1.8zm-11.1 7.1l.4 1.2 2.2-.8-.4-1.2-2.2.8zm13.3.4l2.2.8.4-1.2-2.2-.8-.4 1.2zm-6 5.7h1.3v-2.4h-1.3v2.4z" fill-rule="evenodd" clip-rule="evenodd" fill="#73c9ff"/></svg>