<svg xmlns="http://www.w3.org/2000/svg" viewBox="0 0 43 44"><g data-name="Слой 2"><path d="M42.28 7.1H38.7V4.26A4.28 4.28 0 0 0 34.4 0h-2.15a.71.71 0 0 0-.72.71V7.1H.72a.71.71 0 0 0-.72.71v35.48a.71.71 0 0 0 .72.71h41.56a.71.71 0 0 0 .72-.71V7.81a.71.71 0 0 0-.72-.71zm-.71 1.42v19.87h-4a4.21 4.21 0 0 0 1.1-2.84v-17zm0 23.42H25.08v-2.13h16.49zm-9.32-9.23h2.15a2.89 2.89 0 0 1 2 .84 3.64 3.64 0 0 1-2.76 1.29h-8.02a8 8 0 0 0 3.05-6.39 8 8 0 0 0-3.05-6.39h5.91V22a.71.71 0 0 0 .72.71zm-7.17-9.23a6.59 6.59 0 0 1 2.15 5 6.68 6.68 0 0 1-2.15 5zm0 12.78h8.6a5.1 5.1 0 0 0 3.49-1.41 3.28 3.28 0 0 1 .1.7 2.86 2.86 0 0 1-2.87 2.84h-9.32zm0 10.64h16.49V39H25.08zm0-1.42v-2.13h16.49v2.13zM33 1.42h1.4a2.86 2.86 0 0 1 2.87 2.84v18.12a4.19 4.19 0 0 0-.54-.4l-.09-.05a3.45 3.45 0 0 0-.61-.3h-.09a4.85 4.85 0 0 0-.68-.19h-.06a4.88 4.88 0 0 0-.76-.07H33zm-1.44 9.23h-6.48V8.52h6.45zm-7.91-2.13v19.87h-4.3V8.52zm-5.73 27H1.43v-2.17h16.49zM1.43 36.9h16.49V39H1.43zm16.49-5H1.43v-2.09h16.49zm0-18.46v9.94a6.68 6.68 0 0 1-2.15-5 6.59 6.59 0 0 1 2.15-4.9zm-3.59 5a8 8 0 0 0 3 6.39H7.81A3.59 3.59 0 0 0 5 22.07v-7.24a3.56 3.56 0 0 0 2.79-2.77h9.57a8 8 0 0 0-3.03 6.39zM1.43 8.52h16.49v2.13H7.17a.71.71 0 0 0-.72.7 2.14 2.14 0 0 1-2.15 2.13.71.71 0 0 0-.72.71v8.52a.71.71 0 0 0 .72.71 2.14 2.14 0 0 1 2.15 2.13.71.71 0 0 0 .72.71h10.75v2.13H1.43zm0 31.93h16.49v2.13H1.43zm17.92 2.13V29.81h4.3v12.77zm5.73 0v-2.13h16.49v2.13zm-15.76-27a2.84 2.84 0 1 1-2.87 2.84 2.85 2.85 0 0 1 2.87-2.81zm0 1.42a1.42 1.42 0 1 1-1.44 1.42A1.43 1.43 0 0 1 9.32 17z" fill="#294d99" data-name="vzug logo"/></g></svg>