<svg xmlns="http://www.w3.org/2000/svg" width="24" height="24"><path fill="#394791" fill-rule="evenodd" d="M10.695 17c-.555 0-.963-.337-.574-1.82l.638-2.63c.11-.422.13-.59 0-.59-.167 0-.888.29-1.315.577l-.277-.455c1.351-1.13 2.906-1.791 3.572-1.791.556 0 .648.657.371 1.668l-.73 2.765c-.13.49-.074.657.055.657.167 0 .713-.202 1.25-.624l.315.422c-1.315 1.314-2.75 1.82-3.305 1.82M12.78 6.668c.813 0 1.053.472 1.053 1.01 0 .675-.54 1.298-1.46 1.298-.77 0-1.137-.387-1.115-1.027 0-.54.452-1.281 1.522-1.281M11.893 4a8 8 0 00.214 15.998A8 8 0 0011.893 4"/></svg>