<svg xmlns="http://www.w3.org/2000/svg" xmlns:xlink="http://www.w3.org/1999/xlink" width="24" height="24" viewBox="0 0 24 24"><defs><path id="jikfa" d="M1050.622 1036.97c.16 0 .291-.13.291-.29a.291.291 0 00-.583 0c0 .16.13.29.292.29z"/><path id="jikfb" d="M1061.3 1046.955a.351.351 0 01-.35.352h-9.8a.351.351 0 01-.35-.352v-1.266h8.05c.579 0 1.05-.474 1.05-1.056v-11.82h1.05a.35.35 0 01.35.351zm-12.25-1.968a.351.351 0 01-.35-.352v-9.71h3.85a.35.35 0 00.35-.352v-3.87h5.95c.193 0 .35.158.35.352v13.58a.351.351 0 01-.35.352zm3.15-13.787v3.019h-3.005zm8.75.91h-1.05v-1.055c0-.582-.471-1.055-1.05-1.055h-6.01c-.278 0-.547.113-.743.309l-3.79 3.807a1.062 1.062 0 00-.307.745v9.764c0 .582.471 1.055 1.05 1.055h1.05v1.265c0 .582.471 1.055 1.05 1.055h9.8c.579 0 1.05-.473 1.05-1.055v-13.78c0-.583-.471-1.056-1.05-1.056z"/><path id="jikfc" d="M1057.22 1034.497h-2.1v-1.451h2.1zm.35-2.177h-2.8a.357.357 0 00-.35.363v2.177c0 .2.157.363.35.363h2.8c.193 0 .35-.162.35-.363v-2.177c0-.2-.157-.363-.35-.363z"/><path id="jikfd" d="M1057.56 1036.39h-5.704c-.196 0-.356.13-.356.29 0 .16.16.29.356.29h5.704c.197 0 .357-.13.357-.29 0-.16-.16-.29-.357-.29z"/><path id="jikfe" d="M1057.569 1038.71h-6.894c-.19 0-.345.13-.345.29 0 .16.154.29.345.29h6.894c.19 0 .344-.13.344-.29 0-.16-.154-.29-.344-.29z"/><path id="jikff" d="M1057.569 1040.45h-6.894c-.19 0-.345.13-.345.29 0 .16.154.29.345.29h6.894c.19 0 .344-.13.344-.29 0-.16-.154-.29-.344-.29z"/><path id="jikfg" d="M1057.569 1042.77h-6.894c-.19 0-.345.13-.345.29 0 .16.154.29.345.29h6.894c.19 0 .344-.13.344-.29 0-.16-.154-.29-.344-.29z"/></defs><use fill="#394791" xlink:href="#jikfa" transform="translate(-1043 -1027)"/><use fill="#394791" xlink:href="#jikfb" transform="translate(-1043 -1027)"/><use fill="#394791" xlink:href="#jikfc" transform="translate(-1043 -1027)"/><use fill="#394791" xlink:href="#jikfd" transform="translate(-1043 -1027)"/><use fill="#394791" xlink:href="#jikfe" transform="translate(-1043 -1027)"/><use fill="#394791" xlink:href="#jikff" transform="translate(-1043 -1027)"/><use fill="#394791" xlink:href="#jikfg" transform="translate(-1043 -1027)"/></svg>