<svg xmlns="http://www.w3.org/2000/svg" width="18" height="18"><path fill="#666" d="M17.92 14.35l-.09-.273c-.211-.63-.905-1.286-1.547-1.461l-2.364-.647c-.642-.174-1.556.06-2.025.53l-.857.856a9.08 9.08 0 01-6.387-6.39l.854-.856c.47-.468.704-1.382.53-2.025L5.39 1.719C5.215 1.079 4.556.383 3.927.172l-.27-.09c-.632-.211-1.531.002-2 .473L.376 1.835c-.23.227-.375.878-.375.88a15.138 15.138 0 004.426 10.86 15.119 15.119 0 0010.822 4.423c.022 0 .692-.143.92-.371l1.28-1.281c.47-.467.68-1.368.472-1.996"/></svg>