<svg xmlns="http://www.w3.org/2000/svg" width="16" height="14"><path fill="#394791" fill-rule="evenodd" d="M1.795 4h12.41c.624 0 .85.065 1.079.187.228.122.407.301.529.53.122.227.187.454.187 1.078v6.41c0 .624-.065.85-.187 1.079a1.272 1.272 0 0 1-.53.529c-.227.122-.454.187-1.078.187H1.795c-.624 0-.85-.065-1.079-.187a1.272 1.272 0 0 1-.529-.53C.065 13.057 0 12.83 0 12.206v-6.41c0-.624.065-.85.187-1.079a1.27 1.27 0 0 1 .53-.529C.943 4.065 1.17 4 1.794 4zM2.5 2h11a.995.995 0 0 1 .863.495c.087.148.137.32.137.505h-13a.995.995 0 0 1 .495-.863A.995.995 0 0 1 2.5 2zM4 0h8a.995.995 0 0 1 .863.495C12.95.643 13 .815 13 1H3a.995.995 0 0 1 .495-.863A.995.995 0 0 1 4 0z"/></svg>