<svg xmlns="http://www.w3.org/2000/svg" width="16" height="16"><path fill="#394791" fill-rule="evenodd" d="M6.64 15.885a8.002 8.002 0 0 1 0-15.77 8.052 8.052 0 0 1 2.723 0 8.002 8.002 0 0 1 0 15.77 8.052 8.052 0 0 1-2.723 0zm-3-2.785a6.7 6.7 0 0 0 1.744 1.08 12.064 12.064 0 0 1-.858-1.644 7.34 7.34 0 0 0-.886.564zm-1.027-1.099a8.637 8.637 0 0 1 1.408-.916 11.473 11.473 0 0 1-.384-2.31H1.335A6.675 6.675 0 0 0 2.613 12zm4.613-1.851V8.774H5.189c.041.587.131 1.16.27 1.721a8.59 8.59 0 0 1 1.767-.345zm0 1.554a7.292 7.292 0 0 0-1.286.252c.325.782.754 1.536 1.286 2.264v-2.516zm5.13 1.4a7.278 7.278 0 0 0-.881-.563 12.065 12.065 0 0 1-.854 1.638 6.711 6.711 0 0 0 1.735-1.075zm1.028-1.099a6.675 6.675 0 0 0 1.281-3.23h-2.299a11.46 11.46 0 0 1-.385 2.315c.498.26.968.567 1.403.915zm-4.61-1.854a8.589 8.589 0 0 1 1.775.35c.14-.563.23-1.138.273-1.727H8.774v1.377zm0 1.554v2.517a11.05 11.05 0 0 0 1.29-2.262 7.291 7.291 0 0 0-1.29-.255zm-5.128-8.81c.28.208.575.396.883.563.238-.56.524-1.106.855-1.639a6.71 6.71 0 0 0-1.738 1.076zM2.612 4a6.675 6.675 0 0 0-1.277 3.226h2.302c.05-.791.178-1.56.383-2.31-.5-.26-.971-.567-1.408-.916zm4.614 1.852a8.59 8.59 0 0 1-1.768-.346 10.21 10.21 0 0 0-.27 1.72h2.038V5.852zm0-1.557V1.78c-.532.728-.96 1.48-1.285 2.261.414.122.844.208 1.285.254zm5.124-1.404a6.71 6.71 0 0 0-1.73-1.07c.33.531.614 1.075.852 1.632.307-.166.6-.354.878-.562zm1.035 1.105a8.638 8.638 0 0 1-1.403.916c.205.75.334 1.521.384 2.314h2.3a6.675 6.675 0 0 0-1.281-3.23zm-4.61 1.855v1.375h2.047a10.158 10.158 0 0 0-.273-1.724 8.589 8.589 0 0 1-1.775.349zm0-1.557a7.248 7.248 0 0 0 1.288-.256 11.068 11.068 0 0 0-1.289-2.26v2.516z"/></svg>