<svg xmlns="http://www.w3.org/2000/svg" width="39" height="39"><g fill="none" fill-rule="evenodd"><path stroke="#73C9FF" stroke-width="2" d="M7.314 7.78a9 9 0 0 0-4.767 11.8l5.232 12.327a9 9 0 0 0 11.801 4.768l12.327-5.232a9 9 0 0 0 4.768-11.802L31.442 7.315a9 9 0 0 0-11.8-4.768L7.313 7.779z"/><path fill="#73C9FF" d="M8.521 23.13l2.546-3.715-2.441-3.59h1.878l1.534 2.37 1.544-2.37h1.826l-2.442 3.57 2.547 3.735h-1.879l-1.638-2.504-1.649 2.504H8.521zm14.484-7.304v7.304h-1.586v-4.79l-3.193 4.79h-1.513v-7.304h1.586v4.79l3.214-4.79h1.492zm3.454 7.304v-5.823h-2.223v-1.481h6.052v1.481h-2.222v5.823h-1.607z"/></g></svg>