<svg xmlns="http://www.w3.org/2000/svg" width="48" height="48"><g fill="none" fill-rule="evenodd"><path fill="#AF235F" d="M0 48h48V0H0z"/><path fill="#FFF" d="M32.373 21.755H15.76a.624.624 0 110-1.246h16.613a.623.623 0 01.001 1.246m0-7.616H15.76a.622.622 0 110-1.244h16.613a.622.622 0 11.001 1.244"/><path fill="#FF87BA" d="M31.058 26.598c-1.11 0-1.95-.691-2.622-1.364-.557-.553-1.234-1.12-2.04-1.12s-1.482.567-2.037 1.12c-.675.673-1.513 1.364-2.625 1.364-1.11 0-1.949-.691-2.624-1.364-.552-.553-1.23-1.12-2.036-1.12-.808 0-1.484.567-2.037 1.12a.416.416 0 11-.588-.587c.675-.674 1.514-1.365 2.625-1.365 1.11 0 1.947.691 2.625 1.365.554.555 1.228 1.123 2.035 1.123.806 0 1.482-.568 2.038-1.123.675-.674 1.514-1.365 2.625-1.365 1.11 0 1.949.691 2.625 1.365.554.555 1.228 1.123 2.036 1.123.81 0 1.483-.568 2.038-1.123a.415.415 0 01.584.587c-.672.673-1.51 1.364-2.622 1.364m0-7.614c-1.108 0-1.95-.691-2.622-1.366-.557-.555-1.234-1.119-2.04-1.119s-1.482.564-2.037 1.12c-.675.674-1.513 1.365-2.625 1.365-1.11 0-1.949-.691-2.624-1.366-.552-.555-1.23-1.119-2.036-1.119-.808 0-1.484.564-2.037 1.12a.42.42 0 01-.588 0 .417.417 0 010-.59c.675-.671 1.514-1.36 2.625-1.36 1.11 0 1.947.686 2.625 1.36.554.558 1.228 1.127 2.035 1.127.806 0 1.482-.57 2.038-1.126.675-.672 1.514-1.362 2.625-1.362 1.11 0 1.949.687 2.625 1.362.554.557 1.228 1.126 2.036 1.126.81 0 1.483-.57 2.038-1.126a.415.415 0 01.584.588c-.672.675-1.51 1.366-2.622 1.366m0-7.618c-1.108 0-1.95-.688-2.622-1.365-.557-.553-1.234-1.12-2.04-1.12s-1.482.568-2.037 1.12c-.675.677-1.513 1.365-2.625 1.365-1.11 0-1.949-.688-2.624-1.365-.552-.553-1.23-1.12-2.036-1.12-.808 0-1.484.568-2.037 1.12a.415.415 0 11-.588-.586c.675-.675 1.514-1.366 2.625-1.366 1.11 0 1.947.691 2.625 1.366.554.557 1.228 1.124 2.035 1.124.806 0 1.482-.567 2.038-1.124.675-.675 1.514-1.366 2.625-1.366 1.11 0 1.949.691 2.625 1.366.554.557 1.228 1.124 2.036 1.124.81 0 1.483-.567 2.038-1.124a.41.41 0 01.584 0 .411.411 0 010 .586c-.672.677-1.51 1.365-2.622 1.365"/><path fill="#FFF" d="M37.121 6.005c.554 0 1.005.45 1.005 1.003V27.65c0 .554-.45 1.005-1.005 1.005h-26.11a1.006 1.006 0 01-1.006-1.005V7.008c0-.553.45-1.005 1.007-1.005h26.11m0-1.003h-26.11C9.902 5 9 5.901 9 7.008V27.65c0 1.108.9 2.01 2.012 2.01h26.11c1.109 0 2.01-.902 2.01-2.01V7.008c0-1.11-.9-2.008-2.01-2.008M19.786 39.718l.546 1.861.54-1.86h.945l-1.021 2.844c-.202.569-.41.94-1.108.94h-.607v-.748c.105 0 .202.005.3.005.317 0 .35-.154.41-.41l-.988-2.632h.983zm-1.381 0v2.114h.36v1.48h-.874v-.775h-1.687v.774h-.875v-1.48h.306c.153-.317.327-.988.327-1.58v-.533h2.443zm17.927-.082c.853 0 1.432.605 1.432 1.486 0 .891-.58 1.501-1.436 1.501-.776 0-1.333-.492-1.432-1.245h-.47v1.158H33.5v-2.817h.929v1.02h.49c.153-.667.69-1.103 1.415-1.103zm-25.646 0c.873 0 1.474.605 1.474 1.486 0 .891-.6 1.501-1.485 1.501-.885 0-1.49-.606-1.49-1.496 0-.88.61-1.49 1.5-1.49zm3.12 0c.747 0 1.261.23 1.261.797 0 .245-.197.498-.4.579a.663.663 0 01.493.662c0 .643-.602.944-1.399.944-.677 0-1.333-.224-1.371-1.004h.88c.021.304.219.399.513.399.321 0 .426-.187.426-.335 0-.17-.109-.328-.416-.328h-.326v-.523h.229c.322 0 .465-.13.465-.328 0-.099-.1-.284-.372-.284-.268 0-.416.077-.454.326h-.852c.033-.692.628-.905 1.322-.905zm19.047.082v2.818h-.928v-2.113h-.584l-.033.862c-.022.537-.044 1.322-.984 1.322-.174 0-.322-.033-.463-.076v-.726c.06.026.148.037.207.037.24 0 .328-.19.333-.48l.044-1.644h2.408zm6.765-.076c.786 0 1.332.432 1.387 1.097h-.896c-.044-.268-.223-.425-.481-.425-.36 0-.572.305-.572.83 0 .496.202.774.568.774.284 0 .452-.158.513-.49h.89c-.105.748-.601 1.179-1.425 1.179-.868 0-1.476-.583-1.476-1.458 0-.901.595-1.507 1.492-1.507zm-10.08.076v2.818h-.928v-2.113h-.95v2.113h-.93v-2.818h2.808zm-6.693 0l.399.665.399-.665h.982l-.885 1.322 1.005 1.497h-1.021l-.497-.82-.481.82h-1.015l.987-1.48-.9-1.339h1.027zm-15.07 0c.485 0 .907.185.907.71 0 .279-.132.442-.367.568.34.11.51.344.51.694 0 .262-.1.48-.28.634-.24.207-.519.212-.82.212H6v-2.818h1.776zm-.344 1.588h-.535v.646h.557c.218 0 .415-.044.415-.317 0-.274-.208-.329-.437-.329zm28.886-.983c-.317 0-.504.297-.504.804 0 .524.192.82.515.82.293 0 .502-.302.502-.825 0-.508-.196-.799-.513-.799zm-25.653 0c-.35 0-.551.297-.551.804 0 .524.201.82.562.82.355 0 .557-.302.557-.825 0-.508-.202-.799-.568-.799zm6.827.071h-.644a4.638 4.638 0 01-.279 1.438h.923v-1.438zM7.377 40.28h-.48v.548h.496c.251 0 .367-.084.367-.275 0-.234-.187-.273-.383-.273zM24.44 34c.742 0 1.234.596 1.234 1.497 0 .885-.476 1.463-1.201 1.463a.981.981 0 01-.82-.393v1.28h-.923v-3.775h.884v.326c.198-.266.47-.397.826-.397zm-3.672-.01c.874 0 1.475.605 1.475 1.485 0 .892-.6 1.502-1.486 1.502-.884 0-1.49-.606-1.49-1.496 0-.88.611-1.491 1.501-1.491zm-11.793-.934c.863 0 1.414.414 1.414 1.064 0 .372-.208.651-.535.732.42.109.667.416.667.852 0 .875-.776 1.256-1.546 1.256-.836 0-1.55-.41-1.55-1.337v-.1h.884c.015.416.157.657.639.657.376 0 .611-.187.611-.492 0-.3-.23-.48-.617-.48h-.051c-.038 0-.093.001-.227.005v-.623c.064.006.086.006.147.006.104 0 .245-.011.333-.022.229-.033.366-.176.366-.372 0-.25-.214-.414-.535-.414-.367 0-.563.19-.574.557h-.88c0-.798.585-1.29 1.454-1.29zm27.999 1.015l-.027 1.76.89-1.76h1.043v2.819h-.9l.025-1.759-.895 1.759h-1.037v-2.82h.9zm-3.436 0l-.027 1.76.89-1.76h1.044v2.819h-.901l.027-1.759-.895 1.759h-1.039v-2.82h.901zm-3.37 0v.737c0 .366.072.444.35.444.152 0 .42-.034.562-.06v-1.12h.929v2.818h-.929v-1.028c-.19.039-.518.1-.819.1-.672 0-1.021-.4-1.021-1v-.89h.928zm-1.382 0v2.819h-.929v-.999h-.284l-.644.999H25.82l.824-1.104a.863.863 0 01-.584-.825c0-.518.43-.89 1.016-.89h1.709zm-9.711 0v.705h-1.273v2.114h-.929v-2.82h2.202zM12.727 33c1.196 0 1.912.7 1.912 1.924 0 1.306-.672 1.965-1.967 1.965h-1.611V33h1.666zm8.02 1.677c-.35 0-.552.296-.552.804 0 .524.202.82.562.82.356 0 .557-.302.557-.826 0-.507-.201-.798-.567-.798zm3.424.06c-.339 0-.551.29-.551.754 0 .482.207.755.569.755.354 0 .557-.269.557-.738 0-.502-.203-.77-.575-.77zm-11.614-.895h-.486v2.201h.557c.683 0 .989-.41.989-1.093 0-.705-.366-1.108-1.06-1.108zm15.3.88h-.463c-.334 0-.383.125-.383.261 0 .148.05.269.383.269h.463v-.53zM37.007 33c.048.213.218.318.474.318.257 0 .427-.105.476-.318h.414c0 .586-.375.804-.89.804-.513 0-.89-.218-.89-.804h.416z"/></g></svg>