<svg xmlns="http://www.w3.org/2000/svg" width="48" height="48"><g fill="none" fill-rule="evenodd"><path fill="#AF235F" d="M0 48h48V0H0z"/><path fill="#FFF" d="M34.148 10.53A4.866 4.866 0 0139 15.381v8.604a4.866 4.866 0 01-4.852 4.852H17.382a4.866 4.866 0 01-4.853-4.852v-8.604a4.866 4.866 0 014.853-4.853zm0 .932H17.382a3.923 3.923 0 00-3.919 3.92v8.604a3.922 3.922 0 003.919 3.917h16.766a3.922 3.922 0 003.918-3.917v-8.604a3.923 3.923 0 00-3.918-3.92zM30.617 7c1.962 0 3.658 1.18 4.423 2.868h-1.062c-.684-1.153-1.928-1.935-3.361-1.935H13.852a3.923 3.923 0 00-3.918 3.92v8.603c0 1.434.782 2.677 1.933 3.36v1.061C10.182 24.115 9 22.419 9 20.457v-8.605A4.866 4.866 0 0113.852 7zm-4.853 8.272a4.41 4.41 0 110 8.822 4.412 4.412 0 110-8.822zm-9.38 19.78c1.325 0 2.173.638 2.173 1.635 0 .572-.318 1-.822 1.126.646.167 1.025.637 1.025 1.308 0 1.342-1.193 1.93-2.376 1.93-1.284 0-2.384-.629-2.384-2.056v-.15h1.36c.025.638.242 1.007.983 1.007.578 0 .94-.287.94-.754 0-.463-.355-.741-.949-.741h-.09l-.34.009v-.956c.102.007.135.007.228.007.16 0 .378-.016.512-.033.351-.05.562-.268.562-.57 0-.386-.327-.638-.822-.638-.562 0-.864.294-.88.856H14.15c0-1.226.898-1.98 2.233-1.98zm8.543 1.56c.745 0 1.391.286 1.391 1.092 0 .428-.2.678-.56.872.52.167.78.529.78 1.065 0 .403-.152.74-.427.975-.371.317-.8.326-1.26.326h-2.652v-4.33h2.728zm8.333-1.519v5.85h-1.502v-3.575h-1.4V36.32c.896-.026 1.6-.261 1.72-1.227h1.182zm-8.862 3.961h-.823v.99h.857c.336 0 .637-.067.637-.486 0-.42-.32-.504-.67-.504zm-.084-1.577h-.739v.838h.764c.386 0 .563-.125.563-.418 0-.362-.287-.42-.588-.42z"/></g></svg>