<svg xmlns="http://www.w3.org/2000/svg" width="48" height="48"><g fill="none" fill-rule="evenodd"><path fill="#AF235F" d="M0 48h48V0H0z"/><path fill="#FF87BA" d="M21.362 13.927v9.145L16.791 18.5l4.571-4.572zm1.694 0l4.571 4.572-4.57 4.573v-9.145z"/><path fill="#FEFEFE" d="M32.875 30.058h5.293V5.725h-5.293v24.333zm-.836-25.169v1.672h-1.672v1.672h1.672v18.18h-20.03V11.367h-1.338v1.672H9v1.672h1.671v13.041h21.368v3.142h6.964V4.889h-6.964zM23.645 36.79l-1.426 3.984h-.844L22.8 36.79h.844zm-12.359 1.137v1.523c0 .314.021.56.416.56.422 0 .508-.288.508-.646v-1.437h.902v2.756h-.87v-.368c-.22.3-.486.448-.887.448-.683 0-.988-.47-.988-1.11v-1.726h.92zm18.87 0v1.523c0 .314.02.56.416.56.422 0 .508-.288.508-.646v-1.437h.902v2.756h-.87v-.368c-.22.3-.486.448-.887.448-.684 0-.989-.47-.989-1.11v-1.726h.92zm-15.254-.08c.636 0 1.218.208 1.25.887h-.833c-.037-.246-.187-.32-.443-.32-.236 0-.364.08-.364.223 0 .188.22.21.358.242.283.058.561.111.834.208.357.127.528.363.528.72 0 .593-.497.951-1.324.951-.662 0-1.304-.219-1.34-.983h.86c.02.3.212.391.501.391.256 0 .416-.108.416-.284 0-.149-.095-.209-.464-.289a5.888 5.888 0 01-.72-.18c-.354-.123-.54-.364-.54-.705 0-.556.454-.86 1.281-.86zm-6.484-.967c.87 0 1.5.342 1.5 1.283 0 .854-.55 1.25-1.34 1.25h-.84v1.27h-.992V36.88h1.672zm18.869 0c.87 0 1.5.342 1.5 1.283 0 .854-.55 1.25-1.34 1.25h-.839v1.27h-.993V36.88h1.672zm-9.703.001v1.405c.246-.294.481-.428.876-.428.588 0 .983.316.983.983v1.842h-.903v-1.624c0-.298-.128-.463-.437-.463-.407 0-.519.283-.519.656v1.431h-.892v-3.802h.892zm15.947-.001v3.803h-.907V36.88h.907zm1.578 0v3.803h-.907V36.88h.907zm-26.73.812h-.64v.951h.56c.343 0 .658-.026.658-.47 0-.369-.23-.48-.577-.48zm18.87 0h-.641v.951h.561c.342 0 .657-.026.657-.47 0-.369-.229-.48-.577-.48z"/></g></svg>