<svg xmlns="http://www.w3.org/2000/svg" width="168" height="40"><path fill="#394791" d="M4.465 11.849a2 2 0 0 0 .65-.106c.205-.07.387-.18.545-.33a1.64 1.64 0 0 0 .382-.57c.097-.232.154-.512.172-.84h1.468a3.379 3.379 0 0 1-.295 1.296c-.179.39-.413.724-.703 1.002-.29.279-.625.494-1.006.646a3.223 3.223 0 0 1-1.213.229c-.615 0-1.15-.1-1.604-.299-.454-.2-.83-.486-1.13-.861-.298-.375-.521-.835-.668-1.38a7.156 7.156 0 0 1-.22-1.855V7.71c0-.691.074-1.308.22-1.85.147-.542.37-1.002.668-1.38a2.908 2.908 0 0 1 1.125-.866c.452-.199.985-.299 1.6-.299.48 0 .916.078 1.305.233.39.156.724.381 1.002.677.279.296.497.658.655 1.086.158.427.246.91.264 1.45H6.214c-.035-.703-.204-1.23-.506-1.582-.301-.352-.719-.528-1.252-.528-.41 0-.747.074-1.01.22a1.636 1.636 0 0 0-.63.62 2.8 2.8 0 0 0-.324.962 7.802 7.802 0 0 0-.093 1.257v1.072c0 .469.03.892.088 1.27.059.378.166.7.321.967s.366.472.633.615c.267.144.608.216 1.024.216zM16.363 13h-1.547V4.835H11.38V13H9.815V3.49h6.548V13zm6.08.176a4.388 4.388 0 0 1-1.538-.255 2.946 2.946 0 0 1-1.165-.778c-.319-.349-.564-.79-.734-1.323-.17-.533-.254-1.163-.254-1.89V7.859c0-.837.1-1.545.298-2.122.2-.577.462-1.046.787-1.406a2.85 2.85 0 0 1 1.12-.778 3.7 3.7 0 0 1 1.31-.238c.598 0 1.108.099 1.53.295.421.196.767.485 1.037.866.27.38.465.85.588 1.406.124.557.185 1.198.185 1.925v.905h-5.309v.22c0 1.02.192 1.76.576 2.223.384.463.936.695 1.657.695.264 0 .5-.027.712-.08.21-.052.404-.127.58-.224.176-.096.337-.21.483-.342a3.88 3.88 0 0 0 .413-.435l.809.984a3.496 3.496 0 0 1-.466.527 2.94 2.94 0 0 1-.65.453c-.252.132-.54.239-.866.32a4.52 4.52 0 0 1-1.103.124zm-.176-8.526c-.27 0-.518.041-.747.123a1.39 1.39 0 0 0-.602.435c-.173.209-.312.488-.417.84-.106.351-.17.794-.194 1.327h3.744v-.21a6.853 6.853 0 0 0-.118-1.016 2.523 2.523 0 0 0-.29-.795 1.39 1.39 0 0 0-.532-.519c-.223-.123-.504-.185-.844-.185zm5.544-1.16h1.564v8.183h3.437V3.49h1.547v8.183h1.002l-.158 4.148h-1.38V13H27.81V3.49zm14.64 0h1.547V13h-1.547V6.065L39.006 13H37.45V3.49h1.556v6.944l3.445-6.944zM51.572 13a1.93 1.93 0 0 1-.127-.453 6.755 6.755 0 0 1-.075-.584c-.111.164-.239.32-.382.466a2.594 2.594 0 0 1-.484.386 2.48 2.48 0 0 1-.58.264 2.23 2.23 0 0 1-.663.097c-.416 0-.793-.059-1.13-.176a2.305 2.305 0 0 1-.865-.527 2.34 2.34 0 0 1-.554-.866 3.4 3.4 0 0 1-.193-1.2c0-.457.079-.879.237-1.265a2.73 2.73 0 0 1 .703-1.002c.31-.282.7-.503 1.169-.664.469-.161 1.014-.242 1.635-.242h1.08v-1.01c0-.569-.125-.973-.377-1.213-.252-.24-.636-.36-1.152-.36-.252 0-.476.039-.672.118-.196.08-.362.186-.496.32a1.364 1.364 0 0 0-.308.471c-.07.179-.106.368-.106.567h-1.555c0-.34.074-.678.224-1.015.15-.337.363-.639.641-.905a3.222 3.222 0 0 1 1.016-.646 3.479 3.479 0 0 1 1.336-.247c.439 0 .842.053 1.208.159.366.105.683.275.95.51.266.234.472.536.619.905.146.369.22.82.22 1.353v4.685c0 .158.005.325.017.5a5.97 5.97 0 0 0 .154 1.007 4.1 4.1 0 0 0 .127.426V13h-1.617zm-2.074-1.24c.217 0 .422-.031.615-.096.194-.064.37-.148.528-.25.158-.103.297-.22.417-.352.12-.132.215-.268.286-.409V8.386h-.818a3.87 3.87 0 0 0-1.015.123c-.302.082-.56.2-.773.356a1.574 1.574 0 0 0-.492.575c-.115.229-.172.49-.172.783 0 .287.03.528.088.725.059.196.147.354.264.474.117.12.265.207.444.26.178.052.388.079.628.079zm12.707-8.27V13h-1.556V4.835h-2.496l-.088 2.725a22.657 22.657 0 0 1-.202 2.373c-.1.68-.255 1.246-.466 1.7-.21.454-.49.796-.84 1.024-.348.229-.789.343-1.322.343h-.43l.035-1.45.298-.009c.264 0 .48-.075.646-.224.167-.15.3-.384.4-.703.1-.32.172-.731.216-1.235.044-.504.08-1.11.11-1.82l.149-4.069h5.546zm7.811 0h1.547V13h-1.547V6.065L66.571 13h-1.556V3.49h1.556v6.944l3.445-6.944zm10.062 2.593c0 .428-.109.82-.326 1.178a2.322 2.322 0 0 1-.923.852c.458.188.805.466 1.042.835.237.37.356.83.356 1.38 0 .451-.076.853-.229 1.204a2.432 2.432 0 0 1-.646.888 2.92 2.92 0 0 1-.997.554 4.01 4.01 0 0 1-1.275.193c-.392 0-.78-.059-1.164-.176a3.076 3.076 0 0 1-1.028-.536 2.66 2.66 0 0 1-.73-.923c-.184-.375-.277-.823-.277-1.345h1.538a1.733 1.733 0 0 0 .453 1.174 1.62 1.62 0 0 0 1.208.514c.264 0 .496-.042.695-.127.199-.085.365-.198.496-.339.132-.14.232-.305.3-.492.067-.188.1-.384.1-.589 0-.533-.118-.915-.356-1.147-.237-.231-.61-.347-1.12-.347H75.77V7.463h1.424c.252 0 .463-.032.633-.097.17-.064.307-.157.413-.277.105-.12.18-.265.224-.435a2.24 2.24 0 0 0 .066-.562c0-.188-.027-.368-.08-.54a1.24 1.24 0 0 0-.694-.787 1.62 1.62 0 0 0-.668-.123c-.217 0-.419.038-.606.114a1.506 1.506 0 0 0-.822.8c-.08.181-.119.378-.119.589h-1.538c0-.434.082-.825.246-1.174.164-.348.386-.644.664-.888a2.97 2.97 0 0 1 .98-.562 3.578 3.578 0 0 1 1.195-.198c.463 0 .88.06 1.248.18.37.12.683.296.94.528.259.231.456.52.594.865.138.346.207.742.207 1.187zm7.538-2.593h1.547V13h-1.547V6.065L84.171 13h-1.556V3.49h1.556v6.944l3.445-6.944zm11.099 5.212c0 1.506-.271 2.628-.813 3.366-.542.739-1.308 1.108-2.298 1.108-.499 0-.928-.093-1.288-.277a2.557 2.557 0 0 1-.919-.804v4.561h-1.546V3.49h1.406l.079 1.055c.252-.399.561-.703.927-.914.366-.211.804-.317 1.314-.317s.96.088 1.35.264c.389.176.716.447.98.813.263.366.464.834.601 1.402.138.568.207 1.242.207 2.021v.888zm-1.547-.888c0-1.066-.164-1.853-.492-2.36-.328-.506-.856-.76-1.582-.76-.405 0-.746.104-1.024.312a2.316 2.316 0 0 0-.673.805v4.948c.17.322.39.584.66.786.27.203.62.304 1.054.304.71 0 1.23-.258 1.56-.774.331-.515.497-1.306.497-2.373v-.888zm3.426-.008c0-.744.095-1.396.285-1.956.19-.56.451-1.027.782-1.402s.72-.657 1.165-.848c.445-.19.923-.286 1.433-.286a3.7 3.7 0 0 1 1.45.286c.451.19.842.473 1.173.848.331.375.592.843.782 1.402.19.56.286 1.212.286 1.956v.896c0 .738-.095 1.387-.286 1.947-.19.56-.45 1.027-.782 1.402a3.19 3.19 0 0 1-1.164.844 3.676 3.676 0 0 1-1.442.28c-.515 0-.997-.093-1.446-.28a3.181 3.181 0 0 1-1.169-.844c-.33-.375-.591-.843-.782-1.402-.19-.56-.285-1.209-.285-1.947v-.896zm1.555.896c0 .527.054.987.163 1.38.108.393.258.72.448.98s.415.457.672.589c.258.132.54.198.844.198 1.412 0 2.118-1.05 2.118-3.147v-.896c0-.522-.054-.979-.162-1.371a3.059 3.059 0 0 0-.449-.985 1.924 1.924 0 0 0-.676-.597 1.82 1.82 0 0 0-.848-.203c-.3 0-.578.068-.835.203-.258.134-.48.334-.668.597a3.12 3.12 0 0 0-.444.985c-.109.392-.163.85-.163 1.37v.897zM110.295 13V3.49h3.19c.516 0 .981.053 1.397.158.416.106.77.266 1.06.48.29.213.512.484.667.812.156.329.233.715.233 1.16 0 .44-.114.836-.342 1.187-.229.352-.563.621-1.002.809a2.142 2.142 0 0 1 1.208.826c.138.193.24.409.308.646.067.237.1.482.1.734 0 .45-.07.845-.214 1.182a2.18 2.18 0 0 1-.62.84c-.27.222-.598.39-.984.505a4.62 4.62 0 0 1-1.31.171h-3.691zm1.546-4.175v2.865h2.145c.539 0 .936-.126 1.19-.377.256-.252.383-.607.383-1.064 0-.451-.127-.801-.382-1.05-.255-.25-.652-.374-1.191-.374h-2.145zm0-1.3h1.626c1.213 0 1.82-.446 1.82-1.337 0-.92-.6-1.38-1.802-1.38h-1.644v2.716zM124.311 13a1.93 1.93 0 0 1-.128-.453 6.755 6.755 0 0 1-.074-.584c-.112.164-.239.32-.383.466a2.594 2.594 0 0 1-.483.386 2.48 2.48 0 0 1-.58.264 2.23 2.23 0 0 1-.664.097c-.416 0-.792-.059-1.129-.176a2.305 2.305 0 0 1-.866-.527 2.34 2.34 0 0 1-.553-.866 3.4 3.4 0 0 1-.194-1.2c0-.457.08-.879.238-1.265a2.73 2.73 0 0 1 .703-1.002c.31-.282.7-.503 1.169-.664.468-.161 1.013-.242 1.634-.242h1.081v-1.01c0-.569-.126-.973-.378-1.213-.251-.24-.635-.36-1.15-.36-.253 0-.477.039-.673.118-.197.08-.362.186-.497.32a1.364 1.364 0 0 0-.307.471c-.07.179-.106.368-.106.567h-1.556c0-.34.075-.678.225-1.015a2.83 2.83 0 0 1 .641-.905 3.222 3.222 0 0 1 1.015-.646 3.479 3.479 0 0 1 1.336-.247c.44 0 .843.053 1.209.159.366.105.682.275.949.51.267.234.473.536.62.905.146.369.22.82.22 1.353v4.685c0 .158.005.325.017.5a5.97 5.97 0 0 0 .154 1.007 4.1 4.1 0 0 0 .127.426V13h-1.617zm-2.074-1.24c.217 0 .422-.031.615-.096.193-.064.37-.148.527-.25.159-.103.298-.22.418-.352.12-.132.215-.268.285-.409V8.386h-.817a3.87 3.87 0 0 0-1.015.123c-.302.082-.56.2-.774.356a1.574 1.574 0 0 0-.492.575c-.114.229-.171.49-.171.783 0 .287.03.528.088.725.058.196.146.354.263.474.118.12.266.207.444.26.179.052.388.079.629.079zm12.68 1.24h-1.547V8.94h-3.427V13h-1.565V3.49h1.565v4.122h3.427V3.49h1.547V13zm9.358 0h-1.546V8.94H139.3V13h-1.565V3.49h1.565v4.122h3.428V3.49h1.546V13zm4.366-6.231h1.934c.492 0 .924.077 1.296.232.372.156.686.37.94.642.256.273.448.598.576.976.13.378.194.79.194 1.235 0 .439-.065.85-.194 1.234-.128.384-.32.717-.575.998a2.744 2.744 0 0 1-.94.668c-.373.164-.805.246-1.297.246h-3.48V3.49h1.546v3.28zm7.84 6.231h-1.555V3.49h1.555V13zm-7.84-4.904v3.577h1.934c.27 0 .497-.05.681-.15.185-.1.334-.231.448-.395.115-.164.197-.352.246-.563a2.82 2.82 0 0 0 0-1.292 1.817 1.817 0 0 0-.246-.588 1.33 1.33 0 0 0-.448-.427 1.325 1.325 0 0 0-.681-.162h-1.934zM164.53 3.49h1.547V13h-1.547V6.065L161.085 13h-1.556V3.49h1.556v6.944l3.445-6.944zm.914-3.463c0 .346-.06.662-.18.95-.12.287-.295.534-.523.742a2.48 2.48 0 0 1-.83.488 3.22 3.22 0 0 1-1.095.176c-.404 0-.769-.059-1.094-.176a2.452 2.452 0 0 1-.83-.488 2.123 2.123 0 0 1-.528-.742 2.385 2.385 0 0 1-.185-.95h1.327c0 .176.024.343.07.501a1.062 1.062 0 0 0 .628.703c.168.07.372.106.612.106.234 0 .435-.035.602-.106.167-.07.303-.165.409-.285.105-.12.181-.26.228-.418.047-.158.07-.325.07-.5h1.319zM7.852 34.97l2.378-8.649h4.16V39h-3.316v-6.785L8.964 39H6.75l-2.027-6.563V39H1.418V26.32h4.09l2.344 8.649zM23.168 39a2.536 2.536 0 0 1-.158-.451 12.168 12.168 0 0 1-.123-.533c-.25.343-.573.632-.967.867-.395.234-.877.351-1.447.351a3.86 3.86 0 0 1-1.448-.27 3.483 3.483 0 0 1-1.171-.76 3.549 3.549 0 0 1-.786-1.19 4.075 4.075 0 0 1-.287-1.565c0-.64.104-1.22.31-1.74.208-.52.52-.961.938-1.324.418-.364.942-.643 1.57-.838.63-.195 1.37-.293 2.221-.293h.903v-1.02c0-.57-.098-.972-.293-1.207-.196-.234-.48-.351-.856-.351-.43 0-.744.127-.943.38-.2.255-.299.612-.299 1.073h-3.316c0-.555.107-1.076.322-1.565a3.75 3.75 0 0 1 .932-1.283 4.548 4.548 0 0 1 1.464-.873c.57-.215 1.215-.322 1.934-.322.633 0 1.215.08 1.746.24.531.16.992.41 1.383.75.39.34.695.774.914 1.301.219.527.328 1.162.328 1.904v5.625c0 .367.01.694.03.979.019.285.048.543.087.773a4.137 4.137 0 0 0 .352 1.143V39h-3.34zm-1.957-2.367c.367 0 .68-.074.937-.223.258-.148.45-.324.575-.527v-2.637h-.785c-.313 0-.583.05-.81.152a1.581 1.581 0 0 0-.567.422 1.75 1.75 0 0 0-.34.633 2.6 2.6 0 0 0-.112.774c0 .46.096.81.287 1.048.192.239.463.358.815.358zm14.648-7.547h-4.113V39H28.43V26.32h7.43v2.766zM43.36 39a2.536 2.536 0 0 1-.158-.451 12.17 12.17 0 0 1-.123-.533c-.25.343-.572.632-.967.867-.394.234-.877.351-1.447.351a3.86 3.86 0 0 1-1.447-.27 3.488 3.488 0 0 1-1.172-.76 3.549 3.549 0 0 1-.785-1.19 4.074 4.074 0 0 1-.287-1.565c0-.64.103-1.22.31-1.74.207-.52.52-.961.938-1.324.418-.364.941-.643 1.57-.838.629-.195 1.37-.293 2.22-.293h.903v-1.02c0-.57-.098-.972-.293-1.207-.195-.234-.48-.351-.855-.351-.43 0-.745.127-.944.38-.199.255-.299.612-.299 1.073h-3.316c0-.555.107-1.076.322-1.565a3.75 3.75 0 0 1 .932-1.283 4.548 4.548 0 0 1 1.465-.873c.57-.215 1.215-.322 1.933-.322.633 0 1.215.08 1.746.24.532.16.993.41 1.383.75s.696.774.914 1.301c.22.527.328 1.162.328 1.904v5.625c0 .367.01.694.03.979.02.285.049.543.088.773a4.137 4.137 0 0 0 .352 1.143V39h-3.34zm-1.957-2.367c.368 0 .68-.074.938-.223.258-.148.45-.324.574-.527v-2.637h-.785c-.313 0-.582.05-.809.152a1.581 1.581 0 0 0-.568.422c-.152.18-.266.39-.34.633-.074.242-.111.5-.111.774 0 .46.095.81.287 1.048.191.239.463.358.814.358zm11.555-5.215c.383 0 .656-.125.82-.375.164-.25.246-.574.246-.973 0-.172-.015-.34-.046-.504a1.38 1.38 0 0 0-.164-.445.91.91 0 0 0-.323-.322 1 1 0 0 0-.521-.123c-.383 0-.684.111-.903.334-.218.222-.328.545-.328.967h-3.316c0-.61.113-1.153.34-1.63.226-.476.537-.882.931-1.218a4.105 4.105 0 0 1 1.389-.768 5.414 5.414 0 0 1 1.711-.263c.687 0 1.31.08 1.87.24.558.16 1.034.394 1.429.703.394.309.699.693.914 1.154.215.461.322.992.322 1.594a2.92 2.92 0 0 1-.433 1.553 3.15 3.15 0 0 1-1.208 1.13c.594.25 1.047.624 1.36 1.12.312.496.469 1.103.469 1.822 0 .602-.118 1.139-.352 1.611a3.47 3.47 0 0 1-.978 1.202 4.434 4.434 0 0 1-1.5.75 6.7 6.7 0 0 1-1.905.257A5.967 5.967 0 0 1 51.123 39a4.301 4.301 0 0 1-1.447-.72 3.695 3.695 0 0 1-1.026-1.237c-.261-.5-.392-1.098-.392-1.793h3.316c0 .188.026.367.076.54.051.17.133.321.246.45.114.13.258.233.434.31.176.079.389.118.639.118.234 0 .431-.043.592-.129.16-.086.287-.2.38-.34.094-.14.163-.303.205-.486.043-.184.065-.37.065-.557 0-.547-.104-.94-.31-1.177-.208-.239-.522-.358-.944-.358h-1.559v-2.203h1.559zm12.809-5.098h3.304V39h-3.304v-7.793L62.812 39h-3.328V26.32h3.328v7.782l2.954-7.782zM81.036 39h-3.317v-4.863H74.8V39h-3.328V26.32H74.8v5.075h2.918V26.32h3.316V39zm11.566-2.86h6.046V39h-9.492V21.937h3.446v14.204zM103.957 39h-3.328V26.32h3.328V39zm-3.48-15.96c0-.259.043-.495.128-.71.086-.215.207-.4.364-.557a1.61 1.61 0 0 1 .568-.363c.223-.086.47-.129.744-.129s.522.043.744.13c.223.085.412.206.569.362.156.157.277.342.363.557.086.215.129.451.129.71 0 .257-.043.493-.129.708a1.7 1.7 0 0 1-.363.563c-.157.16-.346.283-.569.369-.222.086-.47.129-.744.129-.273 0-.521-.043-.744-.13a1.574 1.574 0 0 1-.568-.368 1.7 1.7 0 0 1-.364-.563 1.892 1.892 0 0 1-.128-.709zm11.168 16.194c-.868 0-1.637-.132-2.31-.398a4.547 4.547 0 0 1-1.698-1.148c-.461-.5-.81-1.112-1.05-1.834-.237-.723-.357-1.545-.357-2.467v-1.043c0-1.032.116-1.936.346-2.713.23-.777.563-1.43.996-1.957a4.098 4.098 0 0 1 1.594-1.19c.629-.265 1.342-.398 2.139-.398 1.61 0 2.816.52 3.62 1.559.805 1.039 1.208 2.578 1.208 4.617v1.511h-6.598c.024.508.092.934.205 1.278.114.344.268.62.463.832.195.21.432.363.71.457.276.094.59.14.942.14.586 0 1.108-.1 1.565-.298a3.84 3.84 0 0 0 1.213-.838l1.3 2.004a3.812 3.812 0 0 1-.644.673 4.78 4.78 0 0 1-.937.604c-.36.18-.766.326-1.22.44a6.13 6.13 0 0 1-1.487.17zm-.364-10.394c-.578 0-.998.207-1.26.62-.261.415-.416 1.08-.462 1.993h3.316v-.305c-.016-.757-.14-1.332-.375-1.722-.234-.39-.64-.586-1.219-.586zm16.617 4.23c0 2.055-.328 3.596-.984 4.623-.656 1.028-1.687 1.541-3.094 1.541-.586 0-1.095-.13-1.529-.392a3.556 3.556 0 0 1-1.12-1.096L121.067 39h-3.058V21h3.316v6.352a3.27 3.27 0 0 1 1.055-.932c.406-.223.879-.334 1.418-.334 1.422 0 2.46.521 3.117 1.564.656 1.043.984 2.573.984 4.588v.832zm-3.316-.832c0-.57-.021-1.066-.064-1.488-.043-.422-.127-.773-.252-1.055a1.34 1.34 0 0 0-.528-.627c-.226-.136-.523-.205-.89-.205-.375 0-.686.084-.932.252-.246.168-.443.4-.592.698v5.777c.14.281.336.5.586.656.25.156.57.234.961.234.36 0 .652-.062.879-.187.227-.125.4-.324.521-.598.122-.273.204-.625.247-1.054.043-.43.064-.953.064-1.57v-.833zm8.543-4.804a3.78 3.78 0 0 1 1.178-.997 3.087 3.087 0 0 1 1.47-.351c.524 0 1.004.09 1.442.27.437.18.812.464 1.125.855.312.39.555.898.726 1.523.172.625.258 1.387.258 2.286V39h-3.328v-8.004a4.67 4.67 0 0 0-.094-1.02 1.699 1.699 0 0 0-.28-.656 1.05 1.05 0 0 0-.458-.351c-.18-.07-.39-.106-.633-.106-.328 0-.605.074-.832.223a1.874 1.874 0 0 0-.574.61V39h-3.316V21h3.316v6.434zm13.7 11.8c-.868 0-1.637-.132-2.31-.398a4.547 4.547 0 0 1-1.699-1.148c-.46-.5-.81-1.112-1.048-1.834-.239-.723-.358-1.545-.358-2.467v-1.043c0-1.032.115-1.936.346-2.713.23-.777.562-1.43.996-1.957a4.098 4.098 0 0 1 1.594-1.19c.629-.265 1.341-.398 2.138-.398 1.61 0 2.817.52 3.621 1.559.805 1.039 1.208 2.578 1.208 4.617v1.511h-6.598c.023.508.092.934.205 1.278.113.344.267.62.463.832.195.21.431.363.709.457.277.094.592.14.943.14.586 0 1.108-.1 1.565-.298.457-.2.86-.479 1.213-.838l1.3 2.004a3.812 3.812 0 0 1-.644.673 4.78 4.78 0 0 1-.938.604c-.36.18-.765.326-1.219.44a6.13 6.13 0 0 1-1.488.17zm-.364-10.394c-.578 0-.998.207-1.26.62-.262.415-.416 1.08-.463 1.993h3.317v-.305c-.016-.757-.14-1.332-.375-1.722-.235-.39-.64-.586-1.22-.586zm12.984.68l-.545-.06a5.234 5.234 0 0 0-.556-.034c-.477 0-.864.101-1.16.304-.297.204-.524.5-.68.891V39h-3.328V26.32h3.129l.093 1.371c.25-.507.557-.902.92-1.183.364-.281.78-.422 1.248-.422.149 0 .311.014.487.041.176.027.318.064.427.111l-.035 3.282zm7.957 0l-.545-.06a5.234 5.234 0 0 0-.556-.034c-.477 0-.863.101-1.16.304-.297.204-.524.5-.68.891V39h-3.328V26.32h3.129l.093 1.371c.25-.507.557-.902.92-1.183.364-.281.78-.422 1.248-.422.149 0 .311.014.487.041.176.027.318.064.428.111l-.036 3.282z"/></svg>