<svg width="746" height="100" viewBox="0 0 746 100" xmlns="http://www.w3.org/2000/svg" xmlns:xlink="http://www.w3.org/1999/xlink"><g id="Symbols" stroke="none" stroke-width="1" fill="none" fill-rule="evenodd" opacity=".119"><g id="футер-hd-new" transform="translate(-345 -95)" fill="#9E9E9E" fill-rule="nonzero"><g id="футер-hd"><g id="подложка"><path d="M604.09 154.097v22.721h7.543c3.95 0 7.972-2.619 9.456-5.676 1.175-2.424 1.981-7.182-.109-11.637-2.756-5.87-8.778-5.341-9.353-5.414h-7.536v.006zm0-40.915v18.182h6.05c3.2 0 5.581-2.088 6.69-4.538.88-1.945 1.513-5.752-.088-9.306-1.934-4.307-5.685-4.296-6.568-4.338h-6.083zM554.09 95s65.761.016 77 .011c21.469-.022 26.524 16.634 26.56 26.408.064 17.566-11.847 21.88-11.847 21.88s12.833 5.005 12.833 23.725c0 29.163-25.878 27.97-29.883 27.97H554.09V95zm304.546 100v-22.966H837.89v-18.223h20.532v-19.894H837.89v-19.264h20.747V95h-68.181v100h68.181zm-125.682 0h48.41V95h-48.41v37.882h-15.695V95h-49.532v100h49.532v-42.022h15.695V195zm-183.409 0v-22.966h-20.747v-18.223h20.527v-19.894h-20.527v-19.264h20.747V95h-68.181v100h68.181zM422.273 95h50v100h-50V95zm-4.546 100v-27.604H395.79V95H345v100h72.727zm495.455-81.818v22.727h6.275c6.797 0 9.212-2.905 10.704-5.973 1.184-2.433 1.973-6.825.005-11.327-1.08-2.448-3.912-5.422-10.71-5.422h-6.274v-.005zM867.727 95.01l75.02-.011c23.51 0 32.396 15.787 32.396 29.41 0 23.202-21.047 27.353-21.047 27.353L981.364 195H926.51l-11.791-28.72.022 28.72h-47.014V95.011zm154.546 18.17v22.728h6.28c6.808 0 9.217-2.905 10.697-5.973 1.184-2.433 1.98-6.825 0-11.327-1.068-2.448-3.889-5.422-10.703-5.422h-6.274v-.005zm-45.455-18.17l75.016-.011c23.517 0 32.405 15.787 32.405 29.41 0 23.202-21.049 27.353-21.049 27.353L1090.455 195H1035.6l-11.787-28.72.017 28.72h-47.013V95.011z" id="logo-bg"/></g></g></g></g></svg>