<svg xmlns="http://www.w3.org/2000/svg" width="714" height="150"><path fill="#EDEDED" fill-rule="evenodd" d="M503.72 50.446c12.807-3.182 25.53-2.8 37.802 2.239 16.199 6.652 25.555 18.939 28.666 35.988 1.822 9.991 1.238 19.868-2.26 29.446-5.24 14.344-15.249 24.08-29.772 28.77-15.765 5.089-31.328 3.988-46.077-3.694-13.261-6.907-20.96-18.137-23.98-32.626-.797-3.822-1.175-7.69-1.072-10.551-.061-11.702 2.42-21.647 8.524-30.507 6.878-9.984 16.468-16.158 28.17-19.065zm-371.83-1.387c13.185-1.876 25.523.658 36.03 9.35 7.843 6.489 11.994 15.059 13.668 24.965.872 5.16.431 10.312.343 15.477-.022 1.24-.717 1.04-1.446 1.04h-29.61v-.028h-28.807c-2.258 0-2.278.004-2.036 2.237.935 8.647 4.015 16.431 9.757 23.031 6.56 7.54 14.855 11.502 24.966 11.49 8.529-.011 17.058.027 25.587-.037 1.294-.01 1.583.363 1.554 1.585-.084 3.468-.056 6.939-.012 10.408.011.894-.093 1.294-1.178 1.29-12.553-.044-25.108.134-37.657-.08-11.021-.187-21.72-2.15-31.553-7.459-12.45-6.722-19.863-17.078-22.086-30.989-2.164-13.544-.307-26.496 6.85-38.357 8.1-13.426 20.003-21.7 35.63-23.923zm522.608-27.17c9.28.075 18.56.08 27.84.008 1.564-.012 2.079.28 2.06 1.971-.1 8.699-.018 17.4-.082 26.1-.01 1.326.317 1.676 1.665 1.664 7.617-.07 15.235-.012 22.852-.06 1.105-.006 1.47.256 1.443 1.4a209.92 209.92 0 00-.001 9.927c.026 1.104-.35 1.317-1.365 1.312-7.67-.035-15.342.016-23.012-.048-1.284-.01-1.585.342-1.577 1.584.056 8.486.03 16.973.03 25.46h-.007c0 7.472-.061 14.945.02 22.417.062 5.594.94 11.044 3.909 15.941 2.733 4.508 6.707 6.858 12.086 6.836 4.018-.017 8.036.164 12.055.194.846.007 1.077.242 1.071 1.076-.025 3.682-.012 7.365.062 11.046.018.935-.287 1.15-1.172 1.138-7.666-.108-15.347.32-22.993-.361-10.692-.953-20.456-4.184-27.9-12.382-5.02-5.528-7.515-12.188-8.27-19.531-.634-6.175-.253-12.371-.288-18.557-.063-11.102-.04-22.204.014-33.306.007-1.273-.348-1.59-1.586-1.558-3.27.086-6.544-.001-9.815.052-.954.016-1.312-.208-1.295-1.228.062-3.415.055-6.832.007-10.247-.014-.933.31-1.166 1.201-1.154 3.325.045 6.653-.036 9.976.046 1.18.03 1.52-.244 1.512-1.474-.06-8.86-.005-17.72-.062-26.58-.008-1.274.22-1.698 1.622-1.687zm-360.07.01c1.24-.008 1.479.347 1.472 1.511-.051 8.808.016 17.617-.07 26.424-.015 1.54.48 1.809 1.877 1.797 7.511-.065 15.023-.004 22.534-.065 1.262-.01 1.648.307 1.607 1.589a140.636 140.636 0 00-.003 9.287c.047 1.377-.266 1.804-1.738 1.788-7.618-.084-15.237-.036-22.855-.043-.775 0-1.412-.105-1.407 1.089.056 16.495-.007 32.99.127 49.485.039 4.814 1.003 9.528 3.34 13.854 2.78 5.147 6.977 7.875 12.979 7.791 3.962-.055 7.929.157 11.894.189.806.006.978.263.973 1.008-.023 3.736-.023 7.473.036 11.21.013.883-.307 1.052-1.106 1.038-8.573-.155-17.173.46-25.712-.653-10.649-1.387-20.096-5.218-26.86-13.983-5.099-6.609-6.958-14.28-6.986-22.474-.024-7.313-.004-14.627-.004-21.94 0-8.329-.033-16.657.034-24.984.011-1.368-.398-1.693-1.708-1.656-3.27.09-6.545.004-9.817.047-.89.012-1.222-.225-1.209-1.16a309.94 309.94 0 00-.008-10.25c-.019-1.043.384-1.23 1.314-1.217 3.272.045 6.547-.04 9.817.044 1.258.032 1.618-.311 1.61-1.588-.06-8.861-.007-17.724-.062-26.585-.008-1.266.365-1.56 1.603-1.553 9.442.054 18.885.057 28.328 0zm135.421 29.667c1.368-.009 1.668.404 1.657 1.693-.062 6.874-.029 13.748-.029 20.622 1.699-2.957 3.25-5.913 5.205-8.637 4.945-6.892 11.259-11.768 19.846-13.277 2.605-.458 5.235-.33 7.86-.382.953-.019.841.57.841 1.16 0 8.858-.015 17.718.023 26.577.003.92-.365 1.008-1.128 1.018-4.768.058-9.541-.064-14.303.296-9.782.74-17.05 7.783-18.082 17.489a50.836 50.836 0 00-.27 5.426c.011 14.89-.014 29.78.04 44.67.004 1.337-.323 1.66-1.661 1.651-9.44-.064-18.88-.06-28.32-.004-1.217.007-1.482-.3-1.48-1.49.036-31.702.035-63.403 0-95.104 0-1.275.245-1.717 1.642-1.708a2017.8 2017.8 0 0028.16 0zm-30.282-50.18a181.525 181.525 0 00-.01 10.409c.037 1.25-.422 1.571-1.52 1.569-3.273-.007-6.553.164-9.817.004-9.25-.456-13.927 4.504-16.371 12.33-1.137 3.641-1.553 7.4-1.59 11.196-.041 4.377.036 8.756-.04 13.133-.02 1.236.28 1.615 1.577 1.603 7.512-.064 15.024.003 22.535-.06 1.394-.01 1.964.23 1.895 1.793-.14 3.144-.092 6.3-.01 9.448.03 1.163-.373 1.408-1.464 1.401-7.62-.043-15.24.01-22.858-.053-1.323-.01-1.684.326-1.679 1.668.054 13.774.033 27.548.033 41.323 0 13.72-.018 27.441.031 41.162.005 1.261-.327 1.563-1.576 1.556-9.39-.056-18.78-.061-28.17.004-1.335.009-1.664-.309-1.662-1.642.042-27.388.017-54.776.07-82.164.003-1.566-.402-1.976-1.945-1.915-3.16.125-6.33.008-9.495.06-.945.015-1.324-.2-1.306-1.23.064-3.416.058-6.834.008-10.25-.014-.949.336-1.162 1.216-1.15 3.38.042 6.762-.02 10.14.042 1.05.02 1.373-.276 1.365-1.341-.038-4.911-.112-9.826.049-14.733.57-17.38 10.463-29.482 27.443-33.717A57.158 57.158 0 01380.092.137C386.1.116 392.107.084 398.114 0c1.073-.015 1.485.201 1.453 1.385zm-301.77 51.77C90.09 75.07 82.416 96.995 74.74 118.92c-3.442 9.832-6.896 19.66-10.277 29.512-.374 1.09-.821 1.443-1.982 1.436-8.691-.055-17.383-.05-26.075-.006-1.032.005-1.44-.307-1.79-1.28-10.458-29.187-20.958-58.36-31.45-87.536-.99-2.754-1.937-5.523-2.979-8.257-.344-.905-.279-1.209.782-1.206 10.57.026 21.139.034 31.708-.01 1.141-.006 1.24.65 1.482 1.432 6.193 19.966 12.401 39.929 18.607 59.892l2.404 7.725c2.27-7.357 4.41-14.267 6.536-21.18 4.766-15.5 9.534-31 14.263-46.51.32-1.052.794-1.375 1.896-1.365 6.277.06 12.555.071 18.831 0 1.44-.017 1.532.367 1.102 1.587zm536.675-1.576c.978-.014 1.298.245 1.28 1.25-.059 3.415-.059 6.832.005 10.247.019.997-.27 1.26-1.258 1.247-4.076-.05-8.156-.097-12.23.013-3.494.094-6.792.966-9.447 3.41-4.77 4.393-4.954 12.356-.423 16.967 2.514 2.557 5.643 4.203 8.787 5.817 4.371 2.245 8.829 4.327 12.92 7.085 10.82 7.296 13.856 18.045 11.585 29.475-2.265 11.4-11.673 20.21-22.887 22.164-2.975.518-5.96.601-8.964.59-5.526-.022-11.05-.007-16.576-.007-6.866 0-13.733-.028-20.598.027-1.127.01-1.439-.267-1.413-1.399.08-3.52.077-7.045.004-10.566-.021-1.081.328-1.31 1.348-1.305 7.992.04 15.985.023 23.978.025a15.75 15.75 0 005.2-.861c5.668-1.964 7.846-8.736 4.365-13.62-1.84-2.58-4.42-4.312-7.054-5.972-5.288-3.332-10.916-6.123-15.918-9.913-5.923-4.488-10.541-9.911-11.877-17.427-2.215-12.466 2.255-22.405 12.164-29.983 5.984-4.576 12.97-6.708 20.466-7.068 8.842-.425 17.695-.067 26.543-.196zm-388.497-.002c1.02-.009 1.388.226 1.364 1.326-.077 3.361-.063 6.726.004 10.088.02 1.024-.227 1.356-1.309 1.336-3.807-.069-7.617-.01-11.426-.035a17.975 17.975 0 00-4.144.463c-4.76 1.09-8.138 3.719-9.293 8.626-1.23 5.225.187 9.577 4.538 12.887 3.17 2.411 6.749 4.11 10.285 5.883 3.349 1.678 6.654 3.42 9.763 5.524 8.398 5.682 12.364 13.61 12.174 23.646-.273 14.354-10.48 25.988-24.719 28.158-1.582.24-3.2.333-4.803.342-6.545.037-13.09.015-19.634.016l-10.22-.005c-3.407 0-6.813.006-10.22.031-1.089.008-1.461-.209-1.433-1.377.085-3.521.071-7.046 0-10.568-.02-1.064.303-1.33 1.342-1.325 7.94.041 15.88.027 23.82.02 1.83-.001 3.62-.256 5.355-.878 5.712-2.049 7.835-8.722 4.28-13.64-2.415-3.34-5.945-5.33-9.39-7.382-5.373-3.199-10.853-6.204-15.721-10.197-14.058-11.53-12.849-30.691-1.722-42.07 5.824-5.956 13.015-9.162 21.209-10.347 4.963-.718 9.952-.45 14.932-.49 4.99-.039 9.979.013 14.968-.032zm286.083 19.395c-5.112-7.206-14.065-9.29-21.067-4.906-3.78 2.365-6.185 5.901-7.744 9.946-4.907 12.733-5.302 25.756-2.064 38.918 1.416 5.76 3.751 11.106 8.156 15.32 5.796 5.548 14.185 5.652 19.977.22 2.254-2.113 3.854-4.704 5.102-7.502 3.408-7.644 4.434-15.74 4.516-24.005.074-4.174-.305-8.315-1.024-12.415-.971-5.545-2.538-10.904-5.852-15.576zm-392.922-7.897c-7.586-.151-13.2 3.113-16.375 10.105-1.941 4.273-2.68 8.833-3.064 13.476-.097 1.171.22 1.387 1.33 1.376 5.522-.058 11.047-.027 16.57-.027v-.084c5.47 0 10.94-.044 16.41.034 1.2.017 1.577-.39 1.69-1.479.463-4.488-.097-8.834-1.95-12.95-2.824-6.27-7.405-10.307-14.611-10.45z"/></svg>