<svg xmlns="http://www.w3.org/2000/svg" viewBox="0 0 121.1 51.8"><path d="M1.9 0l3 7.5 3-7.5h1.7v9.2H8.4V5.6l.1-3.9-3 7.5h-.9l-3-7.5.1 3.9v3.6H.5V0h1.4zm15 6.8H13l-.9 2.4h-1.3L14.3 0h1.1l3.5 9.2h-1.3l-.7-2.4zm-3.5-1h3.2L15 1.5l-1.6 4.3zM26 1h-4.4v8.2h-1.2V0h5.7L26 1zm5.4 5.8h-3.9l-.9 2.4h-1.3L28.8 0h1.1l3.5 9.2h-1.3l-.7-2.4zm-3.5-1H31l-1.6-4.3-1.5 4.3zm11.6-3.3c0-.5-.2-.9-.5-1.2-.4-.3-.9-.4-1.5-.4-.5 0-1 .1-1.4.4-.3.3-.5.7-.5 1.1h-1.2c0-.5.1-.9.4-1.3s.6-.7 1.1-.9 1-.3 1.6-.3c1 0 1.8.2 2.4.7s.9 1.1.9 1.9c0 .4-.1.8-.4 1.2s-.6.6-1.1.8c1.1.4 1.6 1.1 1.6 2.2 0 .8-.3 1.5-.9 2s-1.4.7-2.5.7c-.6 0-1.2-.1-1.7-.3s-.9-.5-1.2-.9c-.3-.4-.4-.9-.4-1.4h1.2c0 .5.2.9.6 1.2.4.3.9.5 1.5.5.7 0 1.2-.2 1.6-.5.4-.3.6-.7.6-1.2 0-1.1-.7-1.6-2-1.7h-1.1v-1h1c.6 0 1.1-.2 1.4-.4.4-.4.5-.7.5-1.2zM48.3 0h1.2v9.2h-1.2V2.1l-4.6 7.1h-1.2V0h1.2v7.1L48.3 0zm10.6 9.2h-1.3V4.9h-4.7v4.3h-1.2V0h1.2v4h4.7V0h1.2l.1 9.2zM70.4 1h-3v8.2h-1.2V1h-3V0h7.1l.1 1zM77 5h-4v3.3h4.7v1h-5.9V0h5.8v1H73v3h4v1zm5.2-1.5L84.4 0h1.4l-2.9 4.6 3 4.7h-1.4l-2.3-3.6-2.3 3.6h-1.4l3-4.7L78.6 0H80l2.2 3.5zm12.2 5.7h-1.2V4.9h-4.7v4.3h-1.2V0h1.2v4h4.7V0h1.2v9.2zm8-9.2h1.2v9.2h-1.2V2.1l-4.6 7.1h-1.2V0h1.2v7.1l4.6-7.1zm5.8 5.1h-1.1v4.2h-1.2V0h1.2v4.1h1l3.2-4.1h1.5l-3.5 4.5 3.8 4.8h-1.5l-3.4-4.2zM120 0h1.2v9.2H120V2.1l-4.6 7.1h-1.2V0h1.2v7.1L120 0z" fill="#9b9b9b"/><path d="M14 16.5h4.5l-7 20.5h-4l-7-20.5h4.6l4.5 15.6L14 16.5zm15 5.7c1.1.5 1.9 1.2 2.6 2.2.6.9 1 1.9 1.2 3.1.1.7.2 1.7.1 3h-11c.1 1.5.6 2.6 1.6 3.2.6.4 1.3.6 2.2.6s1.6-.2 2.2-.7c.3-.3.6-.6.8-1h4c-.1.9-.6 1.8-1.5 2.7-1.4 1.5-3.3 2.2-5.7 2.2-2 0-3.8-.6-5.3-1.9-1.5-1.2-2.3-3.3-2.3-6.1 0-2.6.7-4.6 2.1-6s3.2-2.1 5.4-2.1c1.4.1 2.6.3 3.6.8zm-5.9 3.4c-.6.6-.9 1.4-1.1 2.3h6.8c-.1-1.1-.4-1.9-1.1-2.4-.6-.5-1.4-.8-2.4-.8-.9.1-1.6.3-2.2.9zm15 6.6c.1.7.3 1.2.5 1.5.5.5 1.4.8 2.7.8.8 0 1.4-.1 1.9-.3s.7-.6.7-1-.2-.8-.6-1-1.8-.6-4.1-1.2c-1.7-.4-2.9-1-3.6-1.6s-1.1-1.5-1.1-2.7c0-1.4.6-2.6 1.7-3.6s2.7-1.5 4.6-1.5 3.4.4 4.6 1.1c1.2.8 1.9 2.1 2.1 3.9h-4c-.1-.5-.2-.9-.4-1.2-.4-.5-1.2-.8-2.2-.8-.9 0-1.5.1-1.8.4-.4.3-.6.6-.6.9 0 .5.2.8.6 1 .4.2 1.8.6 4.1 1.1 1.6.4 2.8.9 3.6 1.7s1.2 1.7 1.2 2.9c0 1.5-.6 2.7-1.7 3.7s-2.9 1.4-5.2 1.4c-2.4 0-4.2-.5-5.3-1.5s-1.7-2.3-1.7-3.8h4v-.2zm11.2-7.4V22h2.1v-4.2h3.9V22h2.5v2.8h-2.5v8c0 .6.1 1 .2 1.2.2.2.6.2 1.4.2h.8v3l-1.9.1c-1.9.1-3.2-.3-3.8-1-.4-.5-.7-1.2-.7-2.1v-9.3h-2v-.1zm17.3-8.4c.2 0 .5 0 .8.1v3.2c-.2 0-.6 0-1.1-.1-.5 0-.9.1-1.1.3-.2.2-.3.5-.3.8V22h2.6v2.8h-2.6V37H61V24.8h-2.2V22H61v-1c0-1.6.3-2.7.8-3.4.6-.9 2-1.4 4.2-1.4.2.1.4.1.6.2zm11.6 5.1h.3v4.1c-.3 0-.5 0-.7-.1h-.5c-1.6 0-2.7.5-3.2 1.6-.3.6-.5 1.5-.5 2.7V37h-4V21.9h4v2.6c.6-1 1.1-1.7 1.6-2.1.7-.6 1.7-.9 3-.9zm15.4 13.7c-1.3 1.6-3.2 2.4-5.8 2.4s-4.5-.8-5.8-2.4-1.9-3.5-1.9-5.7.6-4.1 1.9-5.7 3.2-2.4 5.8-2.4 4.5.8 5.8 2.4 1.9 3.5 1.9 5.7-.7 4.1-1.9 5.7zM90.4 33c.6-.8.9-2 .9-3.5s-.3-2.7-.9-3.5-1.5-1.2-2.7-1.2-2.1.4-2.7 1.2-.9 2-.9 3.5.3 2.7.9 3.5 1.5 1.2 2.7 1.2 2.1-.4 2.7-1.2zm11-.8c.1.7.3 1.2.5 1.5.5.5 1.4.8 2.7.8.8 0 1.4-.1 1.9-.3s.7-.6.7-1-.2-.8-.6-1-1.8-.6-4.1-1.2c-1.7-.4-2.9-1-3.6-1.6s-1.1-1.5-1.1-2.7c0-1.4.6-2.6 1.7-3.6s2.7-1.5 4.7-1.5c1.9 0 3.4.4 4.6 1.1 1.2.8 1.9 2.1 2.1 3.9h-4c-.1-.5-.2-.9-.4-1.2-.4-.5-1.2-.8-2.2-.8-.9 0-1.5.1-1.8.4-.4.3-.6.6-.6.9 0 .5.2.8.6 1s1.8.6 4.1 1.1c1.6.4 2.8.9 3.6 1.7s1.2 1.7 1.2 2.9c0 1.5-.6 2.7-1.7 3.7s-2.9 1.4-5.2 1.4c-2.4 0-4.2-.5-5.3-1.5s-1.7-2.3-1.7-3.8h3.9v-.2zm11.2-7.4V22h2.1v-4.2h3.9V22h2.5v2.8h-2.5v8c0 .6.1 1 .2 1.2.2.2.6.2 1.4.2h.8v3l-1.9.1c-1.9.1-3.2-.3-3.8-1-.4-.5-.7-1.2-.7-2.1v-9.3h-2v-.1zm2.8 19.7h5.8v7.3h-5.8v-7.3zM0 44.5h5.8v7.3H0v-7.3zm12.4 7.2h-.9l-2.8-6.8H10l2 5 1.9-5h1.2l-2.7 6.8zm3.6-6.8h4V46h-2.7v1.7h2.4v1.1h-2.4v1.8h2.8v1.1h-4l-.1-6.8zm5.3 1.8c0-1 .8-1.9 2.1-1.9.8 0 1.5.3 1.9.7l-.6.9c-.3-.3-.7-.5-1.2-.5-.6 0-1 .3-1 .7 0 1.4 3.1 1 3.1 3.2 0 1.1-1 1.9-2.3 1.9-.9 0-1.9-.4-2.2-1.1l.7-.8c.4.5 1 .8 1.6.8s1-.3 1-.8c-.1-1.2-3.1-.9-3.1-3.1zm4.8-1.8h5.6V46h-2.2v5.7h-1.2V46h-2.2v-1.1zm6.7 0h3.9V46H34v1.9h2.4V49H34v2.6h-1.2v-6.7zm5.2 6.8v-6.8h2.1c1.9 0 2.5.9 2.5 2.1 0 1.2-.7 1.7-1.3 1.9l2.1 2.8H42l-2-2.5h-.8v2.5H38zm1.2-5.7v2h.8c.7 0 1.3-.3 1.3-1 0-.5-.3-1-1.3-1h-.8zm8.2-1.2c2 0 3.5 1.4 3.5 3.5 0 2-1.5 3.5-3.5 3.5s-3.5-1.4-3.5-3.5c0-2 1.4-3.5 3.5-3.5zm0 5.9c1.4 0 2.3-1 2.3-2.4s-1-2.4-2.3-2.4-2.3 1-2.3 2.4 1 2.4 2.3 2.4zm4.6-4c0-1 .8-1.9 2.1-1.9.8 0 1.5.3 1.9.7l-.6.9c-.3-.3-.7-.5-1.2-.5-.6 0-.9.3-.9.7 0 1.4 3.1 1 3.1 3.2 0 1.1-1 1.9-2.3 1.9-.9 0-1.9-.4-2.2-1.1l.7-.8c.4.5 1 .8 1.6.8s1-.3 1-.8c-.2-1.2-3.2-.9-3.2-3.1zm4.8-1.8h5.6V46h-2.2v5.7H59V46h-2.2v-1.1zm6.3 3.6h2.4v1h-2.4v-1zm3.7-1.8c0-1 .8-1.9 2.1-1.9.8 0 1.5.3 1.9.7l-.6.9c-.3-.3-.7-.5-1.2-.5-.6 0-.9.3-.9.7 0 1.4 3.1 1 3.1 3.2 0 1.1-1 1.9-2.3 1.9-.9 0-1.9-.4-2.2-1.1l.7-.8c.4.5 1 .8 1.6.8s1-.3 1-.8c-.2-1.2-3.2-.9-3.2-3.1zm4.8-1.8h5.6V46H75v5.7h-1.2V46h-2.2v-1.1zm9.7-.1c2 0 3.5 1.4 3.5 3.5 0 2-1.5 3.5-3.5 3.5s-3.5-1.4-3.5-3.5c0-2 1.4-3.5 3.5-3.5zm0 5.9c1.4 0 2.3-1 2.3-2.4s-1-2.4-2.3-2.4-2.3 1-2.3 2.4 1 2.4 2.3 2.4zm4.9 1v-6.8h2.1c1.9 0 2.5.9 2.5 2.1 0 1.2-.7 1.7-1.3 1.9l2.1 2.8h-1.4l-1.9-2.5h-.8v2.5h-1.3zm1.2-5.7v2h.8c.7 0 1.3-.3 1.3-1 0-.5-.3-1-1.3-1h-.8zm5.2-1.1h3.9V46h-2.7v1.7h2.4v1.1h-2.4v1.8h2.8v1.1h-4v-6.8zm5.8 5.3c.4 0 .7.4.7.7 0 .4-.3.8-.7.8-.5 0-.8-.4-.8-.8.1-.3.4-.7.8-.7zm2.1 1.5v-6.8h2.1c1.9 0 2.5.9 2.5 2.1 0 1.2-.7 1.7-1.3 1.9l2.1 2.8h-1.4l-1.9-2.5h-.8v2.5h-1.3zm1.2-5.7v2h.8c.7 0 1.3-.3 1.3-1 0-.5-.3-1-1.3-1h-.8zm10.7 2.9c0 2.1-1.3 2.9-2.7 2.9-1.7 0-2.9-1-2.9-3v-3.9h1.2v3.7c0 1.3.5 2.1 1.7 2.1 1 0 1.5-.7 1.5-2V45h1.2v3.9z" fill="#394791"/></svg>