<svg width="746" height="100" xmlns="http://www.w3.org/2000/svg"><path d="M259.09 59.097v22.721h7.543c3.95 0 7.972-2.619 9.456-5.676 1.175-2.424 1.981-7.182-.109-11.637-2.756-5.87-8.778-5.341-9.353-5.414h-7.536v.006zm0-40.915v18.182h6.05c3.2 0 5.581-2.088 6.69-4.538.88-1.945 1.513-5.752-.088-9.306-1.934-4.307-5.685-4.296-6.568-4.338h-6.083zM209.09 0s65.761.016 77 .011c21.469-.022 26.524 16.634 26.56 26.408.064 17.566-11.847 21.88-11.847 21.88s12.833 5.005 12.833 23.725c0 29.163-25.878 27.97-29.883 27.97H209.09V0zm304.546 100V77.034H492.89V58.811h20.532V38.917H492.89V19.653h20.747V0h-68.181v100h68.181zm-125.682 0h48.41V0h-48.41v37.882h-15.695V0h-49.532v100h49.532V57.978h15.695V100zm-183.409 0V77.034h-20.747V58.811h20.527V38.917h-20.527V19.653h20.747V0h-68.181v100h68.181zM77.273 0h50v100h-50V0zm-4.546 100V72.396H50.79V0H0v100h72.727zm495.455-81.818v22.727h6.275c6.797 0 9.212-2.905 10.704-5.973 1.184-2.433 1.973-6.825.005-11.327-1.08-2.448-3.912-5.422-10.71-5.422h-6.274v-.005zM522.727.01l75.02-.01c23.51 0 32.396 15.787 32.396 29.41 0 23.202-21.047 27.353-21.047 27.353L636.364 100H581.51l-11.791-28.72.022 28.72h-47.014V.011zm154.546 18.17v22.73h6.28c6.808 0 9.217-2.905 10.697-5.973 1.184-2.433 1.98-6.825 0-11.327-1.068-2.448-3.889-5.422-10.703-5.422h-6.274v-.005zM631.818.012L706.834 0c23.517 0 32.405 15.787 32.405 29.41 0 23.202-21.049 27.353-21.049 27.353L745.455 100H690.6l-11.787-28.72.017 28.72h-47.013V.011z" fill="#9E9E9E" opacity=".119"/></svg>