<svg xmlns="http://www.w3.org/2000/svg" width="148" height="148" viewBox="0 0 148 148"><path fill="#C00" d="M129.186 115.595l-24.984-24.983c-.132-.133-.288-.225-.427-.35a47.046 47.046 0 007.785-25.981C111.56 38.168 90.392 17 64.28 17 38.168 17 17 38.168 17 64.28c0 26.112 21.168 47.28 47.28 47.28 9.6 0 18.525-2.869 25.982-7.785.124.138.216.294.349.427l24.983 24.984a9.61 9.61 0 0013.591-13.59zm-65.227-20.97c-16.938 0-30.667-13.73-30.667-30.666 0-16.938 13.73-30.667 30.667-30.667 16.936 0 30.666 13.73 30.666 30.667 0 16.936-13.73 30.666-30.666 30.666z"/></svg>