<svg xmlns="http://www.w3.org/2000/svg" width="39" height="39"><g fill="none" fill-rule="evenodd"><path stroke="#31B64B" stroke-width="2" d="M7.314 7.78a9 9 0 0 0-4.767 11.8l5.232 12.327a9 9 0 0 0 11.801 4.768l12.327-5.232a9 9 0 0 0 4.768-11.802L31.442 7.315a9 9 0 0 0-11.8-4.768L7.313 7.779z"/><path fill="#31B64B" d="M6.267 23.13v-7.304H7.75l3.423 4.497v-4.497h1.586v7.304H11.39l-3.538-4.644v4.644H6.267zm8.244 0v-7.304h5.51v1.43h-3.914v1.48h3.444v1.43h-3.444V21.7h3.966v1.43H14.51zm8.922.052l-2.494-7.356h1.721l1.513 4.946 1.639-4.967h1.377l1.638 4.967 1.513-4.946h1.68l-2.494 7.356h-1.398l-1.648-4.779-1.65 4.78h-1.397z"/></g></svg>