<svg xmlns="http://www.w3.org/2000/svg" viewBox="0 0 24 24"><path d="M22 24H2c-1.1 0-2-.9-2-2V2C0 .9.9 0 2 0h20c1.1 0 2 .9 2 2v20c0 1.1-.9 2-2 2z" fill-rule="evenodd" clip-rule="evenodd" fill="#eb722e"/><path d="M11.7 6.5c-.9 0-1.7.8-1.7 1.7 0 .9.8 1.7 1.7 1.7.9 0 1.7-.8 1.7-1.7 0-.9-.8-1.7-1.7-1.7zm0 5.8c-2.2 0-4.1-1.8-4.1-4.1s1.8-4.1 4.1-4.1 4.1 1.8 4.1 4.1c-.1 2.3-1.9 4.1-4.1 4.1zM10 15.6c-.8-.2-1.6-.5-2.4-1-.6-.4-.7-1.1-.4-1.6s1.1-.7 1.6-.4c1.7 1.1 3.8 1.1 5.5 0 .6-.4 1.3-.2 1.6.4.4.6.2 1.3-.4 1.6-.7.5-1.5.8-2.4 1l2.3 2.3c.5.5.5 1.2 0 1.7s-1.2.5-1.7 0l-2.2-2.2-2.2 2.2c-.5.5-1.2.5-1.7 0s-.5-1.2 0-1.7l2.4-2.3" fill-rule="evenodd" clip-rule="evenodd" fill="#fff"/></svg>