<svg xmlns="http://www.w3.org/2000/svg" viewBox="0 0 36 44"><defs><style>.cls-1{fill:#294d99}</style></defs><g id="Слой_2" data-name="Слой 2"><g id="vzug_logo" data-name="vzug logo"><path class="cls-1" d="M27.36 21.83a6.27 6.27 0 0 1-.65 2.78 7.81 7.81 0 0 0-.79 3.39v12.33a2.18 2.18 0 0 1-2.16 2.2H5a2.18 2.18 0 0 1-2.16-2.2V28a7.81 7.81 0 0 0-.79-3.43 6.27 6.27 0 0 1-.65-2.78V6.6a2.19 2.19 0 0 1 2.2-2.2h.72V2.93H3.6A3.65 3.65 0 0 0 0 6.6v15.23a7.71 7.71 0 0 0 .8 3.43A6.36 6.36 0 0 1 1.44 28v12.33A3.63 3.63 0 0 0 5 44h18.76a3.63 3.63 0 0 0 3.6-3.67V28a6.21 6.21 0 0 1 .64-2.74 7.84 7.84 0 0 0 .79-3.43v-1.3h-1.43z"/><path class="cls-1" d="M15.12 24.2h-1.44a2.2 2.2 0 0 0 0 4.4h1.44a2.2 2.2 0 0 0 0-4.4zm0 2.93h-1.44a.73.73 0 0 1 0-1.46h1.44a.73.73 0 0 1 0 1.46zm7.2-2.93h-1.44a2.2 2.2 0 0 0 0 4.4h1.44a2.2 2.2 0 0 0 0-4.4zm0 2.93h-1.44a.73.73 0 0 1 0-1.46h1.44a.73.73 0 0 1 0 1.46zM7.92 24.2H6.48a2.2 2.2 0 0 0 0 4.4h1.44a2.2 2.2 0 0 0 0-4.4zm0 2.93H6.48a.73.73 0 0 1 0-1.46h1.44a.73.73 0 0 1 0 1.46zm7.2 2.94h-1.44a2.2 2.2 0 0 0 0 4.4h1.44a2.2 2.2 0 0 0 0-4.4zm0 2.93h-1.44a.74.74 0 0 1 0-1.47h1.44a.74.74 0 0 1 0 1.47zm7.2-2.93h-1.44a2.2 2.2 0 0 0 0 4.4h1.44a2.2 2.2 0 0 0 0-4.4zm0 2.93h-1.44a.74.74 0 0 1 0-1.47h1.44a.74.74 0 0 1 0 1.47zm-14.4-2.93H6.48a2.2 2.2 0 0 0 0 4.4h1.44a2.2 2.2 0 0 0 0-4.4zm0 2.93H6.48a.74.74 0 0 1 0-1.47h1.44a.74.74 0 0 1 0 1.47zm7.2 2.93h-1.44a2.2 2.2 0 0 0 0 4.4h1.44a2.2 2.2 0 0 0 0-4.4zm0 2.94h-1.44a.74.74 0 0 1 0-1.47h1.44a.74.74 0 0 1 0 1.47zm7.2-2.94h-1.44a2.2 2.2 0 0 0 0 4.4h1.44a2.2 2.2 0 0 0 0-4.4zm0 2.94h-1.44a.74.74 0 0 1 0-1.47h1.44a.74.74 0 0 1 0 1.47zm-14.4-2.94H6.48a2.2 2.2 0 0 0 0 4.4h1.44a2.2 2.2 0 0 0 0-4.4zm0 2.94H6.48a.74.74 0 0 1 0-1.47h1.44a.74.74 0 0 1 0 1.47zM4.68 7.43L4 6.16a2.22 2.22 0 0 0-1.12 1.91V19.8A2.19 2.19 0 0 0 5 22h18.76a2.16 2.16 0 0 0 1.87-1.1l-1.24-.73a.73.73 0 0 1-.63.36H5a.72.72 0 0 1-.72-.73V8.07a.74.74 0 0 1 .4-.64z"/><path class="cls-1" d="M32.4 0h-23a3.63 3.63 0 0 0-3.6 3.67V15.4a3.65 3.65 0 0 0 3.6 3.67h23A3.65 3.65 0 0 0 36 15.4V3.67A3.63 3.63 0 0 0 32.4 0zm2.16 15.4a2.19 2.19 0 0 1-2.16 2.2h-23a2.19 2.19 0 0 1-2.2-2.2V3.67a2.18 2.18 0 0 1 2.16-2.2h23a2.18 2.18 0 0 1 2.16 2.2zM13 3.67a.73.73 0 0 0-.72-.74H9.36a.73.73 0 0 0-.72.74V6.6a.72.72 0 0 0 .72.73h2.88A.72.72 0 0 0 13 6.6zm-1.44 2.2h-1.48V4.4h1.44zM8.64 8.8h2.88v1.47H8.64zm0 2.93h2.88v1.47H8.64zM13 8.8h2.88v1.47H13zm4.32 0h2.88v1.47h-2.92zm4.32 0h2.88v1.47H21.6zm4.32 0h2.84v1.47h-2.88zm4.32 0h2.88v1.47h-2.92zM31 3.67h1.4v1.46H31zm-2.88 0h1.44v1.46h-1.48zm-2.88 0h1.44v1.46H25.2zm-2.88 0h1.44v1.46h-1.48zM31 11.73a2.15 2.15 0 0 0-1.44.58 2.13 2.13 0 0 0-3 .09 2.21 2.21 0 0 0 0 3.06 2.12 2.12 0 0 0 3 .1 2.14 2.14 0 0 0 2.6.24 2.22 2.22 0 0 0 .93-2.48A2.18 2.18 0 0 0 31 11.73zm-2.88 2.94a.74.74 0 1 1 .72-.74.73.73 0 0 1-.76.74zm2.88 0a.74.74 0 1 1 .72-.74.73.73 0 0 1-.72.74z"/></g></g></svg>