<svg xmlns="http://www.w3.org/2000/svg" viewBox="0 0 44 44"><g data-name="Слой 2"><path d="M42.53 44V30.83a6.59 6.59 0 0 0-1.63-4.34l-5.7-6.26v7.33l4.92 4.92-1 1-7.7-7.7a1.86 1.86 0 0 0-2.63 2.63L35 34.68a.74.74 0 0 1 .13.85l-.43.86a8.08 8.08 0 0 0-.28 6.6.67.67 0 0 1 .06.28V44H33v-.32a3.54 3.54 0 0 1-1.47.32H12.47a3.67 3.67 0 0 1-3.67-3.67V30.8h1.47v5.87H33a9.7 9.7 0 0 1 .41-.93l.19-.4-5.86-5.85c-.06-.07-.1-.13-.15-.2a3 3 0 0 1-.43 0H3.67A3.66 3.66 0 0 1 0 25.67v-13.2A3.67 3.67 0 0 1 3.67 8.8h23.46a3.67 3.67 0 0 1 3.67 3.67V23.9a3.31 3.31 0 0 1 1.62.88l1.31 1.32V5.87H10.27v1.46H8.8V3.67A3.67 3.67 0 0 1 12.47 0h19.06a3.67 3.67 0 0 1 3.67 3.67v14.38l6.8 7.46a8.06 8.06 0 0 1 2 5.32V44zm-10-5.87H10.27v2.2a2.19 2.19 0 0 0 2.2 2.2h19.06a2.15 2.15 0 0 0 1.11-.3 9.61 9.61 0 0 1-.07-4.1zm-3.2-25.66a2.19 2.19 0 0 0-2.2-2.2H3.67a2.19 2.19 0 0 0-2.2 2.2v13.2a2.2 2.2 0 0 0 2.2 2.2h23.16A3.33 3.33 0 0 1 27 26a2.17 2.17 0 0 1-2.76-.14 2.2 2.2 0 1 1 0-3.26 2.19 2.19 0 0 1 3.67 1.63 2.16 2.16 0 0 1-.07.51 3.34 3.34 0 0 1 1.53-.81zM26.4 24.2a.74.74 0 1 0-.73.73.73.73 0 0 0 .73-.73zm-2.93 0a.74.74 0 1 0-.74.73.73.73 0 0 0 .74-.73zM33.73 3.67a2.19 2.19 0 0 0-2.2-2.2H12.47a2.19 2.19 0 0 0-2.2 2.2v.73h23.46zm-8.06 8.8h1.46v1.46h-1.46zm-4.4 6.6h2.93v1.46h-2.93zm1.46-6.6h1.47v1.46h-1.47zm-2.93 0h1.47v1.46H19.8zm-2.93 0h1.46v1.46h-1.46zm0 6.6h2.93v1.46h-2.93zm2.2 5.13h-2.94v-1.47h2.94zm-6.6-5.13h2.93v1.46h-2.93zm-4.4 0H11v1.46H8.07zm0-1.47h-4.4a.74.74 0 0 1-.74-.73v-4.4a.74.74 0 0 1 .74-.74h4.4a.74.74 0 0 1 .73.74v4.4a.73.73 0 0 1-.73.73zm-.74-4.4H4.4v2.93h2.93zm-.73 7.33H3.67v-1.46H6.6zm0 3.67H3.67v-1.47H6.6zm14.67 15.4h1.46v1.47h-1.46z" fill="#294d99" fill-rule="evenodd" data-name="vzug logo"/></g></svg>