<svg xmlns="http://www.w3.org/2000/svg" width="32" height="24"><defs><clipPath id="a"><path fill="#fff" d="M5.28 22h22a1 1 0 010 2h-22a1 1 0 010-2zm4-13v10h3V9zm5 0v10h4V9zm6 0v10h3V9zm6 11a1 1 0 01-1 1h-18a1 1 0 010-2V9h-.5a.5.5 0 010-1h19a.5.5 0 010 1h-.5v10a1 1 0 011 1zM16.276 0l16 7.09h-32z"/></clipPath></defs><g opacity=".48"><path fill="#666" d="M5.28 22h22a1 1 0 010 2h-22a1 1 0 010-2zm4-13v10h3V9zm5 0v10h4V9zm6 0v10h3V9zm6 11a1 1 0 01-1 1h-18a1 1 0 010-2V9h-.5a.5.5 0 010-1h19a.5.5 0 010 1h-.5v10a1 1 0 011 1zM16.276 0l16 7.09h-32z"/><path fill="none" stroke="#666" stroke-miterlimit="50" stroke-width="2" d="M5.28 22h22a1 1 0 010 2h-22a1 1 0 010-2zm4-13v10h3V9zm5 0v10h4V9zm6 0v10h3V9zm6 11a1 1 0 01-1 1h-18a1 1 0 010-2V9h-.5a.5.5 0 010-1h19a.5.5 0 010 1h-.5v10a1 1 0 011 1zM16.276 0l16 7.09h-32z" clip-path="url(&quot;#a&quot;)"/></g></svg>