<svg xmlns="http://www.w3.org/2000/svg" width="23" height="24" viewBox="0 0 23 24"><path fill="#666" d="M0 22l19-.003C19 23.18 18.183 24 17 24H2c-1.184 0-2-.82-2-2zm17-10c1.183 0 2 .739 2 1.922V20H0v-6.078C0 12.74.817 12 2 12h15zm5.1-.748c.837.837.821 2.193-.015 3.032L20 16v-2.078l.988-.922c.423-.423.146-.855 0-1L10.364 1.743a.563.563 0 00-.404-.163.58.58 0 00-.403.173l-3.298 3.31L12 11.039H9l-4.491-4.22-.769.745a.595.595 0 000 .827L6 11.038H4L2.628 9.502a2.174 2.174 0 010-3.058L8.445.628A2.137 2.137 0 019.96 0c.549 0 1.097.21 1.516.628z" opacity=".48"/></svg>