<svg xmlns="http://www.w3.org/2000/svg" width="28" height="28"><g fill="#666" fill-rule="evenodd" opacity=".479"><path d="M19.276.372l.02.033.003-.001 3 5.196-.005-.002 3.482 6.032-1.308.755a2.02 2.02 0 00-.244-.015h-3.038l.219-.818c-.038-.042-.08-.078-.117-.12l-.05-.068a1.297 1.297 0 01.474-1.773.613.613 0 01.159-.057l.08-.023.459-1.712-1.482-2.566-1.707-.457-.12.116-.069.05a1.297 1.297 0 01-1.773-.474l-.035-.078-.045-.162-1.763-.473L5.087 9.72l-.472 1.764c.037.042.08.078.116.12l.05.069c.131.226.186.475.173.717a2 2 0 00-1.73 1.981l-.001 2.197-3-5.195 19.053-11zM16.464 9.5c.509.88.537 1.92.172 2.87H9.15c-.201-1.45.595-3.03 2.101-3.9 1.913-1.105 4.248-.644 5.214 1.03zm3.464-2A1.5 1.5 0 1117.332 9a1.5 1.5 0 012.596-1.5z"/><path d="M5.224 27.37v-13h22v.038h.003v6l-.003-.003v6.965h-22zm16.965-12H10.262L8.97 16.662c.011.055.03.107.04.162l.01.085c0 .717-.58 1.298-1.297 1.298-.088 0-.165-.033-.248-.05l-1.252 1.251v2.961l1.253 1.253c.055-.01.107-.029.162-.04l.085-.009c.717 0 1.298.58 1.298 1.297a.428.428 0 01-.01.085l-.04.163 1.252 1.252h12l1.253-1.253c-.012-.055-.03-.108-.042-.162l-.01-.085c0-.717.58-1.298 1.299-1.298.088 0 .164.033.247.05l1.253-1.253v-2.963l-1.25-1.25c-.056.011-.108.03-.162.04l-.085.01c-.718 0-1.299-.58-1.299-1.297 0-.088.033-.165.051-.248l-1.29-1.291zm-5.965 2c2.209 0 4 1.567 4 3.5 0 1.934-1.791 3.5-4 3.5-2.21 0-4-1.566-4-3.5 0-1.933 1.79-3.5 4-3.5zm6.5 2a1.5 1.5 0 110 3 1.5 1.5 0 010-3zm-13 0a1.5 1.5 0 110 3 1.5 1.5 0 010-3z"/></g></svg>