<svg width="32" height="32" xmlns="http://www.w3.org/2000/svg"><path d="M16 32c8.837 0 16-7.163 16-16S24.837 0 16 0 0 7.163 0 16s7.163 16 16 16z" fill="#394791" fill-opacity=".549"/><path d="M16.001 5.333h-.002q-.066 0-.13.013t-.125.038q-.06.025-.115.062-.054.036-.1.082-.047.047-.083.101-.037.055-.062.115-.025.06-.038.125-.013.064-.013.13v9.335H6q-.066 0-.13.013-.064.012-.125.038-.06.025-.115.061-.054.036-.1.083-.047.046-.083.1-.037.055-.062.116-.025.06-.038.125-.013.064-.013.13v.002q0 .065.013.13.013.064.038.124t.062.115q.036.055.082.101.047.047.101.083.055.036.115.062.06.025.125.037.064.013.13.013h9.334v9.334q0 .066.013.13t.038.125q.025.06.062.115.036.054.082.1.047.047.101.083.055.037.115.062.06.025.125.038.064.013.13.013h.002q.066 0 .13-.013t.125-.038q.06-.025.115-.062.054-.036.1-.082.047-.047.083-.101.037-.055.062-.115.025-.06.038-.125.013-.064.013-.13v-9.334h9.335q.066 0 .13-.013.064-.012.125-.037.06-.026.115-.062.054-.036.1-.083.047-.046.084-.1.036-.055.061-.116.025-.06.038-.125.013-.064.013-.13V16q0-.066-.013-.13-.013-.065-.038-.125t-.061-.115q-.037-.055-.083-.101-.047-.047-.101-.083-.055-.036-.115-.061-.06-.026-.125-.038-.064-.013-.13-.013h-9.335V5.999q0-.066-.013-.13t-.038-.125q-.025-.06-.062-.115-.036-.054-.082-.1-.047-.047-.101-.083-.055-.037-.115-.062-.06-.025-.125-.038-.064-.013-.13-.013z" fill="#FFF" fill-rule="evenodd"/></svg>