<svg xmlns="http://www.w3.org/2000/svg" width="39" height="39"><g fill="none" fill-rule="evenodd"><path stroke="#D0021B" stroke-width="2" d="M7.314 7.78a9 9 0 00-4.767 11.8l5.232 12.327a9 9 0 0011.801 4.768l12.327-5.232a9 9 0 004.768-11.802L31.442 7.315a9 9 0 00-11.8-4.768L7.313 7.779z"/><path fill="#D0021B" d="M15.894 19.321c-.99 0-1.797-.34-2.418-1.02-.622-.681-.932-1.524-.932-2.529 0-1.004.317-1.847.952-2.527.634-.681 1.447-1.021 2.438-1.021.991 0 1.798.34 2.419 1.02.621.681.932 1.524.932 2.528 0 .992-.317 1.831-.952 2.518-.634.688-1.447 1.031-2.439 1.031zm-1.962 6.94l10.13-13.879h2.36L16.291 26.26h-2.36zm10.488.158c-.992 0-1.798-.34-2.42-1.021-.62-.68-.93-1.523-.93-2.528 0-1.004.316-1.847.95-2.528.635-.68 1.448-1.02 2.44-1.02.99 0 1.797.34 2.418 1.02.621.681.932 1.524.932 2.528 0 .991-.317 1.83-.952 2.518-.634.687-1.447 1.031-2.438 1.031zm-8.486-8.902c.397 0 .707-.168.932-.505.225-.338.337-.75.337-1.24 0-.475-.122-.885-.367-1.229-.244-.343-.558-.515-.942-.515-.396 0-.707.165-.931.495-.225.33-.337.747-.337 1.25 0 .475.122.885.366 1.229.245.343.559.515.942.515zm8.525 7.098c.397 0 .707-.169.932-.506.225-.337.337-.75.337-1.239 0-.476-.122-.885-.367-1.23-.244-.343-.558-.515-.941-.515-.397 0-.707.166-.932.496-.225.33-.337.747-.337 1.25 0 .475.122.885.367 1.228.244.344.558.516.941.516z"/></g></svg>