<svg width="16" height="14" viewBox="0 0 16 14" xmlns="http://www.w3.org/2000/svg" xmlns:xlink="http://www.w3.org/1999/xlink"><g id="Page-1" stroke="none" stroke-width="1" fill="none" fill-rule="evenodd"><g id="02---02---Карточка_desktop" transform="translate(-157 -1127)" fill="#394791"><g id="список-характеристик" transform="translate(132 968)"><g id="Group-5" transform="translate(25 86)"><path d="M1.795 77h12.41c.624 0 .85.065 1.079.187.228.122.407.301.529.53.122.227.187.454.187 1.078v6.41c0 .624-.065.85-.187 1.079a1.272 1.272 0 01-.53.529c-.227.122-.454.187-1.078.187H1.795c-.624 0-.85-.065-1.079-.187a1.272 1.272 0 01-.529-.53C.065 86.057 0 85.83 0 85.206v-6.41c0-.624.065-.85.187-1.079a1.27 1.27 0 01.53-.529c.227-.122.454-.187 1.078-.187zm.705-2h11a.995.995 0 01.863.495c.087.148.137.32.137.505h-13a.995.995 0 01.495-.863A.995.995 0 012.5 75zM4 73h8a.995.995 0 01.863.495c.087.148.137.32.137.505H3a.995.995 0 01.495-.863A.995.995 0 014 73z" id="Style"/></g></g></g></g></svg>