<svg xmlns="http://www.w3.org/2000/svg" viewBox="0 0 24 24"><path d="M22 24H2c-1.1 0-2-.9-2-2V2C0 .9.9 0 2 0h20c1.1 0 2 .9 2 2v20c0 1.1-.9 2-2 2z" fill-rule="evenodd" clip-rule="evenodd" fill="#00aced"/><path d="M20 7.5c-.6.3-1.2.4-1.9.5.7-.4 1.2-1.1 1.4-1.8-.6.4-1.3.7-2.1.8-1.2-1.3-3.3-1.4-4.6-.2-.9.8-1.2 2-1 3.1-2.6 0-5-1.2-6.7-3.3-.9 1.5-.4 3.4 1 4.4-.5 0-1-.2-1.5-.4 0 1.6 1.1 2.9 2.6 3.2-.5.1-1 .1-1.5.1.4 1.3 1.7 2.3 3.1 2.3a6.62 6.62 0 01-4.9 1.4c1.5 1 3.2 1.5 5 1.5 6 0 9.3-5 9.3-9.3v-.4c.8-.6 1.4-1.2 1.8-1.9z" fill-rule="evenodd" clip-rule="evenodd" fill="#fff"/></svg>