<svg xmlns="http://www.w3.org/2000/svg" xmlns:xlink="http://www.w3.org/1999/xlink" width="122" height="53" viewBox="0 0 122 53"><defs><path id="vestfrost-store.ru-a" d="M.105.242h3.578v3.599H.105z"/><path id="vestfrost-store.ru-c" d="M0 0h18.356v18.356H0z"/></defs><g fill="none" fill-rule="evenodd"><path fill="#9B9B9B" fill-rule="nonzero" d="M1.9 1l3 7.5 3-7.5h1.7v9.2H8.4V6.6l.1-3.9-3 7.5h-.9l-3-7.5.1 3.9v3.6H.5V1h1.4zm15 6.8H13l-.9 2.4h-1.3L14.3 1h1.1l3.5 9.2h-1.3l-.7-2.4zm-3.5-1h3.2L15 2.5l-1.6 4.3zM26 2h-4.4v8.2h-1.2V1h5.7L26 2zm5.4 5.8h-3.9l-.9 2.4h-1.3L28.8 1h1.1l3.5 9.2h-1.3l-.7-2.4zm-3.5-1H31l-1.6-4.3-1.5 4.3zm11.6-3.3c0-.5-.2-.9-.5-1.2-.4-.3-.9-.4-1.5-.4-.5 0-1 .1-1.4.4-.3.3-.5.7-.5 1.1h-1.2c0-.5.1-.9.4-1.3.3-.4.6-.7 1.1-.9.5-.2 1-.3 1.6-.3 1 0 1.8.2 2.4.7.6.5.9 1.1.9 1.9 0 .4-.1.8-.4 1.2-.3.4-.6.6-1.1.8 1.1.4 1.6 1.1 1.6 2.2 0 .8-.3 1.5-.9 2-.6.5-1.4.7-2.5.7-.6 0-1.2-.1-1.7-.3-.5-.2-.9-.5-1.2-.9-.3-.4-.4-.9-.4-1.4h1.2c0 .5.2.9.6 1.2.4.3.9.5 1.5.5.7 0 1.2-.2 1.6-.5.4-.3.6-.7.6-1.2 0-1.1-.7-1.6-2-1.7h-1.1v-1h1c.6 0 1.1-.2 1.4-.4.4-.4.5-.7.5-1.2zM48.3 1h1.2v9.2h-1.2V3.1l-4.6 7.1h-1.2V1h1.2v7.1L48.3 1zm10.6 9.2h-1.3V5.9h-4.7v4.3h-1.2V1h1.2v4h4.7V1h1.2l.1 9.2zM70.4 2h-3v8.2h-1.2V2h-3V1h7.1l.1 1zM77 6h-4v3.3h4.7v1h-5.9V1h5.8v1H73v3h4v1zm5.2-1.5L84.4 1h1.4l-2.9 4.6 3 4.7h-1.4l-2.3-3.6-2.3 3.6h-1.4l3-4.7L78.6 1H80l2.2 3.5zm12.2 5.7h-1.2V5.9h-4.7v4.3h-1.2V1h1.2v4h4.7V1h1.2v9.2zm8-9.2h1.2v9.2h-1.2V3.1l-4.6 7.1h-1.2V1h1.2v7.1l4.6-7.1zm5.8 5.1h-1.1v4.2h-1.2V1h1.2v4.1h1l3.2-4.1h1.5l-3.5 4.5 3.8 4.8h-1.5l-3.4-4.2zM120 1h1.2v9.2H120V3.1l-4.6 7.1h-1.2V1h1.2v7.1L120 1z"/><path fill="#394791" fill-rule="nonzero" d="M14 17.5h4.5l-7 20.5h-4l-7-20.5h4.6l4.5 15.6L14 17.5zm15 5.7c1.1.5 1.9 1.2 2.6 2.2.6.9 1 1.9 1.2 3.1.1.7.2 1.7.1 3h-11c.1 1.5.6 2.6 1.6 3.2.6.4 1.3.6 2.2.6.9 0 1.6-.2 2.2-.7.3-.3.6-.6.8-1h4c-.1.9-.6 1.8-1.5 2.7-1.4 1.5-3.3 2.2-5.7 2.2-2 0-3.8-.6-5.3-1.9-1.5-1.2-2.3-3.3-2.3-6.1 0-2.6.7-4.6 2.1-6 1.4-1.4 3.2-2.1 5.4-2.1 1.4.1 2.6.3 3.6.8zm-5.9 3.4c-.6.6-.9 1.4-1.1 2.3h6.8c-.1-1.1-.4-1.9-1.1-2.4-.6-.5-1.4-.8-2.4-.8-.9.1-1.6.3-2.2.9zm15 6.6c.1.7.3 1.2.5 1.5.5.5 1.4.8 2.7.8.8 0 1.4-.1 1.9-.3.5-.2.7-.6.7-1s-.2-.8-.6-1c-.4-.2-1.8-.6-4.1-1.2-1.7-.4-2.9-1-3.6-1.6-.7-.6-1.1-1.5-1.1-2.7 0-1.4.6-2.6 1.7-3.6s2.7-1.5 4.6-1.5c1.9 0 3.4.4 4.6 1.1 1.2.8 1.9 2.1 2.1 3.9h-4c-.1-.5-.2-.9-.4-1.2-.4-.5-1.2-.8-2.2-.8-.9 0-1.5.1-1.8.4-.4.3-.6.6-.6.9 0 .5.2.8.6 1 .4.2 1.8.6 4.1 1.1 1.6.4 2.8.9 3.6 1.7.8.8 1.2 1.7 1.2 2.9 0 1.5-.6 2.7-1.7 3.7s-2.9 1.4-5.2 1.4c-2.4 0-4.2-.5-5.3-1.5-1.1-1-1.7-2.3-1.7-3.8h4v-.2zm11.2-7.4V23h2.1v-4.2h3.9V23h2.5v2.8h-2.5v8c0 .6.1 1 .2 1.2.2.2.6.2 1.4.2h.8v3l-1.9.1c-1.9.1-3.2-.3-3.8-1-.4-.5-.7-1.2-.7-2.1v-9.3h-2v-.1zm17.3-8.4c.2 0 .5 0 .8.1v3.2c-.2 0-.6 0-1.1-.1-.5 0-.9.1-1.1.3-.2.2-.3.5-.3.8V23h2.6v2.8h-2.6V38H61V25.8h-2.2V23H61v-1c0-1.6.3-2.7.8-3.4.6-.9 2-1.4 4.2-1.4.2.1.4.1.6.2zm11.6 5.1h.3v4.1c-.3 0-.5 0-.7-.1h-.5c-1.6 0-2.7.5-3.2 1.6-.3.6-.5 1.5-.5 2.7V38h-4V22.9h4v2.6c.6-1 1.1-1.7 1.6-2.1.7-.6 1.7-.9 3-.9zm23.2 10.7c.1.7.3 1.2.5 1.5.5.5 1.4.8 2.7.8.8 0 1.4-.1 1.9-.3.5-.2.7-.6.7-1s-.2-.8-.6-1c-.4-.2-1.8-.6-4.1-1.2-1.7-.4-2.9-1-3.6-1.6-.7-.6-1.1-1.5-1.1-2.7 0-1.4.6-2.6 1.7-3.6s2.7-1.5 4.7-1.5c1.9 0 3.4.4 4.6 1.1 1.2.8 1.9 2.1 2.1 3.9h-4c-.1-.5-.2-.9-.4-1.2-.4-.5-1.2-.8-2.2-.8-.9 0-1.5.1-1.8.4-.4.3-.6.6-.6.9 0 .5.2.8.6 1 .4.2 1.8.6 4.1 1.1 1.6.4 2.8.9 3.6 1.7.8.8 1.2 1.7 1.2 2.9 0 1.5-.6 2.7-1.7 3.7s-2.9 1.4-5.2 1.4c-2.4 0-4.2-.5-5.3-1.5-1.1-1-1.7-2.3-1.7-3.8h3.9v-.2zm11.2-7.4V23h2.1v-4.2h3.9V23h2.5v2.8h-2.5v8c0 .6.1 1 .2 1.2.2.2.6.2 1.4.2h.8v3l-1.9.1c-1.9.1-3.2-.3-3.8-1-.4-.5-.7-1.2-.7-2.1v-9.3h-2v-.1zm2.8 19.7h5.8v7.3h-5.8v-7.3zM0 45.5h5.8v7.3H0v-7.3zm12.4 7.2h-.9l-2.8-6.8H10l2 5 1.9-5h1.2l-2.7 6.8zm3.6-6.8h4V47h-2.7v1.7h2.4v1.1h-2.4v1.8h2.8v1.1h-4l-.1-6.8zm5.3 1.8c0-1 .8-1.9 2.1-1.9.8 0 1.5.3 1.9.7l-.6.9c-.3-.3-.7-.5-1.2-.5-.6 0-1 .3-1 .7 0 1.4 3.1 1 3.1 3.2 0 1.1-1 1.9-2.3 1.9-.9 0-1.9-.4-2.2-1.1l.7-.8c.4.5 1 .8 1.6.8.6 0 1-.3 1-.8-.1-1.2-3.1-.9-3.1-3.1zm4.8-1.8h5.6V47h-2.2v5.7h-1.2V47h-2.2v-1.1zm6.7 0h3.9V47H34v1.9h2.4V50H34v2.6h-1.2v-6.7zm5.2 6.8v-6.8h2.1c1.9 0 2.5.9 2.5 2.1 0 1.2-.7 1.7-1.3 1.9l2.1 2.8H42l-2-2.5h-.8v2.5H38zm1.2-5.7v2h.8c.7 0 1.3-.3 1.3-1 0-.5-.3-1-1.3-1h-.8zm8.2-1.2c2 0 3.5 1.4 3.5 3.5 0 2-1.5 3.5-3.5 3.5s-3.5-1.4-3.5-3.5c0-2 1.4-3.5 3.5-3.5zm0 5.9c1.4 0 2.3-1 2.3-2.4s-1-2.4-2.3-2.4c-1.3 0-2.3 1-2.3 2.4s1 2.4 2.3 2.4zm4.6-4c0-1 .8-1.9 2.1-1.9.8 0 1.5.3 1.9.7l-.6.9c-.3-.3-.7-.5-1.2-.5-.6 0-.9.3-.9.7 0 1.4 3.1 1 3.1 3.2 0 1.1-1 1.9-2.3 1.9-.9 0-1.9-.4-2.2-1.1l.7-.8c.4.5 1 .8 1.6.8.6 0 1-.3 1-.8-.2-1.2-3.2-.9-3.2-3.1zm4.8-1.8h5.6V47h-2.2v5.7H59V47h-2.2v-1.1zm6.3 3.6h2.4v1h-2.4v-1zm3.7-1.8c0-1 .8-1.9 2.1-1.9.8 0 1.5.3 1.9.7l-.6.9c-.3-.3-.7-.5-1.2-.5-.6 0-.9.3-.9.7 0 1.4 3.1 1 3.1 3.2 0 1.1-1 1.9-2.3 1.9-.9 0-1.9-.4-2.2-1.1l.7-.8c.4.5 1 .8 1.6.8.6 0 1-.3 1-.8-.2-1.2-3.2-.9-3.2-3.1zm4.8-1.8h5.6V47H75v5.7h-1.2V47h-2.2v-1.1zm9.7-.1c2 0 3.5 1.4 3.5 3.5 0 2-1.5 3.5-3.5 3.5s-3.5-1.4-3.5-3.5c0-2 1.4-3.5 3.5-3.5zm0 5.9c1.4 0 2.3-1 2.3-2.4s-1-2.4-2.3-2.4c-1.3 0-2.3 1-2.3 2.4s1 2.4 2.3 2.4zm4.9 1v-6.8h2.1c1.9 0 2.5.9 2.5 2.1 0 1.2-.7 1.7-1.3 1.9l2.1 2.8h-1.4l-1.9-2.5h-.8v2.5h-1.3zm1.2-5.7v2h.8c.7 0 1.3-.3 1.3-1 0-.5-.3-1-1.3-1h-.8zm5.2-1.1h3.9V47h-2.7v1.7h2.4v1.1h-2.4v1.8h2.8v1.1h-4v-6.8zm5.8 5.3c.4 0 .7.4.7.7 0 .4-.3.8-.7.8-.5 0-.8-.4-.8-.8.1-.3.4-.7.8-.7zm2.1 1.5v-6.8h2.1c1.9 0 2.5.9 2.5 2.1 0 1.2-.7 1.7-1.3 1.9l2.1 2.8h-1.4l-1.9-2.5h-.8v2.5h-1.3zm1.2-5.7v2h.8c.7 0 1.3-.3 1.3-1 0-.5-.3-1-1.3-1h-.8zm10.7 2.9c0 2.1-1.3 2.9-2.7 2.9-1.7 0-2.9-1-2.9-3v-3.9h1.2v3.7c0 1.3.5 2.1 1.7 2.1 1 0 1.5-.7 1.5-2V46h1.2v3.9z"/><g transform="translate(79 19.032)"><mask id="vestfrost-store.ru-b" fill="#fff"><use xlink:href="#vestfrost-store.ru-a"/></mask><path fill="#AC0A15" d="M1.15 1.178a1.095 1.095 0 00-.109 1.562c.411.465 1.096.52 1.562.11.466-.412.52-1.097.11-1.562-.384-.439-1.097-.494-1.562-.11m1.918 2.22c-.74.657-1.89.575-2.521-.193A1.759 1.759 0 01.74.685a1.759 1.759 0 012.52.192 1.81 1.81 0 01-.191 2.52" mask="url(#vestfrost-store.ru-b)"/></g><path fill="#AC0A15" d="M80.753 19.964c.357-.055.74.082.987.383a1.093 1.093 0 01-.11 1.562c-.137.11-.274.192-.41.22.218-.028.41-.11.574-.247a1.095 1.095 0 00.11-1.562 1.118 1.118 0 00-1.15-.356m-.877-.302c.219-.191.465-.3.712-.383-.329.055-.63.192-.877.41-.74.658-.822 1.782-.192 2.521.466.521 1.179.74 1.809.576-.603.082-1.233-.11-1.644-.603-.63-.712-.548-1.863.192-2.52"/><path fill="#AC0A15" d="M80.26 19.388c.63-.137 1.315.055 1.754.576.657.74.575 1.89-.192 2.52a2.733 2.733 0 01-.52.33c.273-.056.547-.193.766-.384a1.81 1.81 0 00.192-2.521 1.81 1.81 0 00-2-.52m-.11.821c.083-.082.192-.137.302-.191-.192.027-.356.11-.52.246a1.095 1.095 0 00-.11 1.562c.329.383.85.493 1.288.301a1.067 1.067 0 01-1.042-.356c-.438-.438-.383-1.15.083-1.562"/><path fill="#AC0A15" d="M84.37 22.019c.11.11.192.246.246.356.33.575.33 1.287.055 1.863-.11.246-.301.466-.52.657a1.96 1.96 0 01-.74.411 2.152 2.152 0 01-1.863-.301c-.11-.082-.22-.192-.329-.301-.11-.11-.137-.22-.219-.357a2.08 2.08 0 01.082-2.11c.11-.164.22-.3.384-.41a1.93 1.93 0 01.602-.356 2.046 2.046 0 011.973.274.805.805 0 01.329.274"/><path fill="#AC0A15" d="M81.11 22.238l2.548 2.931-1.096.96-1.535-1.782a1.96 1.96 0 01.083-2.11m2.931-.52l1.534 1.781-.986.85-2.493-2.905a2.066 2.066 0 011.945.274"/><g transform="translate(79 20.402)"><mask id="vestfrost-store.ru-d" fill="#fff"><use xlink:href="#vestfrost-store.ru-c"/></mask><path fill="#C1000E" d="M9.178 0a9.178 9.178 0 110 18.357A9.178 9.178 0 019.178 0" mask="url(#vestfrost-store.ru-d)"/></g><path fill="#C1000E" d="M86.343 21.553c-.521-.082-.987.466-.987.959 0 .575.439.904.96.986 3.862.548 5.725 6.082 3.862 9.288-.63 1.068 1.041 2.082 1.671.986 2.658-4.52-.137-11.452-5.506-12.22m8.767 2.028c3.315 3.836 2.876 9.617-.932 12.932-1.89 1.644-4.274 2.356-6.575 2.219a9.163 9.163 0 003.26-1.808c3.836-3.315 4.247-9.096.932-12.932a9.024 9.024 0 00-6.357-3.15 9.138 9.138 0 019.672 2.74M83.384 34.84a.988.988 0 00-.11 1.37l.055.054a.988.988 0 001.37.11.988.988 0 00.11-1.37l-.056-.055c-.328-.41-.959-.466-1.37-.11m-.493-8.958c-1.315 2.054-1.397 5.315.22 7.232.794.96-.658 2.22-1.48 1.26-2.164-2.602-2.137-6.794-.356-9.56.685-1.07 2.301.026 1.616 1.068"/><path fill="#FFF" d="M85.082 33.553a.523.523 0 00-.74.082.523.523 0 00.083.74.524.524 0 00.74-.083c.191-.219.136-.547-.083-.74zm6.329-8.082c.22.191.575.137.74-.083a.524.524 0 00-.082-.74.523.523 0 00-.74.083c-.192.22-.137.548.082.74zm.986 7.945c.22.192.576.137.74-.082a.523.523 0 00-.082-.74.523.523 0 00-.74.082c-.192.247-.164.575.082.74zm-8.274-7.808a.523.523 0 00-.74.082.523.523 0 00.083.74c.219.191.575.136.74-.083.164-.219.136-.575-.083-.74zm3.644-.357h-.055l-.904-.794a.195.195 0 00-.301.027.195.195 0 00.027.302l1.069.959.082.602-.712-.63a.196.196 0 00-.302.028.196.196 0 00.028.301l1.068.96.247 2.109-1.672-1.316-.273-1.397c-.028-.11-.137-.192-.247-.164-.11.027-.192.137-.164.246l.164.932-.493-.384-.274-1.397c-.028-.11-.137-.192-.247-.164-.11.027-.192.137-.164.246l.219 1.178-.027.028-.028.027-1.205.055c-.11 0-.192.11-.192.219 0 .11.11.192.22.192l1.424-.082.493.383-.959.055c-.11 0-.192.11-.192.22 0 .109.11.19.22.19l1.424-.081 1.671 1.315-2.11.247-1.177-.795c-.083-.055-.22-.027-.274.055a.212.212 0 00.055.274l.794.548-.603.082-1.178-.795c-.082-.054-.219-.027-.274.055a.212.212 0 00.055.274l.986.685v.055l-.794.904a.196.196 0 00.027.301c.082.083.22.083.302-.027l.958-1.068.603-.083-.63.713a.195.195 0 00.027.3c.083.083.22.083.302-.026l.959-1.07 2.11-.245-1.316 1.67-1.397.275c-.11.027-.192.137-.164.246.027.11.137.192.246.165l.932-.165-.439.438-1.397.274c-.11.028-.192.137-.164.247.027.11.137.192.246.164l1.206-.218.082 1.232c0 .055.027.11.082.164a.208.208 0 00.137.055c.11 0 .192-.11.192-.219l-.082-1.425.383-.492.055.958c0 .055.027.11.082.165a.208.208 0 00.137.054c.11 0 .192-.11.192-.219l-.082-1.424 1.315-1.671.246 2.109-.794 1.178a.212.212 0 00.055.274c.082.055.219.027.274-.055l.548-.794.082.602-.795 1.178a.212.212 0 00.055.274c.082.055.22.028.274-.054l.685-1.014h.055l.931.822c.055.055.11.055.165.055.055 0 .082-.028.137-.055a.196.196 0 00-.028-.302l-1.068-.958-.082-.603.712.63c.055.055.11.055.164.055.055 0 .083-.028.137-.055a.196.196 0 00-.027-.301l-1.069-.96-.246-2.109 1.671 1.315.274 1.397c.027.11.137.193.247.165.11-.028.191-.137.164-.246l-.164-.932.493.384.274 1.397c.027.11.137.191.246.164.11-.027.192-.137.165-.247l-.22-1.205 1.233-.055a.15.15 0 00.137-.082.21.21 0 00.055-.137c0-.11-.11-.192-.219-.192l-1.425.083-.493-.384.96-.055a.15.15 0 00.136-.082.209.209 0 00.055-.137c0-.11-.11-.192-.22-.192l-1.424.082-1.671-1.315 2.11-.246 1.178.794c.082.055.219.028.273-.054.055-.083.028-.22-.054-.274l-.795-.548.603-.083 1.178.795c.082.055.22.027.274-.055a.212.212 0 00-.055-.274l-1.014-.685v-.055l.822-.931c.055-.055.055-.11.055-.165 0-.054-.027-.082-.055-.137a.195.195 0 00-.301.028l-.959 1.068-.603.083.63-.713a.384.384 0 00.055-.164c0-.055-.027-.082-.054-.137a.196.196 0 00-.302.027l-.959 1.069-2.11.246 1.316-1.671 1.397-.274c.11-.027.192-.137.164-.247-.027-.109-.137-.191-.246-.164l-.932.164.384-.493 1.397-.274c.11-.027.192-.137.164-.246-.027-.11-.136-.192-.246-.165l-1.178.22-.028-.028-.027-.027-.055-1.206c0-.11-.11-.192-.219-.192-.11 0-.192.11-.192.22l.082 1.424-.383.493-.055-.958c0-.11-.11-.192-.22-.192-.109 0-.19.11-.19.22l.081 1.424-1.315 1.67-.246-2.109.794-1.178a.212.212 0 00-.055-.274.212.212 0 00-.274.055l-.547.794-.083-.602.795-1.178a.212.212 0 00-.055-.274.212.212 0 00-.274.054l-.685.96zm.658 9.946a.521.521 0 00.575.465c.301-.027.493-.3.466-.602-.028-.302-.302-.494-.603-.466-.274.055-.493.329-.438.603zm-1.398-11.233a.521.521 0 00.576.465.521.521 0 00.466-.575c-.028-.301-.302-.493-.603-.466-.247 0-.466.274-.439.576zm-3.89 6.164c-.027-.301-.301-.493-.603-.465-.301.027-.493.3-.465.602.027.302.3.494.602.466a.514.514 0 00.466-.603zm10.685-1.835a.547.547 0 01.603.465c.027.302-.165.548-.466.576a.548.548 0 01-.603-.466c-.027-.274.165-.52.466-.575z"/></g></svg>