<svg version="1.1" id="Слой_1" xmlns="http://www.w3.org/2000/svg" xmlns:xlink="http://www.w3.org/1999/xlink" x="0" y="0" viewBox="0 0 24 24" xml:space="preserve"><path d="M22 24H2c-1.1 0-2-.9-2-2V2C0 .9.9 0 2 0h20c1.1 0 2 .9 2 2v20c0 1.1-.9 2-2 2z" fill-rule="evenodd" clip-rule="evenodd" fill="#48729e"/><path d="M12.8 16.2s.3 0 .4-.2c.1-.1.1-.4.1-.4s0-1.3.6-1.5c.6-.2 1.3 1.3 2.1 1.8.6.4 1.1.3 1.1.3h2.1s1.1-.1.6-1c0-.1-.3-.7-1.6-1.9-1.3-1.3-1.2-1.1.5-3.2 1-1.3 1.4-2.1 1.3-2.5-.1-.3-.8-.2-.8-.2h-2.4s-.2 0-.3.1c-.1.1-.2.3-.2.3s-.4 1-.9 1.9c-1.1 1.9-1.5 1.9-1.7 1.8-.4-.3-.3-1.1-.3-1.6 0-1.8.3-2.5-.5-2.7-.3-.1-.5-.2-1.2-.2-.9 0-1.6 0-2 .2-.3.1-.5.4-.4.5.2 0 .5.1.7.4.2.3.2 1.1.2 1.1s.1 2.1-.3 2.4c-.3.2-.8-.2-1.7-1.9-.5-.9-.8-1.9-.8-1.9l-.2-.2c-.2-.2-.4-.2-.4-.2H4.5s-.3 0-.5.2c-.1.1 0 .4 0 .4s1.8 4.3 3.8 6.4c1.9 2 4 1.8 4 1.8h1z" fill-rule="evenodd" clip-rule="evenodd" fill="#fff"/></svg>