<svg xmlns="http://www.w3.org/2000/svg" width="24" height="24"><g fill="none" fill-rule="evenodd"><path d="M0 0h24v24H0z"/><path fill="#394791" fill-rule="nonzero" d="M14.842 8.684a.474.474 0 1 0 0 .947.474.474 0 0 0 0-.947zm-5.684 5.684a.474.474 0 1 0 0 .947.474.474 0 0 0 0-.947z"/><path fill="#394791" fill-rule="nonzero" d="M20.563 5.163a.351.351 0 0 0-.329.095l-1.457 1.469h-.7l-.768-.797v-.71l1.436-1.458a.351.351 0 0 0-.138-.58A3.507 3.507 0 0 0 17.484 3a3.477 3.477 0 0 0-2.854 1.465 3.475 3.475 0 0 0-.542 2.962l-2.59 2.59-4.314-4.325v-.849a.351.351 0 0 0-.171-.301L4.527 3.05a.351.351 0 0 0-.43.053l-.994.994a.352.352 0 0 0-.053.43l1.492 2.486c.063.105.178.17.301.17h.849l4.314 4.325-2.58 2.58a3.477 3.477 0 0 0-2.962.543A3.475 3.475 0 0 0 3 17.484c0 .384.062.762.183 1.123a.351.351 0 0 0 .583.135l1.457-1.469h.703l.8.8v.703l-1.468 1.458a.352.352 0 0 0 .135.582c.36.122.739.184 1.123.184a3.476 3.476 0 0 0 2.853-1.464c.626-.872.82-1.94.543-2.963l2.072-2.072.475.516-.218.217a.352.352 0 1 0 .497.498l.198-.198 4.453 4.837.01.01a2.109 2.109 0 1 0 2.983-2.982l-.01-.01-4.845-4.445.195-.195a.351.351 0 1 0-.498-.498l-.216.217-.516-.474 2.082-2.082a3.52 3.52 0 0 0 4.243-4.519.351.351 0 0 0-.254-.23zM6.086 6.583a.348.348 0 0 0-.248-.1h-.796L3.795 4.4l.606-.606 2.08 1.248v.796a.35.35 0 0 0 .102.248l4.418 4.427-.497.498-4.418-4.427zm8.943 6.858l4.861 4.46a1.406 1.406 0 1 1-1.99 1.989l-4.467-4.853 1.596-1.596zm-.519-.476l-1.553 1.554-.475-.515 1.512-1.513.516.474zm2.974-3.637c-.307 0-.61-.05-.898-.147a.352.352 0 0 0-.36.085l-6.96 6.959a.351.351 0 0 0-.084.36 2.784 2.784 0 0 1-.384 2.54 2.78 2.78 0 0 1-2.589 1.155l1.117-1.108a.351.351 0 0 0 .104-.25v-.994a.352.352 0 0 0-.103-.249L6.32 16.673a.352.352 0 0 0-.248-.103h-.995a.352.352 0 0 0-.25.104L3.72 17.79a2.78 2.78 0 0 1 1.155-2.589 2.784 2.784 0 0 1 2.54-.384c.127.043.266.01.36-.085l6.96-6.958a.352.352 0 0 0 .084-.36 2.782 2.782 0 0 1 .383-2.54A2.78 2.78 0 0 1 17.8 3.721l-1.093 1.11a.351.351 0 0 0-.102.246v.995c0 .09.036.178.1.244l.97 1.006a.351.351 0 0 0 .253.108h.995a.351.351 0 0 0 .25-.104l1.107-1.117a2.816 2.816 0 0 1-2.796 3.119z"/><path fill="#394791" fill-rule="nonzero" d="M13.811 9.727l-4.084 4.084a.326.326 0 0 0 .462.462l4.084-4.084a.326.326 0 1 0-.462-.462zm4.707 9.278a.343.343 0 0 0 .487-.001.346.346 0 0 0 0-.488l-3.102-3.1a.343.343 0 0 0-.487.001.346.346 0 0 0 0 .488l3.102 3.1z"/></g></svg>