<svg xmlns="http://www.w3.org/2000/svg" width="160" height="106"><g fill="none" fill-rule="evenodd"><path d="M13.563 101.513l-8.382 4.419 1.59-9.379L0 89.905l9.365-1.378L13.563 80l4.198 8.527 9.365 1.378-6.771 6.648 1.591 9.379zm32.701 0l-8.383 4.419 1.591-9.379-6.771-6.648 9.365-1.378L46.264 80l4.198 8.527 9.365 1.378-6.771 6.648 1.59 9.379zm32.701 0l-8.383 4.419 1.591-9.379-6.772-6.648 9.366-1.378L78.965 80l4.197 8.527 9.366 1.378-6.771 6.648 1.59 9.379zm33.868 0l-8.382 4.419 1.59-9.379-6.771-6.648 9.366-1.378L112.833 80l4.198 8.527 9.365 1.378-6.771 6.648 1.591 9.379zm32.701 0l-8.383 4.419 1.591-9.379-6.771-6.648 9.365-1.378L145.534 80l4.198 8.527 9.365 1.378-6.771 6.648 1.591 9.379z" fill="#FFCC01"/><path fill="red" d="M12 14.637L7.952 23.73H5l4.446-9.723c-2.092-1.06-3.482-2.985-3.482-6.538 0-4.978 3.151-7.465 6.9-7.465h3.816V23.73h-2.556v-9.092H12zm2.125-12.479h-1.361c-2.056 0-4.048 1.361-4.048 5.31 0 3.815 1.826 5.044 4.048 5.044h1.36l.001-10.354z"/><path fill="#222" d="M150.457 8.297v15.432H148.9V8.297h-3.884V7.005h9.294v1.292h-3.852zM139.7 22.702c2.224 0 3.386-1.793 3.386-1.793l.498 1.262s-1.26 1.89-3.915 1.89c-3.552 0-5.177-3.218-5.177-8.694 0-5.476 2.056-8.694 4.878-8.694 2.886 0 4.746 3.019 4.214 8.96h-7.566c.065 4.579 1.261 7.069 3.682 7.069zm-3.65-8.298h6.074c.265-4.446-1.062-6.439-2.754-6.439-1.76 0-3.186 2.258-3.32 6.439zm-9.795 9.325h-1.558V7.005h1.558v7.863l5.61-7.863h1.527l-5.51 7.764 5.907 8.959h-1.726l-5.808-8.66v8.661zm-12.717-1.163v6.339h-1.558v-21.9h1.362l.13 2.753c.73-1.594 1.96-3.085 3.818-3.085 2.786 0 4.41 3.35 4.41 8.195 0 6.14-2.054 9.159-5.173 9.159a3.789 3.789 0 01-2.989-1.461zm6.606-7.565c0-4.38-1.196-6.97-3.119-6.97-1.495 0-2.755 1.594-3.487 3.387v9.358c.664 1.361 1.594 2.022 3.088 2.022 2.122 0 3.518-2.52 3.518-7.797zm-13.217 6.473c-.797 1.591-1.99 2.587-3.65 2.587-2.257 0-3.815-1.793-3.815-4.845 0-3.583 1.956-5.442 5.573-5.442h1.826v-2.092c0-2.554-.963-3.65-2.786-3.65-1.428 0-2.722.664-3.52 1.827l-.432-1.495c.664-.863 2.06-1.693 3.952-1.693 2.753 0 4.313 1.527 4.313 4.845v9.128c0 1.16.166 2.454.365 3.085h-1.427c-.133-.432-.3-1.062-.399-2.255zm-.066-1.959v-4.612h-1.79c-2.756 0-4.084 1.261-4.084 4.18 0 2.355 1.03 3.716 2.623 3.716 1.56 0 2.653-1.494 3.25-3.284h.001zM85.812 6.971c-.332-1.229-.597-2.291-.796-3.384h-.1c.066 1.129.1 2.321.1 3.516V23.73h-1.458V0h1.922l4.018 15.166c.166.631.398 1.86.495 2.756h.1a28.5 28.5 0 01.564-2.756L94.705.001h1.86V23.73h-1.59V7.103c0-1.128.062-2.324.128-3.516h-.129a85.826 85.826 0 01-.8 3.284l-3.55 13.207h-1.295L85.812 6.971zM29 7.005v16.723h-2.556v-7.499h-3.85v7.499h-2.59V7.004h2.59v7.1h3.85v-7.1L29 7.005zm13.307 20.01h-2.323v-3.287h-7.169v3.287h-2.324v-5.41h1.03c1.526-3.55 1.692-8.726 1.692-13.173V7.005h7.764v14.6h1.33v5.41zM38.425 9.093h-2.89v.3c0 3.519-.163 8.662-1.558 12.212h4.447l.001-12.512zM49.442 23.96c-3.453 0-5.575-2.753-5.575-7.897 0-5.376 1.491-9.291 5.044-9.291 2.786 0 4.613 2.089 4.613 7.764v1.428h-6.97c0 3.782 1.062 5.774 3.118 5.774 1.461 0 2.623-.664 3.287-1.129l.598 1.993c-1.063.83-2.457 1.358-4.115 1.358zm-2.855-10.121h4.28c0-2.853-.464-4.942-1.956-4.942-1.594 0-2.158 1.956-2.324 4.942zm12.18 1.56v8.329h-2.59V7.004h2.59v7.731l4.015-7.73h2.623l-4.15 7.863L66 23.728h-2.82l-4.413-8.329zm7.565-.033c0-5.243 2.025-8.594 5.94-8.594 1.494 0 2.358.398 3.085.863l-.365 2.455c-.697-.598-1.69-1.163-2.753-1.163-1.86 0-3.185 2.092-3.185 6.306 0 4.181.994 6.572 3.085 6.572 1.262 0 2.225-.498 2.823-1.03l.595 1.926c-.894.761-1.957 1.26-3.484 1.26-3.583 0-5.74-2.887-5.74-8.595z"/><path fill="#333" fill-rule="nonzero" d="M22.43 60.078v4.453H21V53.156h3.625c.547 0 1.033.086 1.457.258.425.172.78.413 1.066.723.287.31.504.677.653 1.101.148.425.222.89.222 1.395 0 .547-.074 1.035-.222 1.465-.149.43-.367.79-.656 1.082a2.87 2.87 0 01-1.067.668c-.422.153-.906.23-1.453.23H22.43zm0-1.226h2.195c.349 0 .647-.055.895-.164.247-.11.45-.262.609-.458.159-.195.276-.427.351-.695.076-.268.114-.564.114-.887a3.17 3.17 0 00-.114-.847 2.1 2.1 0 00-.351-.723 1.74 1.74 0 00-.61-.5c-.247-.125-.545-.187-.894-.187H22.43v4.46zm10.265 5.836a3.9 3.9 0 01-1.367-.227 2.619 2.619 0 01-1.035-.691c-.284-.31-.501-.702-.652-1.176-.151-.474-.227-1.034-.227-1.68v-.953c0-.745.089-1.374.266-1.887.177-.513.41-.93.699-1.25.289-.32.621-.55.996-.691.375-.14.763-.211 1.164-.211.531 0 .984.087 1.36.262a2.3 2.3 0 01.921.77c.24.338.414.754.524 1.25a7.98 7.98 0 01.164 1.71v.805h-4.719v.195c0 .906.17 1.565.512 1.977.34.411.832.617 1.472.617.235 0 .446-.024.633-.07a2.143 2.143 0 00.946-.504c.13-.118.252-.246.367-.387l.718.875a3.108 3.108 0 01-.414.469 2.614 2.614 0 01-.578.402c-.224.117-.48.212-.77.285a4 4 0 01-.98.11zm-.156-7.579c-.24 0-.46.037-.664.11a1.235 1.235 0 00-.535.386c-.154.185-.277.434-.371.747-.094.312-.151.705-.172 1.18h3.328v-.188a6.092 6.092 0 00-.105-.903 2.242 2.242 0 00-.258-.707 1.236 1.236 0 00-.473-.46c-.198-.11-.448-.165-.75-.165zm9.195-1.03h1.375v8.452h-1.375v-6.164l-3.062 6.164h-1.383v-8.453h1.383v6.172l3.062-6.172zM42.547 53c0 .307-.054.589-.16.844a1.844 1.844 0 01-.465.66 2.18 2.18 0 01-.738.434c-.29.104-.614.156-.973.156-.36 0-.684-.052-.973-.157a2.18 2.18 0 01-.738-.433 1.887 1.887 0 01-.469-.66 2.12 2.12 0 01-.164-.844h1.18c0 .156.02.305.062.445a.944.944 0 00.559.625 1.4 1.4 0 00.543.094c.208 0 .387-.031.535-.094a.98.98 0 00.363-.254.975.975 0 00.203-.37c.042-.141.063-.29.063-.446h1.172zm8.11 4.25h-2.305v7.281h-1.375V57.25h-2.274v-1.172h5.953v1.172zm6.023-1.172h1.375v8.453H56.68v-6.164l-3.063 6.164h-1.383v-8.453h1.383v6.172l3.063-6.172zm9.515 8.453H64.82v-3.61h-3.047v3.61h-1.39v-8.453h1.39v3.664h3.047v-3.664h1.375v8.453zm6.852-7.258h-3.149v7.258h-1.39v-8.453h4.539v1.195zm9.101 5.344l2.266-6.539h1.719v8.453h-1.375v-5.828l-2.133 5.828h-.945l-2.18-5.969v5.97h-1.375v-8.454h1.781l2.242 6.54zm10.54 1.914a1.715 1.715 0 01-.114-.402 6.005 6.005 0 01-.066-.52 2.99 2.99 0 01-.34.414 2.295 2.295 0 01-.945.579 1.982 1.982 0 01-.59.085c-.37 0-.705-.052-1.004-.156a2.05 2.05 0 01-.77-.469 2.08 2.08 0 01-.492-.769 3.023 3.023 0 01-.172-1.066c0-.407.07-.782.211-1.125.14-.344.35-.641.625-.891.276-.25.623-.447 1.04-.59.416-.143.9-.215 1.452-.215h.961v-.898c0-.505-.112-.865-.336-1.078-.224-.214-.565-.32-1.023-.32-.224 0-.423.035-.598.105-.174.07-.321.165-.441.285-.12.12-.211.26-.273.418a1.364 1.364 0 00-.094.504h-1.383c0-.302.066-.603.2-.902.132-.3.322-.568.57-.805.247-.237.548-.429.902-.574.354-.146.75-.22 1.187-.22.39 0 .749.048 1.075.142.325.093.606.244.843.453.237.208.42.476.551.804.13.328.195.73.195 1.203v4.164c0 .141.006.29.016.446a5.307 5.307 0 00.137.894c.034.138.071.265.113.38v.124h-1.438zm-1.844-1.101c.192 0 .375-.029.547-.086.172-.058.328-.132.468-.223.141-.091.265-.195.371-.312.107-.118.192-.239.254-.364V60.43h-.726a3.44 3.44 0 00-.903.11 2.093 2.093 0 00-.687.315c-.19.138-.336.31-.438.512a1.534 1.534 0 00-.152.696c0 .255.026.47.078.644.052.175.13.315.235.422a.892.892 0 00.394.23c.159.047.345.07.559.07zm9.804-6.157H97.5v7.258h-1.39v-8.453h4.538v1.195zm5.641 7.258a1.715 1.715 0 01-.113-.402 6.005 6.005 0 01-.067-.52 2.99 2.99 0 01-.34.414 2.263 2.263 0 01-.945.579 1.982 1.982 0 01-.59.085c-.37 0-.704-.052-1.004-.156a2.05 2.05 0 01-.77-.469 2.08 2.08 0 01-.491-.769 3.023 3.023 0 01-.172-1.066c0-.407.07-.782.21-1.125.141-.344.35-.641.626-.891s.622-.447 1.039-.59c.417-.143.9-.215 1.453-.215h.96v-.898c0-.505-.111-.865-.335-1.078-.224-.214-.565-.32-1.023-.32-.224 0-.424.035-.598.105a1.226 1.226 0 00-.715.703 1.364 1.364 0 00-.094.504h-1.382c0-.302.066-.603.199-.902.133-.3.323-.568.57-.805.247-.237.548-.429.902-.574.355-.146.75-.22 1.188-.22.39 0 .749.048 1.074.142.326.093.607.244.844.453.237.208.42.476.55.804.13.328.196.73.196 1.203v4.164c0 .141.005.29.016.446a5.307 5.307 0 00.136.894c.034.138.072.265.114.38v.124h-1.438zm-1.844-1.101c.193 0 .375-.029.547-.086.172-.058.328-.132.469-.223.14-.091.264-.195.371-.312.107-.118.191-.239.254-.364V60.43h-.727a3.44 3.44 0 00-.902.11 2.093 2.093 0 00-.687.315c-.19.138-.336.31-.438.512a1.534 1.534 0 00-.152.696c0 .255.026.47.078.644.052.175.13.315.234.422a.892.892 0 00.395.23c.159.047.345.07.558.07zm10.344-5.047c0 .38-.096.729-.289 1.047-.193.317-.466.57-.82.758.406.166.715.414.925.742.211.328.317.737.317 1.226 0 .401-.068.758-.203 1.07a2.161 2.161 0 01-.574.79 2.595 2.595 0 01-.887.492 3.564 3.564 0 01-1.133.172c-.349 0-.694-.052-1.035-.157a2.734 2.734 0 01-.914-.476 2.364 2.364 0 01-.649-.82c-.164-.334-.246-.732-.246-1.196h1.367a1.54 1.54 0 00.403 1.043 1.44 1.44 0 001.074.457c.234 0 .44-.038.617-.113.177-.076.324-.176.442-.3a1.25 1.25 0 00.265-.438c.06-.167.09-.341.09-.524 0-.474-.105-.814-.316-1.02-.211-.205-.543-.308-.996-.308h-1.266V59.61h1.266c.224 0 .411-.028.562-.086a.905.905 0 00.367-.246.928.928 0 00.2-.386 2 2 0 00.058-.5c0-.167-.023-.327-.07-.48a1.102 1.102 0 00-.617-.7 1.44 1.44 0 00-.594-.11c-.193 0-.373.034-.54.102a1.339 1.339 0 00-.73.711c-.07.162-.105.336-.105.523h-1.367c0-.385.073-.733.218-1.042.146-.31.343-.573.59-.79.248-.216.538-.382.871-.5a3.18 3.18 0 011.063-.175c.411 0 .781.053 1.11.16a2.3 2.3 0 01.835.469c.23.205.405.462.527.77.123.306.184.658.184 1.054zm6.523-2.305h1.376v8.453h-1.376v-6.164l-3.062 6.164h-1.383v-8.453h1.383v6.172l3.063-6.172zm9.516 8.453h-1.375v-3.61h-3.047v3.61h-1.39v-8.453h1.39v3.664h3.047v-3.664h1.375v8.453zm6.555 0a1.715 1.715 0 01-.113-.402 6.005 6.005 0 01-.067-.52 2.99 2.99 0 01-.34.414 2.263 2.263 0 01-.945.579 1.982 1.982 0 01-.59.085c-.37 0-.704-.052-1.004-.156a2.05 2.05 0 01-.77-.469 2.08 2.08 0 01-.492-.769 3.023 3.023 0 01-.171-1.066c0-.407.07-.782.21-1.125.141-.344.35-.641.626-.891s.622-.447 1.039-.59c.416-.143.9-.215 1.453-.215h.96v-.898c0-.505-.111-.865-.335-1.078-.224-.214-.565-.32-1.024-.32a1.59 1.59 0 00-.597.105 1.226 1.226 0 00-.715.703 1.364 1.364 0 00-.094.504h-1.383c0-.302.067-.603.2-.902.132-.3.322-.568.57-.805.247-.237.548-.429.902-.574a3.09 3.09 0 011.188-.22c.39 0 .748.048 1.074.142.325.093.607.244.844.453.237.208.42.476.55.804.13.328.196.73.196 1.203v4.164c0 .141.005.29.015.446a5.307 5.307 0 00.137.894c.034.138.072.265.113.38v.124h-1.437zm-1.844-1.101c.193 0 .375-.029.547-.086.172-.058.328-.132.469-.223.14-.091.264-.195.37-.312.108-.118.192-.239.255-.364V60.43h-.727a3.44 3.44 0 00-.902.11 2.093 2.093 0 00-.688.315c-.19.138-.336.31-.437.512a1.534 1.534 0 00-.153.696c0 .255.026.47.079.644.052.175.13.315.234.422a.892.892 0 00.394.23c.16.047.346.07.56.07z"/></g></svg>