<svg xmlns="http://www.w3.org/2000/svg" viewBox="0 0 40 40"><path d="M40 27H0v9c0 2.2 1.8 4 4 4h32c2.2 0 4-1.8 4-4v-9z" fill-rule="evenodd" clip-rule="evenodd" fill="#ffce00"/><path d="M0 13h40V4c0-2.2-1.8-4-4-4H4C1.8 0 0 1.8 0 4v9z" fill-rule="evenodd" clip-rule="evenodd" fill="#191919"/><path fill-rule="evenodd" clip-rule="evenodd" fill="#c43131" d="M40 27.662H0v-15h40z"/><path d="M37 1c1.1 0 2 .9 2 2v34c0 1.1-.9 2-2 2H3c-1.1 0-2-.9-2-2V3c0-1.1.9-2 2-2h34m0-1H3C1.3 0 0 1.3 0 3v34c0 1.7 1.3 3 3 3h34c1.7 0 3-1.3 3-3V3c0-1.7-1.3-3-3-3z" fill="#fff"/></svg>