<svg width="40" height="40" viewBox="0 0 40 40" xmlns="http://www.w3.org/2000/svg" xmlns:xlink="http://www.w3.org/1999/xlink"><g id="Page-1" stroke="none" stroke-width="1" fill="none" fill-rule="evenodd"><g id="02---01---Каталог-(теговая-страница)_desktop" transform="translate(-452 -604)"><g id="каталог" transform="translate(432 554)"><g id="1"><g id="new" transform="translate(20 50)"><rect id="Rectangle" fill="#394791" x="0" y="0" width="40" height="40" rx="2"/><path d="M15 26.667h-2.314l-3.64-7.46-.049.016v7.444h-2.33V15h2.33l3.64 7.452.049-.016V15H15v11.667zm7.667-5.12h-3.791v3.3h4.457v1.82h-6.666V15h6.65v1.827h-4.441v2.9h3.79v1.82zm8.93.897h.046L32.86 15H35l-2.178 11.667h-2.055l-1.589-7.148h-.046l-1.574 7.148h-2.046L23.333 15h2.14l1.217 7.444h.046L28.364 15h1.582l1.65 7.444z" id="NEW" fill="#FFF"/></g></g></g></g></g></svg>