<svg width="40" height="40" xmlns="http://www.w3.org/2000/svg"><g fill="none" fill-rule="evenodd"><rect fill="#EEE" width="40" height="40" rx="2"/><path d="M5 5h30v30H5z"/><path d="M13.529 8.374c.339.073.688.117 1.016.224 1.637.533 2.694 1.644 3.18 3.286.261.886.224 1.782-.03 2.668-.042.146-.025.244.09.358 2.451 2.442 4.9 4.886 7.342 7.338.147.148.277.106.428.072.909-.207 1.823-.273 2.722.015 1.793.575 2.883 1.804 3.294 3.633.155.693.107 1.386-.058 2.072-.142.59-.754.771-1.192.344-.593-.577-1.168-1.171-1.76-1.75-.637-.622-1.573-.573-2.098.102-.37.474-.386 1.188.016 1.64.432.488.909.936 1.366 1.4.182.185.37.361.547.55.41.436.236 1.032-.343 1.178a4.737 4.737 0 01-5.834-3.655c-.153-.762-.093-1.525.095-2.275.053-.214.016-.351-.146-.512a2005.32 2005.32 0 01-7.216-7.207c-.153-.153-.283-.195-.492-.144-.992.24-1.993.287-2.96-.083-1.68-.642-2.708-1.86-3.069-3.625-.042-.206-.063-.417-.094-.626v-.409c.057-.327.098-.657.173-.98.135-.582.734-.756 1.173-.347.183.17.354.353.533.529.47.462.924.942 1.417 1.378.45.398 1.172.384 1.646.023.682-.521.737-1.448.112-2.087-.562-.574-1.134-1.138-1.705-1.704-.217-.215-.357-.453-.258-.77.099-.314.336-.45.642-.5.245-.042.49-.09.733-.136h.73z" fill="#666"/><path d="M11.964 28.947c.147.006.315-.129.474-.288l3.943-3.945a1.41 1.41 0 00.165-.187.674.674 0 00-.373-1.037c-.309-.088-.54.042-.75.253-1.318 1.321-2.64 2.641-3.958 3.962a1.342 1.342 0 00-.15.17.643.643 0 00-.052.705c.125.241.331.364.7.367zm-3.63-.326c.104-.466.234-.923.54-1.305a4.02 4.02 0 01.297-.342c2.116-2.119 4.234-4.236 6.351-6.353.027-.027.055-.052.066-.062l3.842 3.846c-.003.004-.032.045-.068.08-2.111 2.112-4.22 4.228-6.337 6.335-1.025 1.02-2.503 1.127-3.63.272-.553-.42-.882-.983-1.016-1.663-.012-.058-.03-.115-.046-.173v-.635zM29.93 8.333c.178.124.37.231.529.376.318.29.62.6.925.904.333.332.368.605.123 1.009a991.49 991.49 0 01-2.068 3.394c-.304.495-.778.551-1.195.147-.108-.104-.211-.214-.346-.352l-4.57 4.553-1.91-1.894 4.552-4.534c-.116-.12-.219-.216-.31-.322-.287-.333-.246-.79.13-1.017 1.215-.733 2.44-1.448 3.662-2.168.064-.038.136-.064.204-.096h.275z" fill="#666"/></g></svg>