<svg width="40" height="40" viewBox="0 0 40 40" xmlns="http://www.w3.org/2000/svg" xmlns:xlink="http://www.w3.org/1999/xlink"><g id="Page-1" stroke="none" stroke-width="1" fill="none" fill-rule="evenodd"><g id="02---02---Карточка_desktop" transform="translate(-732 -429)"><g id="карточка" transform="translate(131 181)"><g id="цена-и-информация" transform="translate(601 104)"><g id="truck" transform="translate(0 144)"><rect id="Rectangle" fill="#394791" x="0" y="0" width="40" height="40" rx="2"/><g transform="translate(5 5)" id="delivery-truck" stroke-width="1"><path id="Rectangle-4" d="M0 0h30v30H0z"/><path d="M1.053 17.87V4.662c0-.734.575-1.329 1.284-1.329h12.757c.71 0 1.284.595 1.284 1.33V17.87a.436.436 0 01-.428.443H1.48a.436.436 0 01-.427-.443zm10.302 4.525c0 1.522-1.193 2.757-2.664 2.757s-2.664-1.235-2.664-2.757S7.22 19.64 8.691 19.64s2.664 1.234 2.664 2.756zm-1.332 0c0-.76-.597-1.378-1.332-1.378-.736 0-1.332.617-1.332 1.378 0 .761.596 1.378 1.332 1.378.735 0 1.332-.617 1.332-1.378zM6.397 19.64H.428a.436.436 0 00-.428.443v1.344c0 .244.192.443.428.443h4.784a3.671 3.671 0 011.185-2.23zm18.894 2.756c0 1.522-1.193 2.757-2.664 2.757-1.47 0-2.663-1.235-2.663-2.757s1.192-2.756 2.663-2.756c1.471 0 2.664 1.234 2.664 2.756zm-1.332 0c0-.76-.596-1.378-1.332-1.378-.735 0-1.331.617-1.331 1.378 0 .761.596 1.378 1.331 1.378.736 0 1.332-.617 1.332-1.378zM30 20.082v1.344a.436.436 0 01-.428.443h-3.466c-.248-1.76-1.711-3.116-3.478-3.116-1.768 0-3.231 1.357-3.48 3.116H12.17a3.672 3.672 0 00-1.185-2.23h6.617V6.969c0-.49.384-.887.857-.887H22.5c1.138 0 2.202.585 2.838 1.56l2.606 3.994c.382.586.586 1.276.586 1.983v6.02h1.042c.236 0 .428.198.428.443zm-4.343-8.344l-2.083-3.063a.424.424 0 00-.35-.188h-3.25a.436.436 0 00-.428.443v3.063c0 .245.192.443.428.443h5.333c.347 0 .55-.404.35-.698z" id="Shape" fill="#FFF" fill-rule="nonzero"/></g></g></g></g></g></g></svg>