<svg xmlns="http://www.w3.org/2000/svg" width="40" height="40"><g fill="none" fill-rule="evenodd"><rect width="40" height="40" fill="#394791" rx="2"/><path fill="#FFF" d="M19.199 23.696a.69.69 0 01-.484-.196l-3.4-3.316a.693.693 0 01.963-.997l.005.005 2.916 2.844 5.641-5.502a.693.693 0 01.98.98l-.013.012-6.124 5.972a.69.69 0 01-.484.197zm8.475 4.756c1.87-1.273 3.45-4.257 3.45-6.515V11.849l-7.828-3.84-.004-.002-2.73-1.34L10 11.835v10.102c0 .946.28 2.068.788 3.161.666 1.434 1.636 2.656 2.66 3.355l7.114 4.846 7.112-4.847z"/></g></svg>