<?xml version="1.0" encoding="utf-8"?>
<!-- Generator: Adobe Illustrator 23.0.1, SVG Export Plug-In . SVG Version: 6.00 Build 0)  -->
<svg version="1.1" id="Слой_1" xmlns="http://www.w3.org/2000/svg" xmlns:xlink="http://www.w3.org/1999/xlink" x="0px" y="0px"
	 viewBox="0 0 40 40" style="enable-background:new 0 0 40 40;" xml:space="preserve">
<style type="text/css">
	.st0{fill-rule:evenodd;clip-rule:evenodd;fill:#FFCE00;}
	.st1{fill-rule:evenodd;clip-rule:evenodd;fill:#191919;}
	.st2{fill-rule:evenodd;clip-rule:evenodd;fill:#C43131;}
	.st3{fill:#FFFFFF;}
</style>
<title>flag</title>
<desc>Created with Sketch.</desc>
<path class="st0" d="M40,27H0v9c0,2.2,1.8,4,4,4h32c2.2,0,4-1.8,4-4V27z"/>
<path class="st1" d="M0,13h40V4c0-2.2-1.8-4-4-4H4C1.8,0,0,1.8,0,4V13z"/>
<rect y="12.7" transform="matrix(-1 -1.224647e-16 1.224647e-16 -1 40 40.3617)" class="st2" width="40" height="15"/>
<g>
	<path class="st3" d="M37,1c1.1,0,2,0.9,2,2v34c0,1.1-0.9,2-2,2H3c-1.1,0-2-0.9-2-2V3c0-1.1,0.9-2,2-2H37 M37,0H3C1.3,0,0,1.3,0,3
		v34c0,1.7,1.3,3,3,3h34c1.7,0,3-1.3,3-3V3C40,1.3,38.7,0,37,0L37,0z"/>
</g>
</svg>
