<?xml version="1.0" encoding="UTF-8"?>
<svg width="40px" height="40px" viewBox="0 0 40 40" version="1.1" xmlns="http://www.w3.org/2000/svg" xmlns:xlink="http://www.w3.org/1999/xlink">
    <!-- Generator: Sketch 52.5 (67469) - http://www.bohemiancoding.com/sketch -->
    <title>new</title>
    <desc>Created with Sketch.</desc>
    <g id="Page-1" stroke="none" stroke-width="1" fill="none" fill-rule="evenodd">
        <g id="02---01---Каталог-(теговая-страница)_desktop" transform="translate(-452.000000, -604.000000)">
            <g id="каталог" transform="translate(432.000000, 554.000000)">
                <g id="1">
                    <g id="new" transform="translate(20.000000, 50.000000)">
                        <rect id="Rectangle" fill="#394791" x="0" y="0" width="40" height="40" rx="2"></rect>
                        <path d="M15,26.6666667 L12.6856395,26.6666667 L9.04645077,19.2067308 L8.99738306,19.2227564 L8.99738306,26.6666667 L6.66666667,26.6666667 L6.66666667,15 L8.99738306,15 L12.6365718,22.4519231 L12.6856395,22.4358974 L12.6856395,15 L15,15 L15,26.6666667 Z M22.6666667,21.5464744 L18.875969,21.5464744 L18.875969,24.8477564 L23.3333333,24.8477564 L23.3333333,26.6666667 L16.6666667,26.6666667 L16.6666667,15 L23.3178295,15 L23.3178295,16.8269231 L18.875969,16.8269231 L18.875969,19.7275641 L22.6666667,19.7275641 L22.6666667,21.5464744 Z M31.5968992,22.4439103 L31.6434109,22.4439103 L32.8604651,15 L35,15 L32.8217054,26.6666667 L30.7674419,26.6666667 L29.1782946,19.5192308 L29.1317829,19.5192308 L27.5581395,26.6666667 L25.5116279,26.6666667 L23.3333333,15 L25.4728682,15 L26.6899225,22.4439103 L26.7364341,22.4439103 L28.3643411,15 L29.9457364,15 L31.5968992,22.4439103 Z" id="NEW" fill="#FFFFFF"></path>
                    </g>
                </g>
            </g>
        </g>
    </g>
</svg>