<svg xmlns="http://www.w3.org/2000/svg" width="40" height="40" viewBox="0 0 40 40">
  <g fill="none" fill-rule="evenodd">
    <rect width="40" height="40" fill="#394791" rx="2"/>
    <path fill="#FFF" d="M19.1990188,23.6958627 C19.0184704,23.6962078 18.8448485,23.6257893 18.7154401,23.4996133 L15.3158442,20.1838268 C15.0406349,19.9181991 15.0326696,19.479873 15.2982973,19.2045483 C15.563925,18.9292237 16.002482,18.9213737 16.2776912,19.186886 C16.2795382,19.188733 16.2813853,19.1904646 16.2831169,19.1921962 L19.1990188,22.0362944 L24.84,16.5344185 C25.1105916,16.2639423 25.5491486,16.2639423 25.8196248,16.5345339 C26.0899856,16.8050101 26.0899856,17.2434517 25.8195094,17.5140433 C25.815469,17.5179683 25.8114286,17.5220087 25.8072727,17.5259336 L19.6825974,23.4984589 C19.5534199,23.6247504 19.379798,23.6953997 19.1990188,23.6951688 L19.1990188,23.6958627 Z M27.6744012,28.4518788 C29.5438384,27.1785743 31.1231746,24.1949091 31.1231746,21.9366696 L31.1231746,11.8491659 L23.2963348,8.00905051 L23.2924098,8.00720346 L20.5612121,6.6665974 L9.99994228,11.8347359 L9.99994228,21.9372468 C9.99994228,22.8825859 10.2796537,24.0051255 10.7877056,25.098228 C11.4536797,26.5316479 12.4237229,27.7541587 13.4487157,28.4525714 L20.5616739,33.2987475 L27.6744012,28.4518788 Z"/>
  </g>
</svg>
