<?xml version="1.0" encoding="UTF-8"?>
<svg width="16px" height="16px" viewBox="0 0 16 16" version="1.1" xmlns="http://www.w3.org/2000/svg" xmlns:xlink="http://www.w3.org/1999/xlink">
    <!-- Generator: Sketch 53.2 (72643) - https://sketchapp.com -->
    <title>globe</title>
    <desc>Created with Sketch.</desc>
    <g id="Page-1" stroke="none" stroke-width="1" fill="none" fill-rule="evenodd">
        <g id="02---02---Карточка_desktop" transform="translate(-157.000000, -1094.000000)" fill="#394791">
            <g id="список-характеристик" transform="translate(132.000000, 968.000000)">
                <g id="Group-5" transform="translate(25.000000, 86.000000)">
                    <path d="M6.64027642,55.8849158 C2.86965111,55.2393047 0,51.9547738 0,48 C0,44.0450204 2.86994982,40.7603534 6.64086515,40.1149835 C7.08260165,40.0393829 7.53670165,40 8,40 C8.46462745,40 8.9200037,40.0396092 9.36293627,40.115635 C13.1319788,40.7625612 16,44.0463495 16,48 C16,51.9534446 13.1322776,55.2370968 9.36352522,55.8842639 C8.92040736,55.9603557 8.46483339,56 8,56 C7.53649582,56 7.08219818,55.9605821 6.64027642,55.8849158 L6.64027642,55.8849158 Z M3.64033054,53.1004641 C4.15896143,53.5441884 4.74607231,53.9101882 5.38361954,54.1804199 C5.05118977,53.6457528 4.76535335,53.0976261 4.52629109,52.5362581 C4.21681946,52.7032325 3.9208186,52.8919579 3.64033054,53.1004641 L3.64033054,53.1004641 Z M2.61323206,52.0010123 C3.04969018,51.652087 3.52077409,51.3446622 4.02050501,51.0847165 C3.81536748,50.3358858 3.68749247,49.5655578 3.63726198,48.7741935 L1.33450508,48.7741935 C1.47244009,49.9747813 1.9272677,51.0789729 2.61323206,52.0010123 L2.61323206,52.0010123 Z M7.22580645,50.1500365 L7.22580645,48.7741935 L5.18851786,48.7741935 C5.23024537,49.3611115 5.31998658,49.9347809 5.45809742,50.4954713 C6.02468486,50.3213311 6.61613469,50.2039727 7.22580645,50.1500365 L7.22580645,50.1500365 Z M7.22580645,51.704397 C6.7842195,51.7504094 6.35435484,51.8355757 5.9397863,51.9564475 C6.265383,52.737725 6.6936928,53.4921245 7.22580645,54.2204721 L7.22580645,51.704397 L7.22580645,51.704397 Z M12.3558883,53.1036967 C12.0769036,52.8959862 11.782544,52.7078573 11.4748222,52.541252 C11.236471,53.1002233 10.9517317,53.6460618 10.620783,54.1785519 C11.2550823,53.9091601 11.8393803,53.5449455 12.3558883,53.1036967 L12.3558883,53.1036967 Z M13.3837342,52.0050869 C14.0713913,51.0822266 14.5273567,49.9765503 14.6654949,48.7741935 L12.3659794,48.7741935 C12.315633,49.5673834 12.1872835,50.33944 11.9813154,51.0898988 C12.4792942,51.3497588 12.9487437,51.656798 13.3837342,52.0050869 L13.3837342,52.0050869 Z M8.77419355,50.1507593 C9.38642257,50.2055021 9.98023694,50.3242046 10.5489069,50.5001371 C10.6885543,49.9379635 10.7793831,49.3627396 10.8215722,48.7741935 L8.77419355,48.7741935 L8.77419355,50.1507593 L8.77419355,50.1507593 Z M8.77419355,51.7052483 L8.77419355,54.2222941 C9.30718881,53.4944878 9.73702553,52.7406659 10.064246,51.960004 C9.64846716,51.8379911 9.21724534,51.7519105 8.77419355,51.7052483 L8.77419355,51.7052483 Z M3.64599006,42.8946992 C3.92556167,43.1027412 4.22050837,43.2913332 4.52881259,43.4584096 C4.76748081,42.8988291 5.05264058,42.3524108 5.38411271,41.8193711 C4.74869312,42.0886408 4.1633651,42.4530373 3.64599006,42.8946992 L3.64599006,42.8946992 Z M2.61243006,44.0000659 C1.92691319,44.9218879 1.47238633,46.0256866 1.33450508,47.2258065 L3.63729907,47.2258065 C3.68753316,46.4349974 3.81530482,45.6651956 4.02023282,44.9168614 C3.52029693,44.6567865 3.04903384,44.3491924 2.61243006,44.0000659 L2.61243006,44.0000659 Z M7.22580645,45.851683 C6.61604146,45.7977386 6.02450397,45.6803525 5.45783749,45.5061682 C5.31991977,46.0663372 5.23027872,46.6394603 5.18855941,47.2258065 L7.22580645,47.2258065 L7.22580645,45.851683 L7.22580645,45.851683 Z M7.22580645,44.2951634 L7.22580645,41.780112 C6.69437508,42.5075257 6.26648154,43.2609246 5.94103925,44.0411315 C6.35522095,44.1628162 6.78466436,44.2487096 7.22580645,44.2951634 L7.22580645,44.2951634 Z M12.3502221,42.8914682 C11.8349745,42.4522792 11.252461,42.0896666 10.6202897,41.8212386 C10.9502777,42.3520959 11.2343369,42.8962207 11.4722904,43.4533994 C11.7788465,43.2866991 12.0721533,43.0987099 12.3502221,42.8914682 L12.3502221,42.8914682 Z M13.3845366,43.9959901 C12.9494003,44.3444803 12.4797717,44.6516889 11.9815879,44.9116785 C12.1873461,45.6616411 12.3155922,46.4331715 12.3659423,47.2258065 L14.6654949,47.2258065 C14.5274104,46.0239174 14.0717459,44.9186336 13.3845366,43.9959901 L13.3845366,43.9959901 Z M8.77419355,45.8509602 L8.77419355,47.2258065 L10.8215303,47.2258065 C10.7793494,46.6378319 10.6886216,46.0631538 10.5491688,45.5015013 C9.98041923,45.6774784 9.38651654,45.796209 8.77419355,45.8509602 L8.77419355,45.8509602 Z M8.77419355,44.2943031 C9.21679441,44.2471944 9.64758937,44.1603815 10.0629764,44.0375526 C9.73591402,43.2579693 9.30649978,42.5051554 8.77419355,41.77829 L8.77419355,44.2943031 L8.77419355,44.2943031 Z" id="globe"></path>
                </g>
            </g>
        </g>
    </g>
</svg>