<?xml version="1.0" encoding="UTF-8"?>
<svg width="39px" height="39px" viewBox="0 0 39 39" version="1.1" xmlns="http://www.w3.org/2000/svg" xmlns:xlink="http://www.w3.org/1999/xlink">
    <!-- Generator: Sketch 53.2 (72643) - https://sketchapp.com -->
    <title>hit</title>
    <desc>Created with Sketch.</desc>
    <g id="Page-1" stroke="none" stroke-width="1" fill="none" fill-rule="evenodd">
        <g id="02---02---Карточка_desktop" transform="translate(-568.000000, -892.000000)">
            <g id="карточка" transform="translate(132.000000, 190.000000)">
                <g id="hit" transform="translate(432.000000, 698.000000)">
                    <g id="new" transform="translate(1.043478, 1.043478)">
                        <path d="M15.8720873,6.8720873 C10.9015246,6.8720873 6.8720873,10.9015246 6.8720873,15.8720873 L6.8720873,29.2633917 C6.8720873,34.2339544 10.9015246,38.2633917 15.8720873,38.2633917 L29.2633917,38.2633917 C34.2339544,38.2633917 38.2633917,34.2339544 38.2633917,29.2633917 L38.2633917,15.8720873 C38.2633917,10.9015246 34.2339544,6.8720873 29.2633917,6.8720873 L15.8720873,6.8720873 Z" id="Rectangle-13" stroke="#73C9FF" stroke-width="2" transform="translate(22.567739, 22.567739) rotate(-23.000000) translate(-22.567739, -22.567739) "></path>
                        <path d="M11.4782609,26.0869565 L14.0243478,22.3721739 L11.5826087,18.7826087 L13.4608696,18.7826087 L14.9947826,21.1513043 L16.5391304,18.7826087 L18.3652174,18.7826087 L15.9234783,22.3513043 L18.4695652,26.0869565 L16.5913043,26.0869565 L14.9530435,23.5826087 L13.3043478,26.0869565 L11.4782609,26.0869565 Z M25.9617391,18.7826087 L25.9617391,26.0869565 L24.3756522,26.0869565 L24.3756522,21.2973913 L21.1826087,26.0869565 L19.6695652,26.0869565 L19.6695652,18.7826087 L21.2556522,18.7826087 L21.2556522,23.5721739 L24.4695652,18.7826087 L25.9617391,18.7826087 Z M29.4156522,26.0869565 L29.4156522,20.2643478 L27.1930435,20.2643478 L27.1930435,18.7826087 L33.2452174,18.7826087 L33.2452174,20.2643478 L31.0226087,20.2643478 L31.0226087,26.0869565 L29.4156522,26.0869565 Z" id="ХИТ" fill="#73C9FF"></path>
                    </g>
                </g>
            </g>
        </g>
    </g>
</svg>