<?xml version="1.0" encoding="UTF-8"?>
<svg width="71px" height="25px" viewBox="0 0 71 25" version="1.1" xmlns="http://www.w3.org/2000/svg" xmlns:xlink="http://www.w3.org/1999/xlink">
    <!-- Generator: Sketch 53.2 (72643) - https://sketchapp.com -->
    <title>l-rus-2 (3)</title>
    <desc>Created with Sketch.</desc>
    <g id="Page-1" stroke="none" stroke-width="1" fill="none" fill-rule="evenodd">
        <g id="l-rus-2-(3)" fill-rule="nonzero">
            <path d="M2.9,14 L3.5,14.1 C3.4,14.5 3.3,14.8 3,15.1 C2.7,15.3 2.4,15.5 2,15.5 C1.5,15.5 1.1,15.3 0.8,15 C0.5,14.7 0.3,14.2 0.3,13.6 C0.3,13.2 0.4,12.9 0.5,12.6 C0.6,12.3 0.8,12.1 1.1,11.9 C1.4,11.8 1.7,11.7 2,11.7 C2.4,11.7 2.7,11.8 3,12 C3.3,12.2 3.4,12.5 3.5,12.8 L2.9,12.9 L2.6,12.3 C2.5,12.2 2.3,12.1 2.1,12.1 C1.8,12.1 1.5,12.2 1.3,12.4 C1.1,12.7 1,13.1 1,13.5 C1,14 1.1,14.3 1.3,14.6 C1.5,14.8 1.7,14.9 2,14.9 C2.2,14.9 2.4,14.8 2.6,14.7 C2.8,14.6 2.9,14.3 2.9,14 L2.9,14 Z M4,11.7 L6.9,11.7 L6.9,15.3 L6.3,15.3 L6.3,12.2 L4.7,12.2 L4.7,15.3 L4,15.3 L4,11.7 Z M10.3,14.2 L10.9,14.3 C10.8,14.7 10.6,15 10.3,15.2 C10,15.4 9.7,15.5 9.3,15.5 C8.8,15.5 8.3,15.3 8,15 C7.7,14.7 7.5,14.2 7.5,13.6 C7.5,13 7.7,12.5 8,12.2 C8.3,11.9 8.7,11.7 9.2,11.7 C9.7,11.7 10.1,11.9 10.4,12.2 C10.7,12.5 10.9,13 10.9,13.6 L10.9,13.8 L8.2,13.8 C8.2,14.2 8.3,14.5 8.5,14.7 C8.7,14.9 9,15 9.3,15 C9.5,15 9.7,14.9 9.9,14.8 C10.1,14.7 10.2,14.5 10.3,14.2 L10.3,14.2 Z M8.3,13.2 L10.3,13.2 C10.3,12.9 10.2,12.7 10.1,12.5 C9.9,12.3 9.6,12.1 9.3,12.1 C9,12.1 8.8,12.2 8.6,12.4 C8.4,12.6 8.3,12.9 8.3,13.2 L8.3,13.2 Z M11.7,11.7 L12.3,11.7 L12.3,14.8 L14,14.8 L14,11.7 L14.6,11.7 L14.6,14.8 L15,14.8 L15,16.3 L14.5,16.3 L14.5,15.3 L11.7,15.3 L11.7,11.7 L11.7,11.7 Z M15.7,11.7 L16.3,11.7 L16.3,14.5 L18,11.7 L18.7,11.7 L18.7,15.3 L18.1,15.3 L18.1,12.5 L16.4,15.3 L15.7,15.3 L15.7,11.7 L15.7,11.7 Z M22,14.9 C21.8,15.1 21.6,15.2 21.3,15.3 C21.1,15.4 20.9,15.4 20.6,15.4 C20.2,15.4 19.9,15.3 19.7,15.1 C19.5,14.9 19.4,14.7 19.4,14.4 C19.4,14.2 19.4,14.1 19.5,13.9 C19.6,13.8 19.7,13.6 19.8,13.5 C19.9,13.4 20.1,13.3 20.2,13.3 C20.3,13.3 20.5,13.2 20.7,13.2 C21.2,13.1 21.6,13.1 21.8,13 L21.8,12.8 C21.8,12.6 21.7,12.4 21.6,12.3 C21.4,12.2 21.2,12.1 20.9,12.1 C20.6,12.1 20.4,12.2 20.3,12.3 C20.2,12.4 20.1,12.6 20,12.8 L19.4,12.7 C19.5,12.4 19.5,12.2 19.7,12.1 C19.9,12 20,11.8 20.2,11.7 C20.4,11.6 20.7,11.6 21,11.6 C21.3,11.6 21.6,11.6 21.8,11.7 C22,11.8 22.1,11.9 22.2,12 C22.3,12.1 22.4,12.2 22.4,12.4 L22.4,14.9 C22.4,15.1 22.5,15.2 22.6,15.3 L22,15.3 C22.1,15.2 22,15.1 22,14.9 L22,14.9 Z M22,13.5 C21.8,13.6 21.4,13.7 21,13.7 C20.7,13.7 20.6,13.8 20.5,13.8 C20.4,13.8 20.3,13.9 20.3,14 C20.3,14.1 20.2,14.2 20.2,14.3 C20.2,14.5 20.3,14.6 20.4,14.7 C20.5,14.8 20.7,14.9 20.9,14.9 C21.1,14.9 21.3,14.8 21.5,14.7 C21.7,14.6 21.8,14.5 21.9,14.3 C22,14.2 22,14 22,13.7 L22,13.5 Z M23.8,11.7 L26.7,11.7 L26.7,15.3 L26.1,15.3 L26.1,12.2 L24.5,12.2 L24.5,14.8 C24.5,14.9 24.4,15.1 24.3,15.2 C24.2,15.3 24,15.4 23.8,15.4 L23.3,15.4 L23.3,14.9 L23.9,14.9 C24,14.9 24,14.8 24,14.8 L24,11.7 L23.8,11.7 Z M27.6,11.7 L28.2,11.7 L28.2,14.5 L29.9,11.7 L30.6,11.7 L30.6,15.3 L30,15.3 L30,12.5 L28.3,15.3 L27.6,15.3 L27.6,11.7 L27.6,11.7 Z M32.3,13.7 L32.3,13.2 L32.8,13.2 C32.9,13.2 33,13.1 33.1,13 C33.2,12.9 33.2,12.8 33.2,12.7 C33.2,12.5 33.1,12.4 33,12.3 C32.9,12.2 32.7,12.2 32.6,12.2 C32.3,12.2 32,12.4 31.9,12.8 L31.3,12.7 C31.5,12 31.9,11.7 32.6,11.7 C33,11.7 33.3,11.8 33.5,12 C33.7,12.2 33.8,12.5 33.8,12.8 C33.8,13.1 33.7,13.3 33.4,13.5 C33.6,13.6 33.7,13.7 33.8,13.9 C33.9,14.1 33.9,14.2 33.9,14.4 C33.9,14.7 33.8,15 33.5,15.2 C33.3,15.4 32.9,15.5 32.5,15.5 C31.7,15.5 31.2,15.1 31.1,14.4 L31.7,14.3 C31.8,14.5 31.9,14.7 32,14.8 C32.2,14.9 32.3,15 32.6,15 C32.9,15 33,14.9 33.1,14.8 C33.2,14.7 33.3,14.5 33.3,14.4 C33.3,14.3 33.3,14.1 33.2,14 C33.1,13.9 33,13.8 32.9,13.8 L32.4,13.8 C32.4,13.7 32.4,13.7 32.3,13.7 L32.3,13.7 Z M34.7,11.7 L35.3,11.7 L35.3,14.5 L37,11.7 L37.7,11.7 L37.7,15.3 L37.1,15.3 L37.1,12.5 L35.4,15.3 L34.7,15.3 L34.7,11.7 L34.7,11.7 Z M38.6,16.8 L38.6,11.8 L39.2,11.8 L39.2,12.3 C39.3,12.1 39.5,12 39.6,11.9 C39.8,11.8 40,11.8 40.2,11.8 C40.5,11.8 40.8,11.9 41,12 C41.2,12.2 41.4,12.4 41.5,12.7 C41.6,13 41.7,13.3 41.7,13.7 C41.7,14.1 41.6,14.4 41.5,14.7 C41.4,15 41.2,15.2 40.9,15.4 C40.6,15.6 40.4,15.6 40.1,15.6 C39.9,15.6 39.7,15.6 39.5,15.5 C39.3,15.4 39.2,15.3 39.1,15.2 L39.1,17 L38.6,17 L38.6,16.8 Z M39.2,13.6 C39.2,14.1 39.3,14.4 39.5,14.6 C39.7,14.8 39.9,14.9 40.2,14.9 C40.5,14.9 40.7,14.8 40.9,14.6 C41.1,14.4 41.2,14 41.2,13.5 C41.2,13 41.1,12.7 40.9,12.5 C40.7,12.3 40.5,12.2 40.2,12.2 C39.9,12.2 39.7,12.3 39.5,12.6 C39.3,12.7 39.2,13.1 39.2,13.6 Z M42.3,13.6 C42.3,12.9 42.5,12.4 42.9,12.1 C43.2,11.8 43.6,11.7 44,11.7 C44.5,11.7 44.9,11.9 45.2,12.2 C45.5,12.5 45.7,13 45.7,13.6 C45.7,14.1 45.6,14.4 45.5,14.7 C45.4,15 45.2,15.2 44.9,15.3 C44.6,15.4 44.3,15.5 44,15.5 C43.5,15.5 43.1,15.3 42.8,15 C42.5,14.6 42.3,14.2 42.3,13.6 L42.3,13.6 Z M42.9,13.6 C42.9,14.1 43,14.4 43.2,14.6 C43.4,14.8 43.7,14.9 44,14.9 C44.3,14.9 44.6,14.8 44.8,14.6 C45,14.4 45.1,14 45.1,13.5 C45.1,13.1 45,12.7 44.8,12.5 C44.6,12.3 44.3,12.2 44,12.2 C43.7,12.2 43.4,12.3 43.2,12.5 C43,12.7 42.9,13.1 42.9,13.6 Z M46.4,11.7 L47.8,11.7 C48.1,11.7 48.4,11.7 48.6,11.8 C48.8,11.9 48.9,12 49,12.1 C49.1,12.3 49.2,12.4 49.2,12.7 C49.2,12.9 49.2,13 49.1,13.2 L48.8,13.5 C49,13.6 49.1,13.7 49.2,13.8 C49.3,14 49.4,14.1 49.4,14.4 C49.4,14.7 49.3,15 49,15.2 C48.8,15.4 48.5,15.4 48,15.4 L46.4,15.4 L46.4,11.7 Z M47,13.3 L48.2,13.3 C48.3,13.3 48.4,13.2 48.5,13.1 C48.6,13 48.6,12.9 48.6,12.8 C48.6,12.6 48.5,12.5 48.4,12.4 C48.3,12.3 48,12.3 47.7,12.3 L47,12.3 L47,13.3 Z M47,14.9 L47.8,14.9 C48.1,14.9 48.4,14.9 48.5,14.8 C48.6,14.7 48.7,14.6 48.7,14.4 C48.7,14.3 48.7,14.2 48.6,14.1 C48.5,14 48.4,13.9 48.3,13.9 L47,13.9 L47,14.9 Z M52.4,14.9 C52.2,15.1 52,15.2 51.7,15.3 C51.5,15.4 51.3,15.4 51,15.4 C50.6,15.4 50.3,15.3 50.1,15.1 C49.9,14.9 49.8,14.7 49.8,14.4 C49.8,14.2 49.8,14.1 49.9,13.9 C50,13.8 50.1,13.6 50.2,13.5 C50.3,13.4 50.5,13.3 50.6,13.3 C50.7,13.3 50.9,13.2 51.1,13.2 C51.6,13.1 52,13.1 52.2,13 L52.2,12.8 C52.2,12.6 52.1,12.4 52,12.3 C51.8,12.2 51.6,12.1 51.3,12.1 C51,12.1 50.8,12.2 50.7,12.3 C50.6,12.4 50.5,12.6 50.4,12.8 L50,12.8 C50.1,12.5 50.1,12.3 50.3,12.2 C50.4,12 50.6,11.9 50.8,11.8 C51,11.7 51.3,11.7 51.6,11.7 C51.9,11.7 52.2,11.7 52.4,11.8 C52.6,11.9 52.7,12 52.8,12.1 C52.9,12.2 53,12.3 53,12.5 L53,15 C53,15.2 53.1,15.3 53.2,15.4 L52.6,15.4 C52.5,15.2 52.5,15.1 52.4,14.9 L52.4,14.9 Z M52.4,13.5 C52.2,13.6 51.8,13.7 51.4,13.7 C51.1,13.7 51,13.8 50.9,13.8 C50.8,13.8 50.7,13.9 50.7,14 C50.6,14.1 50.6,14.2 50.6,14.3 C50.6,14.5 50.7,14.6 50.8,14.7 C50.9,14.8 51.1,14.9 51.3,14.9 C51.5,14.9 51.7,14.8 51.9,14.7 C52.1,14.6 52.2,14.5 52.3,14.3 C52.4,14.2 52.4,14 52.4,13.7 L52.4,13.5 Z M54,11.7 L54.6,11.7 L54.6,13.2 L56.3,13.2 L56.3,11.7 L56.9,11.7 L56.9,15.3 L56.3,15.3 L56.3,13.7 L54.6,13.7 L54.6,15.3 L54,15.3 L54,11.7 Z M57.8,11.7 L58.4,11.7 L58.4,13.2 L60.1,13.2 L60.1,11.7 L60.7,11.7 L60.7,15.3 L60.1,15.3 L60.1,13.7 L58.4,13.7 L58.4,15.3 L57.8,15.3 L57.8,11.7 Z M61.7,11.7 L62.3,11.7 L62.3,13.1 L63.1,13.1 C63.6,13.1 64,13.2 64.3,13.4 C64.6,13.6 64.7,13.9 64.7,14.2 C64.7,14.5 64.6,14.8 64.4,15 C64.2,15.2 63.8,15.3 63.3,15.3 L61.8,15.3 L61.8,11.7 L61.7,11.7 Z M62.3,14.9 L63,14.9 C63.4,14.9 63.7,14.9 63.8,14.8 C64,14.7 64,14.6 64,14.4 C64,14.2 63.9,14.1 63.8,14 C63.7,13.9 63.4,13.8 63,13.8 L62.3,13.8 L62.3,14.9 Z M65.1,11.7 L65.7,11.7 L65.7,15.3 L65.1,15.3 L65.1,11.7 Z M66.7,11.7 L67.3,11.7 L67.3,14.5 L69,11.7 L69.7,11.7 L69.7,15.3 L69.1,15.3 L69.1,12.5 L67.4,15.3 L66.7,15.3 L66.7,11.7 L66.7,11.7 Z M68.9,10.4 L69.3,10.4 C69.3,10.7 69.2,10.9 69,11.1 C68.8,11.3 68.6,11.3 68.3,11.3 C68,11.3 67.8,11.2 67.6,11.1 C67.4,10.9 67.3,10.7 67.3,10.4 L67.7,10.4 C67.7,10.6 67.8,10.7 67.9,10.7 C68,10.7 68.1,10.8 68.3,10.8 C68.5,10.8 68.6,10.8 68.7,10.7 C68.8,10.6 68.8,10.5 68.9,10.4 L68.9,10.4 Z" id="Shape" fill="#666666"></path>
            <path d="M0.6,19.4 L2,19.4 L3.1,22.4 L4.2,19.4 L5.6,19.4 L5.6,23.7 L4.6,23.7 L4.6,20.8 L3.5,23.7 L2.5,23.7 L1.5,20.8 L1.5,23.7 L0.5,23.7 L0.5,19.4 L0.6,19.4 Z M7.5,20.7 L6.5,20.5 C6.6,20.1 6.8,19.8 7.1,19.6 C7.4,19.4 7.8,19.3 8.4,19.3 C8.9,19.3 9.3,19.4 9.5,19.5 C9.8,19.6 9.9,19.8 10,20 C10.1,20.2 10.2,20.5 10.2,21 L10.2,22.3 C10.2,22.7 10.2,23 10.3,23.1 C10.3,23.3 10.4,23.5 10.5,23.7 L9.4,23.7 C9.4,23.6 9.3,23.5 9.3,23.4 L9.3,23.3 C9.1,23.5 8.9,23.6 8.7,23.7 C8.5,23.8 8.2,23.8 8,23.8 C7.6,23.8 7.2,23.7 6.9,23.4 C6.6,23.2 6.5,22.9 6.5,22.5 C6.5,22.3 6.6,22 6.7,21.8 C6.8,21.6 7,21.5 7.2,21.4 C7.4,21.3 7.7,21.2 8.1,21.1 C8.6,21 9,20.9 9.2,20.8 L9.2,20.7 C9.2,20.5 9.1,20.3 9,20.2 C8.9,20.1 8.7,20.1 8.4,20.1 C8.2,20.1 8,20.1 7.9,20.2 C7.7,20.4 7.6,20.5 7.5,20.7 L7.5,20.7 Z M9.1,21.7 C9,21.7 8.7,21.8 8.4,21.9 C8,21.9 7.8,22 7.7,22 C7.5,22.1 7.5,22.2 7.5,22.4 C7.5,22.6 7.6,22.7 7.7,22.8 C7.8,23 8,23 8.1,23 C8.3,23 8.5,22.9 8.7,22.8 C8.8,22.7 8.9,22.6 9,22.4 L9,21.7 L9.1,21.7 Z M11.3,19.4 L14.2,19.4 L14.2,20.3 L12.4,20.3 L12.4,23.7 L11.3,23.7 L11.3,19.4 L11.3,19.4 Z M15.7,20.7 L14.7,20.5 C14.8,20.1 15,19.8 15.3,19.6 C15.6,19.4 16,19.3 16.6,19.3 C17.1,19.3 17.5,19.4 17.7,19.5 C18,19.6 18.1,19.8 18.2,20 C18.3,20.2 18.4,20.5 18.4,21 L18.4,22.3 C18.4,22.7 18.4,23 18.5,23.1 C18.5,23.3 18.6,23.5 18.7,23.7 L17.6,23.7 C17.6,23.6 17.5,23.5 17.5,23.4 L17.5,23.3 C17.3,23.5 17.1,23.6 16.9,23.7 C16.7,23.8 16.4,23.8 16.2,23.8 C15.8,23.8 15.4,23.7 15.1,23.4 C14.8,23.2 14.7,22.9 14.7,22.5 C14.7,22.3 14.8,22 14.9,21.8 C15,21.6 15.2,21.5 15.4,21.4 C15.6,21.3 15.9,21.2 16.3,21.1 C16.8,21 17.2,20.9 17.4,20.8 L17.4,20.7 C17.4,20.5 17.3,20.3 17.2,20.2 C17.1,20.1 16.9,20.1 16.6,20.1 C16.4,20.1 16.2,20.1 16.1,20.2 C15.8,20.4 15.7,20.5 15.7,20.7 L15.7,20.7 Z M17.2,21.7 C17.1,21.7 16.8,21.8 16.5,21.9 C16.2,21.9 16,22 15.9,22 C15.7,22.1 15.7,22.2 15.7,22.4 C15.7,22.6 15.8,22.7 15.9,22.8 C16,22.9 16.2,23 16.4,23 C16.6,23 16.8,22.9 17,22.8 C17.1,22.7 17.2,22.6 17.3,22.4 L17.3,21.7 L17.2,21.7 Z M20.7,22 L20.7,21.3 L21.1,21.3 C21.2,21.3 21.3,21.2 21.4,21.1 C21.5,21 21.5,20.9 21.5,20.8 C21.5,20.7 21.5,20.5 21.4,20.4 C21.3,20.3 21.2,20.2 21,20.2 C20.8,20.2 20.7,20.2 20.6,20.3 C20.5,20.4 20.4,20.5 20.3,20.8 L19.3,20.6 C19.4,20.2 19.6,19.9 19.9,19.7 C20.2,19.5 20.6,19.4 21,19.4 C21.5,19.4 21.9,19.5 22.2,19.8 C22.5,20 22.6,20.3 22.6,20.7 C22.6,20.9 22.5,21.1 22.4,21.3 C22.3,21.4 22.1,21.6 21.8,21.7 C22.1,21.8 22.4,21.9 22.5,22.1 C22.7,22.3 22.7,22.5 22.7,22.8 C22.7,23.1 22.5,23.4 22.2,23.7 C21.9,23.9 21.4,24.1 20.8,24.1 C19.8,24.1 19.1,23.7 18.9,22.9 L20,22.7 C20.2,23.1 20.4,23.3 20.8,23.3 C21,23.3 21.2,23.2 21.3,23.1 C21.4,23 21.5,22.9 21.5,22.7 C21.5,22.5 21.4,22.4 21.3,22.3 C21.3,22 21.1,22 20.9,22 L20.7,22 L20.7,22 Z M23.7,19.4 L24.8,19.4 L24.8,22.1 L26.6,19.4 L27.7,19.4 L27.7,23.7 L26.6,23.7 L26.6,21 L24.8,23.8 L23.7,23.8 L23.7,19.4 Z M28.8,19.4 L30,19.4 L30,21 L31.6,21 L31.6,19.4 L32.8,19.4 L32.8,23.7 L31.6,23.7 L31.6,21.9 L30,21.9 L30,23.7 L28.9,23.7 L28.9,19.4 L28.8,19.4 Z" id="Shape" fill="#666666"></path>
            <path d="M37.3,23.8 L37.3,17.9 L38.5,17.9 L38.5,22.8 L41.5,22.8 L41.5,23.8 L37.3,23.8 L37.3,23.8 Z M42.3,18.8 L42.3,17.7 L43.4,17.7 L43.4,18.8 L42.3,18.8 Z M42.3,23.8 L42.3,19.5 L43.4,19.5 L43.4,23.8 L42.3,23.8 Z M47.2,22.4 L48.3,22.6 C48.2,23 47.9,23.3 47.6,23.6 C47.3,23.8 46.9,23.9 46.4,23.9 C45.6,23.9 45.1,23.7 44.7,23.2 C44.4,22.8 44.3,22.3 44.3,21.7 C44.3,21 44.5,20.4 44.9,20 C45.3,19.6 45.8,19.4 46.3,19.4 C46.9,19.4 47.5,19.6 47.8,20 C48.2,20.4 48.4,21.1 48.3,22 L45.4,22 C45.4,22.3 45.5,22.6 45.7,22.8 C45.9,23 46.1,23.1 46.4,23.1 C46.6,23.1 46.7,23.1 46.9,23 C47.1,22.9 47.1,22.6 47.2,22.4 L47.2,22.4 Z M47.3,21.2 C47.3,20.9 47.2,20.6 47,20.4 C46.8,20.2 46.6,20.1 46.4,20.1 C46.1,20.1 45.9,20.2 45.8,20.4 C45.6,20.6 45.6,20.8 45.6,21.1 L47.3,21.1 L47.3,21.2 Z M49.3,23.8 L49.3,17.8 L50.4,17.8 L50.4,20 C50.8,19.6 51.2,19.4 51.7,19.4 C52.2,19.4 52.7,19.6 53,20 C53.3,20.4 53.5,20.9 53.5,21.6 C53.5,22.3 53.3,22.9 53,23.3 C52.6,23.7 52.2,23.9 51.7,23.9 C51.5,23.9 51.2,23.8 51,23.7 C50.8,23.6 50.6,23.4 50.4,23.1 L50.4,23.7 L49.3,23.7 L49.3,23.8 Z M50.4,21.5 C50.4,21.9 50.5,22.3 50.6,22.5 C50.8,22.8 51.1,23 51.4,23 C51.7,23 51.9,22.9 52,22.7 C52.2,22.5 52.3,22.1 52.3,21.7 C52.3,21.2 52.2,20.8 52,20.6 C51.8,20.4 51.6,20.3 51.3,20.3 C51,20.3 50.8,20.4 50.6,20.6 C50.5,20.7 50.4,21 50.4,21.5 L50.4,21.5 Z M55.6,17.8 L55.6,20 C56,19.6 56.4,19.3 56.9,19.3 C57.2,19.3 57.4,19.3 57.6,19.4 C57.8,19.5 58,19.6 58.1,19.8 C58.2,20 58.3,20.1 58.3,20.3 C58.3,20.5 58.4,20.8 58.4,21.2 L58.4,23.7 L57.3,23.7 L57.3,21.4 C57.3,20.9 57.3,20.7 57.2,20.5 C57.2,20.4 57.1,20.3 57,20.2 C56.9,20.1 56.8,20.1 56.6,20.1 C56.4,20.1 56.2,20.1 56.1,20.2 C56,20.3 55.8,20.4 55.8,20.6 C55.7,20.8 55.7,21.1 55.7,21.4 L55.7,23.6 L54.6,23.6 L54.6,17.6 L55.6,17.6 L55.6,17.8 Z M62.1,22.4 L63.2,22.6 C63.1,23 62.8,23.3 62.5,23.6 C62.2,23.8 61.8,23.9 61.3,23.9 C60.5,23.9 60,23.7 59.6,23.2 C59.3,22.8 59.2,22.3 59.2,21.7 C59.2,21 59.4,20.4 59.8,20 C60.2,19.6 60.7,19.4 61.2,19.4 C61.8,19.4 62.4,19.6 62.7,20 C63.1,20.4 63.3,21.1 63.2,22 L60.3,22 C60.3,22.3 60.4,22.6 60.6,22.8 C60.8,23 61,23.1 61.3,23.1 C61.5,23.1 61.6,23.1 61.8,23 C62,22.9 62,22.6 62.1,22.4 Z M62.1,21.2 C62.1,20.9 62,20.6 61.8,20.4 C61.6,20.2 61.4,20.1 61.2,20.1 C60.9,20.1 60.7,20.2 60.6,20.4 C60.4,20.6 60.4,20.8 60.4,21.1 L62.1,21.1 L62.1,21.2 Z M65.3,23.8 L64.2,23.8 L64.2,19.5 L65.3,19.5 L65.3,20 C65.5,19.7 65.6,19.5 65.8,19.4 C65.9,19.3 66.1,19.3 66.3,19.3 C66.6,19.3 66.8,19.4 67.1,19.5 L66.7,20.5 C66.5,20.4 66.3,20.3 66.2,20.3 C66,20.3 65.9,20.3 65.8,20.4 C65.7,20.5 65.6,20.6 65.5,20.9 C65.4,21.1 65.4,21.6 65.4,22.4 L65.4,23.8 L65.3,23.8 Z M68.6,23.8 L67.5,23.8 L67.5,19.5 L68.6,19.5 L68.6,20 C68.8,19.7 68.9,19.5 69.1,19.4 C69.2,19.3 69.4,19.3 69.6,19.3 C69.9,19.3 70.1,19.4 70.4,19.5 L70,20.5 C69.8,20.4 69.6,20.3 69.5,20.3 C69.3,20.3 69.2,20.3 69.1,20.4 C69,20.5 68.9,20.6 68.8,20.9 C68.7,21.1 68.7,21.6 68.7,22.4 L68.7,23.8 L68.6,23.8 Z" id="Shape" fill="#666666"></path>
            <path d="M0.9,6.6 L0.9,0 L2.2,0 L2.2,6.6 L0.9,6.6 Z M4,4.8 L4,3.6 L6.5,3.6 L6.5,4.9 L4,4.8 Z M9.1,6.6 L7.9,6.6 L7.9,1.8 L9.1,1.8 L9.1,2.5 C9.3,2.2 9.5,2 9.6,1.9 C9.8,1.8 9.9,1.7 10.1,1.7 C10.4,1.7 10.7,1.8 10.9,1.9 L10.5,3 C10.3,2.9 10.1,2.8 9.9,2.8 C9.7,2.8 9.6,2.8 9.4,2.9 C9.3,3 9.2,3.2 9.1,3.4 C9,3.7 9,4.2 9,5 L9,6.6 L9.1,6.6 Z M15.4,6.6 L15.4,5.9 C15.2,6.2 15,6.4 14.7,6.5 C14.4,6.6 14.1,6.7 13.8,6.7 C13.5,6.7 13.2,6.6 12.9,6.5 C12.6,6.4 12.5,6.2 12.3,5.9 C12.2,5.6 12.1,5.3 12.1,4.8 L12.1,1.8 L13.4,1.8 L13.4,4 C13.4,4.7 13.4,5.1 13.5,5.2 C13.5,5.4 13.6,5.5 13.8,5.6 C13.9,5.7 14.1,5.7 14.3,5.7 C14.5,5.7 14.7,5.6 14.9,5.5 C15.1,5.4 15.2,5.2 15.3,5.1 C15.4,4.9 15.4,4.5 15.4,3.8 L15.4,1.8 L16.7,1.8 L16.7,6.6 L15.4,6.6 L15.4,6.6 Z M18.1,5.2 L19.4,5 L19.7,5.6 C19.9,5.7 20.1,5.8 20.4,5.8 C20.7,5.8 21,5.7 21.1,5.6 C21.2,5.5 21.3,5.4 21.3,5.3 C21.3,5.2 21.3,5.1 21.2,5.1 C21.2,5 21,4.9 20.8,4.9 C19.8,4.7 19.1,4.5 18.9,4.3 C18.5,4 18.3,3.7 18.3,3.2 C18.3,2.8 18.5,2.4 18.8,2.2 C19.1,1.9 19.6,1.8 20.3,1.8 C21,1.8 21.4,1.9 21.8,2.1 C22.1,2.3 22.3,2.6 22.5,3 L21.3,3.2 C21.2,3 21.2,2.9 21,2.8 C20.8,2.7 20.7,2.7 20.4,2.7 C20.1,2.7 19.8,2.7 19.7,2.8 C19.6,2.9 19.6,3 19.6,3.1 C19.6,3.2 19.6,3.3 19.7,3.3 C19.8,3.4 20.2,3.5 20.9,3.7 C21.6,3.9 22,4 22.3,4.3 C22.6,4.5 22.7,4.8 22.7,5.2 C22.7,5.6 22.5,6 22.2,6.3 C21.9,6.6 21.3,6.8 20.6,6.8 C19.9,6.8 19.4,6.7 19.1,6.4 C18.8,6.1 18.2,5.7 18.1,5.2 L18.1,5.2 Z M24.4,6.6 L24.4,5.3 L25.7,5.3 L25.7,6.6 L24.4,6.6 Z M28.9,6.6 L27.6,6.6 L27.6,1.8 L28.8,1.8 L28.8,2.5 C29,2.2 29.1,2 29.3,1.9 C29.5,1.8 29.6,1.7 29.8,1.7 C30.1,1.7 30.4,1.8 30.6,1.9 L30.2,3 C30,2.9 29.8,2.8 29.6,2.8 C29.4,2.8 29.3,2.8 29.1,2.9 C29.1,3.1 29,3.3 29,3.5 C28.9,3.8 28.9,4.3 28.9,5.1 L28.9,6.6 Z M35.1,6.6 L35.1,5.9 C34.9,6.2 34.7,6.4 34.4,6.5 C34.1,6.6 33.8,6.7 33.5,6.7 C33.2,6.7 32.9,6.6 32.6,6.5 C32.3,6.4 32.2,6.2 32,5.9 C31.9,5.6 31.8,5.3 31.8,4.8 L31.8,1.8 L33.1,1.8 L33.1,4 C33.1,4.7 33.1,5.1 33.2,5.2 C33.2,5.4 33.3,5.5 33.5,5.6 C33.6,5.7 33.8,5.7 34,5.7 C34.2,5.7 34.4,5.6 34.6,5.5 C34.8,5.4 34.9,5.2 35,5.1 L35,1.8 L36.3,1.8 L36.3,6.6 L35.1,6.6 L35.1,6.6 Z" id="Shape" fill="#394791"></path>
        </g>
    </g>
</svg>