<?xml version="1.0" encoding="UTF-8"?>
<svg width="39px" height="39px" viewBox="0 0 39 39" version="1.1" xmlns="http://www.w3.org/2000/svg" xmlns:xlink="http://www.w3.org/1999/xlink">
    <!-- Generator: Sketch 53.2 (72643) - https://sketchapp.com -->
    <title>new</title>
    <desc>Created with Sketch.</desc>
    <g id="Page-1" stroke="none" stroke-width="1" fill="none" fill-rule="evenodd">
        <g id="02---02---Карточка_desktop" transform="translate(-456.000000, -892.000000)">
            <g id="карточка" transform="translate(132.000000, 190.000000)">
                <g id="new" transform="translate(320.000000, 698.000000)">
                    <g transform="translate(1.043478, 1.043478)">
                        <path d="M15.8720873,6.8720873 C10.9015246,6.8720873 6.8720873,10.9015246 6.8720873,15.8720873 L6.8720873,29.2633917 C6.8720873,34.2339544 10.9015246,38.2633917 15.8720873,38.2633917 L29.2633917,38.2633917 C34.2339544,38.2633917 38.2633917,34.2339544 38.2633917,29.2633917 L38.2633917,15.8720873 C38.2633917,10.9015246 34.2339544,6.8720873 29.2633917,6.8720873 L15.8720873,6.8720873 Z" id="Rectangle-13" stroke="#31B64B" stroke-width="2" transform="translate(22.567739, 22.567739) rotate(-23.000000) translate(-22.567739, -22.567739) "></path>
                        <path d="M9.22434783,26.0869565 L9.22434783,18.7826087 L10.706087,18.7826087 L14.1286957,23.28 L14.1286957,18.7826087 L15.7147826,18.7826087 L15.7147826,26.0869565 L14.3478261,26.0869565 L10.8104348,21.4434783 L10.8104348,26.0869565 L9.22434783,26.0869565 Z M17.4678261,26.0869565 L17.4678261,18.7826087 L22.9773913,18.7826087 L22.9773913,20.2121739 L19.0643478,20.2121739 L19.0643478,21.693913 L22.5078261,21.693913 L22.5078261,23.1234783 L19.0643478,23.1234783 L19.0643478,24.6573913 L23.0295652,24.6573913 L23.0295652,26.0869565 L17.4678261,26.0869565 Z M26.3895652,26.1391304 L23.8956522,18.7826087 L25.6173913,18.7826087 L27.1304348,23.7286957 L28.7686957,18.7617391 L30.146087,18.7617391 L31.7843478,23.7286957 L33.2973913,18.7826087 L34.9773913,18.7826087 L32.4834783,26.1391304 L31.0852174,26.1391304 L29.4365217,21.36 L27.7878261,26.1391304 L26.3895652,26.1391304 Z" id="NEW" fill="#31B64B"></path>
                    </g>
                </g>
            </g>
        </g>
    </g>
</svg>