<?xml version="1.0" encoding="UTF-8"?>
<svg width="39px" height="39px" viewBox="0 0 39 39" version="1.1" xmlns="http://www.w3.org/2000/svg" xmlns:xlink="http://www.w3.org/1999/xlink">
    <!-- Generator: Sketch 53.2 (72643) - https://sketchapp.com -->
    <title>sale</title>
    <desc>Created with Sketch.</desc>
    <g id="Page-1" stroke="none" stroke-width="1" fill="none" fill-rule="evenodd">
        <g id="02---02---Карточка_desktop" transform="translate(-512.000000, -892.000000)">
            <g id="карточка" transform="translate(132.000000, 190.000000)">
                <g id="sale" transform="translate(376.000000, 698.000000)">
                    <g id="new" transform="translate(1.043478, 1.043478)">
                        <path d="M15.8720873,6.8720873 C10.9015246,6.8720873 6.8720873,10.9015246 6.8720873,15.8720873 L6.8720873,29.2633917 C6.8720873,34.2339544 10.9015246,38.2633917 15.8720873,38.2633917 L29.2633917,38.2633917 C34.2339544,38.2633917 38.2633917,34.2339544 38.2633917,29.2633917 L38.2633917,15.8720873 C38.2633917,10.9015246 34.2339544,6.8720873 29.2633917,6.8720873 L15.8720873,6.8720873 Z" id="Rectangle-13" stroke="#D0021B" stroke-width="2" transform="translate(22.567739, 22.567739) rotate(-23.000000) translate(-22.567739, -22.567739) "></path>
                        <path d="M18.8514783,22.2782609 C17.860169,22.2782609 17.0539161,21.9379164 16.4326957,21.2572174 C15.8114752,20.5765183 15.5008696,19.7339181 15.5008696,18.7293913 C15.5008696,17.7248645 15.8180838,16.8822643 16.4525217,16.2015652 C17.0869597,15.5208662 17.8998211,15.1805217 18.8911304,15.1805217 C19.8824397,15.1805217 20.6886925,15.5208662 21.309913,16.2015652 C21.9311335,16.8822643 22.2417391,17.7248645 22.2417391,18.7293913 C22.2417391,19.7207006 21.9245249,20.5599966 21.290087,21.2473043 C20.655649,21.9346121 19.8427876,22.2782609 18.8514783,22.2782609 Z M16.8886957,29.2173913 L27.0198261,15.3391304 L29.3791304,15.3391304 L19.248,29.2173913 L16.8886957,29.2173913 Z M27.3766957,29.376 C26.3853863,29.376 25.5791335,29.0356556 24.957913,28.3549565 C24.3366925,27.6742575 24.026087,26.8316572 24.026087,25.8271304 C24.026087,24.8226037 24.3433012,23.9800034 24.9777391,23.2993043 C25.6121771,22.6186053 26.4250385,22.2782609 27.4163478,22.2782609 C28.4076571,22.2782609 29.2139099,22.6186053 29.8351304,23.2993043 C30.4563509,23.9800034 30.7669565,24.8226037 30.7669565,25.8271304 C30.7669565,26.8184397 30.4497423,27.6577357 29.8153043,28.3450435 C29.1808664,29.0323513 28.368005,29.376 27.3766957,29.376 Z M18.8911304,20.474087 C19.2876542,20.474087 19.5982597,20.3055669 19.8229565,19.9685217 C20.0476533,19.6314766 20.16,19.2184372 20.16,18.7293913 C20.16,18.2535628 20.0377404,17.8438278 19.7932174,17.5001739 C19.5486944,17.15652 19.2347845,16.9846957 18.8514783,16.9846957 C18.4549545,16.9846957 18.1443489,17.1499114 17.9196522,17.4803478 C17.6949554,17.8107843 17.5826087,18.2271279 17.5826087,18.7293913 C17.5826087,19.2052198 17.7048683,19.6149548 17.9493913,19.9586087 C18.1939143,20.3022626 18.5078242,20.474087 18.8911304,20.474087 Z M27.4163478,27.5718261 C27.8128715,27.5718261 28.1234771,27.403306 28.3481739,27.0662609 C28.5728707,26.7292157 28.6852174,26.3161764 28.6852174,25.8271304 C28.6852174,25.351302 28.5629577,24.9415669 28.3184348,24.597913 C28.0739118,24.2542592 27.7600019,24.0824348 27.3766957,24.0824348 C26.9801719,24.0824348 26.6695663,24.2476505 26.4448696,24.578087 C26.2201728,24.9085234 26.1078261,25.3248671 26.1078261,25.8271304 C26.1078261,26.3029589 26.2300857,26.7126939 26.4746087,27.0563478 C26.7191317,27.4000017 27.0330416,27.5718261 27.4163478,27.5718261 Z" id="%" fill="#D0021B"></path>
                    </g>
                </g>
            </g>
        </g>
    </g>
</svg>