<?xml version="1.0" encoding="UTF-8"?>
<svg width="14px" height="16px" viewBox="0 0 14 16" version="1.1" xmlns="http://www.w3.org/2000/svg" xmlns:xlink="http://www.w3.org/1999/xlink">
    <!-- Generator: Sketch 53.2 (72643) - https://sketchapp.com -->
    <title>shield</title>
    <desc>Created with Sketch.</desc>
    <g id="Page-1" stroke="none" stroke-width="1" fill="none" fill-rule="evenodd">
        <g id="02---02---Карточка_desktop" transform="translate(-158.000000, -1062.000000)" fill="#394791">
            <g id="список-характеристик" transform="translate(132.000000, 968.000000)">
                <g id="Group-5" transform="translate(25.000000, 86.000000)">
                    <path d="M14.0182726,15.6656803 C14.0182726,17.8888686 12.8951979,19.9802362 10.6800497,21.8817821 C9.39247033,22.9871311 8.08518326,23.7076012 7.50921109,24 C6.18535762,23.3273219 1,20.3898339 1,15.6656803 L1,11.1516171 C1,10.7890636 1.26143498,10.4790513 1.62155782,10.4145059 C3.70518448,10.0411075 5.57965568,8.93302856 6.51152496,8.30582395 C6.80867305,8.1057557 7.15368794,8 7.50913629,8 C7.86462204,8 8.20967433,8.1057557 8.50678502,8.30578655 C9.43865431,8.93302856 11.3130881,10.0410327 13.3967522,10.4144311 C13.756875,10.4789765 14.0182726,10.7889888 14.0182726,11.1515423 L14.0182726,15.6656803 Z M6.70621941,17.1956265 L4.28408476,14.890055 L3.25240573,15.9739014 L6.79017328,19.34148 L12.1807224,13.3396196 L11.0675202,12.3397271 L6.70621941,17.1956265 Z" id="shield"></path>
                </g>
            </g>
        </g>
    </g>
</svg>