<?xml version="1.0" encoding="utf-8"?>
<!-- Generator: Adobe Illustrator 23.0.2, SVG Export Plug-In . SVG Version: 6.00 Build 0)  -->
<svg version="1.1" id="Слой_1" xmlns="http://www.w3.org/2000/svg" xmlns:xlink="http://www.w3.org/1999/xlink" x="0px" y="0px"
	 viewBox="0 0 24 24" style="enable-background:new 0 0 24 24;" xml:space="preserve">
<style type="text/css">
	.st0{fill-rule:evenodd;clip-rule:evenodd;fill:#48729E;}
	.st1{fill-rule:evenodd;clip-rule:evenodd;fill:#FFFFFF;}
</style>
<path class="st0" d="M22,24H2c-1.1,0-2-0.9-2-2L0,2c0-1.1,0.9-2,2-2l20,0c1.1,0,2,0.9,2,2v20C24,23.1,23.1,24,22,24z"/>
<path class="st1" d="M12.8,16.2c0,0,0.3,0,0.4-0.2c0.1-0.1,0.1-0.4,0.1-0.4s0-1.3,0.6-1.5c0.6-0.2,1.3,1.3,2.1,1.8
	c0.6,0.4,1.1,0.3,1.1,0.3l2.1,0c0,0,1.1-0.1,0.6-1c0-0.1-0.3-0.7-1.6-1.9c-1.3-1.3-1.2-1.1,0.5-3.2c1-1.3,1.4-2.1,1.3-2.5
	c-0.1-0.3-0.8-0.2-0.8-0.2l-2.4,0c0,0-0.2,0-0.3,0.1c-0.1,0.1-0.2,0.3-0.2,0.3s-0.4,1-0.9,1.9c-1.1,1.9-1.5,1.9-1.7,1.8
	c-0.4-0.3-0.3-1.1-0.3-1.6c0-1.8,0.3-2.5-0.5-2.7C12.6,7.1,12.4,7,11.7,7c-0.9,0-1.6,0-2,0.2C9.4,7.3,9.2,7.6,9.3,7.7
	c0.2,0,0.5,0.1,0.7,0.4c0.2,0.3,0.2,1.1,0.2,1.1s0.1,2.1-0.3,2.4c-0.3,0.2-0.8-0.2-1.7-1.9C7.7,8.8,7.4,7.8,7.4,7.8S7.3,7.7,7.2,7.6
	C7,7.4,6.8,7.4,6.8,7.4l-2.3,0c0,0-0.3,0-0.5,0.2C3.9,7.7,4,8,4,8s1.8,4.3,3.8,6.4c1.9,2,4,1.8,4,1.8H12.8z"/>
</svg>
