<svg xmlns="http://www.w3.org/2000/svg" width="24" height="24" viewBox="0 0 24 24">
  <g fill="none" fill-rule="evenodd">
    <rect width="24" height="24" fill="#394791" rx="2"/>
    <path fill="#FFF" d="M9.61564752,14.2489463 L11.3709933,16.1642784 L9.85471337,17.8445256 C9.76529898,17.9428678 9.63917762,18 9.50552663,18 L9.50552663,18 L6.34496309,18 C5.90447954,18 5.70682667,17.4492835 6.04942498,17.1720521 L6.04942498,17.1720521 L9.61564752,14.2489463 Z M9.92586841,10.6824951 L17.9515162,17.1712091 C18.2931733,17.4493772 18.0964617,17.9991571 17.6550369,17.9991571 L17.6550369,17.9991571 L14.4954146,17.9991571 C14.3617636,17.9991571 14.2356422,17.9429615 14.1462278,17.8446193 L14.1462278,17.8446193 L8.73242154,11.8700946 L9.92586841,10.6824951 Z M14.0754493,10.6828697 L15.2688961,11.8704692 L14.2843966,12.9634729 L12.7427042,11.7384097 L14.0754493,10.6828697 Z M4.68684373,6.66029784 C5.57157563,5.77990072 7.11703285,5.77990072 8.00082355,6.66029784 L8.00082355,6.66029784 L9.98958793,8.63931816 C10.1731227,8.82195373 10.1731227,9.11698043 9.98958793,9.2986794 L9.98958793,9.2986794 L7.33821583,11.9379976 C7.15562222,12.1196965 6.85820171,12.1196965 6.67560811,11.9379976 L6.67560811,11.9379976 L4.68684373,9.95804065 C3.77105209,9.04767257 3.77105209,7.57160251 4.68684373,6.66029784 Z M15.9991764,6.66029784 C16.8829671,5.77990072 18.4284244,5.77990072 19.3131563,6.66029784 C20.2289479,7.57160251 20.2289479,9.04767257 19.3131563,9.95804065 L19.3131563,9.95804065 L17.3243919,11.9379976 C17.1417983,12.1196965 16.8443778,12.1196965 16.6617842,11.9379976 L16.6617842,11.9379976 L13.9793523,9.2986794 C13.7958175,9.11698043 13.7958175,8.82195373 13.9793523,8.63931816 L13.9793523,8.63931816 Z"/>
  </g>
</svg>
