<?xml version="1.0" encoding="utf-8"?>
<!-- Generator: Adobe Illustrator 23.0.1, SVG Export Plug-In . SVG Version: 6.00 Build 0)  -->
<svg version="1.1" id="Слой_1" xmlns="http://www.w3.org/2000/svg" xmlns:xlink="http://www.w3.org/1999/xlink" x="0px" y="0px"
	 viewBox="0 0 24 24" style="enable-background:new 0 0 24 24;" xml:space="preserve">
<style type="text/css">
	.st0{fill-rule:evenodd;clip-rule:evenodd;fill:#41479B;}
	.st1{fill:#F5F5F5;}
	.st2{fill:#FF4B55;}
	.st3{fill:#FFFFFF;}
</style>
<title>flag</title>
<desc>Created with Sketch.</desc>
<g>
	<path class="st0" d="M21.6,24H2.4C1.1,24,0,22.9,0,21.6V2.4C0,1.1,1.1,0,2.4,0h19.2C22.9,0,24,1.1,24,2.4v19.2
		C24,22.9,22.9,24,21.6,24z"/>
	<g>
		<path class="st1" d="M12.8,0.6H12L7.9,3.3V0.6H5.7v2.7L1.6,0.6H0.8C0.6,0.6,0.4,0.8,0.4,1v0.4l3.5,2.3H0.4v2.2h3.5L0.4,8.2v0.4
			c0,0.2,0.2,0.4,0.4,0.4h0.8l4.1-2.7v2.7h2.2V6.2L12,8.9h0.8c0.2,0,0.4-0.2,0.4-0.4V8.2L9.7,5.9h3.5V3.7H9.7l3.5-2.3V1
			C13.2,0.8,13,0.6,12.8,0.6z"/>
		<g>
			<polygon class="st2" points="13.2,4.1 7.5,4.1 7.5,0.6 6.2,0.6 6.2,4.1 0.4,4.1 0.4,5.5 6.2,5.5 6.2,8.9 7.5,8.9 7.5,5.5 
				13.2,5.5 			"/>
			<path class="st2" d="M5.3,3.7l-4.6-3C0.5,0.7,0.4,0.8,0.4,1l0,0l4,2.6L5.3,3.7L5.3,3.7z"/>
			<path class="st2" d="M8.8,3.7l4.4-2.9c-0.1-0.1-0.2-0.2-0.4-0.2h-0.1L7.9,3.7H8.8z"/>
			<path class="st2" d="M4.9,5.9L0.5,8.8C0.6,8.9,0.8,9,0.9,9H1l4.7-3.1L4.9,5.9L4.9,5.9z"/>
			<path class="st2" d="M13.2,8.6L9.1,5.9H8.3L13,8.9C13.1,8.8,13.2,8.7,13.2,8.6z"/>
		</g>
		<g>
			<path class="st1" d="M4.3,15.8l0.4,1.1l1.1-0.4c0.1-0.1,0.2,0.1,0.1,0.1l-0.7,1l1,0.5c0.1,0.1,0.1,0.2-0.1,0.2L5,18.3l0.2,1.1
				c0,0.1-0.1,0.2-0.2,0.1l-0.8-0.7l-0.8,0.8c-0.1,0.1-0.2,0-0.2-0.1l0.2-1.1l-1.1-0.1c-0.1,0-0.1-0.1-0.1-0.2l1-0.5l-0.7-1
				c-0.1-0.1,0-0.2,0.1-0.1L3.8,17l0.4-1.1C4.1,15.7,4.3,15.7,4.3,15.8z"/>
			<path class="st1" d="M17.4,8l0.2,0.5l0.5-0.2c0.1,0,0.1,0.1,0.1,0.1l-0.3,0.5l0.5,0.3c0.1,0,0,0.1,0,0.1l-0.5,0.1l0.1,0.5
				c0,0.1-0.1,0.1-0.1,0.1l-0.4-0.4L17.1,10C17,10,17,10,17,9.9l0.1-0.5l-0.5-0.1c-0.1,0-0.1-0.1,0-0.1L17,8.9l-0.5-0.5
				c0-0.1,0-0.1,0.1-0.1l0.5,0.2L17.4,8L17.4,8z"/>
			<path class="st1" d="M13.8,12.1l0.2,0.5l0.5-0.2c0.1,0,0.1,0.1,0.1,0.1L14.3,13l0.5,0.3c0.1,0,0,0.1,0,0.1l-0.5,0.1l0.1,0.5
				c0,0.1-0.1,0.1-0.1,0.1l-0.4-0.4l-0.4,0.4c-0.1,0.1-0.1,0-0.1-0.1l0.1-0.5L13,13.4c-0.1,0-0.1-0.1,0-0.1l0.5-0.3l-0.3-0.5
				c0-0.1,0-0.1,0.1-0.1l0.5,0.2l0.2-0.5C13.7,12.1,13.8,12.1,13.8,12.1z"/>
			<path class="st1" d="M20.8,10.4l0.2,0.5l0.5-0.2c0.1,0,0.1,0.1,0.1,0.1l-0.3,0.5l0.5,0.3c0.1,0,0,0.1,0,0.1l-0.5,0.1l0.1,0.5
				c0,0.1-0.1,0.1-0.1,0.1l-0.4-0.4l-0.5,0.3c-0.1,0.1-0.1,0-0.1-0.1l0.1-0.5l-0.5-0.1c-0.1,0-0.1-0.1,0-0.1l0.5-0.3L20,10.7
				c0-0.1,0-0.1,0.1-0.1l0.5,0.2l0.2-0.5C20.8,10.3,20.8,10.3,20.8,10.4z"/>
			<path class="st1" d="M17.4,17.4l0.2,0.5l0.5-0.2c0.1,0,0.1,0.1,0.1,0.1l-0.3,0.5l0.5,0.3c0.1,0,0,0.1,0,0.1l-0.5,0.1l0.1,0.5
				c0,0.1-0.1,0.1-0.1,0.1L17.5,19l-0.4,0.4c-0.1,0.1-0.1,0-0.1-0.1l0.1-0.5l-0.5-0.1c-0.1,0-0.1-0.1,0-0.1l0.5-0.3l-0.3-0.5
				c0-0.1,0-0.1,0.1-0.1l0.5,0.2l0.2-0.5C17.3,17.3,17.4,17.3,17.4,17.4z"/>
			<path class="st1" d="M18.7,13.1l-0.1,0.4h-0.4c-0.1,0-0.1,0.1-0.1,0.1l0.4,0.2l-0.1,0.4c0,0.1,0.1,0.1,0.1,0.1l0.4-0.2l0.4,0.2
				c0.1,0.1,0.1,0,0.1-0.1L19,13.8l0.4-0.2c0.1-0.1,0-0.1-0.1-0.1h-0.4L18.8,13C18.8,13,18.7,13,18.7,13.1z"/>
		</g>
	</g>
	<g>
		<path class="st3" d="M22.2,0.6c0.7,0,1.2,0.5,1.2,1.2v20.4c0,0.7-0.5,1.2-1.2,1.2H1.8c-0.7,0-1.2-0.5-1.2-1.2V1.8
			c0-0.7,0.5-1.2,1.2-1.2H22.2 M22.2,0H1.8C0.8,0,0,0.8,0,1.8v20.4c0,1,0.8,1.8,1.8,1.8h20.4c1,0,1.8-0.8,1.8-1.8V1.8
			C24,0.8,23.2,0,22.2,0L22.2,0z"/>
	</g>
</g>
</svg>
