<?xml version="1.0" encoding="utf-8"?>
<!-- Generator: Adobe Illustrator 23.0.1, SVG Export Plug-In . SVG Version: 6.00 Build 0)  -->
<svg version="1.1" id="Слой_1" xmlns="http://www.w3.org/2000/svg" xmlns:xlink="http://www.w3.org/1999/xlink" x="0px" y="0px"
	 viewBox="0 0 24 24" style="enable-background:new 0 0 24 24;" xml:space="preserve">
<style type="text/css">
	.st0{fill-rule:evenodd;clip-rule:evenodd;fill:#C43131;}
	.st1{fill-rule:evenodd;clip-rule:evenodd;fill:#EFEFEF;}
	.st2{fill:#FFFFFF;}
</style>
<title>flag</title>
<desc>Created with Sketch.</desc>
<g>
	<path class="st0" d="M24,16.2H0v5.4C0,22.9,1.1,24,2.4,24h19.2c1.3,0,2.4-1.1,2.4-2.4V16.2z"/>
	<path class="st0" d="M0,7.8h24V2.4C24,1.1,22.9,0,21.6,0H2.4C1.1,0,0,1.1,0,2.4V7.8z"/>
	<rect y="7.6" class="st1" width="24" height="9"/>
	<g>
		<path class="st2" d="M22.2,0.6c0.7,0,1.2,0.5,1.2,1.2v20.4c0,0.7-0.5,1.2-1.2,1.2H1.8c-0.7,0-1.2-0.5-1.2-1.2V1.8
			c0-0.7,0.5-1.2,1.2-1.2L22.2,0.6 M22.2,0H1.8C0.8,0,0,0.8,0,1.8v20.4c0,1,0.8,1.8,1.8,1.8h20.4c1,0,1.8-0.8,1.8-1.8V1.8
			C24,0.8,23.2,0,22.2,0L22.2,0z"/>
	</g>
</g>
</svg>
