<?xml version="1.0" encoding="UTF-8"?>
<svg width="24px" height="24px" viewBox="0 0 24 24" version="1.1" xmlns="http://www.w3.org/2000/svg" xmlns:xlink="http://www.w3.org/1999/xlink">
    <!-- Generator: Sketch 52.5 (67469) - http://www.bohemiancoding.com/sketch -->
    <title>new</title>
    <desc>Created with Sketch.</desc>
    <g id="Page-1" stroke="none" stroke-width="1" fill="none" fill-rule="evenodd">
        <g id="02---01---Каталог-(теговая-страница)_desktop" transform="translate(-452.000000, -604.000000)">
            <g id="каталог" transform="translate(432.000000, 554.000000)">
                <g id="1">
                    <g id="new" transform="translate(20.000000, 50.000000)">
                        <rect id="Rectangle" fill="#394791" x="0" y="0" width="24" height="24" rx="2"></rect>
                        <path d="M9,16 L7.61138371,16 L5.42787046,11.5240385 L5.39842983,11.5336538 L5.39842983,16 L4,16 L4,9 L5.39842983,9 L7.58194308,13.4711538 L7.61138371,13.4615385 L7.61138371,9 L9,9 L9,16 Z M13.6,12.9278846 L11.3255814,12.9278846 L11.3255814,14.9086538 L14,14.9086538 L14,16 L10,16 L10,9 L13.9906977,9 L13.9906977,10.0961538 L11.3255814,10.0961538 L11.3255814,11.8365385 L13.6,11.8365385 L13.6,12.9278846 Z M18.9581395,13.4663462 L18.9860465,13.4663462 L19.7162791,9 L21,9 L19.6930233,16 L18.4604651,16 L17.5069767,11.7115385 L17.4790698,11.7115385 L16.5348837,16 L15.3069767,16 L14,9 L15.2837209,9 L16.0139535,13.4663462 L16.0418605,13.4663462 L17.0186047,9 L17.9674419,9 L18.9581395,13.4663462 Z" id="NEW" fill="#FFFFFF"></path>
                    </g>
                </g>
            </g>
        </g>
    </g>
</svg>