<svg xmlns="http://www.w3.org/2000/svg" width="24" height="24" viewBox="0 0 24 24">
  <g fill="none" fill-rule="evenodd">
    <rect width="23" height="23" x=".5" y=".5" fill="#394791" fill-opacity=".091" stroke="#394791" rx="2"/>
    <path fill="#394791" fill-rule="nonzero" d="M8.786,17.108 L15.842,7.686 L14.932,7 L7.862,16.464 L8.786,17.108 L8.786,17.108 Z M8.758,12.026 C9.561,12.026 10.221,11.795 10.739,11.333 C11.257,10.871 11.516,10.267 11.516,9.52 C11.516,8.773 11.257,8.171 10.739,7.714 C10.221,7.257 9.561,7.028 8.758,7.028 C7.955,7.028 7.295,7.257 6.777,7.714 C6.259,8.171 6,8.774 6,9.52 C6,10.267 6.257,10.873 6.77,11.34 C7.293,11.797 7.955,12.026 8.758,12.026 Z M8.758,10.724 C8.403,10.724 8.107,10.614 7.869,10.395 C7.631,10.175 7.512,9.884 7.512,9.52 C7.512,9.165 7.631,8.878 7.869,8.659 C8.107,8.439 8.403,8.33 8.758,8.33 C9.122,8.33 9.423,8.44 9.661,8.659 C9.899,8.879 10.018,9.165 10.018,9.52 C10.018,9.884 9.901,10.176 9.668,10.395 C9.435,10.615 9.131,10.724 8.758,10.724 Z M14.946,17.094 C15.749,17.094 16.409,16.863 16.927,16.401 C17.445,15.939 17.704,15.335 17.704,14.588 C17.704,13.841 17.445,13.239 16.927,12.782 C16.409,12.325 15.749,12.096 14.946,12.096 C14.143,12.096 13.483,12.325 12.965,12.782 C12.447,13.239 12.188,13.842 12.188,14.588 C12.188,15.335 12.445,15.941 12.958,16.408 C13.481,16.865 14.143,17.094 14.946,17.094 L14.946,17.094 Z M14.946,15.792 C14.591,15.792 14.295,15.682 14.057,15.463 C13.819,15.243 13.7,14.952 13.7,14.588 C13.7,14.233 13.819,13.946 14.057,13.727 C14.295,13.507 14.591,13.398 14.946,13.398 C15.31,13.398 15.611,13.508 15.849,13.727 C16.087,13.947 16.206,14.233 16.206,14.588 C16.206,14.952 16.089,15.244 15.856,15.463 C15.623,15.683 15.319,15.792 14.946,15.792 L14.946,15.792 Z"/>
  </g>
</svg>
