<svg xmlns="http://www.w3.org/2000/svg" width="24" height="24" viewBox="0 0 24 24">
  <g fill="none" fill-rule="evenodd">
    <rect width="24" height="24" fill="#394791" rx="2"/>
    <path fill="#FFF" fill-rule="nonzero" d="M8.786,17.108 L15.842,7.686 L14.932,7 L7.862,16.464 L8.786,17.108 Z M8.758,12.026 C9.56066667,12.026 10.221,11.795 10.739,11.333 C11.257,10.871 11.516,10.2666667 11.516,9.52 C11.516,8.77333333 11.257,8.17133333 10.739,7.714 C10.221,7.25666667 9.56066667,7.028 8.758,7.028 C7.95533333,7.028 7.295,7.25666667 6.777,7.714 C6.259,8.17133333 6,8.77333333 6,9.52 C6,10.2666667 6.25666667,10.8733333 6.77,11.34 C7.29266667,11.7973333 7.95533333,12.026 8.758,12.026 Z M8.758,10.724 C8.40333333,10.724 8.107,10.6143333 7.869,10.395 C7.631,10.1756667 7.512,9.884 7.512,9.52 C7.512,9.16533333 7.631,8.87833333 7.869,8.659 C8.107,8.43966667 8.40333333,8.33 8.758,8.33 C9.122,8.33 9.423,8.43966667 9.661,8.659 C9.899,8.87833333 10.018,9.16533333 10.018,9.52 C10.018,9.884 9.90133333,10.1756667 9.668,10.395 C9.43466667,10.6143333 9.13133333,10.724 8.758,10.724 Z M14.946,17.094 C15.7486667,17.094 16.409,16.863 16.927,16.401 C17.445,15.939 17.704,15.3346667 17.704,14.588 C17.704,13.8413333 17.445,13.2393333 16.927,12.782 C16.409,12.3246667 15.7486667,12.096 14.946,12.096 C14.1433333,12.096 13.483,12.3246667 12.965,12.782 C12.447,13.2393333 12.188,13.8413333 12.188,14.588 C12.188,15.3346667 12.4446667,15.9413333 12.958,16.408 C13.4806667,16.8653333 14.1433333,17.094 14.946,17.094 Z M14.946,15.792 C14.5913333,15.792 14.295,15.6823333 14.057,15.463 C13.819,15.2436667 13.7,14.952 13.7,14.588 C13.7,14.2333333 13.819,13.9463333 14.057,13.727 C14.295,13.5076667 14.5913333,13.398 14.946,13.398 C15.31,13.398 15.611,13.5076667 15.849,13.727 C16.087,13.9463333 16.206,14.2333333 16.206,14.588 C16.206,14.952 16.0893333,15.2436667 15.856,15.463 C15.6226667,15.6823333 15.3193333,15.792 14.946,15.792 Z"/>
  </g>
</svg>
