<?xml version="1.0" encoding="utf-8"?>
<svg width="24px" height="24px" viewBox="0 0 24 24" version="1.1" xmlns:xlink="http://www.w3.org/1999/xlink" xmlns="http://www.w3.org/2000/svg">
  <desc>Created with Lunacy</desc>
  <defs>
    <path d="M1.999 0L22.001 0Q22.0992 0 22.1969 0.00962573Q22.2947 0.0192515 22.391 0.0384102Q22.4873 0.057569 22.5813 0.0860763Q22.6753 0.114584 22.766 0.152165Q22.8567 0.189746 22.9433 0.236039Q23.0299 0.282333 23.1116 0.336892Q23.1932 0.391452 23.2691 0.453752Q23.3451 0.516052 23.4145 0.585494Q23.4839 0.654935 23.5462 0.730848Q23.6085 0.806761 23.6631 0.888415Q23.7177 0.970069 23.764 1.05668Q23.8103 1.14329 23.8478 1.23402Q23.8854 1.32474 23.9139 1.41872Q23.9424 1.5127 23.9616 1.60901Q23.9807 1.70533 23.9904 1.80306Q24 1.9008 24 1.999L24 22.001Q24 22.0992 23.9904 22.1969Q23.9807 22.2947 23.9616 22.391Q23.9424 22.4873 23.9139 22.5813Q23.8854 22.6753 23.8478 22.766Q23.8103 22.8567 23.764 22.9433Q23.7177 23.0299 23.6631 23.1116Q23.6085 23.1932 23.5462 23.2691Q23.4839 23.3451 23.4145 23.4145Q23.3451 23.4839 23.2691 23.5462Q23.1932 23.6085 23.1116 23.6631Q23.0299 23.7177 22.9433 23.764Q22.8567 23.8103 22.766 23.8478Q22.6753 23.8854 22.5813 23.9139Q22.4873 23.9424 22.391 23.9616Q22.2947 23.9807 22.1969 23.9904Q22.0992 24 22.001 24L1.999 24Q1.9008 24 1.80306 23.9904Q1.70533 23.9807 1.60901 23.9616Q1.5127 23.9424 1.41872 23.9139Q1.32474 23.8854 1.23402 23.8478Q1.14329 23.8103 1.05668 23.764Q0.970069 23.7177 0.888415 23.6631Q0.806761 23.6085 0.730848 23.5462Q0.654935 23.4839 0.585494 23.4145Q0.516052 23.3451 0.453752 23.2691Q0.391452 23.1932 0.336892 23.1116Q0.282333 23.0299 0.236039 22.9433Q0.189746 22.8567 0.152165 22.766Q0.114584 22.6753 0.0860763 22.5813Q0.057569 22.4873 0.0384102 22.391Q0.0192515 22.2947 0.00962573 22.1969Q0 22.0992 0 22.001L0 1.999Q0 1.9008 0.00962573 1.80306Q0.0192515 1.70533 0.0384102 1.60901Q0.057569 1.5127 0.0860763 1.41872Q0.114584 1.32474 0.152165 1.23402Q0.189746 1.14329 0.236039 1.05668Q0.282333 0.970069 0.336892 0.888415Q0.391452 0.806761 0.453752 0.730848Q0.516052 0.654935 0.585494 0.585494Q0.654935 0.516052 0.730848 0.453752Q0.806761 0.391452 0.888415 0.336892Q0.970069 0.282333 1.05668 0.236039Q1.14329 0.189746 1.23402 0.152165Q1.32474 0.114584 1.41872 0.0860763Q1.5127 0.057569 1.60901 0.0384102Q1.70533 0.0192515 1.80306 0.00962573Q1.9008 0 1.999 0Z" id="path_1" />
    <clipPath id="clip_1">
      <use xlink:href="#path_1" />
    </clipPath>
  </defs>
  <g id="tools">
    <g id="Rectangle">
      <use stroke="none" fill="#394791" fill-opacity="0.09019608" xlink:href="#path_1" />
      <g clip-path="url(#clip_1)">
        <use xlink:href="#path_1" fill="none" stroke="#394791" stroke-width="2" />
      </g>
    </g>
    <path d="M13.2754 0.225246C13.1806 0.138682 13.0647 0.0743795 12.9584 0L12.7937 0C12.7527 0.0189664 12.7097 0.0346096 12.671 0.0573855C11.938 0.489641 11.2027 0.918329 10.4745 1.35823C10.2486 1.49467 10.2236 1.76879 10.3958 1.9684C10.4508 2.03205 10.5125 2.09 10.582 2.16187C9.66272 3.0772 8.7513 3.98472 7.85048 4.88174C8.21585 5.24423 8.59492 5.62037 8.99639 6.01869C9.90581 5.11268 10.8169 4.20494 11.7386 3.2867C11.8197 3.3694 11.8813 3.43535 11.9462 3.49808C12.1968 3.74029 12.4812 3.70658 12.6632 3.40949C13.0785 2.73156 13.4918 2.0525 13.9045 1.37304C14.0515 1.13104 14.0305 0.967258 13.8302 0.76776C13.647 0.585229 13.4665 0.399618 13.2754 0.225246ZM3.72708 0.158803C3.53012 0.0946433 3.3208 0.0682534 3.1172 0.0244795L2.6797 0.0244795C2.53311 0.0516881 2.38682 0.0809162 2.23979 0.105559C2.05615 0.136289 1.91353 0.217478 1.85471 0.405509C1.79508 0.596214 1.87891 0.738725 2.0094 0.868164C2.35174 1.20763 2.69518 1.54609 3.03238 1.89063C3.40735 2.27379 3.3744 2.82994 2.96498 3.14247C2.68074 3.35945 2.2474 3.36767 1.97762 3.1288C1.68182 2.86694 1.40917 2.57897 1.12696 2.30184C1.01985 2.19669 0.917096 2.08698 0.807338 1.9847C0.544017 1.73933 0.184639 1.84374 0.103373 2.19325C0.0584199 2.38669 0.0337832 2.58481 1.36182e-05 2.78081L1.36182e-05 3.02643C0.0184706 3.15158 0.0310214 3.27797 0.0563417 3.40173C0.272932 4.46117 0.889588 5.19163 1.89789 5.57697C2.47774 5.79859 3.07818 5.77032 3.67343 5.62655C3.79883 5.59629 3.87706 5.62093 3.9689 5.71309C5.40853 7.15793 6.85143 8.59952 8.2984 10.037C8.39564 10.1336 8.41792 10.2161 8.38588 10.3443C8.27333 10.7944 8.23694 11.2521 8.32925 11.7093C8.65324 13.3136 10.2405 14.3055 11.8294 13.9026C12.1766 13.8145 12.2816 13.4569 12.0351 13.1951C11.929 13.0825 11.816 12.9764 11.7073 12.8662C11.4325 12.5874 11.1469 12.3183 10.8875 12.026C10.6464 11.7541 10.6562 11.3262 10.8778 11.0415C11.1928 10.6368 11.7546 10.6069 12.1368 10.9808C12.4916 11.3277 12.837 11.6842 13.1925 12.0305C13.4557 12.2868 13.8229 12.178 13.9079 11.8239C14.0068 11.4122 14.0356 10.9964 13.9423 10.5808C13.6962 9.48346 13.0418 8.74602 11.9662 8.40096C11.427 8.22802 10.8783 8.26808 10.333 8.39187C10.3274 8.39315 10.3218 8.39445 10.3163 8.39573C10.2327 8.41515 10.1592 8.43224 10.076 8.34875C8.61116 6.87768 7.14185 5.41099 5.67078 3.94609C5.60196 3.87756 5.59195 3.81892 5.61716 3.73104C5.76965 3.19959 5.79191 2.66177 5.63471 2.13018C5.34353 1.14549 4.70948 0.478811 3.72708 0.158803ZM0.324139 11.3897C0.140703 11.619 0.0627797 11.8927 0 12.1724L0 12.5537C0.00912417 12.5883 0.0202093 12.6225 0.0271274 12.6576C0.107665 13.0654 0.30551 13.4038 0.637194 13.6555C1.31304 14.1684 2.20009 14.1042 2.8149 13.4922C4.08501 12.2276 5.35041 10.9584 6.6175 9.69087C6.63853 9.66984 6.65617 9.64541 6.6583 9.64291C5.88506 8.86907 5.12032 8.10378 4.35274 7.33566C4.34629 7.34168 4.32929 7.35647 4.31339 7.37238C3.04279 8.64284 1.7721 9.91317 0.502374 11.1845C0.438505 11.2485 0.380709 11.319 0.324139 11.3897ZM2.46263 12.1954C2.3673 12.2908 2.26642 12.3716 2.17833 12.3683C1.95666 12.3666 1.83284 12.2927 1.75789 12.1481C1.68293 12.0035 1.69396 11.8588 1.78861 11.7245C1.81456 11.6878 1.84679 11.655 1.87873 11.623C2.67033 10.8305 3.46272 10.0387 4.25382 9.24564C4.37998 9.11915 4.51856 9.04093 4.70379 9.09393C4.97417 9.17131 5.08796 9.48524 4.92735 9.7162C4.89913 9.75681 4.86389 9.79311 4.82875 9.82828C4.04021 10.6175 3.25106 11.406 2.46263 12.1954Z" transform="translate(4.999986 5)" id="Combined-Shape" fill="#394791" fill-rule="evenodd" stroke="none" />
  </g>
</svg>
