<?xml version="1.0" encoding="UTF-8"?>
<svg width="24px" height="24px" viewBox="0 0 24 24" version="1.1" xmlns="http://www.w3.org/2000/svg" xmlns:xlink="http://www.w3.org/1999/xlink">
    <!-- Generator: Sketch 52.5 (67469) - http://www.bohemiancoding.com/sketch -->
    <title>tools</title>
    <desc>Created with Sketch.</desc>
    <g id="Page-1" stroke="none" stroke-width="1" fill="none" fill-rule="evenodd">
        <g id="02---01---Каталог-(теговая-страница)_desktop" transform="translate(-452.000000, -664.000000)">
            <g id="каталог" transform="translate(432.000000, 554.000000)">
                <g id="1">
                    <g id="tools" transform="translate(20.000000, 110.000000)">
                        <rect id="Rectangle" fill="#394791" x="0" y="0" width="24" height="24" rx="2"></rect>
                        <g transform="translate(3.000000, 3.000000)" stroke-width="1">
                            <g>
                                <rect id="Rectangle-4" x="0" y="0" width="18" height="18"></rect>
                                <path d="M5.1171875,2.02447953 C5.32078906,2.06825341 5.53010547,2.09464327 5.7270625,2.15880312 C6.70946875,2.47881092 7.34351562,3.14548928 7.63469922,4.13018324 C7.79189844,4.66177388 7.76964062,5.19958674 7.61714453,5.73104094 C7.59193359,5.81891618 7.60194141,5.87756335 7.67076562,5.94608967 C9.14183203,7.41098635 10.6111484,8.87768421 12.0760352,10.3487485 C12.1646836,10.43777 12.2423945,10.4124444 12.3330117,10.3918674 C12.8782461,10.268078 13.4269805,10.2280156 13.9661445,10.4009552 C15.0417656,10.7460156 15.6961836,11.4834581 15.942332,12.580807 C16.0355742,12.9964133 16.0068086,13.4121559 15.9079062,13.8239142 C15.8228398,14.1779805 15.4556406,14.2868421 15.1924844,14.0304756 C14.8370156,13.6842144 14.491582,13.3277193 14.1367969,12.9807758 C13.7545586,12.606924 13.1928086,12.6368343 12.8778359,13.0414698 C12.6562148,13.3262456 12.6463984,13.7541053 12.8875156,14.0259727 C13.1468437,14.318308 13.4325312,14.5874464 13.7072812,14.8661637 C13.8159453,14.9763899 13.928957,15.0824951 14.0350508,15.1950955 C14.2816094,15.4569201 14.1765547,15.8145341 13.8293984,15.9025731 C12.2405352,16.3055439 10.6532305,15.3136452 10.3292344,13.7092943 C10.2369219,13.2520702 10.2733164,12.7944366 10.3858633,12.3443353 C10.4179102,12.2160975 10.395625,12.1335984 10.2983906,12.0370448 C8.85141406,10.5995205 7.40851172,9.15792982 5.96889062,7.71309162 C5.87704297,7.62093177 5.7988125,7.5962885 5.67341406,7.62655361 C5.07816797,7.77031969 4.47772656,7.79859259 3.897875,7.57696686 C2.88957422,7.19162573 2.27291797,6.46116959 2.05632812,5.4017271 C2.03100781,5.27796491 2.01845703,5.15158285 2,5.02642885 L2,4.78081481 C2.03376953,4.58481481 2.05840625,4.38668616 2.10335938,4.19325146 C2.184625,3.84374269 2.54400391,3.73932943 2.80732422,3.98469786 C2.91708203,4.08698246 3.01983984,4.19669006 3.12694531,4.30184016 C3.40916016,4.57897466 3.68180469,4.86694347 3.97760937,5.12879532 C4.24738281,5.36766862 4.68072656,5.35945419 4.96496484,5.14246784 C5.37438281,4.82993762 5.40733203,4.27378558 5.03236719,3.89062768 C4.69516406,3.54608577 4.35172656,3.20762963 4.00938281,2.86816374 C3.87889844,2.73872515 3.7950625,2.59621442 3.85469922,2.40550877 C3.91351562,2.21747758 4.05614062,2.1362885 4.23978125,2.10555945 C4.38680859,2.08091618 4.53309766,2.05168811 4.6796875,2.02447953 L5.1171875,2.02447953 Z" id="Fill-1" fill="#FFFFFF"></path>
                                <path d="M4.17831963,14.368335 C4.26640187,14.3716034 4.36728518,14.2907932 4.46261228,14.1953572 C5.25104913,13.4060488 6.04019413,12.617503 6.82873992,11.8282763 C6.86387477,11.7931142 6.89911856,11.7568082 6.92733538,11.7161988 C7.08794793,11.4852349 6.97415461,11.1713091 6.70377971,11.0939307 C6.51854553,11.0409289 6.37996716,11.1191516 6.25380854,11.245637 C5.46270254,12.0386768 4.67031642,12.8304637 3.87872016,13.622986 C3.84677196,13.6549887 3.8145514,13.687754 3.78859519,13.724523 C3.693949,13.8588253 3.68291829,14.0034501 3.75787263,14.1480749 C3.83282697,14.2926725 3.95664326,14.3665646 4.17831963,14.368335 Z M1.99998638,14.1723697 C2.06276609,13.8927072 2.14068919,13.6190095 2.32412577,13.3896525 C2.38069559,13.3189743 2.43849105,13.2484594 2.50236021,13.1844813 C3.77208999,11.9131719 5.04277303,10.6428429 6.31337437,9.37237773 C6.32928037,9.35647172 6.34627583,9.3416824 6.35273084,9.33566318 C7.12030467,10.1037817 7.88504593,10.8690677 8.65828491,11.6429059 C8.65616048,11.6454116 8.63851135,11.6698426 8.61748491,11.6908691 C7.35039706,12.9584199 6.08499786,14.2276322 4.81488678,15.4921598 C4.20008144,16.1042415 3.3130219,16.1684103 2.63717997,15.6554688 C2.30549613,15.4037508 2.10765154,15.0654485 2.02711375,14.6576119 C2.02019573,14.6225315 2.00911055,14.5882955 1.99998638,14.5536781 L1.99998638,14.1723697 Z" id="Fill-4" fill="#FFFFFF"></path>
                                <path d="M14.9583413,2 C15.0647061,2.07437955 15.1805409,2.13868152 15.2754046,2.22524603 C15.4664771,2.39961784 15.6469817,2.585229 15.8302312,2.76776014 C16.0304442,2.96725836 16.0514426,3.13103926 15.9044807,3.37303622 C15.4918125,4.05250273 15.0784581,4.73156398 14.6631822,5.40949048 C14.4811953,5.7065764 14.1967414,5.74029441 13.9462144,5.49808131 C13.881325,5.43534636 13.8196471,5.36939631 13.7386176,5.28669533 C12.8169352,6.2049437 11.9057932,7.11268221 10.9963805,8.01869159 C10.5949115,7.62037059 10.2158409,7.24423107 9.85046729,6.88173546 C10.7512885,5.98472295 11.6627049,5.07720059 12.5819444,4.16187012 C12.5124435,4.09000321 12.4507382,4.03205038 12.3958127,3.96839683 C12.2236252,3.76879055 12.2486038,3.49466962 12.4744816,3.35823056 C13.2027309,2.91832942 13.9379797,2.4896406 14.6710052,2.05738546 C14.7096533,2.03460959 14.7526659,2.01896638 14.7936473,2 L14.9583413,2 Z" id="Fill-7" fill="#FFFFFF"></path>
                            </g>
                        </g>
                    </g>
                </g>
            </g>
        </g>
    </g>
</svg>