<?xml version="1.0" encoding="utf-8"?>
<svg width="24px" height="24px" viewBox="0 0 24 24" version="1.1" xmlns:xlink="http://www.w3.org/1999/xlink" xmlns="http://www.w3.org/2000/svg">
  <desc>Created with Lunacy</desc>
  <defs>
    <path d="M1.999 0L22.001 0Q22.0992 0 22.1969 0.00962573Q22.2947 0.0192515 22.391 0.0384102Q22.4873 0.057569 22.5813 0.0860763Q22.6753 0.114584 22.766 0.152165Q22.8567 0.189746 22.9433 0.236039Q23.0299 0.282333 23.1116 0.336892Q23.1932 0.391452 23.2691 0.453752Q23.3451 0.516052 23.4145 0.585494Q23.4839 0.654935 23.5462 0.730848Q23.6085 0.806761 23.6631 0.888415Q23.7177 0.970069 23.764 1.05668Q23.8103 1.14329 23.8478 1.23402Q23.8854 1.32474 23.9139 1.41872Q23.9424 1.5127 23.9616 1.60901Q23.9807 1.70533 23.9904 1.80306Q24 1.9008 24 1.999L24 22.001Q24 22.0992 23.9904 22.1969Q23.9807 22.2947 23.9616 22.391Q23.9424 22.4873 23.9139 22.5813Q23.8854 22.6753 23.8478 22.766Q23.8103 22.8567 23.764 22.9433Q23.7177 23.0299 23.6631 23.1116Q23.6085 23.1932 23.5462 23.2691Q23.4839 23.3451 23.4145 23.4145Q23.3451 23.4839 23.2691 23.5462Q23.1932 23.6085 23.1116 23.6631Q23.0299 23.7177 22.9433 23.764Q22.8567 23.8103 22.766 23.8478Q22.6753 23.8854 22.5813 23.9139Q22.4873 23.9424 22.391 23.9616Q22.2947 23.9807 22.1969 23.9904Q22.0992 24 22.001 24L1.999 24Q1.9008 24 1.80306 23.9904Q1.70533 23.9807 1.60901 23.9616Q1.5127 23.9424 1.41872 23.9139Q1.32474 23.8854 1.23402 23.8478Q1.14329 23.8103 1.05668 23.764Q0.970069 23.7177 0.888415 23.6631Q0.806761 23.6085 0.730848 23.5462Q0.654935 23.4839 0.585494 23.4145Q0.516052 23.3451 0.453752 23.2691Q0.391452 23.1932 0.336892 23.1116Q0.282333 23.0299 0.236039 22.9433Q0.189746 22.8567 0.152165 22.766Q0.114584 22.6753 0.0860763 22.5813Q0.057569 22.4873 0.0384102 22.391Q0.0192515 22.2947 0.00962573 22.1969Q0 22.0992 0 22.001L0 1.999Q0 1.9008 0.00962573 1.80306Q0.0192515 1.70533 0.0384102 1.60901Q0.057569 1.5127 0.0860763 1.41872Q0.114584 1.32474 0.152165 1.23402Q0.189746 1.14329 0.236039 1.05668Q0.282333 0.970069 0.336892 0.888415Q0.391452 0.806761 0.453752 0.730848Q0.516052 0.654935 0.585494 0.585494Q0.654935 0.516052 0.730848 0.453752Q0.806761 0.391452 0.888415 0.336892Q0.970069 0.282333 1.05668 0.236039Q1.14329 0.189746 1.23402 0.152165Q1.32474 0.114584 1.41872 0.0860763Q1.5127 0.057569 1.60901 0.0384102Q1.70533 0.0192515 1.80306 0.00962573Q1.9008 0 1.999 0Z" id="path_1" />
    <clipPath id="clip_1">
      <use xlink:href="#path_1" />
    </clipPath>
  </defs>
  <g id="truck">
    <g id="Rectangle">
      <use stroke="none" fill="#394791" fill-opacity="0.09019608" xlink:href="#path_1" />
      <g clip-path="url(#clip_1)">
        <use xlink:href="#path_1" fill="none" stroke="#394791" stroke-width="2" />
      </g>
    </g>
    <path d="M0.631588 8.72223L0.631588 0.797374C0.631588 0.357006 0.976559 0 1.40215 0L9.05656 0C9.48212 0 9.82709 0.357006 9.82709 0.797374L9.82709 8.72226C9.82709 8.86905 9.71212 8.98805 9.57024 8.98805L0.888441 8.98805C0.746559 8.98805 0.631588 8.86905 0.631588 8.72223ZM18 10.0491L18 10.8555C18 11.0023 17.885 11.1213 17.7431 11.1213L15.6636 11.1213C15.5149 10.0657 14.637 9.25171 13.5765 9.25171C12.5159 9.25171 11.6379 10.0657 11.4892 11.1213L7.30179 11.1213C7.22682 10.5892 6.96729 10.1191 6.59109 9.7833L10.5615 9.7833L10.5615 2.18084C10.5615 1.88726 10.7915 1.64926 11.0752 1.64926L13.5001 1.64926C14.1828 1.64926 14.821 2.00021 15.203 2.58575L16.7662 4.98165C16.9955 5.33308 17.1181 5.74743 17.1181 6.17148L17.1181 9.7833L17.7431 9.7833C17.885 9.7833 18 9.9023 18 10.0491ZM14.1443 3.20493L15.3944 5.043C15.5141 5.2191 15.3924 5.46176 15.1844 5.46176L11.9844 5.46176C11.8426 5.46176 11.7276 5.34279 11.7276 5.19597L11.7276 3.35789C11.7276 3.2111 11.8426 3.0921 11.9844 3.0921L13.9343 3.0921C14.0179 3.0921 14.0962 3.13419 14.1443 3.20493ZM0.256853 9.7833L3.83809 9.7833C3.46188 10.1191 3.20232 10.5891 3.12738 11.1213L0.256853 11.1213C0.115 11.1213 0 11.0023 0 10.8555L0 10.0491C0 9.9023 0.115 9.7833 0.256853 9.7833ZM5.21459 13.0909C6.09721 13.0909 6.81276 12.3505 6.81276 11.4371C6.81276 10.5237 6.09721 9.78333 5.21459 9.78333C4.33197 9.78333 3.61641 10.5237 3.61641 11.4371C3.61641 12.3505 4.33197 13.0909 5.21459 13.0909ZM15.1746 11.4371C15.1746 12.3505 14.4591 13.0909 13.5765 13.0909C12.6938 13.0909 11.9783 12.3505 11.9783 11.4371C11.9783 10.5237 12.6938 9.78333 13.5765 9.78333C14.4591 9.7833 15.1746 10.5237 15.1746 11.4371ZM6.01365 11.4371C6.01365 10.9804 5.65588 10.6102 5.21456 10.6102C4.77324 10.6102 4.41544 10.9804 4.41544 11.4371C4.41544 11.8938 4.77324 12.264 5.21456 12.264C5.65588 12.264 6.01365 11.8938 6.01365 11.4371ZM13.5765 10.6102C14.0178 10.6102 14.3756 10.9804 14.3756 11.4371C14.3756 11.8938 14.0178 12.264 13.5765 12.264C13.1351 12.264 12.7774 11.8938 12.7774 11.4371C12.7774 10.9804 13.1351 10.6102 13.5765 10.6102Z" transform="translate(3 5)" id="Shape" fill="#394791" fill-rule="evenodd" stroke="none" />
  </g>
</svg>
