<?xml version="1.0" encoding="UTF-8"?>
<svg width="24px" height="24px" viewBox="0 0 24 24" version="1.1" xmlns="http://www.w3.org/2000/svg" xmlns:xlink="http://www.w3.org/1999/xlink">
    <!-- Generator: Sketch 52.5 (67469) - http://www.bohemiancoding.com/sketch -->
    <title>truck</title>
    <desc>Created with Sketch.</desc>
    <g id="Page-1" stroke="none" stroke-width="1" fill="none" fill-rule="evenodd">
        <g id="02---01---Каталог-(теговая-страница)_desktop" transform="translate(-452.000000, -634.000000)">
            <g id="каталог" transform="translate(432.000000, 554.000000)">
                <g id="1">
                    <g id="truck" transform="translate(20.000000, 80.000000)">
                        <rect id="Rectangle" fill="#394791" x="0" y="0" width="24" height="24" rx="2"></rect>
                        <g id="delivery-truck" transform="translate(3.000000, 3.000000)" stroke-width="1">
                            <g>
                                <rect id="Rectangle-4" x="0" y="0" width="18" height="18"></rect>
                                <path d="M0.631588235,10.7222306 L0.631588235,2.79737361 C0.631588235,2.3570057 0.976558824,2 1.40214706,2 L9.05655882,2 C9.48211765,2 9.82708824,2.3570057 9.82708824,2.79737361 L9.82708824,10.7222611 C9.82708824,10.8690504 9.71211765,10.9880523 9.57023529,10.9880523 L0.888441176,10.9880523 C0.746558824,10.9880523 0.631588235,10.8690504 0.631588235,10.7222306 Z M6.81276471,13.4371175 C6.81276471,14.3504799 6.09720588,15.0909091 5.21458824,15.0909091 C4.33197059,15.0909091 3.61641176,14.3504799 3.61641176,13.4371175 C3.61641176,12.5237246 4.33197059,11.7833258 5.21458824,11.7833258 C6.09720588,11.7833258 6.81276471,12.5237246 6.81276471,13.4371175 Z M6.01364706,13.4371175 C6.01364706,12.9804363 5.65588235,12.6102216 5.21455882,12.6102216 C4.77323529,12.6102216 4.41544118,12.9804363 4.41544118,13.4371175 C4.41544118,13.8937987 4.77323529,14.2640437 5.21455882,14.2640437 C5.65588235,14.2640437 6.01364706,13.8937987 6.01364706,13.4371175 Z M3.83808824,11.7832954 L0.256852941,11.7832954 C0.115,11.7832954 0,11.9022973 0,12.0490866 L0,12.855469 C0,13.0022583 0.115,13.1212602 0.256852941,13.1212602 L3.12738235,13.1212602 C3.20232353,12.58913 3.46188235,12.1190877 3.83808824,11.7832954 Z M15.1746471,13.4371175 C15.1746471,14.3504799 14.4590882,15.0909091 13.5764706,15.0909091 C12.6938235,15.0909091 11.9782941,14.3504799 11.9782941,13.4371175 C11.9782941,12.5237246 12.6938235,11.7833258 13.5764706,11.7833258 C14.4590882,11.7832954 15.1746471,12.5237246 15.1746471,13.4371175 Z M14.3755882,13.4371175 C14.3755882,12.9804363 14.0177941,12.6102216 13.5764706,12.6102216 C13.1351176,12.6102216 12.7773824,12.9804363 12.7773824,13.4371175 C12.7773824,13.8937987 13.1351471,14.2640437 13.5764706,14.2640437 C14.0177941,14.2640437 14.3755882,13.8937987 14.3755882,13.4371175 Z M18,12.0490866 L18,12.855469 C18,13.0022583 17.885,13.1212602 17.7431471,13.1212602 L15.6636176,13.1212602 C15.5148824,12.0656738 14.6369706,11.251713 13.5765294,11.251713 C12.5158824,11.251713 11.6379412,12.0657042 11.4892059,13.1212602 L7.30179412,13.1212602 C7.22682353,12.5891604 6.96729412,12.1190877 6.59108824,11.7832954 L10.5615,11.7832954 L10.5615,4.18083918 C10.5615,3.88726058 10.7915,3.64925678 11.0752059,3.64925678 L13.5000588,3.64925678 C14.1828235,3.64925678 14.8209706,4.00020586 15.203,4.58575 L16.7662353,6.98164479 C16.9955294,7.33308083 17.1180588,7.74742658 17.1180588,8.17148118 L17.1180588,11.7832954 L17.7431471,11.7832954 C17.885,11.7832954 18,11.9022973 18,12.0490866 Z M15.3943529,7.04300229 L14.1443235,5.2049251 C14.0962059,5.13419354 14.0178529,5.09210156 13.9342647,5.09210156 L11.9844118,5.09210156 C11.8425882,5.09210156 11.7275588,5.21110346 11.7275588,5.35789276 L11.7275588,7.19596995 C11.7275588,7.34278968 11.8425588,7.46176115 11.9844118,7.46176115 L15.1843529,7.46176115 C15.3924118,7.46176115 15.5141176,7.21910075 15.3943529,7.04300229 Z" id="Shape" fill="#FFFFFF" fill-rule="nonzero"></path>
                            </g>
                        </g>
                    </g>
                </g>
            </g>
        </g>
    </g>
</svg>